# 3ds Max Wavefront OBJ Exporter v0.97b - (c)2007 guruware
# File Created: 01.12.2012 13:23:20

mtllib irb_wall_256.mtl

#
# object Box001
#

v  -6.0000 0.0000 128.0000
v  -6.0000 0.0000 -128.0000
v  6.0000 0.0000 -128.0000
v  6.0000 0.0000 128.0000
v  -6.0000 192.0000 128.0000
v  6.0000 192.0000 128.0000
v  6.0000 192.0000 -128.0000
v  -6.0000 192.0000 -128.0000
# 8 vertices

vn 0.0000 -1.0000 -0.0000
vn 0.0000 1.0000 -0.0000
vn 0.0000 0.0000 1.0000
vn 1.0000 0.0000 -0.0000
vn 0.0000 0.0000 -1.0000
vn -1.0000 0.0000 -0.0000
# 6 vertex normals

vt 0.5833 -1.2778 -0.8333
vt 0.5833 2.2778 -0.8333
vt 0.4167 2.2778 -0.8333
vt 0.4167 -1.2778 -0.8333
vt 0.4167 -1.2778 1.8333
vt 0.5833 -1.2778 1.8333
vt 0.5833 2.2778 1.8333
vt 0.4167 2.2778 1.8333
vt 0.4167 -0.8333 -1.2778
vt 0.5833 -0.8333 -1.2778
vt 0.5833 1.8333 -1.2778
vt 0.4167 1.8333 -1.2778
vt -1.2778 -0.8333 0.5833
vt 2.2778 -0.8333 0.5833
vt 2.2778 1.8333 0.5833
vt -1.2778 1.8333 0.5833
vt 0.4167 -0.8333 2.2778
vt 0.5833 -0.8333 2.2778
vt 0.5833 1.8333 2.2778
vt 0.4167 1.8333 2.2778
vt -1.2778 -0.8333 0.4167
vt 2.2778 -0.8333 0.4167
vt 2.2778 1.8333 0.4167
vt -1.2778 1.8333 0.4167
# 24 texture coords

g Box001
usemtl 01___Default
s 2
f 1/1/1 2/2/1 3/3/1 
f 3/3/1 4/4/1 1/1/1 
s 4
f 5/5/2 6/6/2 7/7/2 
f 7/7/2 8/8/2 5/5/2 
s 8
f 1/9/3 4/10/3 6/11/3 
f 6/11/3 5/12/3 1/9/3 
s 16
f 4/13/4 3/14/4 7/15/4 
f 7/15/4 6/16/4 4/13/4 
s 32
f 3/17/5 2/18/5 8/19/5 
f 8/19/5 7/20/5 3/17/5 
s 64
f 2/21/6 1/22/6 5/23/6 
f 5/23/6 8/24/6 2/21/6 
# 12 faces

