# Blender 3.6.4
# www.blender.org
mtllib test4.mtl
o test4
v -8.762170 -9.179421 -8.901249
v -8.762170 -9.179420 8.901251
v -8.762170 8.901249 -8.901251
v -8.762170 8.901251 8.901249
v 9.040340 -9.179421 -8.901249
v 9.040340 -9.179420 8.901251
v 9.040340 8.901249 -8.901251
v 9.040340 8.901251 8.901249
v -8.762170 26.564699 -8.901252
v 9.040340 26.564699 -8.901252
v 9.040340 26.564699 8.901248
v -8.762170 26.564699 8.901248
v -8.762170 46.870701 -8.901254
v 9.040340 46.870701 -8.901254
v 9.040340 46.870701 8.901246
v -8.762170 46.870701 8.901246
v -37.134899 26.564699 8.901248
v -37.134899 26.564699 -8.901252
v -37.134899 46.870701 -8.901254
v -37.134899 46.870701 8.901246
v -69.958298 26.564699 8.901248
v -69.958298 26.564699 -8.901252
v -69.958298 46.870701 -8.901254
v -69.958298 46.870701 8.901246
vn -0.0000 -0.0000 -1.0000
vn -0.0000 -0.0000 1.0000
vn -1.0000 -0.0000 -0.0000
vn 1.0000 -0.0000 -0.0000
vn -0.0000 -1.0000 -0.0000
vn -0.0000 1.0000 -0.0000
vt 0.179638 0.660206
vt 0.289112 0.660206
vt 0.289112 0.550731
vt 0.179638 0.550731
vt 1.000000 0.000000
vt 1.000000 1.000000
vt 0.000000 1.000000
vt 0.000000 0.000000
vt 0.379988 0.458507
vt 0.405375 0.483894
vt 0.380378 0.508891
vt 0.354991 0.483504
vt 0.043096 0.086273
vt 0.033539 0.095831
vt 0.023832 0.086124
vt 0.033390 0.076567
vt 0.430176 0.508696
vt 0.405180 0.533692
vt 0.179089 0.838911
vt 0.179089 0.731402
vt 0.285758 0.731402
vt 0.285758 0.838911
vt 0.052579 0.095756
vt 0.043022 0.105314
vt 0.585555 0.893365
vt 0.585555 0.790228
vt 0.687886 0.790228
vt 0.687886 0.893365
vt 0.286526 0.664239
vt 0.180052 0.664239
vt 0.180052 0.542792
vt 0.286526 0.542792
vt 0.063480 0.106658
vt 0.053923 0.116215
vt 0.958861 0.457396
vt 0.800687 0.457396
vt 0.800687 0.276979
vt 0.958861 0.276979
vt 0.063480 0.125772
vt 0.073038 0.116215
vt 0.102002 0.498707
vt 0.019984 0.498707
vt 0.019984 0.384106
vt 0.102002 0.384106
vt 0.470015 0.548534
vt 0.445018 0.573531
vt 0.951258 0.926349
vt 0.877758 0.926349
vt 0.877758 0.823651
vt 0.951258 0.823651
vt 0.088270 0.131447
vt 0.078713 0.141005
vt 0.671181 0.396732
vt 0.595960 0.396732
vt 0.595960 0.275143
vt 0.671181 0.275143
vt 0.516102 0.594622
vt 0.491106 0.619618
vt 0.279898 0.679327
vt 0.198181 0.679327
vt 0.198181 0.547235
vt 0.279898 0.547235
vt 0.105891 0.149069
vt 0.096334 0.158626
vt 0.116793 0.159970
vt 0.107235 0.169527
s 0
usemtl material01
f 3/1/1 7/2/1 5/3/1 1/4/1
f 6/5/2 8/6/2 4/7/2 2/8/2
f 2/9/3 4/10/3 3/11/3 1/12/3
f 7/13/4 8/14/4 6/15/4 5/16/4
f 5/5/5 6/5/5 2/8/5 1/8/5
f 12/17/3 9/18/3 3/11/3 4/10/3
f 9/19/1 10/20/1 7/21/1 3/22/1
f 10/23/4 11/24/4 8/14/4 7/13/4
f 11/25/2 12/26/2 4/27/2 8/28/2
f 13/29/1 14/30/1 10/31/1 9/32/1
f 14/33/4 15/34/4 11/24/4 10/23/4
f 15/35/2 16/36/2 12/37/2 11/38/2
f 16/39/6 15/34/6 14/33/6 13/40/6
f 20/41/2 17/42/2 12/43/2 16/44/2
f 17/45/5 18/46/5 9/18/5 12/17/5
f 18/47/1 19/48/1 13/49/1 9/50/1
f 19/51/6 20/52/6 16/39/6 13/40/6
f 24/53/2 21/54/2 17/55/2 20/56/2
f 21/57/5 22/58/5 18/46/5 17/45/5
f 22/59/1 23/60/1 19/61/1 18/62/1
f 23/63/6 24/64/6 20/52/6 19/51/6
f 24/64/3 23/63/3 22/65/3 21/66/3
