# 3ds Max Wavefront OBJ Exporter v0.97b - (c)2007 guruware
# File Created: 11.08.2013 00:06:23

mtllib Irb_CryptCorner.mtl

#
# object Reference
#

v  -512.0000 0.0000 512.0000
v  -512.0000 0.0000 -512.0000
v  512.0000 0.0000 -512.0000
v  512.0000 0.0000 512.0000
# 4 vertices

vn 0.0000 -1.0000 -0.0000
# 1 vertex normals

vt 0.0000 0.0000 0.0000
vt 0.0000 1.0000 0.0000
vt 1.0000 1.0000 0.0000
vt 1.0000 0.0000 0.0000
# 4 texture coords

g Reference
usemtl 08___Default
s 1
f 1/1/1 2/2/1 3/3/1 
f 3/3/1 4/4/1 1/1/1 
# 2 faces

#
# object Crypt
#

v  -256.0000 -16.0000 262.6616
v  -254.9605 203.3459 256.0000
v  -512.3513 203.4996 256.0000
v  -512.3513 -16.0000 256.0000
v  -512.0498 -16.0000 187.4388
v  -512.0498 0.0000 187.4388
v  -512.0498 0.0000 -187.4388
v  -512.0498 -16.0000 -187.4388
v  -187.4204 203.1217 187.1075
v  -314.9291 203.1217 187.4388
v  -512.0498 203.1217 187.4388
v  -512.0498 203.1217 -256.0000
v  -512.0498 -16.0000 -256.0000
v  -512.0498 203.1217 -187.4388
v  176.2505 8.0000 -176.0000
v  176.2690 192.0000 -176.0000
v  -304.9672 192.0000 -176.0000
v  -304.9672 8.0000 -176.0000
v  -187.4204 0.0000 187.1075
v  187.2269 0.0000 -187.4388
v  -313.5812 0.0000 -187.4388
v  -314.9291 0.0000 187.4388
v  -175.9816 192.0000 176.6078
v  -175.9816 8.0000 176.6078
v  -304.3207 8.0000 176.0000
v  -304.3207 192.0000 176.0000
v  -484.9054 144.5459 -231.0948
v  -484.9054 24.0000 -248.0000
v  -342.1526 24.0000 -248.0000
v  -342.1038 144.5459 -231.0948
v  -479.3727 32.0000 248.0000
v  -484.9054 144.5459 231.0948
v  -342.0735 144.5459 231.0948
v  -336.5407 32.0000 248.0000
v  -313.6064 203.1217 -187.4388
v  -504.7333 192.0000 -176.0000
v  -322.2456 192.0000 -176.0000
v  -504.7333 8.0000 -176.0000
v  -322.3365 8.0000 -176.0000
v  -498.8396 8.0000 176.0000
v  -316.3519 8.0000 176.0000
v  -498.8396 192.0000 176.0000
v  -316.3519 192.0000 176.0000
v  -484.9054 176.0000 -176.0000
v  -342.0852 176.0000 -176.0000
v  -484.9054 24.0000 -176.0000
v  -342.1526 24.0000 -176.0000
v  -479.3727 32.0000 176.0000
v  -336.5407 32.0000 176.0000
v  -479.3727 176.0000 176.0000
v  -336.5407 176.0000 176.0000
v  -484.9054 175.9774 -192.5664
v  -342.0852 175.9774 -192.5664
v  -484.9054 162.0078 -223.9501
v  -484.9054 172.4850 -211.1074
v  -342.0873 172.4850 -211.1074
v  -342.0935 162.0078 -223.9501
v  -484.9054 175.9774 192.5664
v  -484.9054 172.4850 211.1074
v  -484.9054 162.0078 223.9501
v  -342.0735 175.9774 192.5664
v  -342.0735 162.0078 223.9501
v  -342.0735 172.4850 211.1074
v  -256.0000 -16.0000 512.0000
v  -256.0000 203.1217 512.0000
v  187.4388 -16.0000 511.8126
v  187.4388 0.0000 511.8126
v  -187.4389 0.0000 511.8126
v  -187.4389 -16.0000 511.8126
v  256.0000 203.1217 511.8126
v  256.1382 203.1217 -255.5972
v  187.2471 203.1217 -187.4388
v  187.4388 203.1217 300.2541
v  187.4388 203.1217 511.8126
v  256.0000 -16.0000 511.8126
v  -187.4389 203.1217 511.8126
v  176.0000 8.0000 294.1813
v  176.0000 192.0000 294.1813
v  -187.4389 0.0000 300.2541
v  187.4388 0.0000 300.2541
v  -176.0000 192.0000 291.6654
v  -176.0000 8.0000 291.6654
v  248.0000 24.0000 484.6682
v  231.0947 144.5459 484.6682
v  231.0947 144.5459 327.3985
v  248.0000 24.0000 327.3985
v  -231.0948 144.5459 484.6682
v  -248.0000 32.0000 490.2009
v  -248.0000 32.0000 332.9312
v  -231.0948 144.5459 327.3985
v  -187.4389 203.1217 300.2541
v  176.0000 8.0000 504.4961
v  176.0000 8.0000 307.5706
v  176.0000 192.0000 504.4960
v  176.0000 192.0000 307.5706
v  -176.0000 192.0000 510.3897
v  -176.0000 192.0000 313.4643
v  -176.0000 8.0000 510.3897
v  -176.0000 8.0000 313.4643
v  176.0000 24.0000 484.6682
v  176.0000 24.0000 327.3985
v  176.0000 176.0000 484.6682
v  176.0000 176.0000 327.3985
v  -176.0000 176.0000 490.2009
v  -176.0000 176.0000 332.9312
v  -176.0000 32.0000 490.2009
v  -176.0000 32.0000 332.9312
v  192.5664 175.9774 484.6682
v  211.1073 172.4850 484.6682
v  223.9501 162.0078 484.6682
v  192.5664 175.9774 327.3985
v  223.9501 162.0078 327.3985
v  211.1073 172.4850 327.3985
v  -192.5664 175.9774 484.6682
v  -192.5664 175.9774 327.3985
v  -223.9501 162.0078 484.6682
v  -211.1074 172.4850 484.6682
v  -211.1074 172.4850 327.3985
v  -223.9501 162.0078 327.3985
v  256.2545 -16.0000 -256.0000
# 120 vertices

vn -0.7177 0.0135 0.6962
vn -0.7023 0.0249 0.7115
vn -0.0143 0.0137 0.9998
vn -0.0260 0.0000 0.9997
vn -1.0000 0.0000 -0.0022
vn -1.0000 0.0000 -0.0029
vn -1.0000 0.0000 -0.0000
vn 0.0001 1.0000 -0.0051
vn 0.0018 1.0000 -0.0013
vn 0.0019 1.0000 -0.0017
vn -0.0000 1.0000 -0.0055
vn 0.0000 1.0000 -0.0055
vn -1.0000 0.0000 -0.0044
vn 0.0000 -0.0000 1.0000
vn 0.0000 1.0000 0.0000
vn 0.0047 0.0000 -1.0000
vn 0.0000 -0.1389 0.9903
vn 0.0000 -0.1485 -0.9889
vn 0.0000 -0.8195 0.5731
vn -0.0000 -0.8195 0.5731
vn -0.7988 -0.0001 0.6016
vn -0.7980 -0.0000 0.6027
vn 0.0034 0.6883 -0.7254
vn -0.0018 0.7161 -0.6980
vn -0.7332 0.0000 -0.6800
vn 0.0000 0.7170 0.6971
vn -0.8424 0.0000 0.5388
vn -0.8424 -0.0000 0.5388
vn 0.7979 0.0001 0.6027
vn 0.7940 -0.0004 0.6080
vn 0.0000 -0.8195 -0.5731
vn -0.6546 0.0000 -0.7560
vn 0.0000 0.7170 -0.6971
vn 0.9924 0.0000 -0.1234
vn 0.0000 0.0000 1.0000
vn -0.0000 -0.0000 1.0000
vn 0.0000 -0.0000 -1.0000
vn 0.0000 0.0000 -1.0000
vn -0.0000 0.0000 -1.0000
vn 0.0000 -1.0000 0.0014
vn 1.0000 0.0000 -0.0000
vn -1.0000 0.0006 -0.0000
vn -1.0000 0.0004 0.0001
vn -1.0000 0.0004 0.0000
vn 0.4821 0.8610 0.1622
vn 0.9619 0.2118 0.1728
vn 0.9901 0.0531 0.1297
vn 0.9950 0.0000 0.0999
vn 0.9988 0.0491 0.0000
vn 0.0000 -1.0000 -0.0014
vn -1.0000 -0.0000 -0.0000
vn -0.9796 -0.0761 -0.1860
vn -0.9979 -0.0500 -0.0408
vn -0.9991 -0.0414 -0.0078
vn -0.9367 -0.1565 -0.3131
vn 0.0000 -0.3787 0.9255
vn 0.0000 -0.3787 -0.9255
vn 0.0000 -0.7749 0.6321
vn 0.0000 -0.9827 0.1851
vn 0.0000 -0.7749 -0.6321
vn 0.0000 -0.9827 -0.1851
vn -1.0000 0.0021 -0.0019
vn 0.0018 0.0000 1.0000
vn 0.0014 0.0000 1.0000
vn 0.0000 1.0000 -0.0000
vn 0.0027 0.0000 1.0000
vn -1.0000 -0.0000 -0.0006
vn -1.0000 0.0001 -0.0005
vn -0.0000 1.0000 -0.0000
vn 1.0000 0.0000 0.0002
vn -0.9903 -0.1389 -0.0000
vn 0.9889 -0.1485 -0.0000
vn -0.5732 -0.8194 0.0002
vn -0.5892 -0.8080 -0.0003
vn -0.4689 0.0000 0.8832
vn -0.4689 -0.0000 0.8832
vn -0.7115 0.7026 0.0003
vn -0.6970 0.7171 -0.0004
vn 0.6971 0.7169 0.0001
vn 0.6972 0.7169 0.0001
vn 0.6004 0.0000 0.7997
vn 0.5732 -0.8194 0.0001
vn -0.5731 -0.8195 -0.0000
vn -0.5388 0.0000 0.8424
vn -0.6971 0.7170 -0.0000
vn -0.5388 0.0000 -0.8424
vn -0.5388 -0.0000 -0.8424
vn 0.6971 0.7170 -0.0000
vn 0.1234 0.0000 0.9924
vn 0.1234 -0.0000 0.9924
vn 0.5731 -0.8195 -0.0000
vn 0.7560 0.0000 -0.6546
vn -1.0000 -0.0000 0.0000
vn 1.0000 -0.0000 0.0000
vn 1.0000 -0.0000 -0.0000
vn -0.0000 -0.0000 -1.0000
vn -0.0014 -1.0000 -0.0000
vn 0.0014 -1.0000 -0.0000
vn 0.1860 -0.0761 -0.9796
vn 0.0408 -0.0500 -0.9979
vn 0.0078 -0.0414 -0.9991
vn 0.3131 -0.1565 -0.9367
vn -0.1622 0.8610 0.4821
vn -0.1728 0.2118 0.9619
vn -0.1297 0.0531 0.9901
vn -0.0999 0.0000 0.9950
vn -0.0000 0.0491 0.9988
vn -0.9255 -0.3787 -0.0000
vn 0.9255 -0.3787 -0.0000
vn -0.6321 -0.7749 -0.0000
vn -0.1851 -0.9827 -0.0000
vn 0.6321 -0.7749 -0.0000
vn 0.1851 -0.9827 -0.0000
vn 0.0004 0.0003 -1.0000
vn 0.0005 0.0000 -1.0000
vn 0.0001 0.0015 -1.0000
vn 0.0000 0.0018 -1.0000
vn -0.0015 -0.8188 -0.5740
vn 0.0029 -0.7969 -0.6041
vn 0.0000 1.0000 0.0009
vn 0.0005 1.0000 0.0007
vn 0.0033 1.0000 0.0000
vn 0.0000 -1.0000 0.0000
vn -0.0000 -1.0000 -0.0000
vn 0.0000 -1.0000 -0.0000
vn 1.0000 0.0005 0.0003
# 126 vertex normals

vt 0.6783 0.2374 0.0000
vt 0.7910 0.2369 0.0000
vt 0.7910 0.3691 0.0000
vt 0.6783 0.3691 0.0000
vt 0.2918 0.5981 0.0000
vt 0.3000 0.5981 0.0000
vt 0.3000 0.7906 0.0000
vt 0.2918 0.7906 0.0000
vt 0.8534 0.0100 0.0000
vt 0.8554 0.1422 0.0000
vt 0.8205 0.1774 0.0000
vt 0.8197 0.1119 0.0000
vt 0.8182 0.0107 0.0000
vt 0.2918 0.5629 0.0000
vt 0.4045 0.5629 0.0000
vt 0.4043 0.5981 0.0000
vt 0.4043 0.8258 0.0000
vt 0.2918 0.8258 0.0000
vt 0.4043 0.7906 0.0000
vt 0.4373 0.6714 0.0000
vt 0.4373 0.5769 0.0000
vt 0.6844 0.5769 0.0000
vt 0.6844 0.6714 0.0000
vt 0.6243 0.2023 0.0000
vt 0.4319 0.0100 0.0000
vt 0.6891 0.0100 0.0000
vt 0.6898 0.2025 0.0000
vt 0.3988 0.5538 0.0000
vt 0.3043 0.5538 0.0000
vt 0.3043 0.4879 0.0000
vt 0.3988 0.4879 0.0000
vt 0.1611 0.8258 0.0000
vt 0.0992 0.8258 0.0000
vt 0.0992 0.7525 0.0000
vt 0.1611 0.7525 0.0000
vt 0.7910 0.0100 0.0000
vt 0.7910 0.2025 0.0000
vt 0.2094 0.5538 0.0000
vt 0.2065 0.4960 0.0000
vt 0.2799 0.4960 0.0000
vt 0.2827 0.5538 0.0000
vt 0.4316 0.6755 0.0000
vt 0.6888 0.6755 0.0000
vt 0.6888 0.5712 0.0000
vt 0.4045 0.5480 0.0000
vt 0.4045 0.4825 0.0000
vt 0.3002 0.4825 0.0000
vt 0.7907 0.5712 0.0000
vt 0.7870 0.5769 0.0000
vt 0.6933 0.5769 0.0000
vt 0.3041 0.7847 0.0000
vt 0.3986 0.7847 0.0000
vt 0.7907 0.6755 0.0000
vt 0.6933 0.6714 0.0000
vt 0.7870 0.6714 0.0000
vt 0.8829 0.1297 0.0000
vt 0.8829 0.0285 0.0000
vt 0.8871 0.0353 0.0000
vt 0.8871 0.1290 0.0000
vt 0.3986 0.6040 0.0000
vt 0.3041 0.6040 0.0000
vt 0.9872 0.0285 0.0000
vt 0.9872 0.1297 0.0000
vt 0.9815 0.1290 0.0000
vt 0.9815 0.0353 0.0000
vt 0.9872 0.0195 0.0000
vt 0.8829 0.0195 0.0000
vt 0.8871 0.0136 0.0000
vt 0.9815 0.0136 0.0000
vt 0.7768 0.5851 0.0000
vt 0.7034 0.5851 0.0000
vt 0.7768 0.6632 0.0000
vt 0.7035 0.6632 0.0000
vt 0.8994 0.0453 0.0000
vt 0.8994 0.1186 0.0000
vt 0.9733 0.0453 0.0000
vt 0.9733 0.1186 0.0000
vt 0.7004 0.9073 0.0000
vt 0.7737 0.9073 0.0000
vt 0.7737 0.9158 0.0000
vt 0.7004 0.9158 0.0000
vt 0.8962 0.2415 0.0000
vt 0.8182 0.2415 0.0000
vt 0.8182 0.2045 0.0000
vt 0.8801 0.2132 0.0000
vt 0.8891 0.2169 0.0000
vt 0.8944 0.2235 0.0000
vt 0.8962 0.2330 0.0000
vt 0.8915 0.3878 0.0000
vt 0.8182 0.3878 0.0000
vt 0.8182 0.3509 0.0000
vt 0.8915 0.3509 0.0000
vt 0.4047 0.0430 0.0000
vt 0.4047 0.0515 0.0000
vt 0.4029 0.0610 0.0000
vt 0.3975 0.0676 0.0000
vt 0.3885 0.0713 0.0000
vt 0.3266 0.0430 0.0000
vt 0.3266 0.0800 0.0000
vt 0.8533 0.5047 0.0000
vt 0.9267 0.5047 0.0000
vt 0.9267 0.5417 0.0000
vt 0.8533 0.5417 0.0000
vt 0.7743 0.8341 0.0000
vt 0.7743 0.8426 0.0000
vt 0.7725 0.8521 0.0000
vt 0.7671 0.8587 0.0000
vt 0.7582 0.8624 0.0000
vt 0.7004 0.8341 0.0000
vt 0.7004 0.8711 0.0000
vt 0.8912 0.8041 0.0000
vt 0.8178 0.8041 0.0000
vt 0.8207 0.7956 0.0000
vt 0.8940 0.7956 0.0000
vt 0.6642 0.8711 0.0000
vt 0.5902 0.8711 0.0000
vt 0.5902 0.8341 0.0000
vt 0.6480 0.8428 0.0000
vt 0.6570 0.8465 0.0000
vt 0.6624 0.8531 0.0000
vt 0.6642 0.8626 0.0000
vt 0.7737 0.9319 0.0000
vt 0.7737 0.9356 0.0000
vt 0.7004 0.9356 0.0000
vt 0.7004 0.9319 0.0000
vt 0.8207 0.7795 0.0000
vt 0.8207 0.7758 0.0000
vt 0.8940 0.7758 0.0000
vt 0.8940 0.7795 0.0000
vt 0.7737 0.9253 0.0000
vt 0.7004 0.9253 0.0000
vt 0.8207 0.7861 0.0000
vt 0.8940 0.7861 0.0000
vt 0.5597 0.9467 0.0000
vt 0.4316 0.9467 0.0000
vt 0.4316 0.8342 0.0000
vt 0.5631 0.8341 0.0000
vt 0.1702 0.5981 0.0000
vt 0.1784 0.5981 0.0000
vt 0.1784 0.7906 0.0000
vt 0.1702 0.7906 0.0000
vt 0.0101 0.8258 0.0000
vt 0.0100 0.4317 0.0000
vt 0.0454 0.4667 0.0000
vt 0.0453 0.7172 0.0000
vt 0.0453 0.8258 0.0000
vt 0.1702 0.5629 0.0000
vt 0.2827 0.5629 0.0000
vt 0.2827 0.5981 0.0000
vt 0.2827 0.8258 0.0000
vt 0.1702 0.8258 0.0000
vt 0.2827 0.7906 0.0000
vt 0.5434 0.8029 0.0000
vt 0.5434 0.7084 0.0000
vt 0.7848 0.7084 0.0000
vt 0.7848 0.8029 0.0000
vt 0.6243 0.2604 0.0000
vt 0.4318 0.2604 0.0000
vt 0.8770 0.5769 0.0000
vt 0.8770 0.6714 0.0000
vt 0.8179 0.6714 0.0000
vt 0.8179 0.5769 0.0000
vt 0.1933 0.6934 0.0000
vt 0.2552 0.6934 0.0000
vt 0.2552 0.7741 0.0000
vt 0.1933 0.7741 0.0000
vt 0.6243 0.3691 0.0000
vt 0.4318 0.3691 0.0000
vt 0.3739 0.7686 0.0000
vt 0.3161 0.7714 0.0000
vt 0.3161 0.6907 0.0000
vt 0.3739 0.6878 0.0000
vt 0.7907 0.8070 0.0000
vt 0.5403 0.8070 0.0000
vt 0.5403 0.7027 0.0000
vt 0.7907 0.7027 0.0000
vt 0.8233 0.5712 0.0000
vt 0.8814 0.5712 0.0000
vt 0.8814 0.6755 0.0000
vt 0.8233 0.6755 0.0000
vt 0.4316 0.8070 0.0000
vt 0.4354 0.8029 0.0000
vt 0.5365 0.8029 0.0000
vt 0.4316 0.7027 0.0000
vt 0.4354 0.7084 0.0000
vt 0.5365 0.7084 0.0000
vt 0.9900 0.5712 0.0000
vt 0.9893 0.5769 0.0000
vt 0.8881 0.5769 0.0000
vt 0.1825 0.7847 0.0000
vt 0.2770 0.7847 0.0000
vt 0.9900 0.6755 0.0000
vt 0.8881 0.6714 0.0000
vt 0.9893 0.6714 0.0000
vt 0.4456 0.7946 0.0000
vt 0.5263 0.7946 0.0000
vt 0.4456 0.7166 0.0000
vt 0.5263 0.7166 0.0000
vt 0.9789 0.5851 0.0000
vt 0.8981 0.5851 0.0000
vt 0.9789 0.6591 0.0000
vt 0.8981 0.6591 0.0000
vt 0.1611 0.7434 0.0000
vt 0.0804 0.7434 0.0000
vt 0.0804 0.7065 0.0000
vt 0.1611 0.7065 0.0000
vt 0.9314 0.4315 0.0000
vt 0.9313 0.4400 0.0000
vt 0.9296 0.4496 0.0000
vt 0.9242 0.4561 0.0000
vt 0.9152 0.4598 0.0000
vt 0.8533 0.4315 0.0000
vt 0.8533 0.4685 0.0000
vt 0.8913 0.8624 0.0000
vt 0.8105 0.8624 0.0000
vt 0.8105 0.8539 0.0000
vt 0.8913 0.8539 0.0000
vt 0.8959 0.7396 0.0000
vt 0.8178 0.7396 0.0000
vt 0.8178 0.7027 0.0000
vt 0.8797 0.7113 0.0000
vt 0.8887 0.7150 0.0000
vt 0.8941 0.7216 0.0000
vt 0.8959 0.7311 0.0000
vt 0.6410 0.3662 0.0000
vt 0.6410 0.2855 0.0000
vt 0.6495 0.2883 0.0000
vt 0.6495 0.3691 0.0000
vt 0.8921 0.3147 0.0000
vt 0.8182 0.3147 0.0000
vt 0.8182 0.2777 0.0000
vt 0.8760 0.2864 0.0000
vt 0.8849 0.2900 0.0000
vt 0.8903 0.2966 0.0000
vt 0.8921 0.3062 0.0000
vt 0.3239 0.0890 0.0000
vt 0.4047 0.0890 0.0000
vt 0.4047 0.1260 0.0000
vt 0.3239 0.1260 0.0000
vt 0.6642 0.9073 0.0000
vt 0.6642 0.9158 0.0000
vt 0.6624 0.9253 0.0000
vt 0.6570 0.9319 0.0000
vt 0.6480 0.9356 0.0000
vt 0.5902 0.9073 0.0000
vt 0.5902 0.9443 0.0000
vt 0.8105 0.8378 0.0000
vt 0.8105 0.8341 0.0000
vt 0.8913 0.8341 0.0000
vt 0.8913 0.8378 0.0000
vt 0.6656 0.2883 0.0000
vt 0.6693 0.2883 0.0000
vt 0.6693 0.3691 0.0000
vt 0.6656 0.3691 0.0000
vt 0.8105 0.8444 0.0000
vt 0.8913 0.8444 0.0000
vt 0.6590 0.2883 0.0000
vt 0.6590 0.3691 0.0000
vt 0.4316 0.5440 0.0000
vt 0.4316 0.4315 0.0000
vt 0.8261 0.4315 0.0000
vt 0.8262 0.5440 0.0000
vt 0.4045 0.4315 0.0000
vt 0.4045 0.4667 0.0000
vt 0.3026 0.4667 0.0000
vt 0.4316 0.5712 0.0000
vt 0.3002 0.5480 0.0000
vt 0.9868 0.1396 0.0000
vt 0.9872 0.1748 0.0000
vt 0.8786 0.1765 0.0000
vt 0.4045 0.3692 0.0000
vt 0.4045 0.4044 0.0000
vt 0.0100 0.4044 0.0000
vt 0.4045 0.1767 0.0000
vt 0.2730 0.1380 0.0000
vt 0.4047 0.1415 0.0000
vt 0.0102 0.8530 0.0000
vt 0.4043 0.8530 0.0000
vt 0.4043 0.9655 0.0000
vt 0.0100 0.9655 0.0000
vt 0.0101 0.0101 0.0000
vt 0.0453 0.0101 0.0000
vt 0.2378 0.0101 0.0000
vt 0.2730 0.0100 0.0000
# 284 texture coords

g Crypt
usemtl CryptCorridor
s 8
f 5/5/2 6/6/3 7/7/4 
f 7/7/4 8/8/5 5/5/2 
s 64
f 9/9/6 10/10/7 11/11/8 
f 11/11/8 12/12/8 9/9/6 
s 4
f 7/13/9 6/14/10 13/15/11 
f 7/13/9 13/15/11 14/16/12 
f 15/17/13 7/13/9 14/16/12 
s 64
f 8/18/14 7/19/14 15/20/14 
f 8/18/14 15/20/14 10/10/7 
f 9/9/6 8/18/14 10/10/7 
f 16/21/8 17/22/8 12/12/8 
f 16/21/8 12/12/8 11/11/8 
f 18/23/8 16/21/8 11/11/8 
s off
f 19/24/15 20/25/15 21/26/15 
f 21/26/15 22/27/15 19/24/15 
f 23/28/16 24/29/16 25/30/16 
f 25/30/16 26/31/16 23/28/16 
f 27/32/17 28/33/17 29/34/17 
f 29/34/17 30/35/17 27/32/17 
f 31/36/18 32/37/18 33/38/18 
f 33/38/18 34/39/18 31/36/18 
f 11/40/16 10/41/16 26/31/16 
f 26/31/16 25/30/16 11/40/16 
f 35/42/19 36/43/19 37/44/19 
f 37/44/19 38/45/19 35/42/19 
f 24/46/20 19/24/20 22/27/20 
f 22/27/21 25/47/21 24/46/21 
f 39/48/22 25/47/22 22/27/22 
f 22/27/23 21/26/23 39/48/23 
f 13/49/24 27/32/24 30/35/24 
f 30/35/25 14/50/25 13/49/25 
f 26/51/26 14/50/26 30/35/26 
f 30/35/26 29/34/26 26/51/26 
f 39/48/27 18/52/27 40/53/27 
f 40/53/27 41/54/27 39/48/27 
f 18/23/28 11/11/28 42/55/28 
f 42/55/29 40/56/29 18/23/29 
f 11/57/21 25/47/21 43/58/21 
f 43/58/20 42/59/20 11/57/20 
f 25/47/30 39/48/30 41/54/30 
f 41/54/31 43/58/31 25/47/31 
f 26/60/32 10/61/32 44/62/32 
f 44/62/32 45/63/32 26/60/32 
f 10/10/33 15/20/33 46/64/33 
f 46/64/33 44/65/33 10/10/33 
f 15/66/34 14/67/34 47/68/34 
f 47/68/34 46/69/34 15/66/34 
f 14/70/35 26/71/35 45/72/35 
f 45/72/35 47/73/35 14/70/35 
f 41/54/36 40/53/36 48/74/36 
f 48/74/36 49/75/36 41/54/36 
f 40/53/15 42/59/15 50/76/15 
f 50/76/37 48/74/37 40/53/37 
f 42/59/36 43/58/36 51/77/36 
f 51/77/36 50/76/36 42/59/36 
f 43/58/15 41/54/15 49/75/15 
f 49/75/37 51/77/37 43/58/37 
f 45/63/38 44/62/38 52/78/38 
f 52/78/38 53/79/38 45/63/38 
f 44/62/39 46/69/39 54/80/39 
f 54/80/40 52/78/40 44/62/40 
f 46/69/39 47/68/39 55/81/39 
f 55/81/39 54/80/39 46/69/39 
f 47/68/39 45/63/39 53/79/39 
f 53/79/40 55/81/40 47/68/40 
f 49/82/41 48/83/41 56/84/41 
f 56/84/41 57/85/41 49/82/41 
f 48/86/42 50/87/42 32/88/42 
f 32/88/42 31/89/42 58/90/42 
f 32/88/42 58/90/42 59/91/42 
f 32/88/42 59/91/42 56/92/42 
f 48/86/42 32/88/42 56/92/42 
f 50/93/16 51/94/16 33/95/16 
f 33/95/16 32/96/16 50/93/16 
f 49/97/43 57/98/43 60/99/43 
f 49/97/43 60/99/43 61/100/43 
f 49/97/43 61/100/43 34/101/43 
f 51/102/44 49/97/44 34/101/44 
f 51/102/45 34/101/45 33/103/45 
f 53/104/16 52/105/16 35/106/16 
f 35/106/16 38/107/16 53/104/16 
f 54/108/46 62/109/46 63/110/46 
f 54/108/47 63/110/47 64/111/47 
f 54/108/48 64/111/48 36/112/48 
f 52/113/49 54/108/49 36/112/49 
f 52/113/50 36/112/50 35/114/50 
f 54/115/51 55/116/51 65/117/51 
f 65/117/51 62/118/51 54/115/51 
f 55/119/52 53/120/52 38/121/52 
f 38/121/53 37/122/53 66/123/53 
f 38/121/54 66/123/54 67/124/54 
f 38/121/55 67/124/55 65/125/55 
f 55/119/56 38/121/56 65/125/56 
f 58/126/57 31/127/57 34/128/57 
f 34/128/57 61/129/57 58/126/57 
f 66/130/58 37/131/58 36/132/58 
f 36/132/58 64/133/58 66/130/58 
f 59/134/59 58/126/59 61/129/59 
f 61/129/59 60/135/59 59/134/59 
f 56/84/60 59/134/60 60/135/60 
f 60/135/60 57/85/60 56/84/60 
f 67/136/61 66/130/61 64/133/61 
f 64/133/61 63/137/61 67/136/61 
f 65/117/62 67/136/62 63/137/62 
f 63/137/62 62/118/62 65/117/62 
s 8
f 5/138/2 68/139/8 69/140/63 
f 69/140/63 6/141/3 5/138/2 
s 16
f 70/142/36 71/143/36 72/144/64 
f 72/144/64 73/145/65 70/142/36 
s 4
f 74/146/66 75/147/66 76/148/66 
f 74/146/66 76/148/66 77/149/66 
f 78/150/66 74/146/66 77/149/66 
s 16
f 79/151/36 74/152/36 78/153/36 
f 79/151/36 78/153/36 71/143/36 
f 70/142/36 79/151/36 71/143/36 
f 69/154/67 68/155/67 73/145/65 
f 69/154/67 73/145/65 72/144/64 
f 80/156/67 69/154/67 72/144/64 
s off
f 81/157/68 82/158/68 20/159/68 
f 20/159/69 19/160/69 81/157/69 
f 83/161/70 84/162/70 24/29/70 
f 24/29/66 23/28/66 83/161/66 
f 85/163/71 86/164/71 28/165/71 
f 28/165/71 27/166/71 85/163/71 
f 87/167/72 88/168/72 89/169/72 
f 89/169/72 90/170/72 87/167/72 
f 72/171/70 71/172/70 84/162/70 
f 84/162/70 83/161/70 72/171/70 
f 91/173/73 92/174/73 93/175/73 
f 93/175/73 94/176/73 91/173/73 
f 24/177/74 84/178/74 81/157/74 
f 81/157/75 19/160/75 24/177/75 
f 84/178/76 77/179/76 82/158/76 
f 82/158/77 81/157/77 84/178/77 
f 77/179/78 76/180/78 20/159/78 
f 20/159/79 82/158/79 77/179/79 
f 13/181/80 95/182/80 85/163/80 
f 85/163/81 27/166/81 13/181/81 
f 95/182/82 83/183/82 86/164/82 
f 86/164/82 85/163/82 95/182/82 
f 83/183/83 23/184/83 28/165/83 
f 28/165/83 86/164/83 83/183/83 
f 84/178/84 71/185/84 96/186/84 
f 96/186/84 97/187/84 84/178/84 
f 71/185/85 78/188/85 98/189/85 
f 98/189/85 96/186/85 71/185/85 
f 78/188/86 77/179/86 99/190/86 
f 99/190/86 98/189/86 78/188/86 
f 77/179/87 84/178/87 97/187/87 
f 97/187/88 99/190/88 77/179/88 
f 95/182/89 80/191/89 100/192/89 
f 100/192/89 101/193/89 95/182/89 
f 80/156/90 72/144/90 102/194/90 
f 102/194/91 100/195/91 80/156/91 
f 72/196/92 83/183/92 103/197/92 
f 103/197/92 102/198/92 72/196/92 
f 83/183/93 95/182/93 101/193/93 
f 101/193/93 103/197/93 83/183/93 
f 97/187/8 96/186/8 104/199/8 
f 104/199/8 105/200/8 97/187/8 
f 96/186/94 98/189/94 106/201/94 
f 106/201/52 104/199/52 96/186/52 
f 98/189/8 99/190/8 107/202/8 
f 107/202/8 106/201/8 98/189/8 
f 99/190/94 97/187/94 105/200/94 
f 105/200/52 107/202/52 99/190/52 
f 101/193/42 100/192/42 108/203/42 
f 108/203/42 109/204/42 101/193/42 
f 100/192/95 102/198/95 110/205/95 
f 110/205/42 108/203/42 100/192/42 
f 102/198/96 103/197/96 111/206/96 
f 111/206/96 110/205/96 102/198/96 
f 103/197/42 101/193/42 109/204/42 
f 109/204/42 111/206/42 103/197/42 
f 105/207/70 104/208/70 87/209/70 
f 87/209/70 90/210/70 105/207/70 
f 106/211/39 112/212/39 113/213/39 
f 106/211/39 113/213/39 114/214/39 
f 106/211/39 114/214/39 88/215/39 
f 104/216/97 106/211/97 88/215/97 
f 104/216/38 88/215/38 87/217/38 
f 106/218/98 107/219/98 115/220/98 
f 115/220/98 112/221/98 106/218/98 
f 107/222/36 105/223/36 90/224/36 
f 90/224/36 89/225/36 116/226/36 
f 90/224/36 116/226/36 117/227/36 
f 90/224/36 117/227/36 115/228/36 
f 107/222/36 90/224/36 115/228/36 
f 109/229/99 108/230/99 118/231/99 
f 118/231/99 119/232/99 109/229/99 
f 108/233/38 110/234/38 92/235/38 
f 92/235/100 91/236/100 120/237/100 
f 92/235/101 120/237/101 121/238/101 
f 92/235/102 121/238/102 118/239/102 
f 108/233/103 92/235/103 118/239/103 
f 110/240/70 111/241/70 93/242/70 
f 93/242/70 92/243/70 110/240/70 
f 109/244/104 119/245/104 122/246/104 
f 109/244/105 122/246/105 123/247/105 
f 109/244/106 123/247/106 94/248/106 
f 111/249/107 109/244/107 94/248/107 
f 111/249/108 94/248/108 93/250/108 
f 116/251/109 89/252/109 88/253/109 
f 88/253/109 114/254/109 116/251/109 
f 120/255/110 91/256/110 94/257/110 
f 94/257/110 123/258/110 120/255/110 
f 117/259/111 116/251/111 114/254/111 
f 114/254/111 113/260/111 117/259/111 
f 115/220/112 117/259/112 113/260/112 
f 113/260/112 112/221/112 115/220/112 
f 121/261/113 120/255/113 123/258/113 
f 123/258/113 122/262/113 121/261/113 
f 118/231/114 121/261/114 122/262/114 
f 122/262/114 119/232/114 118/231/114 
s 32
f 17/263/115 16/264/116 75/265/117 
f 75/265/117 124/266/118 17/263/115 
s 4
f 75/147/66 16/267/66 18/268/66 
f 75/147/66 18/268/66 39/269/66 
f 75/147/66 39/269/66 76/148/66 
s off
f 76/270/27 39/48/27 21/26/27 
f 21/26/27 20/25/27 76/270/27 
f 23/271/119 26/51/119 29/34/119 
f 29/34/120 28/33/120 23/271/120 
s 4
f 6/14/10 69/272/121 80/273/122 
f 6/14/10 80/273/122 95/274/123 
f 6/14/10 95/274/123 13/15/11 
s off
f 12/275/124 17/276/124 124/277/124 
f 9/278/125 12/275/125 124/277/125 
f 9/278/126 124/277/126 5/279/126 
f 9/278/126 5/279/126 8/280/126 
f 75/281/71 74/282/71 79/283/71 
f 79/283/127 124/284/127 75/281/127 
f 124/277/125 79/285/125 70/286/125 
f 124/277/124 70/286/124 73/287/124 
f 124/277/126 73/287/126 68/288/126 
f 124/277/126 68/288/126 5/279/126 
# 236 faces

