# Blender3D v249 OBJ File: towers.blend
# www.blender3d.org
mtllib towers.mtl
v -4.562509 21.691572 4.562482
v 4.562509 21.691572 4.562482
v -4.562509 21.691572 -4.562518
v 4.562509 21.691572 -4.562483
v -4.562509 -12.691570 -4.562517
v 4.562509 -12.691570 -4.562482
v 4.562509 -12.691569 4.562483
v -4.562509 -12.691569 4.562483
vt 0.000000 0.666607
vt 0.000000 0.000000
vt 1.000000 0.000000
vt 1.000000 0.666607
vt 0.000000 0.663936
vt 1.000000 0.663936
vt 1.000000 1.000000
vt 0.000000 1.000000
vt 0.000000 0.664018
vt 1.000000 0.664018
vt 1.000000 1.000088
vt 0.000000 1.000088
vn 0.000000 0.000000 1.000000
vn -1.000000 0.000000 0.000000
vn 1.000000 0.000000 0.000000
vn 0.000004 -0.000000 -1.000000
vn -0.000000 -1.000000 0.000000
vn 0.000000 1.000000 0.000000
usemtl Material_towers.png
s off
f 1/1/1 8/2/1 7/3/1 2/4/1
f 8/3/2 1/4/2 3/1/2 5/2/2
f 2/1/3 7/2/3 6/3/3 4/4/3
f 4/1/4 6/2/4 5/3/4 3/4/4
f 5/5/5 6/6/5 7/7/5 8/8/5
f 3/9/6 1/10/6 2/11/6 4/12/6
