# Created with Anim8or 0.95
# Object "07":
# ComRec:
g mesh01
# No. points 108:
v -2.8662 -0.12660 8.9544
v -2.92133 -0.05019 8.9007
v -2.87608 0.02621 8.96296
v -2.82095 -0.05019 9.01666
v -1.95264 -0.00763 8.2929
v -2.00777 0.06877 8.23921
v -1.96252 0.14517 8.30147
v -1.90739 0.06877 8.35516
v -1.22331 0.05944 7.53141
v -1.28427 0.13602 7.48472
v -1.22837 0.21261 7.53737
v -1.16741 0.13602 7.58405
v -0.62121 0.09743 6.72455
v -0.68547 0.17407 6.68264
v -0.62402 0.25072 6.72858
v -0.55976 0.17407 6.77049
v -0.09977 0.09232 5.92785
v -0.16522 0.16898 5.88786
v -0.10183 0.24564 5.93104
v -0.03637 0.16898 5.97103
v 0.36500 0.07641 5.19667
v 0.30050 0.15307 5.15516
v 0.36292 0.22973 5.19974
v 0.42742 0.15307 5.24126
v 0.80087 0.06208 4.58609
v 0.74087 0.13874 4.5383
v 0.79859 0.21540 4.58882
v 0.85859 0.13874 4.63661
v 1.21898 0.06829 4.15087
v 1.17246 0.14497 4.0899
v 1.21796 0.22165 4.15163
v 1.26447 0.14497 4.2126
v 1.65855 0.07770 3.9437
v 1.65017 0.15429 3.86739
v 1.66599 0.23088 3.94251
v 1.67438 0.15429 4.01883
v 2.07173 0.05999 4.0105
v 2.1199 0.13591 3.94986
v 2.0904 0.21182 4.02147
v 2.04223 0.13591 4.0821
v 2.4734 0.03676 4.4095
v 2.5464 0.11195 4.38159
v 2.48937 0.18714 4.43502
v 2.41638 0.11195 4.46293
v 2.82582 -0.14937 5.20105
v 2.89882 -0.07418 5.17314
v 2.84179 0.00101 5.22657
v 2.7688 -0.07418 5.25448
v -2.74633 -0.09879 8.96592
v -2.74633 0.09877 8.96592
v -2.9851 -0.09879 8.96592
v -2.9851 0.09877 8.96592
v -2.9851 0.09877 7.67154
v -2.9851 -0.09879 7.67154
v -2.74633 -0.09879 7.67154
v -2.74633 0.09877 7.67154
v -2.74633 -0.09879 5.12048
v -2.74633 0.09877 5.12048
v -2.9851 0.09877 5.12048
v -2.9851 -0.09879 5.12048
v -2.9851 0.09877 3.12236
v -2.9851 -0.09879 3.12236
v -2.9851 -0.09879 2.88968
v -2.9851 0.09877 2.88968
v -2.74633 -0.09879 2.72415
v -2.74633 -0.09879 3.12236
v -2.74633 0.09877 3.12236
v -2.74633 0.09877 2.72415
v 2.70467 0.09877 5.11671
v 2.70467 -0.09879 5.11671
v 2.97059 -0.09879 5.11671
v 2.97059 0.09877 5.11671
v 2.97059 -0.09879 3.12236
v 2.97059 0.09877 3.12236
v 2.97059 0.09877 2.88968
v 2.97059 -0.09879 2.88968
v 2.70467 0.09877 2.73795
v 2.70467 -0.09879 2.73795
v 2.70467 0.09877 3.12236
v 2.70467 -0.09879 3.12236
v 0.11648 -0.09879 3.12236
v 0.11648 0.09877 3.12236
v -0.11987 -0.09879 3.12236
v -0.11987 0.09877 3.12236
v -0.11987 0.09877 2.88968
v -0.11987 -0.09879 2.88968
v 0.11648 0.09877 2.88968
v 0.11648 -0.09879 2.88968
v 0.11648 -0.09879 -0.00212
v 0.11648 0.09877 -0.00212
v -0.11987 -0.09879 -0.00212
v -0.11987 0.09877 -0.00212
v -1.87084 -0.14876 2.61657
v -0.99536 -0.14876 2.61657
v -1.87084 -0.14876 3.39547
v -0.99536 -0.14876 3.39547
v -1.87084 0.09877 3.39547
v -0.99536 0.09877 3.39547
v -1.87084 0.09877 2.61657
v -0.99536 0.09877 2.61657
v 1.84194 0.09877 2.57756
v 0.97921 0.09877 2.57756
v 1.84194 -0.16437 2.57756
v 0.97921 -0.16437 2.57756
v 1.84194 0.09877 3.43448
v 0.97921 0.09877 3.43448
v 1.84194 -0.16437 3.43448
v 0.97921 -0.16437 3.43448

# No. normals 333:
vn -0.35939 -0.69610 -0.62152
vn -0.47244 0.70780 -0.52518
vn 0.35936 0.69614 0.62149
vn 0.47245 -0.70780 0.52518
vn -0.47697 -0.70911 -0.51929
vn -0.54519 0.69946 -0.46208
vn 0.47683 0.70910 0.51942
vn 0.54514 -0.69947 0.46213
vn -0.54966 -0.70794 -0.44350
vn -0.58445 0.70397 -0.40354
vn 0.54965 0.70787 0.44364
vn 0.58440 -0.70399 0.40357
vn -0.59342 -0.70747 -0.38386
vn -0.58971 0.70687 -0.39061
vn 0.59339 0.70742 0.38398
vn 0.58969 -0.70692 0.39055
vn -0.60346 -0.70729 -0.36821
vn -0.58958 0.70726 -0.39011
vn 0.60346 0.70733 0.36812
vn 0.58952 -0.70730 0.39012
vn -0.58313 -0.70715 -0.39986
vn -0.56751 0.70725 -0.42158
vn 0.58338 0.70719 0.39944
vn 0.56741 -0.70728 0.42166
vn -0.50607 -0.70544 -0.49624
vn -0.51532 0.70710 -0.48420
vn 0.50676 0.70549 0.49546
vn 0.51596 -0.70712 0.48350
vn -0.29317 -0.69764 -0.65372
vn -0.31221 0.70123 -0.64094
vn 0.29318 0.69763 0.65373
vn 0.31601 -0.70161 0.63866
vn 0.08492 -0.69858 -0.71047
vn 0.15305 0.67568 -0.72113
vn -0.08730 0.69835 0.71042
vn -0.14562 -0.67730 0.72115
vn 0.47276 -0.71326 -0.51745
vn 0.54091 0.67876 -0.49669
vn -0.47717 0.71306 0.51366
vn -0.53614 -0.68001 0.50014
vn 0.56851 -0.70767 -0.41952
vn 0.72539 0.66806 -0.16587
vn -0.56854 0.70764 0.41953
vn -0.72542 -0.66801 0.16590
vn 0 0 1
vn 1 0 0
vn 0 -1 0
vn 0 1 0
vn -1 0 0
vn 1 0 0
vn 0 -1 0
vn 0 1 0
vn -1 0 0
vn -1 0 0
vn 0 1 0
vn 0 -1 0
vn -0.56974 0 -0.82183
vn 0 0 1
vn -1 0 0
vn 0 1 0
vn 0 -1 0
vn 1 0 0
vn 1 0 0
vn 0 -1 0
vn 0 1 0
vn 0.49559 0 -0.86856
vn 0 0 1
vn 0 -1 0
vn 0 1 0
vn -1 0 0
vn 0 1 0
vn 0 -1 0
vn 1 0 0
vn 0.29780 0 -0.95463
vn 0 0 -1
vn -0.12196 0 -0.99253
vn 0.05698 -0.99838 0
vn 0 -1 0
vn -0.05698 -0.99838 0
vn 0.29780 0 0.95463
vn 0 0 1
vn -0.29780 0 0.95463
vn 0 1 0
vn 0 1 0
vn 0 1 0
vn -0.34020 0 -0.94035
vn 0 0 -1
vn 0.18278 0 -0.98315
vn 0 1 0
vn 0 1 0
vn 0 1 0
vn -0.07580 -0.99712 0
vn 0 -1 0
vn 0.07580 -0.99712 0
vn -0.34020 0 0.94035
vn 0 0 1
vn 0.34020 0 0.94035
vn -0.35939 -0.69610 -0.62152
vn 0.47245 -0.70780 0.52518
vn -0.35939 -0.69610 -0.62152
vn -0.47244 0.70780 -0.52518
vn -0.47244 0.70780 -0.52518
vn 0.35936 0.69614 0.62149
vn 0.35936 0.69614 0.62149
vn 0.47245 -0.70780 0.52518
vn -0.41946 -0.70476 -0.57215
vn 0.50939 -0.70446 0.49423
vn -0.41946 -0.70476 -0.57215
vn -0.50941 0.70446 -0.49421
vn -0.50941 0.70446 -0.49421
vn 0.41938 0.70477 0.57220
vn 0.41938 0.70477 0.57220
vn 0.50939 -0.70446 0.49423
vn -0.51402 -0.70951 -0.48206
vn 0.56512 -0.70217 0.43312
vn -0.51402 -0.70951 -0.48206
vn -0.56517 0.70216 -0.43308
vn -0.56517 0.70216 -0.43308
vn 0.51395 0.70947 0.48220
vn 0.51395 0.70947 0.48220
vn 0.56512 -0.70217 0.43312
vn -0.57193 -0.70819 -0.41396
vn 0.58706 -0.70548 0.39707
vn -0.57193 -0.70819 -0.41396
vn -0.58709 0.70544 -0.39709
vn -0.58709 0.70544 -0.39709
vn 0.57191 0.70813 0.41409
vn 0.57191 0.70813 0.41409
vn 0.58706 -0.70548 0.39707
vn -0.59846 -0.70741 -0.37605
vn 0.58961 -0.70711 0.39034
vn -0.59846 -0.70741 -0.37605
vn -0.58964 0.70707 -0.39036
vn -0.58964 0.70707 -0.39036
vn 0.59845 0.70741 0.37607
vn 0.59845 0.70741 0.37607
vn 0.58961 -0.70711 0.39034
vn -0.59340 -0.70735 -0.38411
vn 0.57858 -0.70742 0.40597
vn -0.59340 -0.70735 -0.38411
vn -0.57865 0.70738 -0.40592
vn -0.57865 0.70738 -0.40592
vn 0.59352 0.70738 0.38385
vn 0.59352 0.70738 0.38385
vn 0.57858 -0.70742 0.40597
vn -0.54564 -0.70765 -0.44891
vn 0.54213 -0.70777 0.45295
vn -0.54564 -0.70765 -0.44891
vn -0.54187 0.70776 -0.45327
vn -0.54187 0.70776 -0.45327
vn 0.54610 0.70768 0.44830
vn 0.54610 0.70768 0.44830
vn 0.54213 -0.70777 0.45295
vn -0.40317 -0.70778 -0.58009
vn 0.41936 -0.71008 0.56563
vn -0.40317 -0.70778 -0.58009
vn -0.41721 0.71004 -0.56726
vn -0.41721 0.71004 -0.56726
vn 0.40355 0.70785 0.57974
vn 0.40355 0.70785 0.57974
vn 0.41936 -0.71008 0.56563
vn -0.10608 -0.71123 -0.69491
vn 0.08764 -0.70928 0.69945
vn -0.10608 -0.71123 -0.69491
vn -0.08190 0.70854 -0.70090
vn -0.08190 0.70854 -0.70090
vn 0.10490 0.71127 0.69505
vn 0.10490 0.71127 0.69505
vn 0.08764 -0.70928 0.69945
vn 0.28563 -0.72311 -0.62891
vn -0.34980 -0.69641 0.62662
vn 0.28563 -0.72311 -0.62891
vn 0.35603 0.69489 -0.62480
vn 0.35603 0.69489 -0.62480
vn -0.28922 0.72317 0.62719
vn -0.28922 0.72317 0.62719
vn -0.34980 -0.69641 0.62662
vn 0.52186 -0.71214 -0.46959
vn -0.64276 -0.68681 0.33934
vn 0.52186 -0.71214 -0.46959
vn 0.64483 0.68583 -0.33739
vn 0.64483 0.68583 -0.33739
vn -0.52399 0.71189 0.46760
vn -0.52399 0.71189 0.46760
vn -0.64276 -0.68681 0.33934
vn 0.56851 -0.70767 -0.41952
vn -0.72542 -0.66801 0.16590
vn 0.56851 -0.70767 -0.41952
vn 0.72539 0.66806 -0.16587
vn 0.72539 0.66806 -0.16587
vn -0.56854 0.70764 0.41953
vn -0.56854 0.70764 0.41953
vn -0.72542 -0.66801 0.16590
vn 0 0 1
vn 0 -1 0
vn 1 0 0
vn 0 0 1
vn 0 1 0
vn 1 0 0
vn 0 0 1
vn -1 0 0
vn 0 -1 0
vn 0 0 1
vn -1 0 0
vn 0 1 0
vn 0 1 0
vn -1 0 0
vn 0 -1 0
vn -1 0 0
vn 1 0 0
vn 0 -1 0
vn 1 0 0
vn 0 1 0
vn 1 0 0
vn 0 -1 0
vn 1 0 0
vn 0 1 0
vn 0 1 0
vn -1 0 0
vn 0 -1 0
vn -1 0 0
vn 0 1 0
vn -1 0 0
vn 0 -1 0
vn -1 0 0
vn -1 0 0
vn -0.56974 0 -0.82183
vn 0 -1 0
vn -1 0 0
vn -0.56974 0 -0.82183
vn 0 1 0
vn -0.02850 -0.999594 0
vn -0.35623 0 -0.93440
vn 1 0 0
vn -0.29780 0 0.95463
vn -0.01900 -0.999819 0
vn 1 0 0
vn 0 1 0
vn -0.29780 0 0.95463
vn 0 1 0
vn -0.35623 0 -0.93440
vn 0 0 1
vn 0 1 0
vn -1 0 0
vn 0 0 1
vn 0 -1 0
vn -1 0 0
vn 0 0 1
vn 1 0 0
vn 0 -1 0
vn 0 0 1
vn 1 0 0
vn 0 1 0
vn 0 -1 0
vn 1 0 0
vn 0 1 0
vn 1 0 0
vn 1 0 0
vn 0.49559 0 -0.86856
vn 0 1 0
vn 1 0 0
vn 0.49559 0 -0.86856
vn 0 -1 0
vn 0 1 0
vn 0.34399 0 -0.93897
vn 0.03793 -0.999281 0
vn 0.34399 0 -0.93897
vn -1 0 0
vn 0.34020 0 0.94035
vn 0 1 0
vn -1 0 0
vn 0.34020 0 0.94035
vn 0.02528 -0.99968 0
vn -0.17270 0 0.98498
vn -0.03793 -0.999281 0
vn -0.17270 0 0.98498
vn 0 1 0
vn 0.15062 0 0.98859
vn 0.02850 -0.999594 0
vn 0.15062 0 0.98859
vn 0 1 0
vn 0 1 0
vn 0.29780 0 -0.95463
vn -1 0 0
vn 0.01900 -0.999819 0
vn 0.29780 0 -0.95463
vn -1 0 0
vn 0 1 0
vn -0.34020 0 -0.94035
vn 1 0 0
vn -0.02528 -0.99968 0
vn -0.34020 0 -0.94035
vn 1 0 0
vn 0 -1 0
vn 1 0 0
vn 0 1 0
vn 1 0 0
vn -1 0 0
vn 0 -1 0
vn -1 0 0
vn 0 1 0
vn -0.06110 0 -0.99813
vn -0.02850 -0.999594 0
vn 0.15062 0 -0.98859
vn 0.02850 -0.999594 0
vn -0.02850 -0.999594 0
vn -0.15062 0 0.98859
vn 0.02850 -0.999594 0
vn 0.15062 0 0.98859
vn -0.15062 0 0.98859
vn 0 1 0
vn 0.15062 0 0.98859
vn 0 1 0
vn -0.06110 0 -0.99813
vn 0 1 0
vn 0.15062 0 -0.98859
vn 0 1 0
vn 0.09178 0 -0.99578
vn 0 1 0
vn -0.17270 0 -0.98498
vn 0 1 0
vn 0.09178 0 -0.99578
vn 0.03793 -0.999281 0
vn -0.17270 0 -0.98498
vn -0.03793 -0.999281 0
vn 0 1 0
vn 0.17270 0 0.98498
vn 0 1 0
vn -0.17270 0 0.98498
vn 0.03793 -0.999281 0
vn 0.17270 0 0.98498
vn -0.03793 -0.999281 0
vn -0.17270 0 0.98498

# No. texture coordinates 237:
vt 0.08075 0.21058
vt 0.02080 0.20878
vt 0.02040 0.19388
vt 0.08079 0.19485
vt 0.02110 0.17903
vt 0.08084 0.17917
vt 0.02160 0.16333
vt 0.08089 0.16352
vt 0.02089 0.14766
vt 0.08096 0.14783
vt 0.13980 0.20975
vt 0.13988 0.19483
vt 0.13980 0.17996
vt 0.13972 0.16461
vt 0.13992 0.14927
vt 0.19694 0.20985
vt 0.19705 0.19513
vt 0.19701 0.18042
vt 0.19698 0.16549
vt 0.19714 0.15055
vt 0.25326 0.21064
vt 0.25338 0.19593
vt 0.25340 0.18123
vt 0.25342 0.16649
vt 0.25354 0.15172
vt 0.30946 0.21217
vt 0.30958 0.19728
vt 0.30968 0.18237
vt 0.30977 0.16761
vt 0.30983 0.15283
vt 0.36166 0.21438
vt 0.36180 0.19904
vt 0.36196 0.18365
vt 0.36211 0.16860
vt 0.36206 0.15354
vt 0.40592 0.21729
vt 0.40609 0.20114
vt 0.40635 0.18487
vt 0.40664 0.16903
vt 0.40635 0.15311
vt 0.44293 0.22127
vt 0.44330 0.20381
vt 0.44357 0.18631
vt 0.44404 0.16860
vt 0.44346 0.15052
vt 0.48038 0.22724
vt 0.48110 0.20689
vt 0.48102 0.18690
vt 0.48074 0.16677
vt 0.48113 0.14646
vt 0.53230 0.22522
vt 0.53261 0.20668
vt 0.53262 0.18801
vt 0.53251 0.16977
vt 0.53318 0.15146
vt 0.60270 0.22724
vt 0.60180 0.20887
vt 0.60272 0.19040
vt 0.60382 0.17339
vt 0.60329 0.15626
vt 0.82726 0.40596
vt 0.85426 0.40604
vt 0.85416 0.43963
vt 0.82716 0.43955
vt 0.68656 0.999982
vt 0.65956 0.999897
vt 0.66010 0.81781
vt 0.68711 0.81790
vt 0.95349 0.49609
vt 0.92086 0.49598
vt 0.92140 0.31390
vt 0.95404 0.31400
vt 0.13962 0.999897
vt 0.10699 1
vt 0.10645 0.81792
vt 0.13908 0.81781
vt 0.16716 0.999897
vt 0.14017 0.999982
vt 0.13962 0.81790
vt 0.16662 0.81781
vt 0.94880 0.00008
vt 0.97579 0
vt 0.97663 0.28108
vt 0.94963 0.28117
vt 0.94413 0.84245
vt 0.91150 0.84255
vt 0.91066 0.56147
vt 0.94330 0.56137
vt 0.21512 0.76476
vt 0.19191 0.78837
vt 0 0.58840
vt 0.02321 0.56479
vt 0.94870 0.28108
vt 0.92170 0.28117
vt 0.92086 0.00008
vt 0.94786 0
vt 0.94880 0.31381
vt 0.92180 0.31390
vt 0.25337 0.80462
vt 0.21425 0.81165
vt 0.91167 0.89857
vt 0.94423 0.87518
vt 0.40427 0.85877
vt 0.37727 0.85868
vt 0.37739 0.81781
vt 0.40439 0.81790
vt 0.85416 0.37224
vt 0.82716 0.37215
vt 0.82727 0.33474
vt 0.85427 0.33483
vt 1 0.84192
vt 0.97300 0.84200
vt 0.97216 0.56145
vt 0.999164 0.56137
vt 0.77097 0.19959
vt 0.74511 0.22588
vt 0.55357 0.02629
vt 0.57943 0
vt 0.82800 0.05408
vt 0.86434 0.05419
vt 0.86351 0.33474
vt 0.82716 0.33463
vt 0.94433 0.59418
vt 0.97133 0.59410
vt 0.97216 0.87465
vt 0.94517 0.87473
vt 0.94423 0.56145
vt 0.97123 0.56137
vt 0.82816 0
vt 0.86444 0.02146
vt 0.78203 0.26435
vt 0.79332 0.22288
vt 0.42233 0.81790
vt 0.44933 0.81781
vt 0.44946 0.86088
vt 0.42246 0.86097
vt 0.82726 0.40557
vt 0.82716 0.37232
vt 0.85426 0.40548
vt 0.82595 0.03273
vt 0.79365 0.03283
vt 0.79355 0.00010
vt 0.82585 0
vt 0.51582 0.50503
vt 0.49283 0.52840
vt 0.47049 0.50511
vt 0.49347 0.48175
vt 0.91965 0.40688
vt 0.89265 0.40680
vt 0.89386 0
vt 0.79355 0.79445
vt 0.77057 0.81781
vt 0.82716 0.43953
vt 0.79486 0.43963
vt 0.86565 0
vt 0.89265 0.00008
vt 0.89144 0.40688
vt 0.86444 0.40680
vt 0.28186 0.94684
vt 0.27541 0.81781
vt 0.30924 0.81792
vt 0.30886 0.94693
vt 0.30924 0.94097
vt 0.30961 0.81781
vt 0.34344 0.81792
vt 0.34307 0.94108
vt 0.34344 0.94200
vt 0.34990 0.81790
vt 0.37690 0.81781
vt 0.37727 0.94190
vt 0.75660 0.81791
vt 0.79355 0.94139
vt 0.68710 0.94105
vt 0.72480 0.81781
vt 0.79355 0.92849
vt 0.79392 0.80533
vt 0.90037 0.80566
vt 0.90000 0.92882
vt 0.10645 0.81781
vt 0.06949 0.94129
vt 0.01507 0.94146
vt 0 0.81815
vt 0.51710 0.81781
vt 0.51749 0.94682
vt 0.48366 0.94693
vt 0.49010 0.81790
vt 0.48329 0.81781
vt 0.48366 0.94097
vt 0.44983 0.94108
vt 0.44946 0.81792
vt 0.55132 0.81792
vt 0.55093 0.94693
vt 0.52393 0.94684
vt 0.51749 0.81781
vt 0.43394 0.64228
vt 0.35914 0.56433
vt 0.34882 0.72883
vt 0.27401 0.65088
vt 0.20274 0.81781
vt 0.20313 0.94687
vt 0.16716 0.94699
vt 0.17574 0.81790
vt 0.58764 0.81793
vt 0.58728 0.93929
vt 0.55132 0.93918
vt 0.55168 0.81781
vt 0.23909 0.81793
vt 0.23872 0.94137
vt 0.21172 0.94128
vt 0.20313 0.81781
vt 0.54737 0.36522
vt 0.62967 0.45098
vt 0.63126 0.27993
vt 0.71356 0.36569
vt 0.86837 0.68348
vt 0.91066 0.80533
vt 0.79355 0.80496
vt 0.83657 0.68338
vt 0.91103 0.44000
vt 0.91066 0.56137
vt 0.79355 0.56100
vt 0.79391 0.43963
vt 0.79355 0.68301
vt 0.81583 0.56137
vt 0.86837 0.56153
vt 0.91066 0.68338
vt 0.63218 0.94690
vt 0.62360 0.81781
vt 0.65956 0.81793
vt 0.65918 0.94699
vt 0.23945 0.93929
vt 0.27505 0.81781
vt 0.27541 0.93918
vt 0.58764 0.94699
vt 0.59622 0.81790
vt 0.62322 0.81781
vt 0.62360 0.94687

# No. faces 97:
f 5/1/106 1/2/98 2/3/100 6/4/108
f 6/4/109 2/3/101 3/5/102 7/6/110
f 7/6/111 3/5/103 4/7/104 8/8/112
f 1/9/99 5/10/107 8/8/113 4/7/105
f 9/11/114 5/1/106 6/4/108 10/12/116
f 10/12/117 6/4/109 7/6/110 11/13/118
f 11/13/119 7/6/111 8/8/112 12/14/120
f 12/14/121 8/8/113 5/10/107 9/15/115
f 13/16/122 9/11/114 10/12/116 14/17/124
f 14/17/125 10/12/117 11/13/118 15/18/126
f 15/18/127 11/13/119 12/14/120 16/19/128
f 16/19/129 12/14/121 9/15/115 13/20/123
f 17/21/130 13/16/122 14/17/124 18/22/132
f 18/22/133 14/17/125 15/18/126 19/23/134
f 19/23/135 15/18/127 16/19/128 20/24/136
f 20/24/137 16/19/129 13/20/123 17/25/131
f 21/26/138 17/21/130 18/22/132 22/27/140
f 22/27/141 18/22/133 19/23/134 23/28/142
f 23/28/143 19/23/135 20/24/136 24/29/144
f 24/29/145 20/24/137 17/25/131 21/30/139
f 25/31/146 21/26/138 22/27/140 26/32/148
f 26/32/149 22/27/141 23/28/142 27/33/150
f 27/33/151 23/28/143 24/29/144 28/34/152
f 28/34/153 24/29/145 21/30/139 25/35/147
f 29/36/154 25/31/146 26/32/148 30/37/156
f 30/37/157 26/32/149 27/33/150 31/38/158
f 31/38/159 27/33/151 28/34/152 32/39/160
f 32/39/161 28/34/153 25/35/147 29/40/155
f 33/41/162 29/36/154 30/37/156 34/42/164
f 34/42/165 30/37/157 31/38/158 35/43/166
f 35/43/167 31/38/159 32/39/160 36/44/168
f 36/44/169 32/39/161 29/40/155 33/45/163
f 37/46/170 33/41/162 34/42/164 38/47/172
f 38/47/173 34/42/165 35/43/166 39/48/174
f 39/48/175 35/43/167 36/44/168 40/49/176
f 40/49/177 36/44/169 33/45/163 37/50/171
f 41/51/178 37/46/170 38/47/172 42/52/180
f 42/52/181 38/47/173 39/48/174 43/53/182
f 43/53/183 39/48/175 40/49/176 44/54/184
f 44/54/185 40/49/177 37/50/171 41/55/179
f 45/56/186 41/51/178 42/52/180 46/57/188
f 46/57/189 42/52/181 43/53/182 47/58/190
f 47/58/191 43/53/183 44/54/184 48/59/192
f 48/59/193 44/54/185 41/55/179 45/60/187
f 49/61/194 50/62/197 52/63/203 51/64/200
f 50/65/199 49/66/196 55/67/210 56/68/212
f 49/69/195 51/70/202 54/71/208 55/72/211
f 56/73/213 53/74/206 52/75/205 50/76/198
f 53/77/207 54/78/209 51/79/201 52/80/204
f 66/81/234 67/82/237 58/83/216 57/84/214
f 62/85/224 66/86/236 57/87/215 60/88/220
f 67/89/238 61/90/222 59/91/218 58/92/217
f 61/93/223 62/94/225 60/95/221 59/96/219
f 64/97/229 63/98/226 62/94/225 61/93/223
f 67/89/238 68/99/240 64/100/231 61/90/222
f 65/101/232 66/86/236 62/85/224 63/102/228
f 68/103/241 65/104/233 63/105/227 64/106/230
f 69/107/242 70/108/245 71/109/248 72/110/251
f 79/111/268 80/112/271 70/113/247 69/114/244
f 74/115/256 79/116/270 69/117/243 72/118/253
f 80/119/273 73/120/254 71/121/250 70/122/246
f 73/123/255 74/124/257 72/125/252 71/126/249
f 76/127/261 75/128/258 74/124/257 73/123/255
f 80/119/273 78/129/266 76/130/263 73/120/254
f 77/131/264 79/116/270 74/115/256 75/132/260
f 78/133/267 77/134/265 75/135/259 76/136/262
f 83/137/278 81/138/274 82/107/276 84/139/280
f 86/140/285 88/141/291 81/142/275 83/143/279
f 87/144/288 85/145/282 84/146/281 82/147/277
f 92/148/300 91/149/298 86/150/287 85/95/284
f 90/151/296 92/152/301 85/145/282 87/144/288
f 91/153/299 89/154/294 88/141/291 86/140/285
f 89/155/295 90/156/297 87/157/290 88/158/293
f 86/159/286 94/160/304 100/161/316 85/162/283
f 94/163/304 93/164/302 99/165/314 100/166/316
f 93/167/302 65/168/233 68/169/241 99/170/314
f 83/171/279 96/172/308 94/173/305 86/174/285
f 96/175/308 95/176/306 93/177/303 94/178/305
f 95/179/306 66/180/236 65/181/232 93/182/303
f 84/183/280 98/184/312 96/185/309 83/186/278
f 98/187/312 97/188/310 95/189/307 96/190/309
f 97/191/310 67/192/239 66/193/235 95/194/307
f 85/145/282 100/195/317 98/196/313 84/146/281
f 100/195/317 99/197/315 97/198/311 98/196/313
f 99/197/315 68/99/240 67/89/238 97/198/311
f 87/199/289 102/200/320 104/201/324 88/202/292
f 102/203/320 101/204/318 103/205/322 104/206/324
f 101/207/318 77/208/265 78/209/267 103/210/322
f 82/147/277 106/211/328 102/212/321 87/144/288
f 106/211/328 105/213/326 101/214/319 102/212/321
f 105/213/326 79/116/270 77/131/264 101/214/319
f 88/215/291 104/216/325 108/217/332 81/218/275
f 104/219/325 103/220/323 107/221/330 108/222/332
f 103/223/323 78/224/266 80/225/273 107/226/330
f 81/227/274 108/228/333 106/229/329 82/230/276
f 108/231/333 107/207/331 105/232/327 106/233/329
f 107/234/331 80/235/272 79/236/269 105/237/327


