# Blender v241 OBJ File: link.blend
# www.blender3d.org
mtllib link.mtl
o Cube_Cube.001
v 3.442044 -22.959827 -3.412723
v -3.413243 -22.971302 -3.412723
v -3.442043 22.959829 -3.412723
v 3.413244 22.971291 -3.412723
v 3.442043 -22.959839 3.412723
v -3.413245 -22.971291 3.412723
v -3.442043 22.959835 3.412723
v 3.413243 22.971302 3.412723
vn 0.000000 0.000000 -1.000000
vn 0.000000 0.000000 1.000000
vn 0.001672 -0.999999 0.000000
vn -1.000000 -0.000627 -0.000000
vn -0.001672 0.999999 -0.000001
vn 1.000000 0.000627 0.000000
usemtl (null)
usemtl (null)
s off
f 1//1 2//1 3//1 4//1
f 5//2 8//2 7//2 6//2
f 1//3 5//3 6//3 2//3
f 2//4 6//4 7//4 3//4
f 3//5 7//5 8//5 4//5
f 5//6 1//6 4//6 8//6
