# Blender v241 OBJ File: magnet.blend
# www.blender3d.org
mtllib magnet.mtl
o Cylinder_Cylinder
v 27.584190 27.584190 -17.890961
v 32.435577 21.672758 -17.890961
v 36.040482 14.928456 -17.890961
v 38.260368 7.610462 -17.890961
v 39.009937 0.000003 -17.890961
v 38.260372 -7.610456 -17.890961
v 36.040482 -14.928450 -17.890961
v 32.435577 -21.672756 -17.890961
v 27.584190 -27.584190 -17.890961
v 21.672756 -32.435577 -17.890961
v 14.928450 -36.040482 -17.890961
v 7.610451 -38.260372 -17.890961
v -0.000013 -39.009937 -17.890961
v -7.610476 -38.260365 -17.890961
v -14.928473 -36.040474 -17.890961
v -21.672777 -32.435566 -17.890961
v -27.584208 -27.584173 -17.890961
v -32.435593 -21.672735 -17.890961
v -36.040493 -14.928427 -17.890961
v -38.260376 -7.610427 -17.890961
v -39.009937 0.000038 -17.890961
v -38.260365 7.610500 -17.890961
v -36.040462 14.928496 -17.890961
v -32.435547 21.672798 -17.890961
v -27.584154 27.584227 -17.890961
v -21.672714 32.435604 -17.890961
v -14.928404 36.040504 -17.890961
v -7.610403 38.260384 -17.890961
v 0.000063 39.009937 -17.890961
v 7.610525 38.260357 -17.890961
v 14.928519 36.040455 -17.890961
v 21.672819 32.435535 -17.890961
v 27.584244 27.584137 17.890961
v 32.435619 21.672693 17.890961
v 36.040512 14.928381 17.890961
v 38.260387 7.610378 17.890961
v 39.009937 -0.000088 17.890961
v 38.260357 -7.610532 17.890961
v 36.040459 -14.928509 17.890961
v 32.435551 -21.672794 17.890961
v 27.584173 -27.584208 17.890961
v 21.672750 -32.435581 17.890961
v 14.928461 -36.040482 17.890961
v 7.610482 -38.260365 17.890961
v 0.000036 -39.009937 17.890961
v -7.610410 -38.260380 17.890961
v -14.928394 -36.040504 17.890961
v -21.672689 -32.435619 17.890961
v -27.584120 -27.584259 17.890961
v -32.435513 -21.672853 17.890961
v -36.040432 -14.928575 17.890961
v -38.260342 -7.610602 17.890961
v -39.009937 -0.000160 17.890961
v -38.260406 7.610289 17.890961
v -36.040554 14.928279 17.890961
v -32.435692 21.672586 17.890961
v -27.584349 27.584032 17.890961
v -21.672956 32.435444 17.890961
v -14.928690 36.040386 17.890961
v -7.610724 38.260315 17.890961
v -0.000284 39.009937 17.890961
v 7.610168 38.260429 17.890961
v 14.928165 36.040600 17.890961
v 21.672485 32.435760 17.890961
v 0.000000 0.000000 -17.890961
v 0.000000 0.000000 17.890961
vn 0.000000 0.000000 -1.000000
vn 0.498764 0.498764 -0.708792
vn 0.586505 0.391888 -0.708792
vn 0.000000 0.000000 1.000000
vn 0.586505 0.391888 0.708792
vn 0.498764 0.498764 0.708792
vn 0.651692 0.269936 -0.708792
vn 0.651692 0.269936 0.708792
vn 0.691824 0.137608 -0.708792
vn 0.691824 0.137608 0.708792
vn 0.705374 0.000000 -0.708792
vn 0.705374 0.000000 0.708792
vn 0.691824 -0.137608 -0.708792
vn 0.691824 -0.137608 0.708792
vn 0.651692 -0.269936 -0.708792
vn 0.651692 -0.269936 0.708792
vn 0.586505 -0.391888 -0.708792
vn 0.586505 -0.391888 0.708792
vn 0.498764 -0.498764 -0.708792
vn 0.498764 -0.498764 0.708792
vn 0.391888 -0.586505 -0.708792
vn 0.391888 -0.586505 0.708792
vn 0.269936 -0.651692 -0.708792
vn 0.269936 -0.651692 0.708792
vn 0.137608 -0.691824 -0.708792
vn 0.137608 -0.691824 0.708792
vn 0.000000 -0.705374 -0.708792
vn 0.000000 -0.705374 0.708792
vn -0.137608 -0.691824 -0.708792
vn -0.137608 -0.691824 0.708792
vn -0.269936 -0.651692 -0.708792
vn -0.269936 -0.651692 0.708792
vn -0.391888 -0.586505 -0.708792
vn -0.391888 -0.586505 0.708792
vn -0.498764 -0.498764 -0.708792
vn -0.498764 -0.498764 0.708792
vn -0.586505 -0.391888 -0.708792
vn -0.586505 -0.391888 0.708792
vn -0.651692 -0.269936 -0.708792
vn -0.651692 -0.269936 0.708792
vn -0.691824 -0.137608 -0.708792
vn -0.691824 -0.137608 0.708792
vn -0.705374 0.000000 -0.708792
vn -0.705374 0.000000 0.708792
vn -0.691824 0.137608 -0.708792
vn -0.691824 0.137608 0.708792
vn -0.651692 0.269936 -0.708792
vn -0.651692 0.269936 0.708792
vn -0.586505 0.391888 -0.708792
vn -0.586505 0.391888 0.708792
vn -0.498764 0.498764 -0.708792
vn -0.498764 0.498764 0.708792
vn -0.391888 0.586505 -0.708792
vn -0.391888 0.586505 0.708792
vn -0.269936 0.651692 -0.708792
vn -0.269936 0.651692 0.708792
vn -0.137608 0.691824 -0.708792
vn -0.137608 0.691824 0.708792
vn 0.000000 0.705374 -0.708792
vn 0.000000 0.705374 0.708792
vn 0.137608 0.691824 -0.708792
vn 0.137608 0.691824 0.708792
vn 0.269936 0.651692 -0.708792
vn 0.269936 0.651692 0.708792
vn 0.391888 0.586505 -0.708792
vn 0.391888 0.586505 0.708792
usemtl (null)
usemtl (null)
s 1
f 65//1 1//2 2//3
f 66//4 34//5 33//6
f 65//1 2//3 3//7
f 66//4 35//8 34//5
f 65//1 3//7 4//9
f 66//4 36//10 35//8
f 65//1 4//9 5//11
f 66//4 37//12 36//10
f 65//1 5//11 6//13
f 66//4 38//14 37//12
f 65//1 6//13 7//15
f 66//4 39//16 38//14
f 65//1 7//15 8//17
f 66//4 40//18 39//16
f 65//1 8//17 9//19
f 66//4 41//20 40//18
f 65//1 9//19 10//21
f 66//4 42//22 41//20
f 65//1 10//21 11//23
f 66//4 43//24 42//22
f 65//1 11//23 12//25
f 66//4 44//26 43//24
f 65//1 12//25 13//27
f 66//4 45//28 44//26
f 65//1 13//27 14//29
f 66//4 46//30 45//28
f 65//1 14//29 15//31
f 66//4 47//32 46//30
f 65//1 15//31 16//33
f 66//4 48//34 47//32
f 65//1 16//33 17//35
f 66//4 49//36 48//34
f 65//1 17//35 18//37
f 66//4 50//38 49//36
f 65//1 18//37 19//39
f 66//4 51//40 50//38
f 65//1 19//39 20//41
f 66//4 52//42 51//40
f 65//1 20//41 21//43
f 66//4 53//44 52//42
f 65//1 21//43 22//45
f 66//4 54//46 53//44
f 65//1 22//45 23//47
f 66//4 55//48 54//46
f 65//1 23//47 24//49
f 66//4 56//50 55//48
f 65//1 24//49 25//51
f 66//4 57//52 56//50
f 65//1 25//51 26//53
f 66//4 58//54 57//52
f 65//1 26//53 27//55
f 66//4 59//56 58//54
f 65//1 27//55 28//57
f 66//4 60//58 59//56
f 65//1 28//57 29//59
f 66//4 61//60 60//58
f 65//1 29//59 30//61
f 66//4 62//62 61//60
f 65//1 30//61 31//63
f 66//4 63//64 62//62
f 65//1 31//63 32//65
f 66//4 64//66 63//64
f 32//65 1//2 65//1
f 66//4 33//6 64//66
f 1//2 33//6 34//5 2//3
f 2//3 34//5 35//8 3//7
f 3//7 35//8 36//10 4//9
f 4//9 36//10 37//12 5//11
f 5//11 37//12 38//14 6//13
f 6//13 38//14 39//16 7//15
f 7//15 39//16 40//18 8//17
f 8//17 40//18 41//20 9//19
f 9//19 41//20 42//22 10//21
f 10//21 42//22 43//24 11//23
f 11//23 43//24 44//26 12//25
f 12//25 44//26 45//28 13//27
f 13//27 45//28 46//30 14//29
f 14//29 46//30 47//32 15//31
f 15//31 47//32 48//34 16//33
f 16//33 48//34 49//36 17//35
f 17//35 49//36 50//38 18//37
f 18//37 50//38 51//40 19//39
f 19//39 51//40 52//42 20//41
f 20//41 52//42 53//44 21//43
f 21//43 53//44 54//46 22//45
f 22//45 54//46 55//48 23//47
f 23//47 55//48 56//50 24//49
f 24//49 56//50 57//52 25//51
f 25//51 57//52 58//54 26//53
f 26//53 58//54 59//56 27//55
f 27//55 59//56 60//58 28//57
f 28//57 60//58 61//60 29//59
f 29//59 61//60 62//62 30//61
f 30//61 62//62 63//64 31//63
f 31//63 63//64 64//66 32//65
f 33//6 1//2 32//65 64//66
