# This file uses centimeters as units for non-parametric coordinates.

mtllib PowerCell.mtl
g default
v -4.140413 -2.070413 2.070413
v -2.070413 -4.140413 2.070413
v -2.070413 -2.070413 4.140413
v 2.070413 -4.140413 2.070413
v 4.140413 -2.070413 2.070413
v 2.070413 -2.070413 4.140413
v -2.070413 4.140413 2.070413
v -4.140413 2.070413 2.070413
v -2.070413 2.070413 4.140413
v 4.140413 2.070413 2.070413
v 2.070413 4.140413 2.070413
v 2.070413 2.070413 4.140413
v -2.070413 2.070413 -4.140413
v -4.140413 2.070413 -2.070413
v -2.070413 4.140413 -2.070413
v 4.140413 2.070413 -2.070413
v 2.070413 2.070413 -4.140413
v 2.070413 4.140413 -2.070413
v -2.070413 -4.140413 -2.070413
v -4.140413 -2.070413 -2.070413
v -2.070413 -2.070413 -4.140413
v 4.140413 -2.070413 -2.070413
v 2.070413 -4.140413 -2.070413
v 2.070413 -2.070413 -4.140413
vt 0.522932 0.618779
vt 0.843029 0.618779
vt 0.522932 0.618779
vt 0.843029 0.618779
vt 0.843029 0.938876
vt 0.843029 0.938876
vt 0.843029 0.618779
vt 0.522932 0.618779
vt 0.843029 0.938876
vt 0.843029 0.938876
vt 0.522932 0.618779
vt 0.843029 0.618779
vt 0.522932 0.618779
vt 0.843029 0.938876
vt 0.843029 0.938876
vt 0.843029 0.618779
vt 0.843029 0.618779
vt 0.522932 0.618779
vt 0.522932 0.618779
vt 0.843029 0.618779
vt 0.522932 0.618779
vt 0.843029 0.618779
vt 0.522932 0.618779
vt 0.843029 0.618779
vt 0.522932 0.938876
vt 0.963936 0.053491
vt 0.843029 0.618779
vt 0.843029 0.938876
vt 0.522932 0.618779
vt 0.843029 0.938876
vt 0.843029 0.938876
vt 0.522932 0.618779
vt 0.843029 0.618779
vt 0.044778 0.053491
vt 0.843029 0.618779
vt 0.522932 0.938876
vt 0.522932 0.618779
vt 0.843029 0.938876
vt 0.963936 0.053491
vt 0.843029 0.938876
vt 0.843029 0.618779
vt 0.044778 0.053491
vt 0.522932 0.618779
vt 0.522932 0.938876
vt 0.044778 0.972650
vt 0.044778 0.053491
vt 0.963936 0.053491
vt 0.963936 0.972650
vt 0.963936 0.053491
vt 0.963936 0.972650
vt 0.044778 0.972649
vt 0.044778 0.053491
vt 0.963936 0.053491
vt 0.963936 0.972650
vt 0.044778 0.972649
vt 0.044778 0.053491
vt 0.963936 0.972649
vt 0.044777 0.972649
vt 0.044778 0.053491
vt 0.963936 0.053491
vt 0.963936 0.972650
vt 0.044778 0.972649
vt 0.963936 0.972650
vt 0.044778 0.972649
vt 0.522932 0.618779
vt 0.843029 0.618779
vt 0.843029 0.938876
vt 0.522932 0.938876
vt 0.522932 0.618779
vt 0.843029 0.618779
vt 0.843029 0.938876
vt 0.522932 0.938876
vt 0.843029 0.938876
vt 0.522932 0.938876
vt 0.522932 0.618779
vt 0.843029 0.618779
vt 0.843029 0.938876
vt 0.522932 0.938876
vt 0.843029 0.938876
vt 0.522932 0.938876
vt 0.843029 0.938876
vt 0.522932 0.938876
vt 0.522932 0.618779
vt 0.843029 0.618779
vt 0.843029 0.938876
vt 0.522932 0.938876
vt 0.843029 0.938876
vt 0.522932 0.938876
vt 0.522932 0.618779
vt 0.843029 0.618779
vt 0.522932 0.618779
vt 0.843029 0.618779
vt 0.522932 0.618779
vt 0.843029 0.618779
vt 0.843029 0.938876
vt 0.522932 0.938876
vn 0.000000 -1.000000 0.000000
vn 0.000000 -1.000000 0.000000
vn 0.000000 -1.000000 0.000000
vn 0.000000 -1.000000 0.000000
vn 0.000000 0.000000 1.000000
vn 0.000000 0.000000 1.000000
vn 0.000000 0.000000 1.000000
vn 0.000000 0.000000 1.000000
vn -1.000000 0.000000 0.000000
vn -1.000000 0.000000 0.000000
vn -1.000000 0.000000 0.000000
vn -1.000000 0.000000 0.000000
vn 1.000000 0.000000 0.000000
vn 1.000000 0.000000 0.000000
vn 1.000000 0.000000 0.000000
vn 1.000000 0.000000 0.000000
vn 0.000000 1.000000 0.000000
vn 0.000000 1.000000 0.000000
vn 0.000000 1.000000 0.000000
vn 0.000000 1.000000 0.000000
vn 0.000000 0.000000 -1.000000
vn 0.000000 0.000000 -1.000000
vn 0.000000 0.000000 -1.000000
vn 0.000000 0.000000 -1.000000
vn -0.707107 -0.707107 -0.000000
vn -0.707107 -0.707107 -0.000000
vn -0.707107 -0.707107 -0.000000
vn -0.707107 -0.707107 -0.000000
vn 0.000000 -0.707107 0.707107
vn 0.000000 -0.707107 0.707107
vn 0.000000 -0.707107 0.707107
vn 0.000000 -0.707107 0.707107
vn -0.707107 0.000000 0.707107
vn -0.707107 0.000000 0.707107
vn -0.707107 0.000000 0.707107
vn -0.707107 0.000000 0.707107
vn 0.707107 -0.707107 -0.000000
vn 0.707107 -0.707107 -0.000000
vn 0.707107 -0.707107 -0.000000
vn 0.707107 -0.707107 -0.000000
vn 0.707107 0.000000 0.707107
vn 0.707107 0.000000 0.707107
vn 0.707107 0.000000 0.707107
vn 0.707107 0.000000 0.707107
vn -0.707107 0.707107 -0.000000
vn -0.707107 0.707107 -0.000000
vn -0.707107 0.707107 -0.000000
vn -0.707107 0.707107 -0.000000
vn 0.000000 0.707107 0.707107
vn 0.000000 0.707107 0.707107
vn 0.000000 0.707107 0.707107
vn 0.000000 0.707107 0.707107
vn 0.707107 0.707107 -0.000000
vn 0.707107 0.707107 -0.000000
vn 0.707107 0.707107 -0.000000
vn 0.707107 0.707107 -0.000000
vn -0.707107 -0.000000 -0.707107
vn -0.707107 -0.000000 -0.707107
vn -0.707107 -0.000000 -0.707107
vn -0.707107 -0.000000 -0.707107
vn 0.000000 0.707107 -0.707107
vn 0.000000 0.707107 -0.707107
vn 0.000000 0.707107 -0.707107
vn 0.000000 0.707107 -0.707107
vn 0.707107 -0.000000 -0.707107
vn 0.707107 -0.000000 -0.707107
vn 0.707107 -0.000000 -0.707107
vn 0.707107 -0.000000 -0.707107
vn 0.000000 -0.707107 -0.707107
vn 0.000000 -0.707107 -0.707107
vn 0.000000 -0.707107 -0.707107
vn 0.000000 -0.707107 -0.707107
vn -0.577350 -0.577350 0.577350
vn -0.577350 -0.577350 0.577350
vn -0.577350 -0.577350 0.577350
vn 0.577350 -0.577350 0.577350
vn 0.577350 -0.577350 0.577350
vn 0.577350 -0.577350 0.577350
vn -0.577350 0.577350 0.577350
vn -0.577350 0.577350 0.577350
vn -0.577350 0.577350 0.577350
vn 0.577350 0.577350 0.577350
vn 0.577350 0.577350 0.577350
vn 0.577350 0.577350 0.577350
vn -0.577350 0.577350 -0.577350
vn -0.577350 0.577350 -0.577350
vn -0.577350 0.577350 -0.577350
vn 0.577350 0.577350 -0.577350
vn 0.577350 0.577350 -0.577350
vn 0.577350 0.577350 -0.577350
vn -0.577350 -0.577350 -0.577350
vn -0.577350 -0.577350 -0.577350
vn -0.577350 -0.577350 -0.577350
vn 0.577350 -0.577350 -0.577350
vn 0.577350 -0.577350 -0.577350
vn 0.577350 -0.577350 -0.577350
s off
g pCube1
usemtl initialShadingGroup
f 19/49/1 23/50/2 4/51/3 2/52/4
f 6/53/5 12/54/6 9/55/7 3/56/8
f 8/57/9 14/58/10 20/59/11 1/26/12
f 22/60/13 16/61/14 10/62/15 5/34/16
f 11/39/17 18/63/18 15/64/19 7/42/20
f 17/45/21 24/46/22 21/47/23 13/48/24
f 2/65/25 1/66/26 20/67/27 19/68/28
f 3/69/29 2/70/30 4/71/31 6/72/32
f 1/21/33 3/16/34 9/73/35 8/74/36
f 5/75/37 4/76/38 23/77/39 22/78/40
f 6/13/41 5/17/42 10/79/43 12/80/44
f 8/23/45 7/27/46 15/81/47 14/82/48
f 7/83/49 9/84/50 12/85/51 11/86/52
f 11/37/53 10/33/54 16/87/55 18/88/56
f 14/89/57 13/90/58 21/30/59 20/25/60
f 13/43/61 15/41/62 18/40/63 17/44/64
f 17/91/65 16/92/66 22/31/67 24/36/68
f 19/93/69 21/94/70 24/95/71 23/96/72
f 1/11/73 2/4/74 3/9/75
f 4/3/76 5/7/77 6/10/78
f 7/19/79 8/22/80 9/15/81
f 10/18/82 11/20/83 12/14/84
f 13/29/85 14/24/86 15/28/87
f 16/32/88 17/35/89 18/38/90
f 19/1/91 20/12/92 21/5/93
f 22/8/94 23/2/95 24/6/96
