# 3ds Max Wavefront OBJ Exporter v0.97b - (c)2007 guruware
# File Created: 16.02.2013 23:10:10

mtllib lightpole.mtl

#
# object Lightpole
#

v  -11.3380 141.7354 7.4730
v  -6.6340 115.6776 12.8087
v  -7.0117 142.2772 12.2129
v  -1.8911 115.3625 17.9309
v  -7.0492 142.3485 28.0656
v  -1.9488 115.3877 23.6109
v  -6.5636 115.7505 28.7924
v  -11.3486 141.8507 33.0015
v  14.1081 141.9744 7.3305
v  9.2985 115.8270 12.6422
v  9.3477 142.4290 11.6892
v  4.1722 115.4175 17.4395
v  -6.4537 142.2804 11.7467
v  -1.4891 115.3640 17.4157
v  14.0975 142.0897 32.8590
v  9.3689 115.8999 28.6258
v  9.7716 142.5071 28.0989
v  4.6257 115.4493 23.5198
v  9.8090 142.4358 12.2462
v  4.6834 115.4241 17.8398
v  -6.5877 142.3553 28.6226
v  -1.4375 115.3943 24.0113
v  9.2136 142.5039 28.5651
v  4.2236 115.4478 24.0350
v  12.1489 140.7494 31.3947
v  9.1934 139.6209 28.6580
v  9.1965 139.6150 27.3221
v  1.1030 152.9841 20.6546
v  5.2253 146.0481 25.3663
v  5.9522 146.1576 15.0503
v  9.2317 139.5478 12.3751
v  12.1113 140.6531 10.1796
v  9.2289 139.5533 13.6190
v  -9.5603 140.5462 31.6745
v  -7.0366 139.4684 28.7172
v  -5.7050 139.4809 28.7123
v  7.9536 139.6093 28.6625
v  -3.8385 146.1034 25.2854
v  -9.9522 140.4419 9.4509
v  -6.9982 139.3951 12.4343
v  -7.0013 139.4011 13.7701
v  -4.3768 145.3370 15.3273
v  -7.0337 139.4627 27.4732
v  7.9002 139.5352 12.3800
v  -5.7584 139.4068 12.4298
v  -4.7520 121.8493 15.0641
v  -4.9591 123.4502 16.1180
v  -4.7796 121.9022 26.8125
v  -4.9820 123.4939 25.8416
v  7.1394 123.6072 25.6487
v  7.1623 123.5635 15.9251
v  6.3915 124.1932 25.4237
v  6.4136 124.1514 16.1318
v  -4.2109 124.0522 16.3178
v  -6.1534 139.2251 14.0757
v  -4.2328 124.0940 25.6097
v  -6.1843 139.2841 27.1705
v  6.9583 121.9595 15.0215
v  5.8764 123.5463 14.7857
v  -3.8158 123.4552 14.8210
v  7.6529 139.4173 27.8159
v  -5.3994 139.2946 27.8635
v  5.6603 124.1417 15.5249
v  7.5944 139.3509 13.2366
v  -3.6013 124.0545 15.5587
v  -5.4579 139.2282 13.2841
v  6.9306 122.0123 26.7699
v  -1.4542 2.7374 -7.5373
v  -1.0236 2.7695 -1.3181
v  -0.5345 169.0858 -10.5213
v  -0.2047 169.1104 -5.7541
v  5.1759 2.8299 -0.8940
v  4.5470 169.1567 -5.4291
v  4.7454 2.7977 -7.1132
v  4.2171 169.1319 -10.1958
v  -1.9393 166.8320 -11.9942
v  -1.4970 160.6493 -11.8653
v  -1.1853 166.4819 25.4211
v  -0.8464 161.7427 25.5200
v  4.7033 160.2635 -11.8785
v  3.9059 161.4468 25.5097
v  4.2610 166.4462 -12.0074
v  3.5670 166.1856 25.4110
v  -2.5397 137.2501 -8.3004
v  -2.2347 135.0807 -4.4421
v  -1.9682 163.8406 6.9620
v  -1.7345 162.1777 9.9196
v  2.1534 134.9659 -4.1810
v  1.6289 162.0896 10.1197
v  1.8485 137.1353 -8.0393
v  1.3952 163.7525 7.1625
v  8.3485 139.4203 27.0244
v  8.3793 139.3615 13.9296
v  -3.6962 123.5111 26.9810
v  5.9958 123.6024 26.9457
v  -3.4797 124.1038 26.2167
v  5.7821 124.1910 26.1830
v  -0.0518 163.7649 20.8110
v  0.9243 163.7576 19.1720
v  0.9050 120.9127 21.0988
v  2.6846 163.7749 19.8913
v  1.7085 163.7822 21.5303
# 102 vertices

vn -0.6841 -0.2628 -0.6804
vn -0.6922 -0.2917 -0.6601
vn -0.9090 -0.0852 0.4079
vn -0.9475 -0.1149 0.2984
vn -0.9140 -0.1081 -0.3910
vn -0.9435 -0.1280 -0.3055
vn -0.6685 -0.2663 0.6944
vn -0.6760 -0.2365 0.6979
vn 0.6714 -0.2642 -0.6925
vn 0.6718 -0.2933 -0.6802
vn -0.4113 -0.1127 -0.9045
vn -0.2999 -0.1414 -0.9434
vn 0.3936 -0.1191 -0.9115
vn 0.3019 -0.1428 -0.9426
vn 0.7023 -0.2354 0.6718
vn 0.6788 -0.2647 0.6849
vn 0.9100 -0.1041 -0.4013
vn 0.9449 -0.1267 -0.3017
vn 0.9123 -0.0901 0.3996
vn 0.9470 -0.1178 0.2990
vn 0.4072 -0.0768 0.9101
vn 0.3089 -0.1008 0.9457
vn -0.3941 -0.0803 0.9155
vn -0.2990 -0.1037 0.9486
vn 0.7183 -0.0904 0.6899
vn 0.4017 -0.8200 0.4076
vn 0.6126 -0.7650 -0.1987
vn 0.0161 0.9994 0.0301
vn 0.3930 0.8061 0.4424
vn 0.4112 0.8044 -0.4287
vn 0.3895 -0.8115 -0.4356
vn 0.7379 -0.1124 -0.6655
vn 0.6227 -0.7550 0.2054
vn -0.6882 -0.1125 0.7168
vn -0.4144 -0.8203 0.3941
vn 0.2164 -0.7570 0.6165
vn -0.1957 -0.7541 0.6269
vn -0.4469 0.7977 0.4048
vn -0.7073 -0.1187 -0.6969
vn -0.3839 -0.8374 -0.3890
vn -0.6132 -0.7616 0.2095
vn -0.4526 0.8131 -0.3660
vn -0.6268 -0.7525 -0.2023
vn -0.1862 -0.7445 -0.6411
vn 0.2070 -0.7735 -0.5990
vn -0.5393 -0.6532 -0.5315
vn -0.9804 0.1000 0.1697
vn -0.5374 -0.6398 0.5494
vn -0.9809 0.0871 -0.1740
vn 0.9810 0.0903 -0.1719
vn 0.9794 0.0991 0.1762
vn 0.8268 0.3156 -0.4656
vn 0.8263 0.3275 0.4582
vn -0.8276 0.3243 0.4582
vn -0.6814 -0.5222 0.5128
vn -0.8285 0.3104 -0.4662
vn -0.6801 -0.5375 -0.4985
vn 0.5442 -0.6478 -0.5331
vn -0.1797 0.0761 -0.9808
vn 0.1709 0.0742 -0.9825
vn -0.5028 -0.5208 0.6899
vn 0.5095 -0.5163 0.6884
vn -0.4643 0.3052 -0.8314
vn -0.5056 -0.5370 -0.6753
vn 0.4606 0.3080 -0.8325
vn 0.5091 -0.5335 -0.6755
vn 0.5433 -0.6348 0.5495
vn -0.7141 -0.0086 -0.7000
vn -0.7052 0.0224 0.7087
vn -0.5805 0.5627 -0.5885
vn -0.5753 0.5917 0.5648
vn 0.7004 0.0221 0.7134
vn 0.5790 0.5829 0.5701
vn 0.7085 -0.0108 -0.7056
vn 0.5692 0.5823 -0.5804
vn -0.5886 0.5747 -0.5686
vn -0.5769 -0.5903 -0.5646
vn -0.5779 0.5813 0.5728
vn -0.5650 -0.5617 0.6044
vn 0.5887 -0.5914 -0.5511
vn 0.5780 -0.5639 0.5899
vn 0.5746 0.5717 -0.5857
vn 0.5673 0.5809 0.5838
vn -0.5858 -0.2082 -0.7833
vn -0.5747 -0.7870 0.2245
vn -0.5779 0.7854 -0.2217
vn -0.5701 0.2389 0.7861
vn 0.5870 -0.7735 0.2389
vn 0.5765 0.2290 0.7843
vn 0.5785 -0.2202 -0.7854
vn 0.5663 0.7972 -0.2090
vn 0.6849 -0.5295 -0.5006
vn 0.6859 -0.5171 0.5121
vn 0.1737 0.1119 0.9784
vn -0.1694 0.1145 0.9789
vn 0.4617 0.3353 0.8212
vn -0.4644 0.3310 0.8215
vn -0.9486 -0.0191 0.3158
vn -0.3098 -0.0426 -0.9498
vn -0.0096 -0.9998 0.0175
vn 0.9468 -0.0483 -0.3181
vn 0.3243 -0.0156 0.9458
# 102 vertex normals

vt 0.0855 1.4582 0.0000
vt 0.0855 1.4040 0.0000
vt 0.1009 1.4582 0.0000
vt 0.1009 1.4040 0.0000
vt 0.1247 1.4582 0.0000
vt 0.1247 1.4040 0.0000
vt 0.1395 1.4040 0.0000
vt 0.1395 1.4582 0.0000
vt 0.0107 1.6710 0.0000
vt 0.0135 1.6670 0.0000
vt 0.0155 1.6670 0.0000
vt 0.0914 1.6401 0.0000
vt 0.0689 1.6401 0.0000
vt 0.0914 1.6615 0.0000
vt 0.0477 1.6670 0.0000
vt 0.0501 1.6711 0.0000
vt 0.0455 1.6670 0.0000
vt 0.0694 1.6401 0.0000
vt 0.0914 1.6621 0.0000
vt 0.0668 1.6401 0.0000
vt 0.0914 1.6616 0.0000
vt 0.0914 1.6640 0.0000
vt 0.0869 1.6403 0.0000
vt 0.0840 1.6443 0.0000
vt 0.0393 1.6402 0.0000
vt 0.0397 1.6443 0.0000
vt 0.0417 1.6402 0.0000
vt 0.0892 1.6399 0.0000
vt 0.0447 1.6443 0.0000
vt 0.0889 1.6443 0.0000
vt 0.0029 1.6401 0.0000
vt 0.0358 1.6401 0.0000
vt 0.0064 1.6433 0.0000
vt 0.0327 1.6433 0.0000
vt 0.0084 1.6451 0.0000
vt 0.0310 1.6450 0.0000
vt 0.0823 1.6470 0.0000
vt 0.0431 1.6470 0.0000
vt 0.0463 1.6470 0.0000
vt 0.0856 1.6470 0.0000
vt 0.0836 1.6477 0.0000
vt 0.0813 1.6808 0.0000
vt 0.0803 1.6500 0.0000
vt 0.0784 1.6775 0.0000
vt 0.0459 1.6435 0.0000
vt 0.0830 1.6435 0.0000
vt 0.0459 1.6806 0.0000
vt 0.0830 1.6806 0.0000
vt 0.2033 1.4108 0.0000
vt 0.2033 1.3963 0.0000
vt 0.0005 1.4108 0.0000
vt 0.0009 1.3963 0.0000
vt 0.2032 1.3963 0.0000
vt 0.0009 1.4108 0.0000
vt 0.2032 1.4108 0.0000
vt 0.2490 1.4108 0.0000
vt 0.2491 1.3963 0.0000
vt 0.0467 1.4108 0.0000
vt 0.0462 1.3963 0.0000
vt 0.0492 1.6401 0.0000
vt 0.0914 1.6812 0.0000
vt 0.4633 1.0720 0.0000
vt 0.4943 1.0743 0.0000
vt 0.4656 1.1030 0.0000
vt 0.4965 1.1052 0.0000
vt 0.2178 1.4108 0.0000
vt 0.2178 1.3963 0.0000
vt 0.0948 1.4108 0.0000
vt 0.0951 1.3963 0.0000
vt 0.2177 1.3963 0.0000
vt 0.0951 1.4108 0.0000
vt 0.2177 1.4108 0.0000
vt 0.2455 1.4108 0.0000
vt 0.2455 1.3963 0.0000
vt 0.1229 1.4108 0.0000
vt 0.1225 1.3963 0.0000
vt 0.4979 1.1047 0.0000
vt 0.4663 1.1024 0.0000
vt 0.4956 1.0731 0.0000
vt 0.4640 1.0709 0.0000
vt 0.4676 1.0761 0.0000
vt 0.4694 1.1003 0.0000
vt 0.4918 1.0778 0.0000
vt 0.4936 1.1020 0.0000
vt 0.1877 1.4108 0.0000
vt 0.1876 1.3963 0.0000
vt 0.0035 1.4108 0.0000
vt 0.0039 1.3963 0.0000
vt 0.1876 1.4108 0.0000
vt 0.0039 1.4108 0.0000
vt 0.2292 1.4108 0.0000
vt 0.2292 1.3963 0.0000
vt 0.0455 1.4108 0.0000
vt 0.0450 1.3963 0.0000
vt 0.1385 1.3167 0.0000
vt 0.1421 1.2701 0.0000
vt 0.1672 1.3167 0.0000
vt 0.1636 1.2701 0.0000
vt 0.4610 1.0067 0.0000
vt 0.4610 1.0048 0.0000
vt 0.3333 1.0033 0.0000
vt 0.4610 1.0029 0.0000
vt 0.4610 1.0010 0.0000
vt 0.4610 0.9991 0.0000
# 104 texture coords

g Lightpole
usemtl _46b809b_dds
s 1
f 1/1/1 2/2/2 3/3/3 
f 2/2/2 4/4/4 3/3/3 
f 3/3/3 4/4/4 5/5/5 
f 4/4/4 6/6/6 5/5/5 
f 6/6/6 7/7/7 5/5/5 
f 5/5/5 7/7/7 8/8/8 
f 9/1/9 10/2/10 11/3/11 
f 10/2/10 12/4/12 11/3/11 
f 11/3/11 12/4/12 13/5/13 
f 12/4/12 14/6/14 13/5/13 
f 14/6/14 2/7/2 13/5/13 
f 13/5/13 2/7/2 1/8/1 
f 15/1/15 16/2/16 17/3/17 
f 16/2/16 18/4/18 17/3/17 
f 17/3/17 18/4/18 19/5/19 
f 18/4/18 20/6/20 19/5/19 
f 20/6/20 10/7/10 19/5/19 
f 19/5/19 10/7/10 9/8/9 
f 8/1/8 7/2/7 21/3/21 
f 7/2/7 22/4/22 21/3/21 
f 21/3/21 22/4/22 23/5/23 
f 22/4/22 24/6/24 23/5/23 
f 24/6/24 16/7/16 23/5/23 
f 23/5/23 16/7/16 15/8/15 
usemtl _e5f86cc_dds
f 25/9/25 26/10/26 27/11/27 
f 28/12/28 29/13/29 30/14/30 
f 31/15/31 32/16/32 33/17/33 
f 25/9/25 27/11/27 32/16/32 
f 27/11/27 33/17/33 32/16/32 
f 34/9/34 35/10/35 36/11/36 
f 25/16/25 34/9/34 37/17/37 
f 34/9/34 36/11/36 37/17/37 
f 28/12/28 38/18/38 29/19/29 
f 26/15/26 25/16/25 37/17/37 
f 39/9/39 40/10/40 41/11/41 
f 28/12/28 42/20/42 38/21/38 
f 35/15/35 34/16/34 43/17/43 
f 39/9/39 41/11/41 34/16/34 
f 41/11/41 43/17/43 34/16/34 
f 32/9/32 31/10/31 44/11/44 
f 28/12/28 30/18/30 42/22/42 
f 40/15/40 39/16/39 45/17/45 
f 32/9/32 44/11/44 39/16/39 
f 44/11/44 45/17/45 39/16/39 
f 46/23/46 47/24/47 40/25/40 
f 47/24/47 41/26/41 40/25/40 
f 48/27/48 35/28/35 49/29/49 
f 35/28/35 43/30/43 49/29/49 
f 46/31/46 48/32/48 47/33/47 
f 48/32/48 49/34/49 47/33/47 
f 50/33/50 51/34/51 52/35/52 
f 51/34/51 53/36/53 52/35/52 
f 47/24/47 54/37/54 41/26/41 
f 54/37/54 55/38/55 41/26/41 
f 47/33/47 49/34/49 54/35/54 
f 49/34/49 56/36/56 54/35/54 
f 49/29/49 43/30/43 56/39/56 
f 43/30/43 57/40/57 56/39/56 
f 43/41/43 41/42/41 57/43/57 
f 41/42/41 55/44/55 57/43/57 
f 58/23/58 59/24/59 31/25/31 
f 59/24/59 44/26/44 31/25/31 
f 46/27/46 40/28/40 60/29/60 
f 40/28/40 45/30/45 60/29/60 
f 58/31/58 46/32/46 59/33/59 
f 46/32/46 60/34/60 59/33/59 
f 37/41/37 36/42/36 61/43/61 
f 36/42/36 62/44/62 61/43/61 
f 59/24/59 63/37/63 44/26/44 
f 63/37/63 64/38/64 44/26/44 
f 59/33/59 60/34/60 63/35/63 
f 60/34/60 65/36/65 63/35/63 
f 60/29/60 45/30/45 65/39/65 
f 45/30/45 66/40/66 65/39/65 
f 45/41/45 44/42/44 66/43/66 
f 44/42/44 64/44/64 66/43/66 
f 58/45/58 67/46/67 46/47/46 
f 67/46/67 48/48/48 46/47/46 
f 68/49/68 69/50/69 70/51/70 
f 69/50/69 71/52/71 70/51/70 
f 69/49/69 72/53/72 71/54/71 
f 72/53/72 73/52/73 71/54/71 
f 72/55/72 74/53/74 73/54/73 
f 74/53/74 75/52/75 73/54/73 
f 74/56/74 68/57/68 75/58/75 
f 68/57/68 70/59/70 75/58/75 
f 39/60/39 34/61/34 42/20/42 
f 34/61/34 38/21/38 42/20/42 
f 25/61/25 29/19/29 34/60/34 
f 29/19/29 38/18/38 34/60/34 
f 25/60/25 32/61/32 29/13/29 
f 32/61/32 30/14/30 29/13/29 
f 32/60/32 39/61/39 30/18/30 
f 39/61/39 42/22/42 30/18/30 
f 73/62/73 75/63/75 71/64/71 
f 75/63/75 70/65/70 71/64/71 
f 76/66/76 77/67/77 78/68/78 
f 77/67/77 79/69/79 78/68/78 
f 77/66/77 80/70/80 79/71/79 
f 80/70/80 81/69/81 79/71/79 
f 80/72/80 82/70/82 81/71/81 
f 82/70/82 83/69/83 81/71/81 
f 82/73/82 76/74/76 83/75/83 
f 76/74/76 78/76/78 83/75/83 
f 76/77/76 82/78/82 77/79/77 
f 82/78/82 80/80/80 77/79/77 
f 81/81/81 83/82/83 79/83/79 
f 83/82/83 78/84/78 79/83/79 
f 84/85/84 85/86/85 86/87/86 
f 85/86/85 87/88/87 86/87/86 
f 85/89/85 88/86/88 87/90/87 
f 88/86/88 89/88/89 87/90/87 
f 88/89/88 90/86/90 89/90/89 
f 90/86/90 91/88/91 89/90/89 
f 90/91/90 84/92/84 91/93/91 
f 84/92/84 86/94/86 91/93/91 
f 84/77/84 90/78/90 85/79/85 
f 90/78/90 88/80/88 85/79/85 
f 89/81/89 91/82/91 87/83/87 
f 91/82/91 86/84/86 87/83/87 
f 67/23/67 50/24/50 26/25/26 
f 50/24/50 27/26/27 26/25/26 
f 58/27/58 31/28/31 51/29/51 
f 31/28/31 33/30/33 51/29/51 
f 67/31/67 58/32/58 50/33/50 
f 58/32/58 51/34/51 50/33/50 
f 50/24/50 52/37/52 27/26/27 
f 52/37/52 92/38/92 27/26/27 
f 51/29/51 33/30/33 53/39/53 
f 33/30/33 93/40/93 53/39/53 
f 33/41/33 27/42/27 93/43/93 
f 27/42/27 92/44/92 93/43/93 
f 48/23/48 94/24/94 35/25/35 
f 94/24/94 36/26/36 35/25/35 
f 67/27/67 26/28/26 95/29/95 
f 26/28/26 37/30/37 95/29/95 
f 48/31/48 67/32/67 94/33/94 
f 67/32/67 95/34/95 94/33/94 
f 94/24/94 96/37/96 36/26/36 
f 96/37/96 62/38/62 36/26/36 
f 94/33/94 95/34/95 96/35/96 
f 95/34/95 97/36/97 96/35/96 
f 95/29/95 37/30/37 97/39/97 
f 37/30/37 61/40/61 97/39/97 
f 92/95/92 52/96/52 93/97/93 
f 52/96/52 53/98/53 93/97/93 
f 62/95/62 96/96/96 61/97/61 
f 96/96/96 97/98/97 61/97/61 
f 55/95/55 54/96/54 57/97/57 
f 54/96/54 56/98/56 57/97/57 
f 64/95/64 63/96/63 66/97/66 
f 63/96/63 65/98/65 66/97/66 
f 98/99/98 99/100/99 100/101/100 
f 99/100/99 101/102/101 100/101/100 
f 101/102/101 102/103/102 100/101/100 
f 100/101/100 102/103/102 98/104/98 
# 156 faces

