# 3ds Max Wavefront OBJ Exporter v0.97b - (c)2007 guruware
# File Created: 17.02.2013 00:14:14

mtllib Rock3.mtl

#
# object Rock2
#

v  -42.1424 11.5590 14.3509
v  -38.8818 11.2477 14.1590
v  -44.7303 3.4442 19.4126
v  -34.6285 3.4191 12.3447
v  -30.8605 0.7502 26.1254
v  -38.5400 -2.0188 20.0199
v  -30.1279 4.7053 19.2214
v  -40.3929 0.5429 30.3189
v  -30.0086 3.9900 33.1064
v  -36.1461 9.3533 32.3189
v  -40.2205 13.2934 27.5696
v  -42.6252 13.0208 20.2003
v  28.1466 -0.8603 12.3853
v  30.6880 15.5735 9.8261
v  13.6779 -0.8027 30.6044
v  3.5579 19.5615 21.1857
v  17.3284 -1.1401 -13.1181
v  8.3429 24.3945 -7.8330
v  -20.7740 23.2677 0.1651
v  -19.1942 -1.1195 17.7338
v  -39.6093 -1.4785 -9.9184
v  -22.0164 18.3517 -21.9319
v  -17.2745 -1.4861 -28.1708
v  -11.9456 9.0275 -26.4857
v  -21.3290 4.9492 42.4418
v  -22.8702 5.2762 41.3766
v  -19.9107 -0.9303 41.2127
v  -26.6827 1.8295 40.8600
v  -23.3308 -0.9720 38.8051
v  -26.1277 2.2769 36.0726
v  -24.1815 -0.7756 33.2408
v  -22.4956 -1.3564 29.7201
v  -18.3229 2.2218 32.0990
v  -18.6367 -0.9761 34.6748
v  -17.4520 4.4275 35.6487
v  -18.9117 4.9067 39.8956
v  -35.3514 14.3983 17.5413
v  -31.1642 12.8830 23.3157
v  -29.1129 8.6918 28.8633
v  -22.6618 3.3364 31.1985
v  -22.8974 6.0792 34.3899
v  -22.7379 7.0714 38.5010
# 42 vertices

vn -0.4669 0.3961 -0.7906
vn -0.0853 0.4320 -0.8978
vn -0.9753 -0.2001 -0.0935
vn 0.4736 -0.2061 -0.8563
vn 0.6641 -0.7450 0.0631
vn 0.0496 -0.9980 -0.0380
vn 0.8964 -0.1928 -0.3992
vn -0.5189 -0.5770 0.6308
vn 0.5902 -0.2574 0.7651
vn -0.1286 0.4661 0.8753
vn -0.4673 0.7549 0.4601
vn -0.6849 0.7286 0.0095
vn 0.9742 -0.1210 0.1904
vn 0.8685 0.4866 0.0949
vn 0.2141 0.3586 0.9086
vn -0.0622 0.7313 0.6793
vn 0.6536 0.2182 -0.7247
vn 0.3519 0.8490 -0.3942
vn -0.5061 0.8273 0.2439
vn -0.5838 0.3779 0.7186
vn -0.8953 0.4398 -0.0706
vn -0.4031 0.6657 -0.6280
vn -0.1778 0.0865 -0.9803
vn 0.1969 0.2873 -0.9374
vn 0.0287 0.4437 0.8957
vn -0.3059 0.5915 0.7460
vn 0.4898 -0.3466 0.8000
vn -0.8419 -0.1339 0.5228
vn -0.5797 -0.7743 0.2538
vn -0.9764 0.0232 -0.2146
vn -0.9162 -0.1419 -0.3747
vn -0.1820 0.0267 -0.9829
vn 0.7503 0.1663 -0.6398
vn 0.9339 -0.3318 -0.1332
vn 0.8639 0.4932 -0.1022
vn 0.7539 0.5313 0.3864
vn 0.3086 0.8769 -0.3685
vn 0.6455 0.7633 -0.0257
vn 0.8574 0.4052 0.3173
vn -0.3053 0.4962 -0.8127
vn -0.2494 0.8769 -0.4109
vn -0.1536 0.9846 0.0838
# 42 vertex normals

vt 0.6979 1.3203 0.0000
vt 0.6756 1.3203 0.0000
vt 0.7295 1.3072 0.0000
vt 0.6548 1.3122 0.0000
vt 0.6745 1.2738 0.0000
vt 0.6880 1.2905 0.0000
vt 0.6630 1.2905 0.0000
vt 0.7098 1.2738 0.0000
vt 0.6820 1.2571 0.0000
vt 0.7146 1.2608 0.0000
vt 0.7023 1.2768 0.0000
vt 0.7282 1.2782 0.0000
vt 0.7024 1.2936 0.0000
vt 0.6998 1.3103 0.0000
vt 0.7389 1.3855 0.0000
vt 0.7341 1.4031 0.0000
vt 0.7159 1.3702 0.0000
vt 0.6996 1.3903 0.0000
vt 0.7486 1.4158 0.0000
vt 0.7265 1.4458 0.0000
vt 0.7069 1.4248 0.0000
vt 0.6723 1.4176 0.0000
vt 0.6659 1.3858 0.0000
vt 0.7022 1.3645 0.0000
vt 0.6465 1.4637 0.0000
vt 0.6722 1.4447 0.0000
vt 0.6812 1.4657 0.0000
vt 0.6856 1.4554 0.0000
vt 0.6413 1.4364 0.0000
vt 0.6481 1.3960 0.0000
vt 0.6936 1.3115 0.0000
vt 0.6778 1.3115 0.0000
vt 0.7161 1.3022 0.0000
vt 0.6631 1.3057 0.0000
vt 0.6866 1.2903 0.0000
vt 0.6689 1.2903 0.0000
vt 0.6770 1.2785 0.0000
vt 0.7055 1.2693 0.0000
vt 0.6968 1.2806 0.0000
vt 0.7151 1.2816 0.0000
vt 0.6969 1.2925 0.0000
vt 0.6950 1.3044 0.0000
vt 0.6785 1.3103 0.0000
vt 0.6783 1.2936 0.0000
vt 0.6789 1.2768 0.0000
vt 0.6835 1.2601 0.0000
vt 0.6628 1.2943 0.0000
vt 0.6606 1.2776 0.0000
vt 0.6634 1.2609 0.0000
vt 0.6692 1.2693 0.0000
vt 0.6672 1.2812 0.0000
vt 0.6802 1.2806 0.0000
vt 0.6687 1.2930 0.0000
vt 0.6797 1.2925 0.0000
vt 0.6799 1.3044 0.0000
vt 0.6834 1.2688 0.0000
# 56 texture coords

g Rock2
usemtl Rock
s 1
f 1/1/1 2/2/2 3/3/3 
f 2/2/2 4/4/4 3/3/3 
f 5/5/5 6/6/6 7/7/7 
f 6/6/6 4/4/4 7/7/7 
f 3/3/3 6/6/6 8/8/8 
f 6/6/6 5/5/5 8/8/8 
f 8/8/8 5/5/5 9/9/9 
f 9/10/9 10/11/10 8/12/8 
f 10/11/10 11/13/11 8/12/8 
f 8/12/8 11/13/11 3/3/3 
f 11/13/11 12/14/12 3/3/3 
f 3/3/3 12/14/12 1/1/1 
f 13/15/13 14/16/14 15/17/15 
f 14/16/14 16/18/16 15/17/15 
f 13/19/13 17/20/17 14/16/14 
f 17/20/17 18/21/18 14/16/14 
f 14/16/14 18/21/18 16/18/16 
f 18/21/18 19/22/19 16/18/16 
f 19/22/19 20/23/20 16/18/16 
f 16/18/16 20/23/20 15/24/15 
f 21/25/21 22/26/22 23/27/23 
f 22/26/22 24/28/24 23/27/23 
f 23/27/23 24/28/24 17/20/17 
f 17/20/17 24/28/24 18/21/18 
f 24/28/24 22/26/22 18/21/18 
f 18/21/18 22/26/22 19/22/19 
f 22/26/22 21/29/21 19/22/19 
f 19/22/19 21/29/21 20/30/20 
f 25/31/25 26/32/26 27/33/27 
f 26/32/26 28/34/28 27/33/27 
f 27/33/27 28/34/28 29/35/29 
f 28/34/28 30/36/30 29/35/29 
f 29/35/29 30/36/30 31/37/31 
f 32/38/32 33/39/33 34/40/34 
f 33/39/33 35/41/35 34/40/34 
f 34/40/34 35/41/35 27/33/27 
f 35/41/35 36/42/36 27/33/27 
f 27/33/27 36/42/36 25/31/25 
f 37/43/37 12/14/12 38/44/38 
f 12/14/12 11/13/11 38/44/38 
f 11/13/11 10/11/10 38/44/38 
f 38/44/38 10/11/10 39/45/39 
f 10/11/10 9/46/9 39/45/39 
f 1/1/1 12/14/12 2/2/2 
f 12/14/12 37/43/37 2/2/2 
f 2/2/2 37/43/37 4/4/4 
f 37/43/37 38/44/38 4/4/4 
f 4/4/4 38/44/38 7/47/7 
f 38/44/38 39/45/39 7/47/7 
f 7/47/7 39/45/39 5/48/5 
f 39/45/39 9/49/9 5/48/5 
f 32/50/32 31/51/31 40/52/40 
f 31/51/31 30/53/30 40/52/40 
f 40/52/40 30/53/30 41/54/41 
f 41/54/41 30/53/30 42/55/42 
f 30/53/30 28/34/28 42/55/42 
f 42/55/42 28/34/28 26/32/26 
f 32/56/32 40/52/40 33/39/33 
f 40/52/40 41/54/41 33/39/33 
f 33/39/33 41/54/41 35/41/35 
f 35/41/35 41/54/41 36/42/36 
f 41/54/41 42/55/42 36/42/36 
f 42/55/42 26/32/26 36/42/36 
f 36/42/36 26/32/26 25/31/25 
# 64 faces

