# 3ds Max Wavefront OBJ Exporter v0.97b - (c)2007 guruware
# File Created: 17.02.2013 00:10:52

mtllib Rock2.mtl

#
# object Rock3
#

v  26.1679 6.7317 26.4060
v  17.3785 -2.5271 33.8067
v  32.0859 -2.5857 15.2870
v  6.9391 17.8310 23.9105
v  19.3855 19.9585 19.9763
v  34.0690 13.8431 12.5508
v  28.5579 4.3729 -2.4298
v  22.4942 23.0985 1.1224
v  9.3855 25.7205 9.2988
v  -17.3928 21.5372 2.8897
v  -16.0360 -2.8492 20.7238
v  -19.8643 22.1445 -8.0045
v  11.7240 22.6640 -5.1084
v  21.0892 -2.8702 -10.6373
v  -29.9306 10.7137 0.9863
v  -30.8793 6.9601 -15.8859
v  -18.6353 16.6212 -19.2072
v  -8.5645 7.2970 -23.7612
v  -14.0846 -3.2219 -25.9383
v  -37.1625 -3.2163 -7.3426
# 20 vertices

vn 0.6146 0.2296 0.7547
vn 0.1569 0.2691 0.9502
vn 0.9662 -0.1850 0.1794
vn -0.1854 0.6277 0.7561
vn 0.3018 0.7732 0.5577
vn 0.9104 0.4016 0.0994
vn 0.8266 -0.0140 -0.5627
vn 0.5131 0.7778 -0.3629
vn -0.0068 0.9885 0.1514
vn -0.4126 0.8337 0.3670
vn -0.5481 0.3601 0.7549
vn -0.3962 0.9038 -0.1617
vn 0.2426 0.7795 -0.5775
vn 0.6028 0.1521 -0.7833
vn -0.8044 0.4608 0.3748
vn -0.7676 0.2787 -0.5771
vn -0.2534 0.6428 -0.7229
vn 0.2055 0.3067 -0.9294
vn -0.1130 0.0764 -0.9907
vn -0.9827 0.1751 -0.0598
# 20 vertex normals

vt 0.7099 1.2842 0.0000
vt 0.6959 1.2589 0.0000
vt 0.7312 1.2824 0.0000
vt 0.6708 1.2898 0.0000
vt 0.6974 1.2996 0.0000
vt 0.7239 1.3095 0.0000
vt 0.7462 1.3289 0.0000
vt 0.7181 1.3422 0.0000
vt 0.7030 1.3262 0.0000
vt 0.6764 1.3163 0.0000
vt 0.6289 1.3318 0.0000
vt 0.6191 1.2829 0.0000
vt 0.6748 1.2502 0.0000
vt 0.6288 1.3526 0.0000
vt 0.6821 1.3429 0.0000
vt 0.7122 1.3750 0.0000
vt 0.5918 1.2985 0.0000
vt 0.6051 1.3463 0.0000
vt 0.6050 1.3671 0.0000
vt 0.6287 1.3735 0.0000
vt 0.6494 1.3899 0.0000
vt 0.6426 1.4058 0.0000
vt 0.6090 1.3880 0.0000
vt 0.5893 1.4026 0.0000
vt 0.5813 1.3607 0.0000
# 25 texture coords

g Rock3
usemtl Rock
s 1
f 1/1/1 2/2/2 3/3/3 
f 4/4/4 2/2/2 5/5/5 
f 2/2/2 1/1/1 5/5/5 
f 5/5/5 1/1/1 6/6/6 
f 1/1/1 3/3/3 6/6/6 
f 3/7/3 7/8/7 6/6/6 
f 7/8/7 8/9/8 6/6/6 
f 6/6/6 8/9/8 5/5/5 
f 8/9/8 9/10/9 5/5/5 
f 5/5/5 9/10/9 4/4/4 
f 9/10/9 10/11/10 4/4/4 
f 10/11/10 11/12/11 4/4/4 
f 4/4/4 11/12/11 2/13/2 
f 12/14/12 10/11/10 13/15/13 
f 10/11/10 9/10/9 13/15/13 
f 9/10/9 8/9/8 13/15/13 
f 13/15/13 8/9/8 14/16/14 
f 8/9/8 7/8/7 14/16/14 
f 14/16/14 7/8/7 3/7/3 
f 11/17/11 10/11/10 15/18/15 
f 10/11/10 12/14/12 15/18/15 
f 15/18/15 12/14/12 16/19/16 
f 16/19/16 12/14/12 17/20/17 
f 12/14/12 13/15/13 17/20/17 
f 17/20/17 13/15/13 18/21/18 
f 13/15/13 14/16/14 18/21/18 
f 14/16/14 19/22/19 18/21/18 
f 18/21/18 19/22/19 17/20/17 
f 19/22/19 16/23/16 17/20/17 
f 20/24/20 16/23/16 19/22/19 
f 16/19/16 20/25/20 15/18/15 
f 20/25/20 11/17/11 15/18/15 
# 32 faces

