# 3ds Max Wavefront OBJ Exporter v0.97b - (c)2007 guruware
# File Created: 17.02.2013 00:15:51

mtllib Rock4.mtl

#
# object Rock4
#

v  3.2772 -1.3739 50.4210
v  25.5425 -1.2300 50.5881
v  16.7274 14.2170 21.3511
v  42.6989 -1.2676 32.7205
v  36.5280 25.7935 -13.0854
v  17.0114 40.0903 -11.6290
v  26.3789 32.1741 -8.5542
v  -7.2699 33.4714 9.9248
v  39.4604 15.0273 -6.9355
v  38.1388 21.0315 -44.4756
v  12.2878 43.1654 -23.2800
v  -19.5376 37.9661 2.1242
v  -28.8378 30.0949 16.3567
v  -30.9695 23.0197 19.8694
v  -39.0236 17.4149 17.7247
v  -44.9258 22.0932 -13.1554
v  -24.3532 39.7601 -15.7791
v  6.6243 40.7741 -34.7293
v  -28.4778 21.1945 26.9596
v  -17.5016 21.3710 39.8405
v  -1.2333 33.7360 21.4318
v  2.4487 21.5014 40.1399
v  -21.3676 -1.5462 48.6837
v  -37.0383 -1.7648 34.3649
v  -39.2042 -1.8938 20.4204
v  -48.4147 -2.2232 -12.3360
v  -35.2712 20.5769 -42.5769
v  -16.1459 30.7427 -36.3963
v  2.9555 33.1754 -40.2473
v  26.7955 20.4020 -46.3471
v  26.0240 -2.0667 -51.1540
v  35.8618 -1.9432 -43.8305
v  -33.5940 -2.3576 -40.1283
v  -23.7211 12.6007 -52.2134
v  -7.8803 27.6566 -57.1242
v  -8.0226 12.6636 -56.7932
v  11.4554 12.7632 -59.8316
v  16.6227 22.8248 -55.3951
v  -0.4657 34.0997 -51.0598
v  -11.9724 33.3351 -46.8374
v  -6.4124 -2.1832 -40.0923
v  49.0369 -1.6894 -23.3045
v  42.3684 11.8287 2.9645
v  40.9089 -1.4127 16.5271
v  40.1760 30.5354 -5.4295
v  39.2145 31.2556 6.0686
v  44.2927 22.4829 -2.3498
v  42.2762 21.5820 18.9960
v  47.6012 17.4785 11.0847
v  17.6891 25.6615 12.3898
v  46.0435 -1.3481 20.3542
# 51 vertices

vn 0.1795 0.6056 0.7753
vn 0.1658 0.8917 0.4211
vn 0.3403 0.6726 0.6572
vn 0.5156 0.6293 0.5815
vn 0.7823 0.5512 -0.2901
vn 0.3740 0.8773 0.3007
vn 0.3521 0.9165 0.1899
vn -0.0367 0.9524 0.3027
vn 0.9528 0.2034 -0.2253
vn 0.6606 0.4446 -0.6049
vn 0.2128 0.9739 -0.0786
vn -0.1529 0.9467 0.2837
vn -0.2920 0.7123 0.6382
vn -0.4217 0.7012 0.5750
vn -0.8429 0.3894 0.3713
vn -0.8863 0.4608 -0.0467
vn -0.3662 0.9256 -0.0961
vn 0.0147 0.8633 -0.5045
vn -0.5400 0.6963 0.4728
vn -0.3496 0.6427 0.6817
vn 0.1178 0.9378 0.3267
vn 0.4185 0.6028 0.6793
vn -0.3819 0.4114 0.8276
vn -0.7777 0.3403 0.5286
vn -0.9775 0.0381 0.2073
vn -0.9947 0.0736 -0.0720
vn -0.7362 0.3822 -0.5585
vn -0.3323 0.9034 -0.2712
vn 0.0782 0.8695 -0.4876
vn 0.3237 0.4607 -0.8265
vn 0.3651 -0.2020 -0.9088
vn 0.7243 -0.0910 -0.6835
vn -0.6567 -0.3272 -0.6795
vn -0.4505 -0.1439 -0.8811
vn -0.2192 0.4495 -0.8660
vn -0.1922 -0.3729 -0.9077
vn 0.1496 -0.1369 -0.9792
vn 0.4762 0.5455 -0.6897
vn 0.1476 0.9100 -0.3873
vn -0.3097 0.9293 -0.2011
vn -0.1010 -0.7484 -0.6555
vn 0.9505 0.2926 -0.1046
vn 0.9837 -0.0951 -0.1527
vn 0.8447 -0.3030 -0.4412
vn 0.6123 0.7273 -0.3102
vn 0.4236 0.8657 0.2666
vn 0.9524 0.1011 -0.2876
vn 0.4632 0.6306 0.6227
vn 0.9820 0.1881 -0.0159
vn 0.2712 0.7483 0.6054
vn 0.9714 -0.1646 -0.1710
# 51 vertex normals

vt 0.5839 1.2196 0.0000
vt 0.5483 1.2124 0.0000
vt 0.5297 1.2467 0.0000
vt 0.5127 1.2051 0.0000
vt 0.5624 1.4378 0.0000
vt 0.5787 1.4257 0.0000
vt 0.5753 1.4358 0.0000
vt 0.6151 1.4355 0.0000
vt 0.5514 1.4503 0.0000
vt 0.5445 1.4106 0.0000
vt 0.5786 1.4137 0.0000
vt 0.6213 1.4173 0.0000
vt 0.6356 1.4210 0.0000
vt 0.6429 1.4280 0.0000
vt 0.6478 1.4190 0.0000
vt 0.6288 1.3913 0.0000
vt 0.6135 1.4008 0.0000
vt 0.5784 1.4017 0.0000
vt 0.6469 1.4352 0.0000
vt 0.6356 1.4527 0.0000
vt 0.6160 1.4463 0.0000
vt 0.6244 1.4702 0.0000
vt 0.5933 1.4778 0.0000
vt 0.6404 1.4933 0.0000
vt 0.6570 1.4638 0.0000
vt 0.6736 1.4343 0.0000
vt 0.6662 1.4212 0.0000
vt 0.6442 1.3819 0.0000
vt 0.6107 1.3685 0.0000
vt 0.5948 1.3850 0.0000
vt 0.5782 1.3914 0.0000
vt 0.5482 1.4006 0.0000
vt 0.5218 1.3866 0.0000
vt 0.5231 1.4082 0.0000
vt 0.6330 1.3289 0.0000
vt 0.6005 1.3513 0.0000
vt 0.5780 1.3724 0.0000
vt 0.5681 1.3486 0.0000
vt 0.5494 1.3758 0.0000
vt 0.5592 1.3879 0.0000
vt 0.5743 1.3828 0.0000
vt 0.5864 1.3788 0.0000
vt 0.5619 1.3306 0.0000
vt 0.5256 1.4496 0.0000
vt 0.5533 1.4613 0.0000
vt 0.5563 1.4831 0.0000
vt 0.5672 1.4447 0.0000
vt 0.5759 1.4522 0.0000
vt 0.5623 1.4540 0.0000
vt 0.5755 1.4718 0.0000
vt 0.5632 1.4686 0.0000
vt 0.5940 1.4492 0.0000
vt 0.5692 1.4962 0.0000
vt 0.5595 1.4864 0.0000
# 54 texture coords

g Rock4
usemtl Rock
s 1
f 1/1/1 2/2/2 3/3/3 
f 2/2/2 4/4/4 3/3/3 
f 5/5/5 6/6/6 7/7/7 
f 6/6/6 8/8/8 7/7/7 
f 9/9/9 10/10/10 5/5/5 
f 10/10/10 11/11/11 5/5/5 
f 5/5/5 11/11/11 6/6/6 
f 11/11/11 12/12/12 6/6/6 
f 6/6/6 12/12/12 8/8/8 
f 12/12/12 13/13/13 8/8/8 
f 8/8/8 13/13/13 14/14/14 
f 14/14/14 13/13/13 15/15/15 
f 15/15/15 13/13/13 16/16/16 
f 16/16/16 13/13/13 17/17/17 
f 13/13/13 12/12/12 17/17/17 
f 17/17/17 12/12/12 18/18/18 
f 12/12/12 11/11/11 18/18/18 
f 18/18/18 11/11/11 10/10/10 
f 19/19/19 20/20/20 21/21/21 
f 20/20/20 22/22/22 21/21/21 
f 21/21/21 22/22/22 3/23/3 
f 3/23/3 22/22/22 1/24/1 
f 22/22/22 20/20/20 1/24/1 
f 1/24/1 20/20/20 23/25/23 
f 20/20/20 19/19/19 23/25/23 
f 23/25/23 19/19/19 24/26/24 
f 19/19/19 15/15/15 24/26/24 
f 24/26/24 15/15/15 25/27/25 
f 25/27/25 15/15/15 26/28/26 
f 15/15/15 16/16/16 26/28/26 
f 26/28/26 16/16/16 27/29/27 
f 16/16/16 17/17/17 27/29/27 
f 27/29/27 17/17/17 28/30/28 
f 17/17/17 18/18/18 28/30/28 
f 28/30/28 18/18/18 29/31/29 
f 18/18/18 30/32/30 29/31/29 
f 18/18/18 10/10/10 30/32/30 
f 30/32/30 10/10/10 31/33/31 
f 10/10/10 32/34/32 31/33/31 
f 26/28/26 27/29/27 33/35/33 
f 33/35/33 27/29/27 34/36/34 
f 27/29/27 35/37/35 34/36/34 
f 34/36/34 35/37/35 36/38/36 
f 36/38/36 35/37/35 37/39/37 
f 35/37/35 38/40/38 37/39/37 
f 37/39/37 38/40/38 31/33/31 
f 31/33/31 38/40/38 30/32/30 
f 30/32/30 38/40/38 29/31/29 
f 29/31/29 38/40/38 39/41/39 
f 38/40/38 35/37/35 39/41/39 
f 39/41/39 35/37/35 40/42/40 
f 35/37/35 27/29/27 40/42/40 
f 27/29/27 28/30/28 40/42/40 
f 28/30/28 29/31/29 40/42/40 
f 40/42/40 29/31/29 39/41/39 
f 37/39/37 31/33/31 36/38/36 
f 31/33/31 41/43/41 36/38/36 
f 41/43/41 33/35/33 36/38/36 
f 36/38/36 33/35/33 34/36/34 
f 32/34/32 10/10/10 42/44/42 
f 10/10/10 9/9/9 42/44/42 
f 9/9/9 43/45/43 42/44/42 
f 42/44/42 43/45/43 44/46/44 
f 45/47/45 46/48/46 47/49/47 
f 46/48/46 48/50/48 47/49/47 
f 47/49/47 48/50/48 49/51/49 
f 44/46/44 43/45/43 49/51/49 
f 43/45/43 9/9/9 49/51/49 
f 49/51/49 9/9/9 47/49/47 
f 9/9/9 5/5/5 47/49/47 
f 47/49/47 5/5/5 45/47/45 
f 5/5/5 7/7/7 45/47/45 
f 45/47/45 7/7/7 46/48/46 
f 7/7/7 50/52/50 46/48/46 
f 46/48/46 50/52/50 48/50/48 
f 50/52/50 3/23/3 48/50/48 
f 3/23/3 4/53/4 48/50/48 
f 48/50/48 4/53/4 49/51/49 
f 4/53/4 51/54/51 49/51/49 
f 49/51/49 51/54/51 44/46/44 
f 3/23/3 50/52/50 21/21/21 
f 50/52/50 7/7/7 21/21/21 
f 7/7/7 8/8/8 21/21/21 
f 21/21/21 8/8/8 19/19/19 
f 8/8/8 14/14/14 19/19/19 
f 19/19/19 14/14/14 15/15/15 
# 86 faces

