# 3ds Max Wavefront OBJ Exporter v0.97b - (c)2007 guruware
# File Created: 16.02.2013 23:53:03

mtllib Tomb1.mtl

#
# object Object1
#

v  23.4116 73.3743 25.0010
v  3.0464 84.2148 -3.2267
v  -22.6823 72.7301 23.7700
v  -20.0051 72.4564 -28.1050
v  26.0889 73.1004 -26.8741
v  -19.1110 65.0060 -16.5266
v  -26.2573 26.6023 -20.6323
v  -23.4546 28.5972 -18.9125
v  -23.6307 28.5150 16.8109
v  -26.4600 26.6710 18.4134
v  -20.5381 65.1798 13.4368
v  -16.9114 28.9791 24.1816
v  -14.1138 65.3211 20.9969
v  -18.7333 26.7624 27.1782
v  19.7521 27.1373 26.8320
v  13.3491 65.7162 21.1320
v  17.6799 29.3737 23.8667
v  20.5247 27.0767 -28.7641
v  18.7391 28.8628 -25.8828
v  16.2266 65.4637 -24.1863
v  -16.5433 28.4042 -25.5528
v  -18.0773 26.6738 -28.3852
v  -11.8090 65.0603 -24.3243
v  20.4387 65.7698 13.6891
v  27.9655 27.2574 18.8362
v  25.1312 29.2147 17.0201
v  25.2220 29.2784 -18.6213
v  28.0695 27.4569 -20.4366
v  21.8839 65.5937 -16.6551
v  29.5620 17.9363 -29.9624
v  29.7701 18.2545 28.0572
v  -28.0515 17.1798 -29.2731
v  -27.8434 17.4981 28.7465
v  -20.7162 66.8686 20.9816
v  -18.5049 66.6235 -24.5774
v  20.3107 67.4818 21.4110
v  22.5485 67.2671 -24.1807
v  25.6775 70.2378 -26.9346
v  -20.4760 69.6628 -27.8504
v  -23.0431 69.8181 23.7801
v  23.0782 70.5028 24.6678
v  -34.2945 14.4840 34.9368
v  36.1831 15.3666 34.2590
v  36.1894 -0.2791 34.5958
v  -33.9788 -1.1581 35.4707
v  36.0363 15.0231 -36.0299
v  35.8436 -0.6252 -35.9147
v  -34.4413 14.1405 -35.3519
v  -34.3248 -1.5041 -35.0399
# 49 vertices

vn 0.0617 0.4285 0.9014
vn 0.0210 0.9997 -0.0137
vn -0.8457 0.5254 0.0936
vn -0.0082 0.4938 -0.8695
vn 0.8948 0.4450 -0.0363
vn -0.7565 0.1375 -0.6393
vn -0.8088 0.2992 -0.5063
vn -0.8971 0.3961 -0.1959
vn -0.3561 0.3912 -0.8486
vn -0.6672 0.2671 -0.6953
vn -0.7380 0.1116 -0.6656
vn -0.1892 0.3709 0.9092
vn -0.6089 0.0595 0.7910
vn -0.4998 0.2661 0.8243
vn -0.6865 0.2441 0.6850
vn -0.6496 0.0001 0.7603
vn -0.8431 0.3500 0.4083
vn 0.4849 0.2380 -0.8416
vn 0.1880 0.3847 -0.9037
vn 0.6094 0.0365 -0.7920
vn 0.8596 0.3714 -0.3511
vn 0.7019 0.2280 -0.6748
vn 0.6472 -0.0164 -0.7621
vn 0.7746 0.0119 0.6324
vn 0.8124 0.2984 0.5010
vn 0.8959 0.3991 0.1952
vn 0.3884 0.4111 0.8247
vn 0.6640 0.2683 0.6979
vn 0.7306 -0.0164 0.6826
vn 0.5892 0.8030 -0.0896
vn 0.0662 0.8125 0.5792
vn -0.0790 0.7998 -0.5951
vn -0.5876 0.8063 0.0686
vn -0.8938 -0.4462 0.0445
vn -0.1151 -0.4430 -0.8891
vn 0.0815 -0.5101 0.8562
vn 0.8465 -0.5275 -0.0718
vn 0.8990 -0.4267 -0.0991
vn -0.1063 -0.3448 -0.9326
vn -0.9426 -0.3278 0.0638
vn 0.0630 -0.4620 0.8846
vn -0.8689 0.4868 0.0895
vn 0.1071 0.4961 0.8616
vn 0.1096 0.0156 0.9939
vn -0.9911 0.0106 0.1325
vn 0.8704 0.4810 -0.1050
vn 0.9916 -0.0139 -0.1282
vn -0.1034 0.4721 -0.8755
vn -0.1251 -0.0192 -0.9920
# 49 vertex normals

vt 0.8753 1.6245 0.0000
vt 0.9439 1.5516 0.0000
vt 0.9999 1.6250 0.0000
vt 0.8511 1.5923 0.0000
vt 0.7574 1.6016 0.0000
vt 0.7622 1.5978 0.0000
vt 0.7615 1.5253 0.0000
vt 0.7570 1.5223 0.0000
vt 0.8508 1.5275 0.0000
vt 0.7623 1.5969 0.0000
vt 0.8511 1.5930 0.0000
vt 0.7569 1.6011 0.0000
vt 0.7565 1.5213 0.0000
vt 0.8508 1.5274 0.0000
vt 0.7621 1.5251 0.0000
vt 0.7572 1.6014 0.0000
vt 0.7616 1.5978 0.0000
vt 0.8511 1.5949 0.0000
vt 0.7615 1.5245 0.0000
vt 0.7574 1.5213 0.0000
vt 0.8508 1.5278 0.0000
vt 0.8511 1.5931 0.0000
vt 0.7567 1.6012 0.0000
vt 0.7616 1.5973 0.0000
vt 0.7622 1.5249 0.0000
vt 0.7577 1.5214 0.0000
vt 0.7345 1.5027 0.0000
vt 0.7345 1.6191 0.0000
vt 0.8558 1.5122 0.0000
vt 0.8562 1.6080 0.0000
vt 0.8559 1.5122 0.0000
vt 0.8561 1.5122 0.0000
vt 0.8564 1.6081 0.0000
vt 0.8653 1.6171 0.0000
vt 0.8654 1.5055 0.0000
vt 0.8650 1.5056 0.0000
vt 0.8655 1.6172 0.0000
vt 0.8651 1.5056 0.0000
vt 0.8652 1.6170 0.0000
vt 0.7255 1.6245 0.0000
vt 0.7255 1.5005 0.0000
vt 0.6884 1.5005 0.0000
vt 0.6884 1.6245 0.0000
vt 0.8740 1.5021 0.0000
vt 0.8740 1.6219 0.0000
# 45 texture coords

g Object1
usemtl Tomb1
s 1
f 1/1/1 2/2/2 3/3/3 
f 3/3/3 2/2/2 4/1/4 
f 1/1/1 5/3/5 2/2/2 
f 2/2/2 5/3/5 4/1/4 
f 6/4/6 7/5/7 8/6/8 
f 9/7/9 10/8/10 11/9/11 
f 12/10/12 13/11/13 14/12/14 
f 15/13/15 16/14/16 17/15/17 
f 18/16/18 19/17/19 20/18/20 
f 21/19/21 22/20/22 23/21/23 
f 24/22/24 25/23/25 26/24/26 
f 27/25/27 28/26/28 29/9/29 
f 21/19/21 23/21/23 19/17/19 
f 23/21/23 20/18/20 19/17/19 
f 8/6/8 9/7/9 6/4/6 
f 9/7/9 11/9/11 6/4/6 
f 17/15/17 16/14/16 12/10/12 
f 16/14/16 13/11/13 12/10/12 
f 30/27/30 28/26/28 31/28/31 
f 28/26/28 25/23/25 31/28/31 
f 32/27/32 22/20/22 30/28/30 
f 22/20/22 18/16/18 30/28/30 
f 33/27/33 10/8/10 32/28/32 
f 10/8/10 7/5/7 32/28/32 
f 31/27/31 15/13/15 33/28/33 
f 15/13/15 14/12/14 33/28/33 
f 7/5/7 10/8/10 8/6/8 
f 10/8/10 9/7/9 8/6/8 
f 15/13/15 17/15/17 14/12/14 
f 17/15/17 12/10/12 14/12/14 
f 18/16/18 22/20/22 19/17/19 
f 22/20/22 21/19/21 19/17/19 
f 26/24/26 27/25/27 24/22/24 
f 27/25/27 29/9/29 24/22/24 
f 28/26/28 27/25/27 25/23/25 
f 27/25/27 26/24/26 25/23/25 
f 34/29/34 35/30/35 11/9/11 
f 35/30/35 6/4/6 11/9/11 
f 36/31/36 34/30/34 16/14/16 
f 34/30/34 13/11/13 16/14/16 
f 37/32/37 36/30/36 29/9/29 
f 36/30/36 24/22/24 29/9/29 
f 35/31/35 37/33/37 23/21/23 
f 37/33/37 20/18/20 23/21/23 
f 38/34/38 37/33/37 39/35/39 
f 37/33/37 35/31/35 39/35/39 
f 40/36/40 39/37/39 34/29/34 
f 39/37/39 35/30/35 34/29/34 
f 41/38/41 40/39/40 36/31/36 
f 40/39/40 34/30/34 36/31/36 
f 41/34/41 36/30/36 38/38/38 
f 36/30/36 37/32/37 38/38/38 
f 30/27/30 37/32/37 28/26/28 
f 37/32/37 29/9/29 28/26/28 
f 30/28/30 18/16/18 37/33/37 
f 18/16/18 20/18/20 37/33/37 
f 31/27/31 36/31/36 15/13/15 
f 36/31/36 16/14/16 15/13/15 
f 31/28/31 25/23/25 36/30/36 
f 25/23/25 24/22/24 36/30/36 
f 33/27/33 34/29/34 10/8/10 
f 34/29/34 11/9/11 10/8/10 
f 33/28/33 14/12/14 34/30/34 
f 14/12/14 13/11/13 34/30/34 
f 32/27/32 35/31/35 22/20/22 
f 35/31/35 23/21/23 22/20/22 
f 32/28/32 7/5/7 35/30/35 
f 7/5/7 6/4/6 35/30/35 
f 42/40/42 43/41/43 33/28/33 
f 43/41/43 31/27/31 33/28/33 
f 43/41/43 42/40/42 44/42/44 
f 42/40/42 45/43/45 44/42/44 
f 1/44/1 3/45/3 41/38/41 
f 3/45/3 40/39/40 41/38/41 
f 43/40/43 46/41/46 31/28/31 
f 46/41/46 30/27/30 31/28/31 
f 47/42/47 46/41/46 44/43/44 
f 46/41/46 43/40/43 44/43/44 
f 1/45/1 41/34/41 5/44/5 
f 41/34/41 38/38/38 5/44/5 
f 46/40/46 48/41/48 30/28/30 
f 48/41/48 32/27/32 30/28/30 
f 48/41/48 46/40/46 49/42/49 
f 46/40/46 47/43/47 49/42/49 
f 39/35/39 4/44/4 38/34/38 
f 4/44/4 5/45/5 38/34/38 
f 48/40/48 42/41/42 32/28/32 
f 42/41/42 33/27/33 32/28/32 
f 45/42/45 42/41/42 49/43/49 
f 42/41/42 48/40/48 49/43/49 
f 4/45/4 39/37/39 3/44/3 
f 39/37/39 40/36/40 3/44/3 
# 92 faces

