# 3ds Max Wavefront OBJ Exporter v0.97b - (c)2007 guruware
# File Created: 17.02.2013 00:25:30

mtllib Tomb3.mtl

#
# object Tomb1
#

v  9.1356 24.2311 10.9536
v  9.0930 40.5766 10.6007
v  -8.7333 24.0574 10.6920
v  -8.2530 40.4635 10.3240
v  -8.9478 41.2324 8.1868
v  -9.2622 23.6004 8.5854
v  10.0267 23.5197 8.8739
v  9.8673 41.3293 8.4876
v  2.8849 63.6126 -7.9899
v  -19.8108 62.5196 -9.0698
v  1.7213 63.4644 9.8859
v  -20.4098 62.3731 8.8161
v  -21.1496 50.9880 9.1546
v  -20.5211 51.3760 -9.3389
v  22.5865 51.1111 9.8863
v  23.1914 51.5040 -8.6063
v  22.5511 62.4888 9.5726
v  23.1500 62.6355 -8.3132
v  -18.9390 49.6775 8.0321
v  -18.4131 49.4837 -8.2338
v  20.3661 49.9367 8.6834
v  20.8999 49.9753 -7.5695
v  -21.7495 -7.4726 -9.6245
v  21.0093 -7.3313 -9.0768
v  -22.3136 -6.8721 9.3195
v  20.4453 -6.7308 9.8673
# 26 vertices

vn 0.4393 -0.4700 0.7656
vn 0.4553 0.4823 0.7484
vn -0.5133 -0.5041 0.6946
vn -0.4812 0.4785 0.7345
vn -0.6257 0.6468 0.4361
vn -0.6922 -0.6438 0.3262
vn 0.6354 -0.6074 0.4767
vn 0.6130 0.6457 0.4553
vn 0.0221 0.7614 -0.6479
vn -0.5535 0.5890 -0.5889
vn -0.0269 0.6873 0.7259
vn -0.5883 0.5828 0.5606
vn -0.6807 -0.4053 0.6102
vn -0.6702 -0.3423 -0.6585
vn 0.6322 -0.4460 0.6335
vn 0.6733 -0.3950 -0.6250
vn 0.5843 0.5701 0.5776
vn 0.5959 0.5702 -0.5655
vn -0.5032 -0.5946 0.6271
vn -0.5302 -0.4603 -0.7120
vn 0.4557 -0.6376 0.6211
vn 0.5138 -0.5587 -0.6510
vn -0.6914 0.0581 -0.7201
vn 0.7087 0.0187 -0.7052
vn -0.7367 0.0595 0.6736
vn 0.6932 0.0166 0.7205
# 26 vertex normals

vt 0.8480 1.6811 0.0000
vt 0.8474 1.7104 0.0000
vt 0.8068 1.6809 0.0000
vt 0.8063 1.7103 0.0000
vt 0.8045 1.7116 0.0000
vt 0.8055 1.6800 0.0000
vt 0.8501 1.6797 0.0000
vt 0.8491 1.7116 0.0000
vt 0.7781 1.6851 0.0000
vt 0.7781 1.7268 0.0000
vt 0.7540 1.6851 0.0000
vt 0.7540 1.7268 0.0000
vt 0.7521 1.7292 0.0000
vt 0.7521 1.7496 0.0000
vt 0.7248 1.7298 0.0000
vt 0.7248 1.7496 0.0000
vt 0.7248 1.7292 0.0000
vt 0.7521 1.7298 0.0000
vt 0.7521 1.7268 0.0000
vt 0.7248 1.7265 0.0000
vt 0.8741 1.7292 0.0000
vt 0.7796 1.7292 0.0000
vt 0.8741 1.7270 0.0000
vt 0.7796 1.7268 0.0000
vt 0.7248 1.7270 0.0000
vt 0.7521 1.7272 0.0000
vt 0.6871 1.7298 0.0000
vt 0.6871 1.7272 0.0000
vt 0.7522 1.7298 0.0000
vt 0.7522 1.7265 0.0000
vt 0.7522 1.6254 0.0000
vt 0.6871 1.6254 0.0000
vt 0.7248 1.6254 0.0000
vt 0.7521 1.6254 0.0000
vt 0.7796 1.6254 0.0000
vt 0.8741 1.6254 0.0000
vt 0.8741 1.7496 0.0000
vt 0.8264 1.7496 0.0000
vt 0.7796 1.7496 0.0000
vt 0.7522 1.7496 0.0000
vt 0.7228 1.7496 0.0000
vt 0.6871 1.7496 0.0000
# 42 texture coords

g Tomb1
usemtl 09___Default
s 1
f 1/1/1 2/2/2 3/3/3 
f 2/2/2 4/4/4 3/3/3 
f 5/5/5 6/6/6 4/4/4 
f 6/6/6 3/3/3 4/4/4 
f 7/7/7 1/1/1 6/6/6 
f 1/1/1 3/3/3 6/6/6 
f 8/8/8 2/2/2 7/7/7 
f 2/2/2 1/1/1 7/7/7 
f 5/5/5 4/4/4 8/8/8 
f 4/4/4 2/2/2 8/8/8 
f 9/9/9 10/10/10 11/11/11 
f 10/10/10 12/12/12 11/11/11 
f 13/13/13 12/14/12 14/15/14 
f 12/14/12 10/16/10 14/15/14 
f 15/17/15 16/18/16 17/16/17 
f 16/18/16 18/14/18 17/16/17 
f 11/11/11 17/12/17 9/9/9 
f 17/12/17 18/10/18 9/9/9 
f 13/13/13 14/15/14 19/19/19 
f 14/15/14 20/20/20 19/19/19 
f 15/21/15 13/22/13 21/23/21 
f 13/22/13 19/24/19 21/23/21 
f 15/17/15 21/25/21 16/18/16 
f 21/25/21 22/26/22 16/18/16 
f 16/27/16 22/28/22 14/29/14 
f 22/28/22 20/30/20 14/29/14 
f 23/31/23 20/30/20 24/32/24 
f 20/30/20 22/28/22 24/32/24 
f 23/33/23 25/34/25 20/20/20 
f 25/34/25 19/19/19 20/20/20 
f 25/35/25 26/36/26 19/24/19 
f 26/36/26 21/23/21 19/24/19 
f 24/34/24 22/26/22 26/33/26 
f 22/26/22 21/25/21 26/33/26 
f 17/37/17 11/38/11 15/21/15 
f 11/38/11 12/39/12 15/21/15 
f 15/21/15 12/39/12 13/22/13 
f 14/29/14 10/40/10 16/27/16 
f 10/40/10 9/41/9 16/27/16 
f 16/27/16 9/41/9 18/42/18 
# 40 faces

