# 3ds Max Wavefront OBJ Exporter v0.97b - (c)2007 guruware
# File Created: 13.06.2011 22:24:05

mtllib wheelnew.mtl

#
# object cleanwheel
#

v  -0.0518 0.1061 0.1018
v  -0.0518 0.1428 0.0351
v  -0.0518 0.1412 -0.0410
v  -0.0518 -0.0351 0.1428
v  -0.0518 0.1018 -0.1061
v  -0.0518 0.0351 -0.1428
v  -0.0518 -0.1061 -0.1018
v  -0.0518 -0.0410 -0.1412
v  -0.0518 -0.1428 -0.0351
v  -0.0518 -0.1412 0.0410
v  -0.0518 -0.1018 0.1061
v  -0.0518 0.0410 0.1412
v  0.0518 -0.1018 0.1061
v  0.0518 -0.0351 0.1428
v  0.0518 -0.1412 0.0410
v  0.0518 -0.1428 -0.0351
v  0.0518 -0.1061 -0.1018
v  0.0518 -0.0410 -0.1412
v  0.0518 0.0351 -0.1428
v  0.0518 0.1018 -0.1061
v  0.0518 0.1412 -0.0410
v  0.0518 0.1428 0.0351
v  0.0518 0.1061 0.1018
v  0.0518 0.0410 0.1412
# 24 vertices

vn -1.0000 -0.0000 0.0000
vn -1.0000 0.0000 0.0000
vn 0.0000 -0.2386 0.9711
vn 0.0000 -0.6922 0.7217
vn 0.0000 -0.9603 0.2789
vn 0.0000 -0.9711 -0.2386
vn -0.0000 -0.9711 -0.2386
vn -0.0000 -0.7217 -0.6922
vn -0.0000 -0.2789 -0.9603
vn -0.0000 0.2386 -0.9711
vn -0.0000 0.6922 -0.7217
vn -0.0000 0.9603 -0.2789
vn -0.0000 0.9711 0.2386
vn 0.0000 0.9711 0.2386
vn 0.0000 0.7217 0.6922
vn 0.0000 0.2789 0.9603
vn 1.0000 0.0000 -0.0000
vn 1.0000 -0.0000 -0.0000
# 18 vertex normals

vt 0.4323 0.0215 0.0000
vt 0.3731 0.0057 0.0000
vt 0.3139 0.0215 0.0000
vt 0.4915 0.1241 0.0000
vt 0.2705 0.0649 0.0000
vt 0.2547 0.1241 0.0000
vt 0.3139 0.2266 0.0000
vt 0.2705 0.1833 0.0000
vt 0.3731 0.2425 0.0000
vt 0.4323 0.2266 0.0000
vt 0.4756 0.1833 0.0000
vt 0.4756 0.0649 0.0000
vt 0.8907 0.0334 1.0000
vt 0.8907 0.0060 1.0000
vt 0.9282 0.0060 1.0000
vt 0.9282 0.0334 1.0000
# 16 texture coords

g cleanwheel
usemtl Material__25
s 1
f 1/1/1 2/2/1 3/3/1 4/4/1 
f 3/3/1 5/5/1 6/6/1 7/7/1 
f 6/6/1 8/8/2 7/7/1 
f 7/7/1 9/9/1 10/10/2 4/4/1 
f 10/10/2 11/11/1 4/4/1 
f 3/3/1 7/7/1 4/4/1 
f 12/12/2 1/1/1 4/4/1 
s 8
f 4/13/3 11/14/4 13/15/4 14/16/3 
f 11/13/4 10/14/5 15/15/5 13/16/4 
f 10/13/5 9/14/6 16/15/7 15/16/5 
f 9/13/6 7/14/8 17/15/8 16/16/7 
f 7/13/8 8/14/9 18/15/9 17/16/8 
f 8/13/9 6/14/10 19/15/10 18/16/9 
f 6/13/10 5/14/11 20/15/11 19/16/10 
f 5/13/11 3/14/12 21/15/12 20/16/11 
f 3/13/12 2/14/13 22/15/14 21/16/12 
f 2/13/13 1/14/15 23/15/15 22/16/14 
f 1/13/15 12/14/16 24/15/16 23/16/15 
f 12/13/16 4/14/3 14/15/3 24/16/16 
s 1
f 14/4/17 13/11/17 15/10/17 17/7/17 
f 15/10/17 16/9/17 17/7/17 
f 17/7/17 18/8/18 19/6/17 21/3/17 
f 19/6/17 20/5/17 21/3/17 
f 14/4/17 17/7/17 21/3/17 23/1/17 
f 21/3/17 22/2/17 23/1/17 
f 24/12/18 14/4/17 23/1/17 
# 18 polygons - 8 triangles

