# Exported from Wings 3D 0.98.36
mtllib bombnorm.mtl
o bombnorm
#120 vertices, 122 faces
v -1.04819474 -0.71786308 -0.92201927
v -1.49185852 -0.44366378 -0.20415619
v -1.49185852 0.44366378 -0.20415619
v -1.04819474 0.71786308 -0.92201927
v -0.77399544 0.0000000e+0 -1.36568305
v 1.36568305 0.77399544 0.0000000e+0
v 0.92201927 1.04819474 -0.71786308
v 0.20415619 1.49185852 -0.44366378
v 0.20415619 1.49185852 0.44366378
v 0.92201927 1.04819474 0.71786308
v -0.92201927 1.04819474 -0.71786308
v -1.36568305 0.77399544 0.0000000e+0
v -0.92201927 1.04819474 0.71786308
v -0.20415619 1.49185852 0.44366378
v -0.20415619 1.49185852 -0.44366378
v -0.44366378 0.20415619 -1.49185852
v -0.71786308 0.92201927 -1.04819474
v 0.0000000e+0 1.36568305 -0.77399544
v 0.71786308 0.92201927 -1.04819474
v 0.44366378 0.20415619 -1.49185852
v -1.04819474 -0.71786308 0.92201927
v -0.77399544 0.0000000e+0 1.36568305
v -1.04819474 0.71786308 0.92201927
v -1.49185852 0.44366378 0.20415619
v -1.49185852 -0.44366378 0.20415619
v -0.71786308 -0.92201927 -1.04819474
v -0.44366378 -0.20415619 -1.49185852
v 0.44366378 -0.20415619 -1.49185852
v 0.71786308 -0.92201927 -1.04819474
v 0.0000000e+0 -1.36568305 -0.77399544
v 0.92201927 -1.04819474 -0.71786308
v 1.36568305 -0.77399544 0.0000000e+0
v 0.92201927 -1.04819474 0.71786308
v 0.20415619 -1.49185852 0.44366378
v 0.20415619 -1.49185852 -0.44366378
v 0.44366378 -0.20415619 1.49185852
v -0.44366378 -0.20415619 1.49185852
v -0.71786308 -0.92201927 1.04819474
v 0.0000000e+0 -1.36568305 0.77399544
v 0.71786308 -0.92201927 1.04819474
v -1.36568305 -0.77399544 0.0000000e+0
v -0.92201927 -1.04819474 -0.71786308
v -0.20415619 -1.49185852 -0.44366378
v -0.20415619 -1.49185852 0.44366378
v -0.92201927 -1.04819474 0.71786308
v -0.44366378 0.20415619 1.49185852
v 0.44366378 0.20415619 1.49185852
v 0.71786308 0.92201927 1.04819474
v 0.0000000e+0 1.36568305 0.77399544
v -0.71786308 0.92201927 1.04819474
v 0.77399544 0.0000000e+0 1.36568305
v 1.04819474 -0.71786308 0.92201927
v 1.49185852 -0.44366378 0.20415619
v 1.49185852 0.44366378 0.20415619
v 1.04819474 0.71786308 0.92201927
v 1.49185852 -0.44366378 -0.20415619
v 1.04819474 -0.71786308 -0.92201927
v 0.77399544 0.0000000e+0 -1.36568305
v 1.04819474 0.71786308 -0.92201927
v 1.49185852 0.44366378 -0.20415619
v -0.26619827 0.67480199 1.78876867
v 0.26619827 0.67480199 1.78876867
v 0.43071785 1.10551984 1.52257041
v 0.0000000e+0 1.37171811 1.35805083
v -0.43071785 1.10551984 1.52257041
v 0.26619827 -0.67480199 1.78876867
v -0.26619827 -0.67480199 1.78876867
v -0.43071785 -1.10551984 1.52257041
v 0.0000000e+0 -1.37171811 1.35805083
v 0.43071785 -1.10551984 1.52257041
v 1.35805083 0.0000000e+0 1.37171811
v 1.52257041 -0.43071785 1.10551984
v 1.78876867 -0.26619827 0.67480199
v 1.78876867 0.26619827 0.67480199
v 1.52257041 0.43071785 1.10551984
v 1.10551984 -1.52257041 -0.43071785
v 1.37171811 -1.35805083 1.6962698e-17
v 1.10551984 -1.52257041 0.43071785
v 0.67480199 -1.78876867 0.26619827
v 0.67480199 -1.78876867 -0.26619827
v 1.37171811 1.35805083 -1.6962698e-17
v 1.10551984 1.52257041 -0.43071785
v 0.67480199 1.78876867 -0.26619827
v 0.67480199 1.78876867 0.26619827
v 1.10551984 1.52257041 0.43071785
v -0.43071785 -1.10551984 -1.52257041
v -0.26619827 -0.67480199 -1.78876867
v 0.26619827 -0.67480199 -1.78876867
v 0.43071785 -1.10551984 -1.52257041
v 0.0000000e+0 -1.37171811 -1.35805083
v -1.52257041 -0.43071785 -1.10551984
v -1.78876867 -0.26619827 -0.67480199
v -1.78876867 0.26619827 -0.67480199
v -1.52257041 0.43071785 -1.10551984
v -1.35805083 0.0000000e+0 -1.37171811
v -1.37171811 -1.35805083 -1.6962698e-17
v -1.10551984 -1.52257041 -0.43071785
v -0.67480199 -1.78876867 -0.26619827
v -0.67480199 -1.78876867 0.26619827
v -1.10551984 -1.52257041 0.43071785
v -1.52257041 -0.43071785 1.10551984
v -1.35805083 0.0000000e+0 1.37171811
v -1.52257041 0.43071785 1.10551984
v -1.78876867 0.26619827 0.67480199
v -1.78876867 -0.26619827 0.67480199
v 1.78876867 -0.26619827 -0.67480199
v 1.52257041 -0.43071785 -1.10551984
v 1.35805083 0.0000000e+0 -1.37171811
v 1.52257041 0.43071785 -1.10551984
v 1.78876867 0.26619827 -0.67480199
v -0.26619827 0.67480199 -1.78876867
v -0.43071785 1.10551984 -1.52257041
v 0.0000000e+0 1.37171811 -1.35805083
v 0.43071785 1.10551984 -1.52257041
v 0.26619827 0.67480199 -1.78876867
v -1.10551984 1.52257041 -0.43071785
v -1.37171811 1.35805083 1.6962698e-17
v -1.10551984 1.52257041 0.43071785
v -0.67480199 1.78876867 0.26619827
v -0.67480199 1.78876867 -0.26619827
vt 1.2378757e-2 0.54718388
vt 1.2378757e-2 0.54718388
vt 7.5153814e-2 0.73951017
vt 0.13564918 0.12902147
vt 0.16283303 0.59683713
vt 0.28617065 0.17925320
vt 0.29641571 8.1721968e-3
vt 0.30658669 0.55124112
vt 0.38058926 0.30069075
vt 0.41592737 0.99330827
vt 0.50674919 0.70687400
vt 0.50674919 0.85348575
vt 0.60244995 0.99158394
vt 0.61902673 0.30147500
vt 0.69238662 0.55251006
vt 0.71377479 0.17782075
vt 0.72384909 7.9299082e-3
vt 0.83604127 0.59621250
vt 0.87103529 0.12502028
vt 0.93514474 0.73844606
vt 0.99275013 0.54354451
vn -0.53786249 -0.62135651 -0.56975437
vn -0.92188193 -0.38401944 5.1602141e-2
vn -0.92188193 0.38401944 5.1602141e-2
vn -0.53786249 0.62135651 -0.56975437
vn -0.30052542 0.0000000e+0 -0.95377380
vn 0.95377380 0.30052542 2.4912765e-17
vn 0.56975437 0.53786249 -0.62135651
vn -5.1602141e-2 0.92188193 -0.38401944
vn -5.1602141e-2 0.92188193 0.38401944
vn 0.56975437 0.53786249 0.62135651
vn -0.56975437 0.53786249 -0.62135651
vn -0.95377380 0.30052542 -2.4912765e-17
vn -0.56975437 0.53786249 0.62135651
vn 5.1602141e-2 0.92188193 0.38401944
vn 5.1602141e-2 0.92188193 -0.38401944
vn -0.38401944 -5.1602141e-2 -0.92188193
vn -0.62135651 0.56975437 -0.53786249
vn -2.4912765e-17 0.95377380 -0.30052542
vn 0.62135651 0.56975437 -0.53786249
vn 0.38401944 -5.1602141e-2 -0.92188193
vn -0.53786249 -0.62135651 0.56975437
vn -0.30052542 0.0000000e+0 0.95377380
vn -0.53786249 0.62135651 0.56975437
vn -0.92188193 0.38401944 -5.1602141e-2
vn -0.92188193 -0.38401944 -5.1602141e-2
vn -0.62135651 -0.56975437 -0.53786249
vn -0.38401944 5.1602141e-2 -0.92188193
vn 0.38401944 5.1602141e-2 -0.92188193
vn 0.62135651 -0.56975437 -0.53786249
vn 0.0000000e+0 -0.95377380 -0.30052542
vn 0.56975437 -0.53786249 -0.62135651
vn 0.95377380 -0.30052542 -2.4912765e-17
vn 0.56975437 -0.53786249 0.62135651
vn -5.1602141e-2 -0.92188193 0.38401944
vn -5.1602141e-2 -0.92188193 -0.38401944
vn 0.38401944 5.1602141e-2 0.92188193
vn -0.38401944 5.1602141e-2 0.92188193
vn -0.62135651 -0.56975437 0.53786249
vn -2.4912765e-17 -0.95377380 0.30052542
vn 0.62135651 -0.56975437 0.53786249
vn -0.95377380 -0.30052542 4.9825530e-17
vn -0.56975437 -0.53786249 -0.62135651
vn 5.1602141e-2 -0.92188193 -0.38401944
vn 5.1602141e-2 -0.92188193 0.38401944
vn -0.56975437 -0.53786249 0.62135651
vn -0.38401944 -5.1602141e-2 0.92188193
vn 0.38401944 -5.1602141e-2 0.92188193
vn 0.62135651 0.56975437 0.53786249
vn 2.4912765e-17 0.95377380 0.30052542
vn -0.62135651 0.56975437 0.53786249
vn 0.30052542 2.4912765e-17 0.95377380
vn 0.53786249 -0.62135651 0.56975437
vn 0.92188193 -0.38401944 -5.1602141e-2
vn 0.92188193 0.38401944 -5.1602141e-2
vn 0.53786249 0.62135651 0.56975437
vn 0.92188193 -0.38401944 5.1602141e-2
vn 0.53786249 -0.62135651 -0.56975437
vn 0.30052542 -2.4912765e-17 -0.95377380
vn 0.53786249 0.62135651 -0.56975437
vn 0.92188193 0.38401944 5.1602141e-2
vn -0.35982332 -5.5783165e-3 0.93300378
vn 0.35982332 -5.5783165e-3 0.93300378
vn 0.58220637 0.57662805 0.57318046
vn 9.3497056e-17 0.93645137 0.35079742
vn -0.58220637 0.57662805 0.57318046
vn 0.35982332 5.5783165e-3 0.93300378
vn -0.35982332 5.5783165e-3 0.93300378
vn -0.58220637 -0.57662805 0.57318046
vn -4.6748528e-17 -0.93645137 0.35079742
vn 0.58220637 -0.57662805 0.57318046
vn 0.35079742 0.0000000e+0 0.93645137
vn 0.57318046 -0.58220637 0.57662805
vn 0.93300378 -0.35982332 -5.5783165e-3
vn 0.93300378 0.35982332 -5.5783165e-3
vn 0.57318046 0.58220637 0.57662805
vn 0.57662805 -0.57318046 -0.58220637
vn 0.93645137 -0.35079742 0.0000000e+0
vn 0.57662805 -0.57318046 0.58220637
vn -5.5783165e-3 -0.93300378 0.35982332
vn -5.5783165e-3 -0.93300378 -0.35982332
vn 0.93645137 0.35079742 4.6748528e-17
vn 0.57662805 0.57318046 -0.58220637
vn -5.5783165e-3 0.93300378 -0.35982332
vn -5.5783165e-3 0.93300378 0.35982332
vn 0.57662805 0.57318046 0.58220637
vn -0.58220637 -0.57662805 -0.57318046
vn -0.35982332 5.5783165e-3 -0.93300378
vn 0.35982332 5.5783165e-3 -0.93300378
vn 0.58220637 -0.57662805 -0.57318046
vn 9.3497056e-17 -0.93645137 -0.35079742
vn -0.57318046 -0.58220637 -0.57662805
vn -0.93300378 -0.35982332 5.5783165e-3
vn -0.93300378 0.35982332 5.5783165e-3
vn -0.57318046 0.58220637 -0.57662805
vn -0.35079742 9.3497056e-17 -0.93645137
vn -0.93645137 -0.35079742 4.6748528e-17
vn -0.57662805 -0.57318046 -0.58220637
vn 5.5783165e-3 -0.93300378 -0.35982332
vn 5.5783165e-3 -0.93300378 0.35982332
vn -0.57662805 -0.57318046 0.58220637
vn -0.57318046 -0.58220637 0.57662805
vn -0.35079742 4.6748528e-17 0.93645137
vn -0.57318046 0.58220637 0.57662805
vn -0.93300378 0.35982332 -5.5783165e-3
vn -0.93300378 -0.35982332 -5.5783165e-3
vn 0.93300378 -0.35982332 5.5783165e-3
vn 0.57318046 -0.58220637 -0.57662805
vn 0.35079742 0.0000000e+0 -0.93645137
vn 0.57318046 0.58220637 -0.57662805
vn 0.93300378 0.35982332 5.5783165e-3
vn -0.35982332 -5.5783165e-3 -0.93300378
vn -0.58220637 0.57662805 -0.57318046
vn -4.6748528e-17 0.93645137 -0.35079742
vn 0.58220637 0.57662805 -0.57318046
vn 0.35982332 -5.5783165e-3 -0.93300378
vn -0.57662805 0.57318046 -0.58220637
vn -0.93645137 0.35079742 0.0000000e+0
vn -0.57662805 0.57318046 0.58220637
vn 5.5783165e-3 0.93300378 0.35982332
vn 5.5783165e-3 0.93300378 -0.35982332
g bombnorm
usemtl matBombNorm
f 1/17/1 42/16/42 41/6/41 2/7/2
f 1/12/1 91/11/91 95/15/95 5/18/5
f 2/17/2 25/16/25 24/6/24 3/7/3
f 2/5/2 92/8/92 91/11/91 1/12/1
f 3/6/3 12/7/12 11/17/11 4/16/4
f 3/6/3 93/9/93 92/8/92 2/5/2
f 4/16/4 17/19/17 16/21/16 5/18/5
f 4/16/4 94/14/94 93/9/93 3/6/3
f 5/18/5 27/20/27 26/13/26 1/12/1
f 5/18/5 95/15/95 94/14/94 4/16/4
f 6/4/6 60/6/60 59/5/59 7/2/7
f 6/6/6 81/9/81 85/14/85 10/16/10
f 7/5/7 19/3/19 18/10/18 8/12/8
f 7/5/7 82/8/82 81/9/81 6/6/6
f 8/12/8 15/13/15 14/20/14 9/18/9
f 8/12/8 83/11/83 82/8/82 7/5/7
f 9/18/9 49/21/49 48/19/48 10/16/10
f 9/18/9 84/15/84 83/11/83 8/12/8
f 10/16/10 55/17/55 54/7/54 6/6/6
f 10/16/10 85/14/85 84/15/84 9/18/9
f 11/17/11 17/19/17 4/16/4
f 11/5/11 116/8/116 120/9/120 15/6/15
f 12/4/12 24/6/24 23/5/23 13/1/13
f 12/12/12 117/11/117 116/8/116 11/5/11
f 13/18/13 50/21/50 49/19/49 14/16/14
f 13/18/13 118/15/118 117/11/117 12/12/12
f 14/20/14 49/21/49 9/18/9
f 14/16/14 119/14/119 118/15/118 13/18/13
f 15/13/15 18/12/18 17/18/17 11/20/11
f 15/6/15 120/9/120 119/14/119 14/16/14
f 16/21/16 27/20/27 5/18/5
f 16/16/16 111/14/111 115/9/115 20/6/20
f 17/18/17 112/15/112 111/14/111 16/16/16
f 18/10/18 15/13/15 8/12/8
f 18/12/18 113/11/113 112/15/112 17/18/17
f 19/3/19 59/5/59 58/12/58 20/10/20
f 19/5/19 114/8/114 113/11/113 18/12/18
f 20/6/20 28/7/28 27/17/27 16/16/16
f 20/6/20 115/9/115 114/8/114 19/5/19
f 21/18/21 38/20/38 37/13/37 22/12/22
f 21/18/21 101/15/101 105/14/105 25/16/25
f 22/12/22 46/10/46 50/3/50 23/5/23
f 22/12/22 102/11/102 101/15/101 21/18/21
f 23/5/23 50/3/50 13/1/13
f 23/5/23 103/8/103 102/11/102 22/12/22
f 24/6/24 12/4/12 3/7/3
f 24/6/24 104/9/104 103/8/103 23/5/23
f 25/16/25 41/19/41 45/21/45 21/18/21
f 25/16/25 105/14/105 104/9/104 24/6/24
f 26/19/26 42/16/42 1/17/1
f 26/18/26 86/15/86 90/11/90 30/12/30
f 27/16/27 87/14/87 86/15/86 26/18/26
f 28/13/28 58/12/58 57/18/57 29/20/29
f 28/6/28 88/9/88 87/14/87 27/16/27
f 29/21/29 31/18/31 35/16/35 30/19/30
f 29/5/29 89/8/89 88/9/88 28/6/28
f 30/21/30 43/18/43 42/16/42 26/19/26
f 30/12/30 90/11/90 89/8/89 29/5/29
f 31/21/31 57/18/57 56/16/56 32/19/32
f 31/18/31 76/15/76 80/14/80 35/16/35
f 32/7/32 53/6/53 52/16/52 33/17/33
f 32/12/32 77/11/77 76/15/76 31/18/31
f 33/20/33 40/18/40 39/12/39 34/13/34
f 33/5/33 78/8/78 77/11/77 32/12/32
f 34/13/34 44/12/44 43/18/43 35/20/35
f 34/6/34 79/9/79 78/8/78 33/5/33
f 35/20/35 43/18/43 30/21/30
f 35/16/35 80/14/80 79/9/79 34/6/34
f 36/16/36 47/17/47 46/7/46 37/6/37
f 36/16/36 66/14/66 70/15/70 40/18/40
f 37/13/37 46/10/46 22/12/22
f 37/6/37 67/9/67 66/14/66 36/16/36
f 38/3/38 45/5/45 44/12/44 39/10/39
f 38/5/38 68/8/68 67/9/67 37/6/37
f 39/10/39 44/12/44 34/13/34
f 39/12/39 69/11/69 68/8/68 38/5/38
f 40/19/40 52/16/52 51/18/51 36/21/36
f 40/18/40 70/15/70 69/11/69 39/12/39
f 41/19/41 25/16/25 2/17/2
f 41/6/41 96/9/96 100/8/100 45/5/45
f 42/16/42 97/14/97 96/9/96 41/6/41
f 43/18/43 98/15/98 97/14/97 42/16/42
f 44/12/44 99/11/99 98/15/98 43/18/43
f 45/21/45 38/20/38 21/18/21
f 45/5/45 100/8/100 99/11/99 44/12/44
f 46/6/46 61/9/61 65/8/65 50/5/50
f 47/20/47 51/18/51 55/12/55 48/13/48
f 47/16/47 62/14/62 61/9/61 46/6/46
f 48/19/48 55/17/55 10/16/10
f 48/18/48 63/15/63 62/14/62 47/16/47
f 49/12/49 64/11/64 63/15/63 48/18/48
f 50/5/50 65/8/65 64/11/64 49/12/49
f 51/18/51 47/20/47 36/21/36
f 51/18/51 71/15/71 75/11/75 55/12/55
f 52/16/52 40/19/40 33/17/33
f 52/16/52 72/14/72 71/15/71 51/18/51
f 53/17/53 56/16/56 60/6/60 54/7/54
f 53/6/53 73/9/73 72/14/72 52/16/52
f 54/7/54 60/6/60 6/4/6
f 54/5/54 74/8/74 73/9/73 53/6/53
f 55/12/55 75/11/75 74/8/74 54/5/54
f 56/16/56 53/17/53 32/19/32
f 56/16/56 106/14/106 110/9/110 60/6/60
f 57/18/57 31/21/31 29/20/29
f 57/18/57 107/15/107 106/14/106 56/16/56
f 58/12/58 28/13/28 20/10/20
f 58/12/58 108/11/108 107/15/107 57/18/57
f 59/5/59 19/3/19 7/2/7
f 59/5/59 109/8/109 108/11/108 58/12/58
f 60/6/60 110/9/110 109/8/109 59/5/59
f 62/14/62 63/15/63 64/11/64 65/8/65 61/9/61
f 67/9/67 68/8/68 69/11/69 70/15/70 66/14/66
f 72/14/72 73/9/73 74/8/74 75/11/75 71/15/71
f 77/11/77 78/8/78 79/9/79 80/14/80 76/15/76
f 82/8/82 83/11/83 84/15/84 85/14/85 81/9/81
f 87/14/87 88/9/88 89/8/89 90/11/90 86/15/86
f 92/8/92 93/9/93 94/14/94 95/15/95 91/11/91
f 97/14/97 98/15/98 99/11/99 100/8/100 96/9/96
f 102/11/102 103/8/103 104/9/104 105/14/105 101/15/101
f 107/15/107 108/11/108 109/8/109 110/9/110 106/14/106
f 112/15/112 113/11/113 114/8/114 115/9/115 111/14/111
f 117/11/117 118/15/118 119/14/119 120/9/120 116/8/116
