# This file uses centimeters as units for non-parametric coordinates.

mtllib hse.mtl
g default
v 0.000000 0.000000 20.000000
v -20.000000 0.000000 20.000000
v 0.000000 30.000015 20.000000
v -20.000000 20.095331 20.000000
v 0.000000 30.000015 -20.000000
v -20.000000 20.095331 -20.000000
v 0.000000 0.000000 -20.000000
v -20.000000 0.000000 -20.000000
v 0.000000 31.236113 23.700008
v 0.000000 31.236113 -23.700008
v 0.000000 30.000015 23.700008
v 0.000000 30.000015 -23.700008
v -23.930777 19.687929 23.700008
v -23.318619 18.451841 23.700008
v -23.318619 18.451841 -23.700008
v -23.930777 19.687937 -23.700008
v 20.000000 0.000000 20.000000
v 20.000000 20.095331 20.000000
v 20.000000 20.095331 -20.000000
v 20.000000 0.000000 -20.000000
v 23.930777 19.687929 23.700008
v 23.318619 18.451841 23.700008
v 23.318619 18.451841 -23.700008
v 23.930777 19.687937 -23.700008
vt 0.026642 0.028387
vt 0.265526 0.028387
vt 0.026642 0.386714
vt 0.743296 0.028387
vt 0.982180 0.386714
vt 0.743296 0.268410
vt 0.000000 -0.000000
vt 1.000000 -0.000000
vt 1.000000 1.000000
vt 0.000000 1.000000
vt 0.982180 0.028387
vt 0.265526 0.268410
vt 0.893204 0.525612
vt 0.959770 0.451728
vt 0.965595 0.453170
vt 0.038918 0.453591
vt 0.051512 0.418225
vt 0.978824 0.418301
vt 0.978821 0.445287
vt 0.051509 0.445210
vt 0.965553 0.962236
vt 0.893168 0.962230
vt 0.038283 0.453232
vt 0.038240 0.973003
vt 0.981548 0.462240
vt 0.986711 0.971286
vt 0.959727 0.971560
vt 0.038876 0.973423
vt 0.011892 0.973145
vt 0.017138 0.464099
vt 0.965552 0.973079
vt 0.965595 0.453309
vt 0.110662 0.525548
vt 0.038283 0.453094
vt 0.038241 0.962160
vt 0.110626 0.962166
vt 0.026642 0.028387
vt 0.265526 0.028387
vt 0.265526 0.268410
vt 0.026642 0.386714
vt 0.982180 0.386714
vt 0.743296 0.268410
vt 0.743296 0.028387
vt 0.982180 0.028387
vt 0.000000 -0.000000
vt 1.000000 -0.000000
vt 1.000000 1.000000
vt 0.000000 1.000000
vt 0.959770 0.451728
vt 0.981548 0.462240
vt 0.986711 0.971286
vt 0.959727 0.971560
vt 0.893204 0.525612
vt 0.965595 0.453170
vt 0.965553 0.962236
vt 0.893168 0.962230
vt 0.051512 0.418225
vt 0.978824 0.418301
vt 0.978821 0.445287
vt 0.051509 0.445210
vt 0.038918 0.453591
vt 0.038876 0.973423
vt 0.011892 0.973145
vt 0.017138 0.464099
vt 0.038283 0.453232
vt 0.038240 0.973003
vt 0.965552 0.973079
vt 0.965595 0.453309
vt 0.110662 0.525548
vt 0.038283 0.453094
vt 0.038241 0.962160
vt 0.110626 0.962166
vn 0.000000 0.000000 1.000000
vn 0.000000 0.000000 1.000000
vn 0.000000 0.000000 1.000000
vn 0.000000 0.000000 1.000000
vn -0.000000 0.000000 -1.000000
vn -0.000000 0.000000 -1.000000
vn -0.000000 0.000000 -1.000000
vn -0.000000 0.000000 -1.000000
vn 0.000000 -1.000000 0.000000
vn 0.000000 -1.000000 0.000000
vn 0.000000 -1.000000 0.000000
vn 0.000000 -1.000000 0.000000
vn -1.000000 0.000000 0.000000
vn -1.000000 0.000000 0.000000
vn -1.000000 0.000000 0.000000
vn -1.000000 0.000000 0.000000
vn -0.000000 0.000000 1.000000
vn -0.000000 0.000000 1.000000
vn -0.000000 0.000000 1.000000
vn -0.000000 0.000000 1.000000
vn 0.443794 -0.896129 0.000000
vn 0.443794 -0.896129 0.000000
vn 0.443794 -0.896129 0.000000
vn 0.443794 -0.896129 0.000000
vn -0.896128 -0.443795 -0.000000
vn -0.896128 -0.443795 -0.000000
vn -0.896128 -0.443795 -0.000000
vn -0.896128 -0.443795 -0.000000
vn -0.000000 0.000000 -1.000000
vn -0.000000 0.000000 -1.000000
vn -0.000000 0.000000 -1.000000
vn -0.000000 0.000000 -1.000000
vn -0.434608 0.900620 0.000000
vn -0.434608 0.900620 0.000000
vn -0.434608 0.900620 0.000000
vn -0.434608 0.900620 0.000000
vn 0.443793 -0.896129 -0.000000
vn 0.443793 -0.896129 -0.000000
vn 0.443793 -0.896129 -0.000000
vn 0.443793 -0.896129 -0.000000
vn 0.443794 -0.896129 -0.000000
vn 0.443794 -0.896129 -0.000000
vn 0.443794 -0.896129 -0.000000
vn 0.443794 -0.896129 -0.000000
vn 0.000000 0.000000 1.000000
vn 0.000000 0.000000 1.000000
vn 0.000000 0.000000 1.000000
vn 0.000000 0.000000 1.000000
vn 0.000000 0.000000 -1.000000
vn 0.000000 0.000000 -1.000000
vn 0.000000 0.000000 -1.000000
vn 0.000000 0.000000 -1.000000
vn 0.000000 -1.000000 0.000000
vn 0.000000 -1.000000 0.000000
vn 0.000000 -1.000000 0.000000
vn 0.000000 -1.000000 0.000000
vn 1.000000 0.000000 0.000000
vn 1.000000 0.000000 0.000000
vn 1.000000 0.000000 0.000000
vn 1.000000 0.000000 0.000000
vn 0.000000 0.000000 1.000000
vn 0.000000 0.000000 1.000000
vn 0.000000 0.000000 1.000000
vn 0.000000 0.000000 1.000000
vn -0.443794 -0.896129 0.000000
vn -0.443794 -0.896129 0.000000
vn -0.443794 -0.896129 0.000000
vn -0.443794 -0.896129 0.000000
vn 0.896128 -0.443795 -0.000000
vn 0.896128 -0.443795 -0.000000
vn 0.896128 -0.443795 -0.000000
vn 0.896128 -0.443795 -0.000000
vn 0.000000 0.000000 -1.000000
vn 0.000000 0.000000 -1.000000
vn 0.000000 0.000000 -1.000000
vn 0.000000 0.000000 -1.000000
vn 0.434608 0.900620 0.000000
vn 0.434608 0.900620 0.000000
vn 0.434608 0.900620 0.000000
vn 0.434608 0.900620 0.000000
vn -0.443793 -0.896129 0.000000
vn -0.443793 -0.896129 0.000000
vn -0.443793 -0.896129 0.000000
vn -0.443793 -0.896129 0.000000
vn -0.443794 -0.896129 0.000000
vn -0.443794 -0.896129 0.000000
vn -0.443794 -0.896129 0.000000
vn -0.443794 -0.896129 0.000000
s off
g base_cottage
usemtl lambert2SG
f 1/1/1 3/3/2 4/12/3 2/2/4
f 5/5/5 7/11/6 8/4/7 6/6/8
f 7/7/9 1/10/10 2/9/11 8/8/12
f 2/2/13 4/12/14 6/6/15 8/4/16
f 9/14/17 13/27/18 14/26/19 11/25/20
f 4/13/21 3/22/22 11/21/23 14/15/24
f 16/17/25 15/20/26 14/19/27 13/18/28
f 10/16/29 12/30/30 15/29/31 16/28/32
f 16/23/33 13/32/34 9/31/35 10/24/36
f 6/33/37 4/13/38 14/15/39 15/34/40
f 12/35/41 5/36/42 6/33/43 15/34/44
f 1/37/45 17/38/46 18/39/47 3/40/48
f 5/41/49 19/42/50 20/43/51 7/44/52
f 7/45/53 20/46/54 17/47/55 1/48/56
f 17/38/57 20/43/58 19/42/59 18/39/60
f 9/49/61 11/50/62 22/51/63 21/52/64
f 18/53/65 22/54/66 11/55/67 3/56/68
f 24/57/69 21/58/70 22/59/71 23/60/72
f 10/61/73 24/62/74 23/63/75 12/64/76
f 24/65/77 10/66/78 9/67/79 21/68/80
f 19/69/81 23/70/82 22/54/83 18/53/84
f 12/71/85 23/70/86 19/69/87 5/72/88
