# This file uses centimeters as units for non-parametric coordinates.

mtllib plane.mtl
g default
v -20.177037 -0.000000 20.177037
v 20.177037 -0.000000 20.177037
v -20.177037 0.000000 -20.177037
v 20.177037 0.000000 -20.177037
vt 0.000000 0.000000
vt 1.000000 0.000000
vt 0.000000 1.000000
vt 1.000000 1.000000
vn 0.000000 1.000000 0.000000
vn 0.000000 1.000000 0.000000
vn 0.000000 1.000000 0.000000
vn 0.000000 1.000000 0.000000
s off
g pPlane1
usemtl initialShadingGroup
f 1/1/1 2/2/2 4/4/3 3/3/4
