# Blender v242 OBJ File: door.blend
# www.blender3d.org
mtllib door.mtl
o Plane_Plane
v 6.728142 20.066893 -0.472507
v 6.728142 -20.066898 -0.472507
v -6.728144 -20.066896 -0.472507
v -6.728140 20.066902 -0.472507
v -6.728140 20.066902 1.440310
v -6.728144 -20.066896 1.440310
v 6.728142 -20.066898 1.440310
v 6.728142 20.066893 1.440310
vn 0.000000 0.000000 -1.000000
vn -1.000000 0.000000 0.000000
vn 0.000001 1.000000 0.000000
vn 1.000000 0.000000 0.000000
vn -0.000000 -1.000000 0.000000
vn 0.000000 0.000000 1.000000
usemtl (null)
usemtl (null)
s off
f 1//1 2//1 3//1 4//1
f 3//2 6//2 5//2 4//2
f 8//3 1//3 4//3 5//3
f 1//4 8//4 7//4 2//4
f 2//5 7//5 6//5 3//5
f 8//6 5//6 6//6 7//6
