# Blender v242 OBJ File: magnet2.blend
# www.blender3d.org
mtllib magnet2.mtl
o Plane_Plane
v 199.128387 -82.751068 199.128387
v 199.128387 -82.751076 -199.128448
v -199.128418 -82.751076 -199.128387
v -199.128296 -82.751068 199.128464
v 199.128387 116.174850 -199.128464
v -199.128418 116.174850 -199.128403
v 199.128387 116.174881 199.128372
v -199.128296 116.174881 199.128448
vt 0.000000 1.000000 0.0
vt 0.000000 0.000000 0.0
vt 1.000000 0.000000 0.0
vt 1.000000 1.000000 0.0
vn -0.000000 1.000000 -0.000000
vn 0.000000 0.000000 1.000000
vn -1.000000 0.000000 0.000000
vn -0.000000 -0.000000 -1.000000
vn 1.000000 -0.000000 -0.000000
usemtl None_gold.jpg
s off
f 1/1/1 2/2/1 3/3/1 4/4/1
f 2/1/2 5/2/2 6/3/2 3/4/2
f 1/1/3 7/2/3 5/3/3 2/4/3
f 7/1/4 1/2/4 4/3/4 8/4/4
f 3/1/5 6/2/5 8/3/5 4/4/5
