# Blender v242 OBJ File: staircase.blend
# www.blender3d.org
mtllib staircase.mtl
o Plane.002_Plane
v 39.341331 9.900788 -9.852091
v 39.341331 9.900788 -29.751068
v -40.411701 9.900788 -29.751066
v -40.411682 9.900788 -9.852087
v 39.341331 19.854816 -29.751068
v -40.411701 19.854816 -29.751066
vn 0.000000 1.000000 0.000000
vn 0.000000 0.000000 1.000000
usemtl (null)
usemtl (null)
s off
f 1//1 2//1 3//1 4//1
f 3//2 2//2 5//2 6//2
o Plane.007_Plane
v 40.144100 59.939911 -110.011604
v 40.144100 59.939911 -129.910583
v -39.608932 59.939911 -129.910583
v -39.608913 59.939911 -110.011597
v 40.144100 69.893936 -129.910583
v -39.608932 69.893936 -129.910583
usemtl (null)
usemtl (null)
s off
f 7//1 8//1 9//1 10//1
f 9//2 8//2 11//2 12//2
o Plane.006_Plane
v 40.144100 50.039124 -90.396355
v 40.144100 50.039124 -110.295334
v -39.608932 50.039124 -110.295326
v -39.608913 50.039124 -90.396347
v 40.144100 59.993153 -110.295326
v -39.608932 59.993153 -110.295326
usemtl (null)
usemtl (null)
s off
f 13//1 14//1 15//1 16//1
f 15//2 14//2 17//2 18//2
o Plane.005_Plane
v 39.876511 40.138332 -70.594772
v 39.876511 40.138332 -90.493752
v -39.876522 40.138332 -90.493744
v -39.876503 40.138332 -70.594765
v 39.876511 50.092361 -90.493744
v -39.876522 50.092361 -90.493744
usemtl (null)
usemtl (null)
s off
f 19//1 20//1 21//1 22//1
f 21//2 20//2 23//2 24//2
o Plane.004_Plane
v 39.876511 29.969955 -50.793190
v 39.876511 29.969955 -70.692169
v -39.876522 29.969955 -70.692169
v -39.876503 29.969955 -50.793186
v 39.876511 39.923985 -70.692169
v -39.876522 39.923985 -70.692169
usemtl (null)
usemtl (null)
s off
f 25//1 26//1 27//1 28//1
f 27//2 26//2 29//2 30//2
o Plane.003_Plane
v 39.876511 19.801579 -29.921255
v 39.876511 19.801579 -49.820232
v -39.876522 19.801579 -49.820232
v -39.876503 19.801579 -29.921251
v 39.876511 29.755608 -49.820232
v -39.876522 29.755608 -49.820229
usemtl (null)
usemtl (null)
s off
f 31//1 32//1 33//1 34//1
f 33//2 32//2 35//2 36//2
o Plane.001_Plane
v 39.876511 0.000000 9.949488
v 39.876511 -0.000000 -9.949490
v -39.876522 -0.000000 -9.949488
v -39.876503 0.000000 9.949492
v 39.876511 9.954028 -9.949490
v -39.876522 9.954028 -9.949488
usemtl (null)
usemtl (null)
s off
f 37//1 38//1 39//1 40//1
f 39//2 38//2 41//2 42//2
o Plane_Plane
v 39.876511 0.000000 9.949488
v 39.876511 -0.000000 -9.949490
v -39.876522 -0.000000 -9.949488
v -39.876503 0.000000 9.949492
v 39.876511 9.954028 -9.949490
v -39.876522 9.954028 -9.949488
usemtl (null)
usemtl (null)
s off
f 43//1 44//1 45//1 46//1
f 45//2 44//2 47//2 48//2
