# Wavefront OBJ exported by MilkShape 3D

v 0.117239 0.224823 -1.667040
v 0.065572 0.276490 -1.666885
v -0.005005 0.295401 -1.666673
v -0.075582 0.276490 -1.666461
v -0.127248 0.224823 -1.666306
v -0.146159 0.154246 -1.666249
v -0.127248 0.083668 -1.666306
v -0.075582 0.032002 -1.666461
v -0.005005 0.013090 -1.666673
v 0.065572 0.032002 -1.666885
v 0.117239 0.083668 -1.667040
v 0.136150 0.154246 -1.667097
v 0.122032 0.224823 -0.070897
v 0.070365 0.276490 -0.070742
v -0.000212 0.295401 -0.070530
v -0.070790 0.276490 -0.070318
v -0.122455 0.224823 -0.070162
v -0.141366 0.154246 -0.070106
v -0.122455 0.083668 -0.070162
v -0.070790 0.032002 -0.070318
v -0.000212 0.013090 -0.070530
v 0.070365 0.032002 -0.070742
v 0.122032 0.083668 -0.070897
v 0.140943 0.154246 -0.070954
v -0.000212 0.154246 -0.070530
v 0.208037 0.277430 -1.773126
v 0.117861 0.367608 -1.772855
v -0.005322 0.400615 -1.772485
v -0.128507 0.367608 -1.772115
v -0.218683 0.277430 -1.771845
v -0.251691 0.154246 -1.771745
v -0.218683 0.031061 -1.771845
v -0.128507 -0.059116 -1.772115
v -0.005322 -0.092123 -1.772485
v 0.117861 -0.059116 -1.772855
v 0.208037 0.031061 -1.773126
v 0.241045 0.154246 -1.773225
v 0.096965 0.214791 -2.631659
v 0.052643 0.259113 -2.631526
v -0.007902 0.154246 -2.631344
v -0.007902 0.275335 -2.631344
v -0.068446 0.259113 -2.631162
v -0.112768 0.214791 -2.631029
v -0.128992 0.154246 -2.630980
v -0.112768 0.093701 -2.631029
v -0.068446 0.049379 -2.631162
v -0.007902 0.033156 -2.631344
v 0.052643 0.049379 -2.631526
v 0.096965 0.093701 -2.631659
v 0.113187 0.154246 -2.631708
# 50 vertices

vt 0.198923 0.501982
vt 0.198923 0.553993
vt 0.067666 0.553993
vt 0.067666 0.501982
vt 0.198923 0.625042
vt 0.067666 0.625042
vt 0.198923 0.696090
vt 0.067666 0.696091
vt 0.198923 0.748101
vt 0.067666 0.748102
vt 0.001979 0.946175
vt 0.001979 0.875126
vt 0.133235 0.875126
vt 0.133235 0.946175
vt 0.001979 0.804078
vt 0.133235 0.804078
vt 0.001979 0.752066
vt 0.133235 0.752066
vt 0.139622 0.984249
vt 0.139622 0.913201
vt 0.270879 0.913201
vt 0.270879 0.984249
vt 0.139622 0.842152
vt 0.270879 0.842152
vt 0.139622 0.790141
vt 0.270879 0.790141
vt 0.277072 0.932238
vt 0.277072 0.861190
vt 0.408329 0.861190
vt 0.408329 0.932238
vt 0.277072 0.790141
vt 0.408329 0.790141
vt 0.144425 0.189056
vt 0.189043 0.144438
vt 0.249992 0.250005
vt 0.128094 0.250005
vt 0.144425 0.310954
vt 0.189043 0.355571
vt 0.249992 0.371902
vt 0.310940 0.355571
vt 0.355558 0.310953
vt 0.371889 0.250005
vt 0.355558 0.189056
vt 0.310940 0.144438
vt 0.249992 0.128107
vt 0.470174 0.715128
vt 0.418163 0.767139
vt 0.347115 0.644079
vt 0.347115 0.786176
vt 0.276066 0.767139
vt 0.224055 0.715128
vt 0.205018 0.644079
vt 0.224055 0.573031
vt 0.276066 0.521020
vt 0.347115 0.501982
vt 0.418163 0.521020
vt 0.470174 0.573031
vt 0.489212 0.644079
vt 0.866378 0.678947
vt 0.814367 0.626936
vt 0.867325 0.535210
vt 0.958104 0.625989
vt 0.885416 0.749995
vt 0.991332 0.749995
vt 0.866378 0.821044
vt 0.958104 0.874002
vt 0.814367 0.873055
vt 0.867325 0.964780
vt 0.743319 0.892092
vt 0.743319 0.998008
vt 0.672270 0.873055
vt 0.619312 0.964781
vt 0.620259 0.821044
vt 0.528534 0.874002
vt 0.601222 0.749995
vt 0.495306 0.749995
vt 0.620259 0.678947
vt 0.528534 0.625989
vt 0.672270 0.626936
vt 0.619312 0.535210
vt 0.743319 0.607898
vt 0.743319 0.501982
vt 0.035206 0.125998
vt 0.125985 0.035219
vt 0.001979 0.250005
vt 0.035206 0.374011
vt 0.125985 0.464790
vt 0.249992 0.498018
vt 0.373998 0.464790
vt 0.464777 0.374011
vt 0.498004 0.250005
vt 0.464777 0.125998
vt 0.373998 0.035219
vt 0.249992 0.001992
# 94 texture coordinates

vn 0.863653 0.498498 0.074856
vn 0.498729 0.863424 0.075952
vn 0.498473 0.862945 0.082773
vn 0.863194 0.498222 0.081677
vn 0.000233 0.996996 0.077449
vn 0.000253 0.996443 0.084269
vn -0.498264 0.863424 0.078946
vn -0.497966 0.862945 0.085765
vn -0.863188 0.498498 0.080042
vn -0.862688 0.498221 0.086860
vn -0.996759 0.000000 0.080443
vn -0.996185 0.000000 0.087261
vn -0.863188 -0.498498 0.080042
vn -0.862688 -0.498221 0.086860
vn -0.498264 -0.863424 0.078946
vn -0.497966 -0.862945 0.085765
vn 0.000233 -0.996996 0.077449
vn 0.000253 -0.996443 0.084269
vn 0.498728 -0.863424 0.075951
vn 0.498472 -0.862945 0.082772
vn 0.863653 -0.498498 0.074856
vn 0.863194 -0.498222 0.081677
vn 0.997224 0.000000 0.074455
vn 0.996692 0.000000 0.081276
vn 0.476068 0.826138 -0.301422
vn 0.825233 0.476971 -0.302471
vn -0.003004 -0.000001 -0.999995
vn -0.000902 0.953942 -0.299990
vn -0.477871 0.826137 -0.298558
vn -0.827035 0.476971 -0.297509
vn -0.954838 0.000000 -0.297126
vn -0.827035 -0.476971 -0.297510
vn -0.477870 -0.826138 -0.298558
vn -0.000901 -0.953942 -0.299990
vn 0.476068 -0.826138 -0.301422
vn 0.825233 -0.476972 -0.302471
vn 0.953037 0.000000 -0.302855
vn 0.003003 0.000000 0.999995
vn 0.865923 0.499911 0.016333
vn 0.499964 0.865871 0.017432
vn 0.000057 0.999821 0.018933
vn -0.499851 0.865870 0.020434
vn -0.865810 0.499910 0.021534
vn -0.999759 0.000000 0.021936
vn -0.865809 -0.499911 0.021534
vn -0.499852 -0.865870 0.020434
vn 0.000057 -0.999821 0.018933
vn 0.499965 -0.865870 0.017432
vn 0.865923 -0.499911 0.016333
vn 0.999873 0.000000 0.015931
# 50 normals

g default1
# 0 triangles in group

g group1
s 1
f 1/1/1 2/2/2 14/3/3
f 1/1/1 14/3/3 13/4/4
f 2/2/2 3/5/5 15/6/6
f 2/2/2 15/6/6 14/3/3
f 3/5/5 4/7/7 16/8/8
f 3/5/5 16/8/8 15/6/6
f 4/7/7 5/9/9 17/10/10
f 4/7/7 17/10/10 16/8/8
f 5/11/9 6/12/11 18/13/12
f 5/11/9 18/13/12 17/14/10
f 6/12/11 7/15/13 19/16/14
f 6/12/11 19/16/14 18/13/12
f 7/15/13 8/17/15 20/18/16
f 7/15/13 20/18/16 19/16/14
f 8/19/15 9/20/17 21/21/18
f 8/19/15 21/21/18 20/22/16
f 9/20/17 10/23/19 22/24/20
f 9/20/17 22/24/20 21/21/18
f 10/23/19 11/25/21 23/26/22
f 10/23/19 23/26/22 22/24/20
f 11/27/21 12/28/23 24/29/24
f 11/27/21 24/29/24 23/30/22
f 12/28/23 1/31/1 13/32/4
f 12/28/23 13/32/4 24/29/24
f 39/33/25 38/34/26 40/35/27
f 41/36/28 39/33/25 40/35/27
f 42/37/29 41/36/28 40/35/27
f 43/38/30 42/37/29 40/35/27
f 44/39/31 43/38/30 40/35/27
f 45/40/32 44/39/31 40/35/27
f 46/41/33 45/40/32 40/35/27
f 47/42/34 46/41/33 40/35/27
f 48/43/35 47/42/34 40/35/27
f 49/44/36 48/43/35 40/35/27
f 50/45/37 49/44/36 40/35/27
f 38/34/26 50/45/37 40/35/27
f 13/46/4 14/47/3 25/48/38
f 14/47/3 15/49/6 25/48/38
f 15/49/6 16/50/8 25/48/38
f 16/50/8 17/51/10 25/48/38
f 17/51/10 18/52/12 25/48/38
f 18/52/12 19/53/14 25/48/38
f 19/53/14 20/54/16 25/48/38
f 20/54/16 21/55/18 25/48/38
f 21/55/18 22/56/20 25/48/38
f 22/56/20 23/57/22 25/48/38
f 23/57/22 24/58/24 25/48/38
f 24/58/24 13/46/4 25/48/38
f 2/59/2 1/60/1 26/61/39
f 2/59/2 26/61/39 27/62/40
f 3/63/5 2/59/2 27/62/40
f 3/63/5 27/62/40 28/64/41
f 4/65/7 3/63/5 28/64/41
f 4/65/7 28/64/41 29/66/42
f 5/67/9 4/65/7 29/66/42
f 5/67/9 29/66/42 30/68/43
f 6/69/11 5/67/9 30/68/43
f 6/69/11 30/68/43 31/70/44
f 7/71/13 6/69/11 31/70/44
f 7/71/13 31/70/44 32/72/45
f 8/73/15 7/71/13 32/72/45
f 8/73/15 32/72/45 33/74/46
f 9/75/17 8/73/15 33/74/46
f 9/75/17 33/74/46 34/76/47
f 10/77/19 9/75/17 34/76/47
f 10/77/19 34/76/47 35/78/48
f 11/79/21 10/77/19 35/78/48
f 11/79/21 35/78/48 36/80/49
f 12/81/23 11/79/21 36/80/49
f 12/81/23 36/80/49 37/82/50
f 1/60/1 12/81/23 37/82/50
f 1/60/1 37/82/50 26/61/39
f 27/83/40 26/84/39 38/34/26
f 27/83/40 38/34/26 39/33/25
f 28/85/41 27/83/40 39/33/25
f 28/85/41 39/33/25 41/36/28
f 29/86/42 28/85/41 41/36/28
f 29/86/42 41/36/28 42/37/29
f 30/87/43 29/86/42 42/37/29
f 30/87/43 42/37/29 43/38/30
f 31/88/44 30/87/43 43/38/30
f 31/88/44 43/38/30 44/39/31
f 32/89/45 31/88/44 44/39/31
f 32/89/45 44/39/31 45/40/32
f 33/90/46 32/89/45 45/40/32
f 33/90/46 45/40/32 46/41/33
f 34/91/47 33/90/46 46/41/33
f 34/91/47 46/41/33 47/42/34
f 35/92/48 34/91/47 47/42/34
f 35/92/48 47/42/34 48/43/35
f 36/93/49 35/92/48 48/43/35
f 36/93/49 48/43/35 49/44/36
f 37/94/50 36/93/49 49/44/36
f 37/94/50 49/44/36 50/45/37
f 26/84/39 37/94/50 50/45/37
f 26/84/39 50/45/37 38/34/26
# 96 triangles in group

# 96 triangles total

