# Wavefront OBJ exported by MilkShape 3D

v 0.866025 -2.193050 -0.500000
v 0.500000 -2.193050 -0.866025
v 0.000000 -2.193050 -1.000000
v -0.500000 -2.193050 -0.866025
v -0.866025 -2.193050 -0.500000
v -1.000000 -2.193050 0.000000
v -0.866025 -2.193050 0.500000
v -0.500000 -2.193050 0.866025
v 0.000000 -2.193050 1.000000
v 0.500000 -2.193050 0.866025
v 0.866025 -2.193050 0.500000
v 1.000000 -2.193050 0.000000
v 0.866025 -0.193050 -0.500000
v 0.500000 -0.193050 -0.866025
v 0.000000 -0.193050 -1.000000
v -0.500000 -0.193050 -0.866025
v -0.866025 -0.193050 -0.500000
v -1.000000 -0.193050 0.000000
v -0.866025 -0.193050 0.500000
v -0.500000 -0.193050 0.866025
v 0.000000 -0.193050 1.000000
v 0.500000 -0.193050 0.866025
v 0.866025 -0.193050 0.500000
v 1.000000 -0.193050 0.000000
v 0.000000 -2.193050 0.000000
v 0.601406 -0.193050 -0.347222
v 0.347222 -0.193050 -0.601406
v 0.000000 -0.193050 -0.694444
v -0.347222 -0.193050 -0.601406
v -0.601406 -0.193050 -0.347222
v -0.694444 -0.193050 0.000000
v -0.601406 -0.193050 0.347222
v -0.347222 -0.193050 0.601406
v 0.000000 -0.193050 0.694444
v 0.347222 -0.193050 0.601407
v 0.601407 -0.193050 0.347222
v 0.694444 -0.193050 0.000000
v 0.601406 0.007269 -0.347222
v 0.347222 0.007269 -0.601406
v 0.000000 0.007269 0.000000
v 0.000000 0.007269 -0.694444
v -0.347222 0.007269 -0.601406
v -0.601406 0.007269 -0.347222
v -0.694444 0.007269 0.000000
v -0.601406 0.007269 0.347222
v -0.347222 0.007269 0.601406
v 0.000000 0.007269 0.694444
v 0.347222 0.007269 0.601407
v 0.601407 0.007269 0.347222
v 0.694444 0.007269 0.000000
# 50 vertices

vt 0.319571 0.368758
vt 0.252449 0.368758
vt 0.252449 0.001992
vt 0.319571 0.001992
vt 0.160757 0.368758
vt 0.160757 0.001992
vt 0.069065 0.368758
vt 0.069065 0.001992
vt 0.001943 0.368758
vt 0.001943 0.001992
vt 0.327124 0.001992
vt 0.418815 0.001992
vt 0.418815 0.368758
vt 0.327124 0.368758
vt 0.510507 0.001992
vt 0.510507 0.368758
vt 0.577630 0.001992
vt 0.577630 0.368758
vt 0.583696 0.001992
vt 0.675387 0.001992
vt 0.675387 0.368758
vt 0.583696 0.368758
vt 0.767079 0.001992
vt 0.767079 0.368758
vt 0.834202 0.001992
vt 0.834202 0.368758
vt 0.789831 0.372651
vt 0.881522 0.372651
vt 0.881522 0.739417
vt 0.789831 0.739417
vt 0.973214 0.372651
vt 0.973214 0.739417
vt 0.441650 0.464342
vt 0.508773 0.397219
vt 0.600465 0.556034
vt 0.417082 0.556034
vt 0.441650 0.647725
vt 0.508773 0.714848
vt 0.600465 0.739417
vt 0.692156 0.714848
vt 0.759279 0.647725
vt 0.783848 0.556034
vt 0.759279 0.464342
vt 0.692156 0.397219
vt 0.600465 0.372651
vt 0.192967 0.760371
vt 0.239580 0.806984
vt 0.129292 0.870659
vt 0.256641 0.870659
vt 0.239580 0.934333
vt 0.192967 0.980946
vt 0.129292 0.998008
vt 0.065617 0.980946
vt 0.019004 0.934333
vt 0.001943 0.870659
vt 0.019004 0.806984
vt 0.065617 0.760371
vt 0.129292 0.743309
vt 0.319407 0.397219
vt 0.386530 0.464342
vt 0.338003 0.492359
vt 0.291390 0.445746
vt 0.411099 0.556034
vt 0.355065 0.556034
vt 0.386530 0.647725
vt 0.338003 0.619708
vt 0.319407 0.714848
vt 0.291390 0.666322
vt 0.227716 0.739417
vt 0.227716 0.683383
vt 0.136024 0.714848
vt 0.164041 0.666322
vt 0.068901 0.647725
vt 0.117428 0.619708
vt 0.044332 0.556034
vt 0.100366 0.556034
vt 0.068901 0.464342
vt 0.117428 0.492359
vt 0.136024 0.397219
vt 0.164041 0.445746
vt 0.227716 0.372651
vt 0.227716 0.428684
vt 0.301141 0.743309
vt 0.301141 0.789922
vt 0.264406 0.789922
vt 0.264406 0.743309
vt 0.301141 0.853597
vt 0.264406 0.853597
vt 0.301141 0.917272
vt 0.264406 0.917272
vt 0.301141 0.963885
vt 0.264406 0.963885
vt 0.308118 0.917272
vt 0.308118 0.853597
vt 0.344853 0.853597
vt 0.344853 0.917272
vt 0.308118 0.789922
vt 0.344853 0.789922
vt 0.308118 0.743309
vt 0.344853 0.743309
vt 0.351831 0.917272
vt 0.351831 0.853597
vt 0.388566 0.853597
vt 0.388566 0.917272
vt 0.351831 0.789922
vt 0.388566 0.789922
vt 0.351831 0.743309
vt 0.388566 0.743309
vt 0.395543 0.870659
vt 0.395543 0.806984
vt 0.432278 0.806984
vt 0.432278 0.870659
vt 0.395543 0.743309
vt 0.432278 0.743309
# 114 texture coordinates

vn 0.601668 -0.719255 -0.347373
vn 0.347373 -0.719255 -0.601668
vn 0.347373 0.719255 -0.601668
vn 0.601668 0.719255 -0.347373
vn 0.000000 -0.719255 -0.694747
vn 0.000000 0.719255 -0.694747
vn -0.347373 -0.719255 -0.601668
vn -0.347373 0.719255 -0.601668
vn -0.601668 -0.719255 -0.347373
vn -0.601668 0.719255 -0.347373
vn -0.694747 -0.719255 0.000000
vn -0.694747 0.719255 0.000000
vn -0.601668 -0.719255 0.347373
vn -0.601668 0.719255 0.347373
vn -0.347373 -0.719255 0.601668
vn -0.347373 0.719255 0.601668
vn 0.000000 -0.719255 0.694747
vn 0.000000 0.719255 0.694747
vn 0.347373 -0.719255 0.601668
vn 0.347373 0.719255 0.601668
vn 0.601668 -0.719255 0.347373
vn 0.601668 0.719255 0.347373
vn 0.694747 -0.719255 0.000000
vn 0.694747 0.719255 0.000000
vn 0.000000 -1.000000 0.000000
vn 0.000000 1.000000 0.000000
# 26 normals

g default
# 0 triangles in group

g pCylinder1
s 1
f 1/1/1 2/2/2 14/3/3
f 1/1/1 14/3/3 13/4/4
f 2/2/2 3/5/5 15/6/6
f 2/2/2 15/6/6 14/3/3
f 3/5/5 4/7/7 16/8/8
f 3/5/5 16/8/8 15/6/6
f 4/7/7 5/9/9 17/10/10
f 4/7/7 17/10/10 16/8/8
f 5/11/9 6/12/11 18/13/12
f 5/11/9 18/13/12 17/14/10
f 6/12/11 7/15/13 19/16/14
f 6/12/11 19/16/14 18/13/12
f 7/15/13 8/17/15 20/18/16
f 7/15/13 20/18/16 19/16/14
f 8/19/15 9/20/17 21/21/18
f 8/19/15 21/21/18 20/22/16
f 9/20/17 10/23/19 22/24/20
f 9/20/17 22/24/20 21/21/18
f 10/23/19 11/25/21 23/26/22
f 10/23/19 23/26/22 22/24/20
f 11/27/21 12/28/23 24/29/24
f 11/27/21 24/29/24 23/30/22
f 12/28/23 1/31/1 13/32/4
f 12/28/23 13/32/4 24/29/24
f 2/33/2 1/34/1 25/35/25
f 3/36/5 2/33/2 25/35/25
f 4/37/7 3/36/5 25/35/25
f 5/38/9 4/37/7 25/35/25
f 6/39/11 5/38/9 25/35/25
f 7/40/13 6/39/11 25/35/25
f 8/41/15 7/40/13 25/35/25
f 9/42/17 8/41/15 25/35/25
f 10/43/19 9/42/17 25/35/25
f 11/44/21 10/43/19 25/35/25
f 12/45/23 11/44/21 25/35/25
f 1/34/1 12/45/23 25/35/25
f 38/46/4 39/47/3 40/48/26
f 39/47/3 41/49/6 40/48/26
f 41/49/6 42/50/8 40/48/26
f 42/50/8 43/51/10 40/48/26
f 43/51/10 44/52/12 40/48/26
f 44/52/12 45/53/14 40/48/26
f 45/53/14 46/54/16 40/48/26
f 46/54/16 47/55/18 40/48/26
f 47/55/18 48/56/20 40/48/26
f 48/56/20 49/57/22 40/48/26
f 49/57/22 50/58/24 40/48/26
f 50/58/24 38/46/4 40/48/26
f 13/59/4 14/60/3 27/61/3
f 13/59/4 27/61/3 26/62/4
f 14/60/3 15/63/6 28/64/6
f 14/60/3 28/64/6 27/61/3
f 15/63/6 16/65/8 29/66/8
f 15/63/6 29/66/8 28/64/6
f 16/65/8 17/67/10 30/68/10
f 16/65/8 30/68/10 29/66/8
f 17/67/10 18/69/12 31/70/12
f 17/67/10 31/70/12 30/68/10
f 18/69/12 19/71/14 32/72/14
f 18/69/12 32/72/14 31/70/12
f 19/71/14 20/73/16 33/74/16
f 19/71/14 33/74/16 32/72/14
f 20/73/16 21/75/18 34/76/18
f 20/73/16 34/76/18 33/74/16
f 21/75/18 22/77/20 35/78/20
f 21/75/18 35/78/20 34/76/18
f 22/77/20 23/79/22 36/80/22
f 22/77/20 36/80/22 35/78/20
f 23/79/22 24/81/24 37/82/24
f 23/79/22 37/82/24 36/80/22
f 24/81/24 13/59/4 26/62/4
f 24/81/24 26/62/4 37/82/24
f 26/83/4 27/84/3 39/85/3
f 26/83/4 39/85/3 38/86/4
f 27/84/3 28/87/6 41/88/6
f 27/84/3 41/88/6 39/85/3
f 28/87/6 29/89/8 42/90/8
f 28/87/6 42/90/8 41/88/6
f 29/89/8 30/91/10 43/92/10
f 29/89/8 43/92/10 42/90/8
f 30/93/10 31/94/12 44/95/12
f 30/93/10 44/95/12 43/96/10
f 31/94/12 32/97/14 45/98/14
f 31/94/12 45/98/14 44/95/12
f 32/97/14 33/99/16 46/100/16
f 32/97/14 46/100/16 45/98/14
f 33/101/16 34/102/18 47/103/18
f 33/101/16 47/103/18 46/104/16
f 34/102/18 35/105/20 48/106/20
f 34/102/18 48/106/20 47/103/18
f 35/105/20 36/107/22 49/108/22
f 35/105/20 49/108/22 48/106/20
f 36/109/22 37/110/24 50/111/24
f 36/109/22 50/111/24 49/112/22
f 37/110/24 26/113/4 38/114/4
f 37/110/24 38/114/4 50/111/24
# 96 triangles in group

# 96 triangles total

