# Wavefront OBJ exported by MilkShape 3D

v 0.669503 0.007046 -0.179393
v 0.490110 0.007046 -0.490110
v 0.473409 0.186439 -0.473410
v 0.646690 0.186439 -0.173280
v 0.179393 0.007046 -0.669503
v 0.173280 0.186439 -0.646690
v 0.179393 0.006218 -0.284823
v -0.179393 0.006218 -0.284822
v -0.173280 0.089956 -0.274335
v 0.173280 0.089956 -0.274334
v -0.179393 0.007046 -0.669503
v -0.490110 0.007046 -0.490110
v -0.473410 0.186439 -0.473409
v -0.173280 0.186439 -0.646690
v -0.669503 0.007046 -0.179393
v -0.646690 0.186439 -0.173280
v -0.669503 0.007046 0.179393
v -0.646690 0.186439 0.173280
v -0.490110 0.007046 0.490110
v -0.473409 0.186439 0.473410
v -0.179393 0.007046 0.669503
v -0.173280 0.186439 0.646690
v 0.179393 0.007046 0.669503
v 0.173280 0.186439 0.646690
v 0.490110 0.007046 0.490110
v 0.473411 0.186439 0.473410
v 0.669503 0.007046 0.179393
v 0.646690 0.186439 0.173280
v 0.424448 0.353606 -0.424448
v 0.579806 0.353606 -0.155359
v 0.155359 0.353606 -0.579807
v -0.155359 0.166130 -0.244023
v 0.155359 0.166130 -0.244023
v -0.424448 0.353606 -0.424448
v -0.155359 0.353606 -0.579806
v -0.579807 0.353606 -0.155359
v -0.579806 0.353606 0.155359
v -0.424448 0.353606 0.424448
v -0.155359 0.353606 0.579807
v 0.155359 0.353606 0.579806
v 0.424448 0.353606 0.424448
v 0.579807 0.353606 0.155359
v 0.346560 0.497156 -0.346560
v 0.473410 0.497156 -0.126850
v 0.126850 0.497156 -0.473410
v -0.126850 0.229888 -0.197040
v 0.126850 0.229888 -0.197040
v -0.346560 0.497156 -0.346560
v -0.126850 0.497156 -0.473410
v -0.473410 0.497156 -0.126850
v -0.473410 0.497156 0.126850
v -0.346560 0.497156 0.346560
v -0.126850 0.497156 0.473410
v 0.126850 0.497156 0.473410
v 0.346560 0.497156 0.346560
v 0.473410 0.497156 0.126850
v 0.245055 0.607306 -0.245055
v 0.334751 0.607306 -0.089696
v 0.089696 0.607306 -0.334751
v -0.089696 0.303674 -0.093548
v 0.089696 0.303674 -0.093547
v -0.245055 0.607306 -0.245055
v -0.089696 0.607306 -0.334751
v -0.334751 0.607306 -0.089696
v -0.334751 0.607306 0.089696
v -0.245055 0.607306 0.245055
v -0.089696 0.607306 0.334751
v 0.089696 0.607306 0.334751
v 0.245055 0.607306 0.245055
v 0.334751 0.607306 0.089696
v 0.126850 0.676549 -0.126850
v 0.173280 0.676549 -0.046430
v 0.046430 0.676549 -0.173280
v -0.046430 0.676549 -0.173280
v -0.126850 0.676549 -0.126850
v -0.173280 0.676549 -0.046430
v -0.173280 0.676549 0.046430
v -0.126850 0.676549 0.126850
v -0.046430 0.676549 0.173280
v 0.046430 0.676549 0.173280
v 0.126850 0.676549 0.126850
v 0.173280 0.676549 0.046430
v 0.000000 0.700167 0.000000
# 83 vertices

vt 0.248915 0.998008
vt 0.144539 0.998008
vt 0.139681 0.924203
vt 0.240500 0.924203
vt 0.001959 0.998008
vt 0.001959 0.924203
vt 0.728462 0.602463
vt 0.585882 0.602463
vt 0.589428 0.568012
vt 0.727150 0.568012
vt 0.001959 0.495904
vt 0.001959 0.391528
vt 0.075764 0.386670
vt 0.075764 0.487489
vt 0.001959 0.248948
vt 0.075764 0.248948
vt 0.001959 0.106368
vt 0.075764 0.111227
vt 0.001959 0.001992
vt 0.075764 0.010407
vt 0.255145 0.391528
vt 0.255145 0.248948
vt 0.328950 0.248948
vt 0.328950 0.386670
vt 0.255145 0.106368
vt 0.328950 0.111227
vt 0.255145 0.001992
vt 0.328950 0.010407
vt 0.734496 0.640326
vt 0.734496 0.497746
vt 0.808301 0.497746
vt 0.808301 0.635468
vt 0.734496 0.355166
vt 0.808301 0.360024
vt 0.125437 0.855428
vt 0.215829 0.855428
vt 0.001959 0.855428
vt 0.599777 0.536673
vt 0.723256 0.536673
vt 0.144539 0.372426
vt 0.144539 0.462818
vt 0.144539 0.248948
vt 0.144539 0.125470
vt 0.144539 0.035078
vt 0.397725 0.248948
vt 0.397725 0.372426
vt 0.397725 0.125470
vt 0.397725 0.035078
vt 0.877076 0.497746
vt 0.877076 0.621224
vt 0.877076 0.374268
vt 0.102778 0.796369
vt 0.176583 0.796369
vt 0.001959 0.796369
vt 0.616110 0.510442
vt 0.716929 0.510442
vt 0.203598 0.349768
vt 0.203598 0.423573
vt 0.203598 0.248948
vt 0.203598 0.148129
vt 0.203598 0.074324
vt 0.456783 0.248948
vt 0.456783 0.349768
vt 0.456783 0.148129
vt 0.456783 0.074324
vt 0.936135 0.497746
vt 0.936135 0.598566
vt 0.936135 0.396927
vt 0.857388 0.277436
vt 0.783583 0.351241
vt 0.754053 0.300095
vt 0.806241 0.247907
vt 0.001959 0.751052
vt 0.073249 0.751052
vt 0.641894 0.480085
vt 0.713185 0.480085
vt 0.581944 0.351241
vt 0.508139 0.277436
vt 0.559285 0.247907
vt 0.611473 0.300095
vt 0.248915 0.248948
vt 0.248915 0.320238
vt 0.248915 0.177658
vt 0.508139 0.075797
vt 0.581944 0.001992
vt 0.611473 0.053138
vt 0.559285 0.105326
vt 0.502101 0.248948
vt 0.502101 0.320238
vt 0.502101 0.177658
vt 0.783583 0.001992
vt 0.857388 0.075797
vt 0.806241 0.105326
vt 0.754053 0.053138
vt 0.981452 0.497746
vt 0.981452 0.569036
vt 0.981452 0.426456
vt 0.719665 0.240534
vt 0.746680 0.213519
vt 0.682763 0.319197
vt 0.682763 0.250421
vt 0.645861 0.240534
vt 0.618846 0.213519
vt 0.540183 0.176616
vt 0.608958 0.176616
vt 0.618846 0.139714
vt 0.645861 0.112699
vt 0.682763 0.034036
vt 0.682763 0.102811
vt 0.719665 0.112699
vt 0.746680 0.139714
vt 0.825343 0.176616
vt 0.756568 0.176616
vt 0.682763 0.176616
vt 0.397725 0.942127
vt 0.255145 0.903923
vt 0.296106 0.751052
vt 0.438687 0.789256
vt 0.579849 0.395794
vt 0.571433 0.469599
vt 0.423461 0.429905
vt 0.426977 0.395454
vt 0.125766 0.573975
vt 0.116049 0.500170
vt 0.268920 0.499830
vt 0.273739 0.534281
vt 0.546762 0.538374
vt 0.413323 0.461244
vt 0.154254 0.642750
vt 0.287693 0.565620
vt 0.507517 0.597433
vt 0.397688 0.487475
vt 0.199571 0.701809
vt 0.309400 0.591851
vt 0.456370 0.642750
vt 0.360517 0.517832
vt 0.616211 0.355166
vt 0.687501 0.355166
vt 0.258630 0.747127
vt 0.354483 0.622208
# 140 texture coordinates

vn 0.957662 0.130527 -0.256605
vn 0.701057 0.130527 -0.701057
vn 0.682960 0.259096 -0.682960
vn 0.932941 0.259096 -0.249981
vn -0.341820 0.734350 -0.586420
vn -0.507018 0.160635 -0.846835
vn -0.670933 0.315451 -0.671073
vn 0.670933 0.315451 -0.671073
vn 0.341820 0.734350 -0.586420
vn -0.701057 0.130527 -0.701057
vn -0.682960 0.259096 -0.682960
vn 0.507017 0.160634 -0.846835
vn -0.957662 0.130527 -0.256605
vn -0.932941 0.259096 -0.249981
vn -0.957662 0.130527 0.256605
vn -0.932941 0.259096 0.249981
vn -0.701058 0.130527 0.701057
vn -0.682960 0.259096 0.682960
vn -0.256605 0.130527 0.957662
vn -0.249981 0.259096 0.932941
vn 0.256605 0.130527 0.957662
vn 0.249981 0.259096 0.932941
vn 0.701057 0.130527 0.701057
vn 0.682960 0.259096 0.682960
vn 0.957662 0.130527 0.256605
vn 0.932941 0.259096 0.249981
vn 0.612195 0.500435 -0.612195
vn 0.836273 0.500435 -0.224079
vn -0.520430 0.315599 -0.793442
vn 0.695785 0.313480 -0.646230
vn -0.695785 0.313480 -0.646230
vn -0.612195 0.500435 -0.612195
vn 0.520430 0.315599 -0.793442
vn -0.836274 0.500435 -0.224079
vn -0.836273 0.500435 0.224079
vn -0.612195 0.500435 0.612195
vn -0.224079 0.500435 0.836274
vn 0.224079 0.500435 0.836273
vn 0.612195 0.500435 0.612195
vn 0.836274 0.500435 0.224079
vn 0.499705 0.707524 -0.499705
vn 0.682609 0.707524 -0.182904
vn -0.552942 0.467971 -0.689390
vn -0.499705 0.707524 -0.499705
vn 0.552942 0.467971 -0.689390
vn -0.682609 0.707524 -0.182905
vn -0.682609 0.707524 0.182904
vn -0.499704 0.707524 0.499705
vn -0.182905 0.707524 0.682609
vn 0.182904 0.707524 0.682609
vn 0.499705 0.707524 0.499704
vn 0.682609 0.707524 0.182905
vn 0.353235 0.866285 -0.353234
vn 0.482527 0.866286 -0.129293
vn -0.158062 0.627648 -0.762282
vn 0.533347 0.017696 -0.845712
vn -0.533347 0.017696 -0.845711
vn -0.353234 0.866285 -0.353235
vn 0.158061 0.627648 -0.762282
vn -0.482528 0.866286 -0.129293
vn -0.482527 0.866286 0.129293
vn -0.353235 0.866285 0.353234
vn -0.129293 0.866285 0.482528
vn 0.129293 0.866286 0.482527
vn 0.353234 0.866286 0.353235
vn 0.482528 0.866286 0.129293
vn 0.167436 0.971561 -0.167435
vn -0.125139 0.968174 -0.216747
vn -0.250277 0.968174 0.000001
vn -0.125139 0.968174 0.216746
vn 0.125139 0.968174 0.216747
vn 0.249716 0.966005 0.066911
vn 0.000000 1.000000 0.000000
# 73 normals

g default1
# 0 triangles in group

g group1
s 1
f 1/1/1 2/2/2 3/3/3
f 1/1/1 3/3/3 4/4/4
f 2/2/2 5/5/5 6/6/6
f 2/2/2 6/6/6 3/3/3
f 7/7/7 8/8/8 9/9/8
f 7/7/7 9/9/8 10/10/7
f 11/11/9 12/12/10 13/13/11
f 11/11/9 13/13/11 14/14/12
f 12/12/10 15/15/13 16/16/14
f 12/12/10 16/16/14 13/13/11
f 15/15/13 17/17/15 18/18/16
f 15/15/13 18/18/16 16/16/14
f 17/17/15 19/19/17 20/20/18
f 17/17/15 20/20/18 18/18/16
f 19/21/17 21/22/19 22/23/20
f 19/21/17 22/23/20 20/24/18
f 21/22/19 23/25/21 24/26/22
f 21/22/19 24/26/22 22/23/20
f 23/25/21 25/27/23 26/28/24
f 23/25/21 26/28/24 24/26/22
f 25/29/23 27/30/25 28/31/26
f 25/29/23 28/31/26 26/32/24
f 27/30/25 1/33/1 4/34/4
f 27/30/25 4/34/4 28/31/26
f 4/4/4 3/3/3 29/35/27
f 4/4/4 29/35/27 30/36/28
f 3/3/3 6/6/6 31/37/29
f 3/3/3 31/37/29 29/35/27
f 10/10/7 9/9/8 32/38/30
f 10/10/7 32/38/30 33/39/31
f 14/14/12 13/13/11 34/40/32
f 14/14/12 34/40/32 35/41/33
f 13/13/11 16/16/14 36/42/34
f 13/13/11 36/42/34 34/40/32
f 16/16/14 18/18/16 37/43/35
f 16/16/14 37/43/35 36/42/34
f 18/18/16 20/20/18 38/44/36
f 18/18/16 38/44/36 37/43/35
f 20/24/18 22/23/20 39/45/37
f 20/24/18 39/45/37 38/46/36
f 22/23/20 24/26/22 40/47/38
f 22/23/20 40/47/38 39/45/37
f 24/26/22 26/28/24 41/48/39
f 24/26/22 41/48/39 40/47/38
f 26/32/24 28/31/26 42/49/40
f 26/32/24 42/49/40 41/50/39
f 28/31/26 4/34/4 30/51/28
f 28/31/26 30/51/28 42/49/40
f 30/36/28 29/35/27 43/52/41
f 30/36/28 43/52/41 44/53/42
f 29/35/27 31/37/29 45/54/43
f 29/35/27 45/54/43 43/52/41
f 33/39/31 32/38/30 46/55/30
f 33/39/31 46/55/30 47/56/31
f 35/41/33 34/40/32 48/57/44
f 35/41/33 48/57/44 49/58/45
f 34/40/32 36/42/34 50/59/46
f 34/40/32 50/59/46 48/57/44
f 36/42/34 37/43/35 51/60/47
f 36/42/34 51/60/47 50/59/46
f 37/43/35 38/44/36 52/61/48
f 37/43/35 52/61/48 51/60/47
f 38/46/36 39/45/37 53/62/49
f 38/46/36 53/62/49 52/63/48
f 39/45/37 40/47/38 54/64/50
f 39/45/37 54/64/50 53/62/49
f 40/47/38 41/48/39 55/65/51
f 40/47/38 55/65/51 54/64/50
f 41/50/39 42/49/40 56/66/52
f 41/50/39 56/66/52 55/67/51
f 42/49/40 30/51/28 44/68/42
f 42/49/40 44/68/42 56/66/52
f 44/69/42 43/70/41 57/71/53
f 44/69/42 57/71/53 58/72/54
f 43/52/41 45/54/43 59/73/55
f 43/52/41 59/73/55 57/74/53
f 47/56/31 46/55/30 60/75/56
f 47/56/31 60/75/56 61/76/57
f 49/77/45 48/78/44 62/79/58
f 49/77/45 62/79/58 63/80/59
f 48/57/44 50/59/46 64/81/60
f 48/57/44 64/81/60 62/82/58
f 50/59/46 51/60/47 65/83/61
f 50/59/46 65/83/61 64/81/60
f 51/84/47 52/85/48 66/86/62
f 51/84/47 66/86/62 65/87/61
f 52/63/48 53/62/49 67/88/63
f 52/63/48 67/88/63 66/89/62
f 53/62/49 54/64/50 68/90/64
f 53/62/49 68/90/64 67/88/63
f 54/91/50 55/92/51 69/93/65
f 54/91/50 69/93/65 68/94/64
f 55/67/51 56/66/52 70/95/66
f 55/67/51 70/95/66 69/96/65
f 56/66/52 44/68/42 58/97/54
f 56/66/52 58/97/54 70/95/66
f 58/72/54 57/71/53 71/98/67
f 58/72/54 71/98/67 72/99/67
f 57/71/53 59/100/55 73/101/67
f 57/71/53 73/101/67 71/98/67
f 59/100/55 63/80/59 74/102/68
f 59/100/55 74/102/68 73/101/67
f 63/80/59 62/79/58 75/103/68
f 63/80/59 75/103/68 74/102/68
f 62/79/58 64/104/60 76/105/69
f 62/79/58 76/105/69 75/103/68
f 64/104/60 65/87/61 77/106/69
f 64/104/60 77/106/69 76/105/69
f 65/87/61 66/86/62 78/107/70
f 65/87/61 78/107/70 77/106/69
f 66/86/62 67/108/63 79/109/70
f 66/86/62 79/109/70 78/107/70
f 67/108/63 68/94/64 80/110/71
f 67/108/63 80/110/71 79/109/70
f 68/94/64 69/93/65 81/111/71
f 68/94/64 81/111/71 80/110/71
f 69/93/65 70/112/66 82/113/72
f 69/93/65 82/113/72 81/111/71
f 70/112/66 58/72/54 72/99/67
f 70/112/66 72/99/67 82/113/72
f 72/99/67 71/98/67 83/114/73
f 71/98/67 73/101/67 83/114/73
f 73/101/67 74/102/68 83/114/73
f 74/102/68 75/103/68 83/114/73
f 75/103/68 76/105/69 83/114/73
f 76/105/69 77/106/69 83/114/73
f 77/106/69 78/107/70 83/114/73
f 78/107/70 79/109/70 83/114/73
f 79/109/70 80/110/71 83/114/73
f 80/110/71 81/111/71 83/114/73
f 81/111/71 82/113/72 83/114/73
f 82/113/72 72/99/67 83/114/73
f 5/115/5 11/116/9 8/117/8
f 5/115/5 8/117/8 7/118/7
f 11/119/9 14/120/12 9/121/8
f 11/119/9 9/121/8 8/122/8
f 6/123/6 5/124/5 7/125/7
f 6/123/6 7/125/7 10/126/7
f 14/120/12 35/127/33 32/128/30
f 14/120/12 32/128/30 9/121/8
f 31/129/29 6/123/6 10/126/7
f 31/129/29 10/126/7 33/130/31
f 35/127/33 49/131/45 46/132/30
f 35/127/33 46/132/30 32/128/30
f 45/133/43 31/129/29 33/130/31
f 45/133/43 33/130/31 47/134/31
f 49/131/45 63/135/59 60/136/56
f 49/131/45 60/136/56 46/132/30
f 63/137/59 59/138/55 61/76/57
f 63/137/59 61/76/57 60/75/56
f 59/139/55 45/133/43 47/134/31
f 59/139/55 47/134/31 61/140/57
# 152 triangles in group

# 152 triangles total

