# Created with Anim8or 0.95
# Object "05":
# ComRec:
g mesh01
# No. points 100:
v -2.87299 -0.12572 6.67678
v -2.94017 -0.05016 6.63757
v -2.88975 0.02540 6.69681
v -2.82257 -0.05016 6.73601
v -2.59656 -0.00676 6.07831
v -2.66374 0.06880 6.0391
v -2.61333 0.14436 6.09834
v -2.54614 0.06880 6.13755
v -2.18181 0.05982 5.85802
v -2.21277 0.13606 5.78738
v -2.19759 0.21229 5.863
v -2.16663 0.13606 5.93364
v -1.67566 0.09755 5.79609
v -1.68821 0.17411 5.72031
v -1.68449 0.25066 5.79703
v -1.67194 0.17411 5.87281
v -1.11052 0.12217 5.74525
v -1.1254 0.19879 5.66997
v -1.11634 0.27542 5.74617
v -1.10146 0.19879 5.82145
v -0.51778 0.14262 5.61247
v -0.54368 0.21927 5.54026
v -0.52235 0.29591 5.61395
v -0.49644 0.21927 5.68616
v 0.07844 0.16136 5.35952
v 0.04169 0.23802 5.2922
v 0.07520 0.31468 5.3612
v 0.11195 0.23802 5.42852
v 0.66149 0.17419 5.00421
v 0.61944 0.25087 4.94008
v 0.66065 0.32755 5.00475
v 0.70270 0.25087 5.06888
v 1.22149 0.17031 4.62023
v 1.18371 0.24695 4.55345
v 1.22577 0.32359 4.61762
v 1.26354 0.24695 4.6844
v 1.75346 0.13261 4.33551
v 1.74247 0.20872 4.25904
v 1.77154 0.28483 4.33062
v 1.78253 0.20872 4.40708
v 2.26657 0.03748 4.32409
v 2.31748 0.11198 4.26394
v 2.29897 0.18648 4.34054
v 2.24805 0.11198 4.40069
v 2.78039 -0.14865 4.84988
v 2.83131 -0.07415 4.78974
v 2.81279 0.00035 4.86634
v 2.76188 -0.07415 4.92649
v 0.11638 -0.09875 0.00170
v 0.11638 0.09880 0.00170
v -0.11997 -0.09875 0.00170
v -0.11997 0.09880 0.00170
v 0.11638 -0.09875 2.43985
v 0.11638 0.09880 2.43985
v -0.11997 -0.09875 2.43985
v -0.11997 0.09880 2.43985
v -0.11997 0.09880 2.67253
v -0.11997 -0.09875 2.67253
v 0.11638 0.09880 2.67253
v 0.11638 -0.09875 2.67253
v 2.62531 -0.09875 2.67253
v 2.62531 0.09880 2.67253
v 2.62531 -0.09875 2.43985
v 2.62531 0.09880 2.43985
v 2.89122 -0.09875 2.43985
v 2.89122 0.09880 2.43985
v 2.89122 0.09880 2.67253
v 2.89122 -0.09875 2.67253
v 2.89122 0.09880 4.83514
v 2.89122 -0.09875 4.83514
v 2.62531 -0.09875 4.83514
v 2.62531 0.09880 4.83514
v -2.72182 0.09880 2.43985
v -2.72182 0.09880 2.67253
v -2.72182 -0.09875 2.67253
v -2.72182 -0.09875 2.43985
v -2.96059 0.09880 2.43985
v -2.96059 -0.09875 2.43985
v -2.96059 -0.09875 2.67253
v -2.96059 0.09880 2.67253
v -2.96059 -0.09875 6.74807
v -2.96059 0.09880 6.74807
v -2.72182 0.09880 6.74807
v -2.72182 -0.09875 6.74807
v -2.90207 -0.03814 4.05593
v -2.84301 -0.03814 4.15823
v -2.84301 0.03819 4.15823
v -2.90207 0.03819 4.05593
v -0.16169 -0.03814 2.61017
v -0.16169 0.03819 2.61017
v -0.22075 0.03819 2.50787
v -0.22075 -0.03814 2.50787
v 2.82204 -0.03814 4.25583
v 2.82204 0.03819 4.25583
v 2.75429 0.03819 4.35259
v 2.75429 -0.03814 4.35259
v 0.28585 0.03819 2.47997
v 0.21809 0.03819 2.57673
v 0.21809 -0.03814 2.57673
v 0.28585 -0.03814 2.47997

# No. normals 300:
vn -0.56877 -0.71587 -0.40501
vn -0.73042 0.65053 -0.20807
vn 0.56880 0.71584 0.40502
vn 0.73042 -0.65053 0.20807
vn -0.30140 -0.63642 -0.71002
vn -0.41837 0.71663 -0.55804
vn 0.29915 0.63542 0.71187
vn 0.41347 -0.71645 0.56191
vn -0.04266 -0.68830 -0.72417
vn -0.13968 0.71124 -0.68894
vn 0.04167 0.68816 0.72436
vn 0.13737 -0.71119 0.68945
vn -0.03291 -0.70582 -0.70763
vn -0.09356 0.70705 -0.70095
vn 0.03316 0.70588 0.70756
vn 0.09369 -0.70700 0.70098
vn -0.12995 -0.70763 -0.69453
vn -0.17802 0.70435 -0.68716
vn 0.13019 0.70758 0.69453
vn 0.17822 -0.70439 0.68708
vn -0.25715 -0.70727 -0.65852
vn -0.29545 0.70361 -0.64625
vn 0.25706 0.70733 0.65849
vn 0.29538 -0.70359 0.64631
vn -0.35654 -0.70713 -0.61061
vn -0.38004 0.70504 -0.59874
vn 0.35640 0.70714 0.61069
vn 0.37989 -0.70505 0.59882
vn -0.40307 -0.70702 -0.58109
vn -0.39631 0.70699 -0.58575
vn 0.40304 0.70702 0.58111
vn 0.39652 -0.70699 0.58561
vn -0.37192 -0.70723 -0.60125
vn -0.29124 0.70304 -0.64878
vn 0.37303 0.70718 0.60062
vn 0.29405 -0.70328 0.64725
vn -0.14721 -0.71155 -0.68704
vn 0.13541 0.65085 -0.74703
vn 0.15719 0.71112 0.68527
vn -0.12561 -0.65374 0.74622
vn 0.34998 -0.72152 -0.59743
vn 0.66383 0.60993 -0.43280
vn -0.34996 0.72154 0.59742
vn -0.66381 -0.60998 0.43276
vn 1 0 0
vn 0 -1 0
vn 0 1 0
vn -1 0 0
vn 0 1 0
vn 0 -1 0
vn 0 0 1
vn 0 0 1
vn 0 -1 0
vn 0 1 0
vn 0 0 -1
vn 0 0 -1
vn 0 1 0
vn 0 -1 0
vn 1 0 0
vn 1 0 0
vn 0 -1 0
vn 0 1 0
vn -1 0 0
vn 0 0 1
vn 0 1 0
vn 0 0 1
vn 0 -1 0
vn 0 0 -1
vn 0 0 -1
vn 0 -1 0
vn 0 1 0
vn -1 0 0
vn -1 0 0
vn 0 1 0
vn 0 -1 0
vn 1 0 0
vn -0.50000 0 -0.86603
vn 0 -1 0
vn 0.50000 0 0.86603
vn 0 1 0
vn 0 1 0
vn -0.57358 0 0.81915
vn 0 -1 0
vn 0.57358 0 -0.81915
vn -0.56877 -0.71587 -0.40501
vn 0.73042 -0.65053 0.20807
vn -0.56877 -0.71587 -0.40501
vn -0.73042 0.65053 -0.20807
vn -0.73042 0.65053 -0.20807
vn 0.56880 0.71584 0.40502
vn 0.56880 0.71584 0.40502
vn 0.73042 -0.65053 0.20807
vn -0.44469 -0.69106 -0.56982
vn 0.58913 -0.70403 0.39656
vn -0.44469 -0.69106 -0.56982
vn -0.59120 0.70358 -0.39427
vn -0.59120 0.70358 -0.39427
vn 0.44369 0.69076 0.57095
vn 0.44369 0.69076 0.57095
vn 0.58913 -0.70403 0.39656
vn -0.17355 -0.66822 -0.72344
vn 0.27866 -0.72222 0.63304
vn -0.17355 -0.66822 -0.72344
vn -0.28239 0.72255 -0.63102
vn -0.28239 0.72255 -0.63102
vn 0.17190 0.66759 0.72441
vn 0.17190 0.66759 0.72441
vn 0.27866 -0.72222 0.63304
vn -0.03779 -0.69712 -0.71596
vn 0.11556 -0.70928 0.69539
vn -0.03779 -0.69712 -0.71596
vn -0.11665 0.70935 -0.69514
vn -0.11665 0.70935 -0.69514
vn 0.03742 0.69708 0.71602
vn 0.03742 0.69708 0.71602
vn 0.11556 -0.70928 0.69539
vn -0.08153 -0.70757 -0.70192
vn 0.13608 -0.70634 0.69467
vn -0.08153 -0.70757 -0.70192
vn -0.13591 0.70635 -0.69469
vn -0.13591 0.70635 -0.69469
vn 0.08178 0.70758 0.70189
vn 0.08178 0.70758 0.70189
vn 0.13608 -0.70634 0.69467
vn -0.19398 -0.70900 -0.67801
vn 0.23726 -0.70535 0.66798
vn -0.19398 -0.70900 -0.67801
vn -0.23719 0.70535 -0.66800
vn -0.23719 0.70535 -0.66800
vn 0.19405 0.70900 0.67799
vn 0.19405 0.70900 0.67799
vn 0.23726 -0.70535 0.66798
vn -0.30731 -0.70828 -0.63553
vn 0.33803 -0.70515 0.62330
vn -0.30731 -0.70828 -0.63553
vn -0.33814 0.70515 -0.62323
vn -0.33814 0.70515 -0.62323
vn 0.30719 0.70831 0.63555
vn 0.30719 0.70831 0.63555
vn 0.33803 -0.70515 0.62330
vn -0.37995 -0.70734 -0.59607
vn 0.38823 -0.70606 0.59225
vn -0.37995 -0.70734 -0.59607
vn -0.38820 0.70605 -0.59228
vn -0.38820 0.70605 -0.59228
vn 0.37986 0.70735 0.59612
vn 0.37986 0.70735 0.59612
vn 0.38823 -0.70606 0.59225
vn -0.38756 -0.70725 -0.59127
vn 0.34590 -0.70640 0.61754
vn -0.38756 -0.70725 -0.59127
vn -0.34442 0.70635 -0.61843
vn -0.34442 0.70635 -0.61843
vn 0.38809 0.70721 0.59096
vn 0.38809 0.70721 0.59096
vn 0.34590 -0.70640 0.61754
vn -0.26146 -0.71458 -0.64886
vn 0.08628 -0.69507 0.71375
vn -0.26146 -0.71458 -0.64886
vn -0.07988 0.69402 -0.71551
vn -0.07988 0.69402 -0.71551
vn 0.26691 0.71397 0.64731
vn 0.26691 0.71397 0.64731
vn 0.08628 -0.69507 0.71375
vn 0.10479 -0.74056 -0.66377
vn -0.41547 -0.66510 0.62050
vn 0.10479 -0.74056 -0.66377
vn 0.42005 0.66262 -0.62008
vn 0.42005 0.66262 -0.62008
vn -0.09975 0.74131 0.66371
vn -0.09975 0.74131 0.66371
vn -0.41547 -0.66510 0.62050
vn 0.34998 -0.72152 -0.59743
vn -0.66381 -0.60998 0.43276
vn 0.34998 -0.72152 -0.59743
vn 0.66383 0.60993 -0.43280
vn 0.66383 0.60993 -0.43280
vn -0.34996 0.72154 0.59742
vn -0.34996 0.72154 0.59742
vn -0.66381 -0.60998 0.43276
vn 1 0 0
vn 0 -1 0
vn 1 0 0
vn 0 1 0
vn 0 -1 0
vn -1 0 0
vn 0 1 0
vn -1 0 0
vn 1 0 0
vn 0 0 -1
vn 0 -1 0
vn 1 0 0
vn 0 0 -1
vn 0 1 0
vn 0 -1 0
vn 0 0 -1
vn -1 0 0
vn 0 1 0
vn 0 0 -1
vn -1 0 0
vn 0 1 0
vn 0 0 1
vn 0 -1 0
vn 0 0 1
vn 0 1 0
vn 0 0 1
vn 0 -1 0
vn 0 0 1
vn 0 0 1
vn -1 0 0
vn 0 -1 0
vn 0 0 1
vn -1 0 0
vn 0 1 0
vn 0 -1 0
vn 0 0 -1
vn 0 1 0
vn 0 0 -1
vn 0 0 -1
vn 1 0 0
vn 0 -1 0
vn 0 0 -1
vn 1 0 0
vn 0 1 0
vn 0 1 0
vn 1 0 0
vn 0 -1 0
vn 1 0 0
vn 1 0 0
vn 0 0 1
vn 0 1 0
vn 1 0 0
vn 0 0 1
vn 0 -1 0
vn 0 -1 0
vn 0 0 1
vn -1 0 0
vn 0 1 0
vn 0 0 1
vn -1 0 0
vn 0 1 0
vn 0 0 -1
vn 0 1 0
vn 1 0 0
vn 0 0 1
vn 0 0 1
vn 1 0 0
vn 0 -1 0
vn 0 -1 0
vn 0 0 -1
vn 0 0 -1
vn -1 0 0
vn 0 1 0
vn 0 0 -1
vn -1 0 0
vn 0 -1 0
vn 0 -1 0
vn -1 0 0
vn 0 1 0
vn -1 0 0
vn -1 0 0
vn 0 -1 0
vn -1 0 0
vn 0 1 0
vn 0 1 0
vn 1 0 0
vn 0 -1 0
vn 1 0 0
vn -0.50000 0 -0.86603
vn 0 -1 0
vn 0 -1 0
vn 0.50000 0 0.86603
vn 0.50000 0 0.86603
vn 0 1 0
vn -0.50000 0 -0.86603
vn 0 1 0
vn 0 -1 0
vn 0.50000 0 0.86603
vn 0.50000 0 0.86603
vn 0 1 0
vn -0.50000 0 -0.86603
vn 0 1 0
vn -0.50000 0 -0.86603
vn 0 -1 0
vn 0 -1 0
vn 0.57358 0 -0.81915
vn 0 1 0
vn 0.57358 0 -0.81915
vn 0 1 0
vn -0.57358 0 0.81915
vn -0.57358 0 0.81915
vn 0 -1 0
vn 0 1 0
vn 0.57358 0 -0.81915
vn 0 1 0
vn -0.57358 0 0.81915
vn -0.57358 0 0.81915
vn 0 -1 0
vn 0 -1 0
vn 0.57358 0 -0.81915

# No. texture coordinates 178:
vt 0.10127 0.47506
vt 0.10193 0.51875
vt 0.08804 0.51749
vt 0.08738 0.47529
vt 0.07404 0.51876
vt 0.07340 0.47496
vt 0.13026 0.47513
vt 0.12677 0.51881
vt 0.11433 0.51986
vt 0.11573 0.47480
vt 0.10193 0.44456
vt 0.08889 0.44453
vt 0.07592 0.44444
vt 0.12811 0.44421
vt 0.11511 0.44456
vt 0.10155 0.41397
vt 0.08906 0.41400
vt 0.07657 0.41401
vt 0.12620 0.41379
vt 0.11391 0.41391
vt 0.10103 0.38118
vt 0.08854 0.38121
vt 0.07603 0.38127
vt 0.12594 0.38117
vt 0.11350 0.38114
vt 0.10080 0.34566
vt 0.08797 0.34567
vt 0.07510 0.34565
vt 0.12665 0.34566
vt 0.11372 0.34565
vt 0.10095 0.30786
vt 0.08855 0.30785
vt 0.07613 0.30775
vt 0.12590 0.30786
vt 0.11344 0.30788
vt 0.10148 0.26897
vt 0.08929 0.26892
vt 0.07708 0.26886
vt 0.12585 0.26906
vt 0.11368 0.26902
vt 0.10244 0.23018
vt 0.09000 0.23014
vt 0.07750 0.23013
vt 0.12689 0.23044
vt 0.11471 0.23026
vt 0.10329 0.19341
vt 0.08993 0.19351
vt 0.07662 0.19356
vt 0.12975 0.19389
vt 0.11668 0.19339
vt 0.10233 0.15836
vt 0.08794 0.15801
vt 0.07340 0.15842
vt 0.13221 0.15828
vt 0.11722 0.15875
vt 0.10329 0.10696
vt 0.08908 0.10856
vt 0.07465 0.10696
vt 0.12808 0.10700
vt 0.11568 0.10565
vt 0.52740 0.61661
vt 0.54487 0.61656
vt 0.54553 0.83353
vt 0.52806 0.83358
vt 0.98108 0.43285
vt 0.97434 0.45276
vt 0.77025 0.38281
vt 0.77699 0.36290
vt 0.28645 0.25366
vt 0.27971 0.23375
vt 0.48380 0.16379
vt 0.49054 0.18371
vt 0.54553 0.61661
vt 0.56300 0.61656
vt 0.56366 0.83353
vt 0.54619 0.83358
vt 0.26697 0.26033
vt 0.26023 0.24043
vt 0.75077 0.37613
vt 0.75751 0.35622
vt 0.98182 0.24436
vt 0.98176 0.22332
vt 0.99923 0.22327
vt 0.999294 0.24430
vt 0.98108 0.00005
vt 0.99855 0
vt 0.69872 0.59416
vt 0.67924 0.58748
vt 0.18870 0.02908
vt 0.20818 0.02240
vt 0.50918 0.61661
vt 0.52665 0.61656
vt 0.52733 0.83983
vt 0.50986 0.83988
vt 0.52740 0.86349
vt 0.50993 0.86355
vt 0.18112 0.00668
vt 0.20060 0
vt 0.69114 0.61656
vt 0.67166 0.60988
vt 0.56366 0.61661
vt 0.58113 0.61656
vt 0.58120 0.63726
vt 0.56373 0.63732
vt 0.58178 0.82972
vt 0.56431 0.82977
vt 0.49064 0.54783
vt 0.49822 0.52543
vt 0.00768 0.09112
vt 0.00010 0.06872
vt 0.59984 0.80901
vt 0.58237 0.80906
vt 0.58178 0.61661
vt 0.59925 0.61656
vt 0.45358 0.64028
vt 0.43611 0.64022
vt 0.43618 0.61656
vt 0.45365 0.61661
vt 0.36063 0.47284
vt 0.34115 0.47951
vt 1 0.47584
vt 0.98253 0.47590
vt 0.83169 0.13705
vt 0.85117 0.14372
vt 0.01824 0.86935
vt 0.00077 0.86940
vt 0.00007 0.63786
vt 0.01753 0.63780
vt 0 0.61661
vt 0.01747 0.61656
vt 0.83850 0.11693
vt 0.85798 0.12361
vt 0.36744 0.49295
vt 0.34796 0.49962
vt 0.50918 0.999946
vt 0.49171 1
vt 0.49165 0.97929
vt 0.50911 0.97924
vt 0.49054 0.61661
vt 0.50801 0.61656
vt 0.00681 0.61656
vt 0 0.59644
vt 0.49054 0.02011
vt 0.49735 0
vt 0.47196 0.61661
vt 0.48943 0.61656
vt 0.49054 0.97924
vt 0.47307 0.97929
vt 0.62767 0.89210
vt 0.62092 0.89208
vt 0.62176 0.61656
vt 0.62851 0.61658
vt 0.02869 0.89209
vt 0.01824 0.89208
vt 0.01852 0.61656
vt 0.02897 0.61657
vt 0.63526 0.61656
vt 0.63610 0.89208
vt 0.62935 0.89210
vt 0.46124 0.61657
vt 0.47168 0.61656
vt 0.47196 0.89208
vt 0.46152 0.89209
vt 0.61038 0.61656
vt 0.62082 0.61656
vt 0.62092 0.89208
vt 0.61047 0.89209
vt 0.02897 0.61658
vt 0.03572 0.61656
vt 0.03656 0.89208
vt 0.02981 0.89210
vt 0.61028 0.89209
vt 0.59984 0.89208
vt 0.59993 0.61656
vt 0.46124 0.89208
vt 0.45449 0.89210
vt 0.45365 0.61658
vt 0.46040 0.61656

# No. faces 84:
f 5/1/93 1/2/85 2/3/87 6/4/95
f 6/4/96 2/3/88 3/5/89 7/6/97
f 7/7/98 3/8/90 4/9/91 8/10/99
f 1/2/86 5/1/94 8/10/100 4/9/92
f 9/11/101 5/1/93 6/4/95 10/12/103
f 10/12/104 6/4/96 7/6/97 11/13/105
f 11/14/106 7/7/98 8/10/99 12/15/107
f 12/15/108 8/10/100 5/1/94 9/11/102
f 13/16/109 9/11/101 10/12/103 14/17/111
f 14/17/112 10/12/104 11/13/105 15/18/113
f 15/19/114 11/14/106 12/15/107 16/20/115
f 16/20/116 12/15/108 9/11/102 13/16/110
f 17/21/117 13/16/109 14/17/111 18/22/119
f 18/22/120 14/17/112 15/18/113 19/23/121
f 19/24/122 15/19/114 16/20/115 20/25/123
f 20/25/124 16/20/116 13/16/110 17/21/118
f 21/26/125 17/21/117 18/22/119 22/27/127
f 22/27/128 18/22/120 19/23/121 23/28/129
f 23/29/130 19/24/122 20/25/123 24/30/131
f 24/30/132 20/25/124 17/21/118 21/26/126
f 25/31/133 21/26/125 22/27/127 26/32/135
f 26/32/136 22/27/128 23/28/129 27/33/137
f 27/34/138 23/29/130 24/30/131 28/35/139
f 28/35/140 24/30/132 21/26/126 25/31/134
f 29/36/141 25/31/133 26/32/135 30/37/143
f 30/37/144 26/32/136 27/33/137 31/38/145
f 31/39/146 27/34/138 28/35/139 32/40/147
f 32/40/148 28/35/140 25/31/134 29/36/142
f 33/41/149 29/36/141 30/37/143 34/42/151
f 34/42/152 30/37/144 31/38/145 35/43/153
f 35/44/154 31/39/146 32/40/147 36/45/155
f 36/45/156 32/40/148 29/36/142 33/41/150
f 37/46/157 33/41/149 34/42/151 38/47/159
f 38/47/160 34/42/152 35/43/153 39/48/161
f 39/49/162 35/44/154 36/45/155 40/50/163
f 40/50/164 36/45/156 33/41/150 37/46/158
f 41/51/165 37/46/157 38/47/159 42/52/167
f 42/52/168 38/47/160 39/48/161 43/53/169
f 43/54/170 39/49/162 40/50/163 44/55/171
f 44/55/172 40/50/164 37/46/158 41/51/166
f 45/56/173 41/51/165 42/52/167 46/57/175
f 46/57/176 42/52/168 43/53/169 47/58/177
f 47/59/178 43/54/170 44/55/171 48/60/179
f 48/60/180 44/55/172 41/51/166 45/56/174
f 49/61/181 50/62/183 54/63/192 53/64/189
f 51/65/185 49/66/182 53/67/191 55/68/195
f 56/69/198 54/70/194 50/71/184 52/72/187
f 55/73/197 56/74/200 52/75/188 51/76/186
f 54/70/194 56/69/198 57/77/201 59/78/205
f 55/68/195 53/67/191 60/79/207 58/80/203
f 58/81/204 60/82/208 59/83/206 57/84/202
f 59/83/206 60/82/208 61/85/209 62/86/212
f 60/79/207 53/67/191 63/87/215 61/88/211
f 54/70/194 59/78/205 62/89/214 64/90/217
f 53/91/190 54/92/193 64/93/218 63/94/216
f 63/94/216 64/93/218 66/95/222 65/96/219
f 64/90/217 62/89/214 67/97/225 66/98/224
f 61/88/211 63/87/215 65/99/221 68/100/227
f 65/101/220 66/102/223 67/103/226 68/104/228
f 68/104/228 67/103/226 69/105/229 70/106/232
f 61/88/211 68/100/227 70/107/234 71/108/235
f 67/97/225 62/89/214 72/109/238 69/110/231
f 62/111/213 61/112/210 71/113/237 72/114/240
f 72/115/239 71/116/236 70/117/233 69/118/230
f 57/77/201 56/69/198 73/119/241 74/120/243
f 58/81/204 57/84/202 74/121/245 75/122/246
f 55/68/195 58/80/203 75/123/248 76/124/249
f 56/125/199 55/126/196 76/127/250 73/128/242
f 73/128/242 76/127/250 78/129/254 77/130/251
f 76/124/249 75/123/248 79/131/257 78/132/256
f 74/120/243 73/119/241 77/133/253 80/134/259
f 77/135/252 78/136/255 79/137/258 80/138/260
f 80/138/260 79/137/258 81/139/261 82/140/263
f 74/120/243 80/134/259 82/141/264 83/142/265
f 79/131/257 75/123/248 84/143/267 81/144/262
f 75/145/247 74/146/244 83/147/266 84/148/268
f 91/149/281 92/150/283 85/151/269 88/152/275
f 92/153/284 89/154/277 86/155/271 85/156/270
f 89/152/278 90/157/279 87/158/273 86/159/272
f 90/160/280 91/161/282 88/162/276 87/163/274
f 95/164/289 94/165/287 97/166/293 98/167/295
f 96/168/291 95/169/290 98/170/296 99/171/297
f 93/172/285 96/173/292 99/174/298 100/164/299
f 94/175/288 93/176/286 100/177/300 97/178/294


