# Blender v243 OBJ File: rabbit.blend
# www.blender3d.org
mtllib rabbit.mtl
o Cube.007_Cube.003
v 1.230214 5.715903 -0.140141
v 1.230214 2.532108 2.004314
v 0.450484 2.532108 2.004314
v 0.450484 5.715904 -0.140142
v 1.230214 6.151497 0.506571
v 1.230214 2.967702 2.651027
v 0.450484 2.967703 2.651026
v 0.450484 6.151498 0.506571
vn 0.000000 -0.558648 -0.829405
vn 0.000000 0.558648 0.829405
vn 1.000000 0.000000 0.000000
vn -0.000001 -0.829405 0.558648
vn -1.000000 0.000000 0.000000
vn 0.000001 0.829405 -0.558647
usemtl whiterabbit
s off
f 1//1 2//1 3//1 4//1
f 5//2 8//2 7//2 6//2
f 1//3 5//3 6//3 2//3
f 2//4 6//4 7//4 3//4
f 3//5 7//5 8//5 4//5
f 5//6 1//6 4//6 8//6
o Cube.006_Cube.003
v -0.823972 5.715903 -0.140141
v -0.823972 2.532108 2.004314
v -1.603703 2.532108 2.004314
v -1.603702 5.715904 -0.140142
v -0.823972 6.151497 0.506571
v -0.823973 2.967702 2.651027
v -1.603703 2.967703 2.651026
v -1.603703 6.151498 0.506571
usemtl whiterabbit
s off
f 9//1 10//1 11//1 12//1
f 13//2 16//2 15//2 14//2
f 9//3 13//3 14//3 10//3
f 10//4 14//4 15//4 11//4
f 11//5 15//5 16//5 12//5
f 13//6 9//6 12//6 16//6
o Cube.005_Cube.002
v -1.321175 -0.238614 -2.324811
v -1.321175 -4.149875 -2.324811
v -2.413709 -4.149874 -2.324811
v -2.413709 -0.238613 -2.324811
v -1.321175 -0.238615 -1.232277
v -1.321176 -4.149876 -1.232277
v -2.413709 -4.149874 -1.232277
v -2.413709 -0.238614 -1.232277
vn 0.000000 0.000000 -1.000000
vn 0.000000 0.000000 1.000000
vn -0.000001 -1.000000 0.000000
vn 0.000001 1.000000 0.000001
usemtl whiterabbit
s off
f 17//7 18//7 19//7 20//7
f 21//8 24//8 23//8 22//8
f 17//3 21//3 22//3 18//3
f 18//9 22//9 23//9 19//9
f 19//5 23//5 24//5 20//5
f 21//10 17//10 20//10 24//10
o Cube.004_Cube.002
v 2.507082 -0.238614 -2.324811
v 2.507082 -4.149875 -2.324811
v 1.414547 -4.149874 -2.324811
v 1.414548 -0.238613 -2.324811
v 2.507082 -0.238615 -1.232277
v 2.507081 -4.149876 -1.232277
v 1.414547 -4.149874 -1.232277
v 1.414547 -0.238614 -1.232277
usemtl whiterabbit
s off
f 25//7 26//7 27//7 28//7
f 29//8 32//8 31//8 30//8
f 25//3 29//3 30//3 26//3
f 26//9 30//9 31//9 27//9
f 27//5 31//5 32//5 28//5
f 29//10 25//10 28//10 32//10
o Cube.003_Cube.002
v -1.414547 -0.238614 1.162530
v -1.414547 -4.149875 1.162530
v -2.507082 -4.149874 1.162530
v -2.507081 -0.238613 1.162530
v -1.414547 -0.238615 2.255064
v -1.414548 -4.149876 2.255064
v -2.507082 -4.149874 2.255064
v -2.507081 -0.238614 2.255064
usemtl whiterabbit
s off
f 33//7 34//7 35//7 36//7
f 37//8 40//8 39//8 38//8
f 33//3 37//3 38//3 34//3
f 34//9 38//9 39//9 35//9
f 35//5 39//5 40//5 36//5
f 37//10 33//10 36//10 40//10
o Cube.002_Cube.002
v 2.507082 -0.238614 1.162530
v 2.507082 -4.149875 1.162530
v 1.414547 -4.149874 1.162530
v 1.414548 -0.238613 1.162530
v 2.507082 -0.238615 2.255064
v 2.507081 -4.149876 2.255064
v 1.414547 -4.149874 2.255064
v 1.414547 -0.238614 2.255064
usemtl whiterabbit
s off
f 41//7 42//7 43//7 44//7
f 45//8 48//8 47//8 46//8
f 41//3 45//3 46//3 42//3
f 42//9 46//9 47//9 43//9
f 43//5 47//5 48//5 44//5
f 45//10 41//10 44//10 48//10
o Cube.001_Cube.001
v 1.300825 3.168267 1.593710
v 1.300825 0.193128 1.593710
v -1.674314 0.193128 1.593710
v -1.674313 3.168268 1.593710
v 1.300826 3.168267 4.568849
v 1.300825 0.193127 4.568849
v -1.674314 0.193129 4.568849
v -1.674314 3.168267 4.568849
vn 0.000000 -1.000000 0.000000
vn 0.000000 1.000000 0.000000
usemtl whiterabbit
s off
f 49//7 50//7 51//7 52//7
f 53//8 56//8 55//8 54//8
f 49//3 53//3 54//3 50//3
f 50//11 54//11 55//11 51//11
f 51//5 55//5 56//5 52//5
f 53//12 49//12 52//12 56//12
o Cube_Cube
v 2.257056 1.239740 2.257056
v 2.257056 1.239740 -2.257055
v -2.257056 1.239740 -2.257055
v -2.257055 1.239740 2.257056
v 2.257057 -1.239740 2.257054
v 2.257054 -1.239740 -2.257057
v -2.257056 -1.239740 -2.257055
v -2.257055 -1.239740 2.257056
usemtl whiterabbit
s off
f 57//12 58//12 59//12 60//12
f 61//11 64//11 63//11 62//11
f 57//3 61//3 62//3 58//3
f 58//7 62//7 63//7 59//7
f 59//5 63//5 64//5 60//5
f 61//8 57//8 60//8 64//8
