# This file uses centimeters as units for non-parametric coordinates.

mtllib PlayerStart.mtl
g default
v -4.773674 -4.773674 4.773674
v 4.773674 -4.773674 4.773674
v -4.773674 4.773674 4.773674
v 4.773674 4.773674 4.773674
v -4.773674 4.773674 -4.773674
v 4.773674 4.773674 -4.773674
v -4.773674 -4.773674 -4.773674
v 4.773674 -4.773674 -4.773674
vt 0.000000 0.000000
vt 1.000000 0.000000
vt 0.000000 1.000000
vt 1.000000 1.000000
vt 1.000000 3.000000
vt 1.000000 2.000000
vt 0.000000 3.000000
vt 0.000000 2.000000
vt 0.000000 4.000000
vt 1.000000 4.000000
vt 2.000000 0.000000
vt 2.000000 1.000000
vt -1.000000 0.000000
vt -1.000000 1.000000
vt 1.000000 3.000000
vt 1.000000 0.000000
vt 1.000000 2.000000
vt 0.000000 0.000000
vt 0.000000 3.000000
vt 0.000000 2.000000
vt 1.000000 1.000000
vt 1.000000 1.000000
vt 0.000000 1.000000
vt 0.000000 1.000000
vn 0.000000 0.000000 1.000000
vn 0.000000 0.000000 1.000000
vn 0.000000 0.000000 1.000000
vn 0.000000 0.000000 1.000000
vn 0.000000 1.000000 0.000000
vn 0.000000 1.000000 0.000000
vn 0.000000 1.000000 0.000000
vn 0.000000 1.000000 0.000000
vn 0.000000 0.000000 -1.000000
vn 0.000000 0.000000 -1.000000
vn 0.000000 0.000000 -1.000000
vn 0.000000 0.000000 -1.000000
vn 0.000000 -1.000000 -0.000000
vn 0.000000 -1.000000 -0.000000
vn 0.000000 -1.000000 -0.000000
vn 0.000000 -1.000000 -0.000000
vn 1.000000 -0.000000 0.000000
vn 1.000000 -0.000000 0.000000
vn 1.000000 -0.000000 0.000000
vn 1.000000 -0.000000 0.000000
vn -1.000000 -0.000000 0.000000
vn -1.000000 -0.000000 0.000000
vn -1.000000 -0.000000 0.000000
vn -1.000000 -0.000000 0.000000
s off
g pCube1
usemtl initialShadingGroup
f 1/18/1 2/2/2 4/21/3 3/23/4
f 3/3/5 4/22/6 6/6/7 5/20/8
f 5/5/9 6/19/10 8/8/11 7/17/12
f 7/7/13 8/15/14 2/10/15 1/9/16
f 2/16/17 8/11/18 6/12/19 4/4/20
f 7/13/21 1/1/22 3/24/23 5/14/24
g default
v 0.000000 3.536851 5.297430
v -3.536851 0.000000 5.297430
v -0.000000 -3.536851 5.297431
v 3.536851 -0.000000 5.297430
v 0.000000 0.000000 10.742599
vt 0.500000 -1.000000
vt 0.000000 -0.500000
vt 0.500000 0.000000
vt 1.000000 -0.500000
vt 0.000000 0.000000
vt 0.250000 0.000000
vt 0.500000 0.000000
vt 0.750000 0.000000
vt 1.000000 0.000000
vt 0.500000 1.000000
vn -0.000000 -0.000000 -1.000000
vn -0.000000 -0.000000 -1.000000
vn -0.000000 -0.000000 -1.000000
vn -0.000000 -0.000000 -1.000000
vn -0.642572 0.642572 0.417376
vn -0.642572 0.642572 0.417376
vn -0.642572 0.642572 0.417376
vn -0.642572 -0.642572 0.417376
vn -0.642572 -0.642572 0.417376
vn -0.642572 -0.642572 0.417376
vn 0.642572 -0.642572 0.417376
vn 0.642572 -0.642572 0.417376
vn 0.642572 -0.642572 0.417376
vn 0.642572 0.642572 0.417376
vn 0.642572 0.642572 0.417376
vn 0.642572 0.642572 0.417376
s off
g pCone1
usemtl initialShadingGroup
f 9/25/25 12/28/26 11/27/27 10/26/28
f 9/29/29 10/30/30 13/34/31
f 10/30/32 11/31/33 13/34/34
f 11/31/35 12/32/36 13/34/37
f 12/32/38 9/33/39 13/34/40
