# Wavefront OBJ exported by MilkShape 3D

v -0.544757 0.758160 -0.201856
v -0.500193 0.705020 -0.280332
v -0.439318 0.632427 -0.309056
v -0.378442 0.559837 -0.280332
v -0.333878 0.506697 -0.201856
v -0.317567 0.487246 -0.094657
v -0.333878 0.506697 0.012543
v -0.378442 0.559837 0.091019
v -0.439318 0.632427 0.119742
v -0.500193 0.705020 0.091019
v -0.544757 0.758160 0.012543
v -0.561069 0.777611 -0.094657
v -0.524997 0.595515 -0.094657
v -0.366875 0.656372 -0.086773
v -0.375829 0.667049 -0.086773
v -0.521221 0.589874 -0.086773
v -0.530175 0.600552 -0.086773
v -0.521221 0.589874 -0.102541
v -0.530175 0.600552 -0.102541
v -0.366875 0.656372 -0.102541
v -0.375829 0.667049 -0.102541
v 0.892066 0.112249 0.063937
v 0.677202 0.112249 0.063937
v 0.677202 0.112249 0.154102
v 0.892066 0.112249 0.154102
v 0.892066 0.188901 0.154102
v 0.677202 0.237609 0.154102
v 0.677202 0.237609 0.063937
v 0.892066 0.188901 0.063937
v 0.892066 0.112249 -0.128149
v 0.677202 0.112249 -0.128149
v 0.677202 0.112249 -0.037983
v 0.892066 0.112249 -0.037983
v 0.892066 0.188901 -0.037983
v 0.677202 0.237609 -0.037983
v 0.677202 0.237609 -0.128149
v 0.892066 0.188901 -0.128149
v -0.371611 0.301378 -0.549766
v -0.327087 0.422001 -0.270118
v 0.395896 0.301378 -0.335216
v 0.313198 0.366077 -0.270118
v -0.371611 0.301378 0.575628
v 0.395896 0.301378 0.361078
v -0.327087 0.422001 0.295980
v 0.313198 0.366077 0.295980
v -0.771814 0.301378 0.575628
v -0.698325 0.422001 0.295980
v -0.771814 0.301378 -0.549766
v -0.698325 0.422001 -0.270118
v -0.420781 0.397821 -0.906138
v -0.722643 0.397821 -0.906138
v -0.771814 0.043598 -0.549766
v -0.722643 0.244228 -0.906138
v -0.371611 0.043598 -0.549766
v -0.420781 0.244228 -0.906138
v -0.771814 0.043598 0.575628
v -0.371611 0.043598 0.575628
v -0.420781 0.244228 0.932000
v -0.722643 0.244228 0.932000
v -0.722643 0.397821 0.932000
v -0.420781 0.397821 0.932000
v -1.067882 0.121839 -0.227260
v -1.067882 0.328201 -0.227260
v -1.067882 0.328201 0.253122
v -1.067882 0.121839 0.253122
v 0.395896 0.043598 0.361078
v 0.892066 0.057752 0.253105
v 0.892066 0.188901 0.253105
v 0.892066 0.188901 -0.227243
v 0.395896 0.043598 -0.335216
v 0.892066 0.057752 -0.227243
v -0.319623 0.013180 -0.286135
v 0.343909 0.013180 -0.286135
v 0.343909 0.013180 0.311997
v -0.319623 0.013180 0.311997
v -0.399777 0.518399 0.020516
v -0.399777 0.518399 -0.219199
v -0.663917 0.518399 -0.219199
v -0.663917 0.518399 0.020516
v -0.490691 0.537036 -0.049365
v -0.490691 0.537036 -0.149318
v -0.573003 0.537036 -0.149318
v -0.573003 0.537036 -0.049365
v -0.505347 0.597368 -0.049365
v -0.505347 0.597368 -0.149318
v -0.558347 0.597368 -0.149318
v -0.558347 0.597367 -0.049365
# 87 vertices

vt 0.206364 0.588742
vt 0.187809 0.609920
vt 0.149575 0.559812
vt 0.162463 0.617672
vt 0.137117 0.609920
vt 0.118563 0.588742
vt 0.111771 0.559812
vt 0.118563 0.530882
vt 0.137117 0.509704
vt 0.162463 0.501952
vt 0.187809 0.509704
vt 0.206364 0.530882
vt 0.213155 0.559812
vt 0.413247 0.626850
vt 0.416975 0.629042
vt 0.393757 0.666831
vt 0.390028 0.664638
vt 0.534703 0.809565
vt 0.534703 0.813213
vt 0.530353 0.813213
vt 0.530353 0.809565
vt 0.450107 0.673276
vt 0.446379 0.675468
vt 0.423161 0.637680
vt 0.426889 0.635488
vt 0.546396 0.832279
vt 0.546396 0.835926
vt 0.542046 0.835926
vt 0.542046 0.832279
vt 0.534703 0.835926
vt 0.530353 0.835926
vt 0.542046 0.809565
vt 0.546396 0.809565
vt 0.138151 0.621576
vt 0.138151 0.674181
vt 0.113277 0.674181
vt 0.113277 0.621576
vt 0.161467 0.621576
vt 0.188231 0.621576
vt 0.188231 0.674181
vt 0.144460 0.674181
vt 0.327662 0.669670
vt 0.327662 0.626850
vt 0.352536 0.626850
vt 0.352536 0.669670
vt 0.238904 0.679455
vt 0.195133 0.679455
vt 0.195133 0.626850
vt 0.221897 0.626850
vt 0.270680 0.626850
vt 0.270680 0.679455
vt 0.245806 0.679455
vt 0.245806 0.626850
vt 0.079611 0.596747
vt 0.106375 0.596747
vt 0.106375 0.649351
vt 0.062604 0.649351
vt 0.358845 0.669670
vt 0.358845 0.626850
vt 0.383719 0.626850
vt 0.383719 0.669670
vt 0.320760 0.679455
vt 0.276989 0.679455
vt 0.276989 0.626850
vt 0.303753 0.626850
vt 0.102149 0.401874
vt 0.113292 0.326406
vt 0.273533 0.326406
vt 0.294230 0.343974
vt 0.102149 0.098166
vt 0.294230 0.156066
vt 0.273533 0.173634
vt 0.113292 0.173634
vt 0.001992 0.098166
vt 0.020384 0.173634
vt 0.600133 0.805661
vt 0.600133 0.501952
vt 0.642249 0.577421
vt 0.642249 0.730193
vt 0.001992 0.401874
vt 0.020384 0.326406
vt 0.089843 0.498048
vt 0.014298 0.498048
vt 0.874328 0.901834
vt 0.964335 0.901834
vt 0.998008 0.998008
vt 0.944380 0.998008
vt 0.599362 0.098166
vt 0.499205 0.098166
vt 0.511511 0.001992
vt 0.587057 0.001992
vt 0.323736 0.590004
vt 0.323736 0.501952
vt 0.422046 0.570482
vt 0.422046 0.622945
vt 0.499205 0.401874
vt 0.599362 0.401874
vt 0.587057 0.498048
vt 0.511511 0.498048
vt 0.964335 0.598126
vt 0.874328 0.598126
vt 0.944380 0.501952
vt 0.998008 0.501952
vt 0.014298 0.001992
vt 0.089843 0.001992
vt 0.317600 0.501952
vt 0.317600 0.590004
vt 0.219291 0.622945
vt 0.219291 0.570482
vt 0.901646 0.814800
vt 0.973700 0.814800
vt 0.593998 0.501952
vt 0.593998 0.805661
vt 0.519902 0.718626
vt 0.519902 0.588987
vt 0.973700 0.685160
vt 0.901646 0.685160
vt 0.425110 0.314840
vt 0.425110 0.185200
vt 0.012214 0.501952
vt 0.065842 0.501952
vt 0.065842 0.575857
vt 0.012214 0.575857
vt 0.524128 0.809565
vt 0.524128 0.836540
vt 0.510864 0.836540
vt 0.510864 0.809565
vt 0.001992 0.579761
vt 0.055621 0.579761
vt 0.055621 0.653666
vt 0.001992 0.653666
vt 0.868192 0.623428
vt 0.778185 0.623428
vt 0.783127 0.501952
vt 0.828919 0.501952
vt 0.364631 0.211922
vt 0.418404 0.185204
vt 0.418404 0.211922
vt 0.772050 0.623428
vt 0.682043 0.623428
vt 0.721316 0.501952
vt 0.767108 0.501952
vt 0.791444 0.343974
vt 0.791444 0.156066
vt 0.915618 0.185204
vt 0.915618 0.314835
vt 0.447209 0.553028
vt 0.473973 0.553028
vt 0.473973 0.580532
vt 0.447209 0.580532
vt 0.612373 0.169311
vt 0.778433 0.169311
vt 0.778433 0.330728
vt 0.612373 0.330728
vt 0.682043 0.811336
vt 0.772050 0.811336
vt 0.778185 0.811336
vt 0.868192 0.811336
vt 0.480108 0.654724
vt 0.480108 0.501952
vt 0.513767 0.515694
vt 0.513767 0.580385
vt 0.105636 0.501952
vt 0.105636 0.592842
vt 0.071977 0.584418
vt 0.071977 0.519749
vt 0.675908 0.651760
vt 0.675908 0.716451
vt 0.095100 0.247973
vt 0.028995 0.247973
vt 0.364631 0.263760
vt 0.364631 0.236255
vt 0.418404 0.236255
vt 0.418404 0.263760
vt 0.364631 0.288093
vt 0.428181 0.631583
vt 0.447209 0.604866
vt 0.473973 0.604866
vt 0.473973 0.631583
vt 0.447209 0.528695
vt 0.428181 0.501952
vt 0.473973 0.501952
vt 0.473973 0.528695
vt 0.418404 0.288093
vt 0.418404 0.314835
vt 0.095100 0.312664
vt 0.072347 0.293806
vt 0.072347 0.266832
vt 0.028995 0.312664
vt 0.051748 0.293806
vt 0.051748 0.266832
vt 0.456293 0.685603
vt 0.456293 0.658629
vt 0.477358 0.658629
vt 0.477358 0.685603
vt 0.601625 0.830173
vt 0.581026 0.830173
vt 0.584693 0.809565
vt 0.597958 0.809565
vt 0.483578 0.685603
vt 0.483578 0.658629
vt 0.504643 0.658629
vt 0.504643 0.685603
vt 0.553740 0.809565
vt 0.574340 0.809565
vt 0.570672 0.830173
vt 0.557408 0.830173
# 207 texture coordinates

vn -0.944583 -0.252791 -0.209427
vn -0.844465 -0.404334 -0.351274
vn -0.784698 -0.619878 -0.000000
vn -0.709506 -0.590143 -0.385140
vn -0.581178 -0.750544 -0.314509
vn -0.493376 -0.852356 -0.173407
vn -0.462716 -0.886506 -0.000000
vn -0.493377 -0.852355 0.173406
vn -0.581180 -0.750543 0.314509
vn -0.709506 -0.590143 0.385140
vn -0.844464 -0.404336 0.351274
vn -0.944583 -0.252792 0.209426
vn -0.980939 -0.194317 -0.000001
vn 0.498797 -0.118400 0.858594
vn 0.220498 0.928898 0.297537
vn -0.498808 0.118425 0.858584
vn -0.220528 -0.928889 0.297545
vn -0.897469 0.213074 -0.386197
vn -0.144535 -0.608796 -0.780049
vn 0.144518 0.608813 -0.780039
vn 0.897473 -0.213034 -0.386212
vn 0.727607 0.485071 0.485071
vn 0.816497 0.408248 0.408248
vn 0.333333 0.666667 -0.666667
vn 0.816497 0.408248 -0.408248
vn 0.706466 0.310202 -0.636145
vn 0.652628 0.716958 -0.245049
vn 0.424850 0.747340 0.510868
vn 0.744208 0.594384 0.304733
vn 0.962250 0.192450 -0.192450
vn 0.481093 0.384240 -0.787978
vn 0.529302 0.831137 -0.170445
vn 0.458713 0.620404 0.636145
vn 0.549648 0.743391 0.381126
vn 0.427327 0.697373 -0.575380
vn 0.187257 0.846304 -0.498703
vn 0.293762 0.939503 -0.176174
vn 0.334867 0.855982 -0.393902
vn 0.289926 0.878955 0.378657
vn 0.388276 0.750793 0.534370
vn 0.252307 0.930992 0.263807
vn 0.253708 0.944324 0.209484
vn -0.523740 0.820622 0.228640
vn -0.523372 0.826149 0.208710
vn -0.626962 0.750398 -0.209336
vn -0.576784 0.736598 -0.353190
vn 0.366290 0.713842 -0.596877
vn -0.816944 0.398025 -0.417347
vn -0.621651 -0.732574 -0.277281
vn -0.267250 -0.470175 -0.841137
vn 0.123885 -0.920057 -0.371681
vn 0.709573 -0.312089 -0.631749
vn -0.455275 -0.788464 0.413580
vn 0.275668 -0.819708 0.502082
vn 0.267251 -0.470176 0.841137
vn -0.709572 -0.312088 0.631750
vn -0.366289 0.713841 0.596877
vn 0.816945 0.398025 0.417345
vn -0.913329 -0.236809 -0.331288
vn -0.594745 0.761236 -0.258454
vn -0.895684 0.263674 0.358088
vn -0.739096 -0.635834 0.222378
vn 0.308146 0.709083 0.634229
vn 0.737509 0.558637 -0.379479
vn -0.308157 0.709084 -0.634223
vn -0.737510 0.558635 0.379481
vn 0.196802 -0.859022 0.472600
vn 0.927680 -0.170029 0.332416
vn 0.604343 0.712337 0.356854
vn 0.352768 -0.602054 -0.716300
vn 0.771252 0.284228 -0.569549
vn 0.826711 -0.505479 -0.247060
vn -0.209207 -0.977583 -0.023742
vn 0.162590 -0.976525 -0.141295
vn 0.214176 -0.970387 0.111706
vn -0.124288 -0.977414 0.170924
vn 0.351229 0.895469 -0.273449
vn 0.213454 0.963203 0.163335
vn -0.277044 0.865254 -0.417831
vn -0.412249 0.895587 0.167255
vn 0.333301 0.767269 -0.547913
vn 0.500610 0.790081 0.353781
vn -0.500610 0.790082 -0.353780
vn -0.333300 0.767269 0.547913
# 84 normals

g default1
# 0 triangles in group

g group1
s 1
f 1/1/1 2/2/2 13/3/3
f 2/2/2 3/4/4 13/3/3
f 3/4/4 4/5/5 13/3/3
f 4/5/5 5/6/6 13/3/3
f 5/6/6 6/7/7 13/3/3
f 6/7/7 7/8/8 13/3/3
f 7/8/8 8/9/9 13/3/3
f 8/9/9 9/10/10 13/3/3
f 9/10/10 10/11/11 13/3/3
f 10/11/11 11/12/12 13/3/3
f 11/12/12 12/13/13 13/3/3
f 12/13/13 1/1/1 13/3/3
f 14/14/14 15/15/15 17/16/16
f 14/14/14 17/16/16 16/17/17
f 16/18/17 17/19/16 19/20/18
f 16/18/17 19/20/18 18/21/19
f 18/22/19 19/23/18 21/24/20
f 18/22/19 21/24/20 20/25/21
f 20/26/21 21/27/20 15/28/15
f 20/26/21 15/28/15 14/29/14
f 15/30/15 21/31/20 19/20/18
f 15/30/15 19/20/18 17/19/16
f 20/26/21 14/29/14 16/32/17
f 20/26/21 16/32/17 18/33/19
f 22/34/22 23/35/23 24/36/24
f 22/34/22 24/36/24 25/37/25
f 26/38/26 25/39/25 24/40/24
f 26/38/26 24/40/24 27/41/27
f 27/42/27 24/43/24 23/44/23
f 27/42/27 23/44/23 28/45/28
f 28/46/28 23/47/23 22/48/22
f 28/46/28 22/48/22 29/49/29
f 30/50/22 31/51/23 32/52/24
f 30/50/22 32/52/24 33/53/30
f 34/54/31 33/55/30 32/56/24
f 34/54/31 32/56/24 35/57/32
f 35/58/32 32/59/24 31/60/23
f 35/58/32 31/60/23 36/61/33
f 36/62/33 31/63/23 30/64/22
f 36/62/33 30/64/22 37/65/34
f 38/66/35 39/67/36 41/68/37
f 38/66/35 41/68/37 40/69/38
f 42/70/39 43/71/40 45/72/41
f 42/70/39 45/72/41 44/73/42
f 46/74/43 42/70/39 44/73/42
f 46/74/43 44/73/42 47/75/44
f 48/76/45 46/77/43 47/78/44
f 48/76/45 47/78/44 49/79/46
f 38/66/35 48/80/45 49/81/46
f 38/66/35 49/81/46 39/67/36
f 43/71/40 40/69/38 41/68/37
f 43/71/40 41/68/37 45/72/41
f 48/80/45 38/66/35 50/82/47
f 48/80/45 50/82/47 51/83/48
f 52/84/49 48/85/45 51/86/48
f 52/84/49 51/86/48 53/87/50
f 54/88/51 52/89/49 53/90/50
f 54/88/51 53/90/50 55/91/52
f 38/92/35 54/93/51 55/94/52
f 38/92/35 55/94/52 50/95/47
f 56/96/53 57/97/54 58/98/55
f 56/96/53 58/98/55 59/99/56
f 46/100/43 56/101/53 59/102/56
f 46/100/43 59/102/56 60/103/57
f 42/70/39 46/74/43 60/104/57
f 42/70/39 60/104/57 61/105/58
f 57/106/54 42/107/39 61/108/58
f 57/106/54 61/108/58 58/109/55
f 48/85/45 52/84/49 62/110/59
f 48/85/45 62/110/59 63/111/60
f 46/112/43 48/113/45 63/114/60
f 46/112/43 63/114/60 64/115/61
f 56/101/53 46/100/43 64/116/61
f 56/101/53 64/116/61 65/117/62
f 52/89/49 56/96/53 65/118/62
f 52/89/49 65/118/62 62/119/59
f 50/120/47 55/121/52 53/122/50
f 50/120/47 53/122/50 51/123/48
f 84/124/63 85/125/64 86/126/65
f 84/124/63 86/126/65 87/127/66
f 58/128/55 61/129/58 60/130/57
f 58/128/55 60/130/57 59/131/56
f 54/88/51 57/97/54 56/96/53
f 54/88/51 56/96/53 52/89/49
f 43/132/40 66/133/67 67/134/68
f 43/132/40 67/134/68 68/135/69
f 27/136/27 43/71/40 68/137/69
f 27/136/27 68/137/69 26/138/26
f 70/139/70 40/140/38 69/141/71
f 70/139/70 69/141/71 71/142/72
f 66/143/67 70/144/70 71/145/72
f 66/143/67 71/145/72 67/146/68
f 62/110/59 65/117/62 64/116/61
f 62/110/59 64/116/61 63/111/60
f 33/147/30 34/148/31 29/149/29
f 33/147/30 29/149/29 22/150/22
f 72/151/73 73/152/74 74/153/75
f 72/151/73 74/153/75 75/154/76
f 38/155/35 40/140/38 70/139/70
f 38/155/35 70/139/70 54/156/51
f 44/73/42 45/72/41 41/68/37
f 44/73/42 41/68/37 39/67/36
f 57/157/54 66/133/67 43/132/40
f 57/157/54 43/132/40 42/158/39
f 54/88/51 70/144/70 73/152/74
f 54/88/51 73/152/74 72/151/73
f 70/144/70 66/143/67 74/153/75
f 70/144/70 74/153/75 73/152/74
f 66/143/67 57/97/54 75/154/76
f 66/143/67 75/154/76 74/153/75
f 57/97/54 54/88/51 72/151/73
f 57/97/54 72/151/73 75/154/76
f 44/159/42 39/160/36 77/161/77
f 44/159/42 77/161/77 76/162/78
f 39/163/36 49/164/46 78/165/79
f 39/163/36 78/165/79 77/166/77
f 49/79/46 47/78/44 79/167/80
f 49/79/46 79/167/80 78/168/79
f 47/75/44 44/73/42 76/169/78
f 47/75/44 76/169/78 79/170/80
f 35/171/32 28/172/28 29/173/29
f 35/171/32 29/173/29 34/174/31
f 40/69/38 35/171/32 36/175/33
f 27/136/27 28/172/28 43/71/40
f 67/176/68 25/177/25 26/178/26
f 67/176/68 26/178/26 68/179/69
f 30/180/22 71/181/72 69/182/71
f 30/180/22 69/182/71 37/183/34
f 43/71/40 28/172/28 35/171/32
f 43/71/40 35/171/32 40/69/38
f 40/69/38 36/175/33 37/184/34
f 40/69/38 37/184/34 69/185/71
f 67/176/68 22/150/22 25/177/25
f 33/147/30 71/181/72 30/180/22
f 33/147/30 22/150/22 67/176/68
f 33/147/30 67/176/68 71/181/72
f 76/169/78 77/186/77 81/187/81
f 76/169/78 81/187/81 80/188/82
f 77/186/77 78/189/79 82/190/83
f 77/186/77 82/190/83 81/187/81
f 78/189/79 79/170/80 83/191/84
f 78/189/79 83/191/84 82/190/83
f 79/170/80 76/169/78 80/188/82
f 79/170/80 80/188/82 83/191/84
f 80/192/82 81/193/81 85/194/64
f 80/192/82 85/194/64 84/195/63
f 81/196/81 82/197/83 86/198/65
f 81/196/81 86/198/65 85/199/64
f 82/200/83 83/201/84 87/202/66
f 82/200/83 87/202/66 86/203/65
f 83/204/84 80/205/82 84/206/63
f 83/204/84 84/206/63 87/207/66
# 152 triangles in group

# 152 triangles total

