# This file uses centimeters as units for non-parametric coordinates.

mtllib lower head.mtl
g default1
v 0.419083 3.664280 -0.161523
v 0.449486 3.624317 -0.220538
v 0.491017 3.569727 -0.242139
v 0.532549 3.515138 -0.220538
v 0.562952 3.475175 -0.161523
v 0.574080 3.460548 -0.080908
v 0.562952 3.475175 -0.000292
v 0.532549 3.515138 0.058723
v 0.491017 3.569727 0.080324
v 0.449486 3.624317 0.058723
v 0.419083 3.664280 -0.000292
v 0.407954 3.678907 -0.080908
v 0.432563 3.541968 -0.080908
v 0.540440 3.587733 -0.074979
v 0.534332 3.595763 -0.074979
v 0.435140 3.537726 -0.074979
v 0.429031 3.545755 -0.074979
v 0.435140 3.537726 -0.086837
v 0.429031 3.545755 -0.086837
v 0.540440 3.587733 -0.086837
v 0.534332 3.595763 -0.086837
v 1.399338 3.178544 0.038357
v 1.252750 3.178544 0.038357
v 1.252750 3.178544 0.106163
v 1.399338 3.178544 0.106163
v 1.399338 3.236188 0.106163
v 1.252750 3.272817 0.106163
v 1.252750 3.272817 0.038357
v 1.399338 3.236188 0.038357
v 1.399338 3.178544 -0.106095
v 1.252750 3.178544 -0.106095
v 1.252750 3.178544 -0.038288
v 1.399338 3.178544 -0.038288
v 1.399338 3.236188 -0.038288
v 1.252750 3.272817 -0.038288
v 1.252750 3.272817 -0.106095
v 1.399338 3.236188 -0.106095
v 0.537209 3.320773 -0.423157
v 0.567585 3.411482 -0.212857
v 1.060833 3.320773 -0.261812
v 1.004412 3.369427 -0.212857
v 0.537209 3.320773 0.423157
v 1.060833 3.320773 0.261812
v 0.567585 3.411482 0.212857
v 1.004412 3.369427 0.212857
v 0.264176 3.320773 0.423157
v 0.314312 3.411482 0.212857
v 0.264176 3.320773 -0.423157
v 0.314312 3.411482 -0.212857
v 0.503664 3.393298 -0.691155
v 0.297722 3.393298 -0.691155
v 0.264176 3.126917 -0.423157
v 0.297722 3.277794 -0.691155
v 0.537209 3.126917 -0.423157
v 0.503664 3.277794 -0.691155
v 0.264176 3.126917 0.423157
v 0.537209 3.126917 0.423157
v 0.503664 3.277794 0.691155
v 0.297722 3.277794 0.691155
v 0.297722 3.393298 0.691155
v 0.503664 3.393298 0.691155
v 0.062187 3.185756 -0.180628
v 0.062187 3.340943 -0.180628
v 0.062187 3.340943 0.180628
v 0.062187 3.185756 0.180628
v 1.060833 3.126917 0.261812
v 1.399338 3.137561 0.180615
v 1.399338 3.236188 0.180615
v 1.399338 3.236188 -0.180615
v 1.060833 3.126917 -0.261812
v 1.399338 3.137561 -0.180615
v 0.572678 3.104042 -0.224902
v 1.025365 3.104042 -0.224902
v 1.025365 3.104042 0.224902
v 0.572678 3.104042 0.224902
v 0.517994 3.483976 0.005704
v 0.517994 3.483976 -0.174566
v 0.337787 3.483976 -0.174566
v 0.337787 3.483976 0.005704
v 0.455968 3.497991 -0.046848
v 0.455968 3.497991 -0.122014
v 0.399812 3.497991 -0.122014
v 0.399812 3.497991 -0.046848
v 0.445970 3.543361 -0.046848
v 0.445970 3.543361 -0.122014
v 0.409811 3.543361 -0.122014
v 0.409811 3.543361 -0.046848
vt 0.206364 0.588742
vt 0.187809 0.609920
vt 0.149575 0.559812
vt 0.162463 0.617672
vt 0.213155 0.559812
vt 0.137117 0.609920
vt 0.206364 0.530882
vt 0.118563 0.588742
vt 0.187809 0.509704
vt 0.111771 0.559812
vt 0.162463 0.501952
vt 0.118563 0.530882
vt 0.137117 0.509704
vt 0.413247 0.626850
vt 0.416975 0.629042
vt 0.393757 0.666831
vt 0.390028 0.664638
vt 0.450107 0.673276
vt 0.446379 0.675468
vt 0.423161 0.637680
vt 0.426889 0.635488
vt 0.138151 0.621576
vt 0.138151 0.674181
vt 0.113277 0.674181
vt 0.113277 0.621576
vt 0.161467 0.621576
vt 0.188231 0.621576
vt 0.188231 0.674181
vt 0.144460 0.674181
vt 0.327662 0.669670
vt 0.327662 0.626850
vt 0.352536 0.626850
vt 0.352536 0.669670
vt 0.238904 0.679455
vt 0.195133 0.679455
vt 0.195133 0.626850
vt 0.221897 0.626850
vt 0.270680 0.626850
vt 0.270680 0.679455
vt 0.245806 0.679455
vt 0.245806 0.626850
vt 0.079611 0.596747
vt 0.106375 0.596747
vt 0.106375 0.649351
vt 0.062604 0.649351
vt 0.358845 0.669670
vt 0.358845 0.626850
vt 0.383719 0.626850
vt 0.383719 0.669670
vt 0.320760 0.679455
vt 0.276989 0.679455
vt 0.276989 0.626850
vt 0.303753 0.626850
vt 0.001992 0.098166
vt 0.102149 0.098166
vt 0.113292 0.173634
vt 0.020384 0.173634
vt 0.014298 0.001992
vt 0.089843 0.001992
vt 0.294230 0.156066
vt 0.273533 0.173634
vt 0.095100 0.247973
vt 0.028995 0.247973
vt 0.294230 0.343974
vt 0.273533 0.326406
vt 0.113292 0.326406
vt 0.072347 0.266832
vt 0.051748 0.266832
vt 0.364631 0.236255
vt 0.364631 0.263760
vt 0.102149 0.401874
vt 0.095100 0.312664
vt 0.072347 0.293806
vt 0.028995 0.312664
vt 0.051748 0.293806
vt 0.364631 0.211922
vt 0.418404 0.236255
vt 0.418404 0.263760
vt 0.364631 0.288093
vt 0.001992 0.401874
vt 0.020384 0.326406
vt 0.418404 0.185204
vt 0.418404 0.211922
vt 0.418404 0.288093
vt 0.418404 0.314835
vt 0.089843 0.498048
vt 0.014298 0.498048
vt 0.600133 0.805661
vt 0.600133 0.501952
vt 0.642249 0.577421
vt 0.642249 0.730193
vt 0.675908 0.651760
vt 0.675908 0.716451
vt 0.874328 0.901834
vt 0.964335 0.901834
vt 0.998008 0.998008
vt 0.944380 0.998008
vt 0.901646 0.814800
vt 0.973700 0.814800
vt 0.901646 0.685160
vt 0.973700 0.685160
vt 0.874328 0.598126
vt 0.964335 0.598126
vt 0.944380 0.501952
vt 0.998008 0.501952
vt 0.323736 0.590004
vt 0.323736 0.501952
vt 0.422046 0.570482
vt 0.422046 0.622945
vt 0.317600 0.501952
vt 0.317600 0.590004
vt 0.219291 0.622945
vt 0.219291 0.570482
vt 0.593998 0.501952
vt 0.593998 0.805661
vt 0.519902 0.718626
vt 0.519902 0.588987
vt 0.499205 0.098166
vt 0.499205 0.401874
vt 0.425110 0.314840
vt 0.425110 0.185200
vt 0.599362 0.098166
vt 0.599362 0.401874
vt 0.612373 0.169311
vt 0.612373 0.330728
vt 0.587057 0.498048
vt 0.511511 0.498048
vt 0.511511 0.001992
vt 0.587057 0.001992
vt 0.791444 0.156066
vt 0.778433 0.169311
vt 0.778433 0.330728
vt 0.791444 0.343974
vt 0.915618 0.185204
vt 0.915618 0.314835
vt 0.012214 0.501952
vt 0.065842 0.501952
vt 0.065842 0.575857
vt 0.012214 0.575857
vt 0.524128 0.809565
vt 0.524128 0.836540
vt 0.510864 0.836540
vt 0.510864 0.809565
vt 0.001992 0.579761
vt 0.055621 0.579761
vt 0.055621 0.653666
vt 0.001992 0.653666
vt 0.868192 0.623428
vt 0.778185 0.623428
vt 0.783127 0.501952
vt 0.828919 0.501952
vt 0.778185 0.811336
vt 0.868192 0.811336
vt 0.772050 0.623428
vt 0.682043 0.623428
vt 0.721316 0.501952
vt 0.767108 0.501952
vt 0.682043 0.811336
vt 0.772050 0.811336
vt 0.447209 0.553028
vt 0.473973 0.553028
vt 0.473973 0.580532
vt 0.447209 0.580532
vt 0.428181 0.631583
vt 0.428181 0.501952
vt 0.447209 0.604866
vt 0.447209 0.528695
vt 0.473973 0.604866
vt 0.473973 0.631583
vt 0.473973 0.501952
vt 0.473973 0.528695
vt 0.480108 0.654724
vt 0.480108 0.501952
vt 0.513767 0.515694
vt 0.513767 0.580385
vt 0.105636 0.501952
vt 0.105636 0.592842
vt 0.071977 0.584418
vt 0.071977 0.519749
vt 0.456293 0.685603
vt 0.456293 0.658629
vt 0.477358 0.658629
vt 0.477358 0.685603
vt 0.601625 0.830173
vt 0.581026 0.830173
vt 0.584693 0.809565
vt 0.597958 0.809565
vt 0.483578 0.685603
vt 0.483578 0.658629
vt 0.504643 0.658629
vt 0.504643 0.685603
vt 0.553740 0.809565
vt 0.574340 0.809565
vt 0.570672 0.830173
vt 0.557408 0.830173
vt 0.534703 0.809565
vt 0.534703 0.813213
vt 0.530353 0.813213
vt 0.530353 0.809565
vt 0.534703 0.835926
vt 0.530353 0.835926
vt 0.546396 0.832279
vt 0.546396 0.835926
vt 0.542046 0.835926
vt 0.542046 0.832279
vt 0.542046 0.809565
vt 0.546396 0.809565
vn -0.953377 -0.232158 -0.192806
vn -0.865425 -0.378606 -0.328173
vn -0.795858 -0.605483 0.000000
vn -0.865425 -0.378606 -0.328173
vn -0.740766 -0.563568 -0.365591
vn -0.795858 -0.605483 0.000000
vn -0.740766 -0.563568 -0.365591
vn -0.616848 -0.726819 -0.302047
vn -0.795858 -0.605483 0.000000
vn -0.616848 -0.726819 -0.302047
vn -0.529578 -0.831543 -0.167582
vn -0.795858 -0.605483 0.000000
vn -0.529578 -0.831543 -0.167582
vn -0.498692 -0.866779 0.000000
vn -0.795858 -0.605483 0.000000
vn -0.498692 -0.866779 0.000000
vn -0.529578 -0.831543 0.167582
vn -0.795858 -0.605483 0.000000
vn -0.529578 -0.831543 0.167582
vn -0.616848 -0.726819 0.302047
vn -0.795858 -0.605483 0.000000
vn -0.616848 -0.726819 0.302047
vn -0.740766 -0.563568 0.365591
vn -0.795858 -0.605483 0.000000
vn -0.740766 -0.563568 0.365591
vn -0.865425 -0.378607 0.328172
vn -0.795858 -0.605483 0.000000
vn -0.865425 -0.378607 0.328172
vn -0.953377 -0.232159 0.192806
vn -0.795858 -0.605483 0.000000
vn -0.953377 -0.232159 0.192806
vn -0.984233 -0.176876 0.000000
vn -0.795858 -0.605483 0.000000
vn -0.984233 -0.176876 0.000000
vn -0.953377 -0.232158 -0.192806
vn -0.795858 -0.605483 0.000000
vn 0.783143 -0.246969 0.570696
vn 0.168166 0.854285 0.491852
vn -0.783143 0.246970 0.570696
vn -0.168167 -0.854284 0.491852
vn -0.168167 -0.854284 0.491852
vn -0.783143 0.246970 0.570696
vn -0.783144 0.246970 -0.570694
vn -0.168167 -0.854284 -0.491851
vn -0.168167 -0.854284 -0.491851
vn -0.783144 0.246970 -0.570694
vn 0.168167 0.854285 -0.491850
vn 0.783143 -0.246967 -0.570696
vn 0.783143 -0.246967 -0.570696
vn 0.168167 0.854285 -0.491850
vn 0.168166 0.854285 0.491852
vn 0.783143 -0.246969 0.570696
vn 0.168166 0.854285 0.491852
vn 0.168167 0.854285 -0.491850
vn -0.783144 0.246970 -0.570694
vn -0.783143 0.246970 0.570696
vn 0.783143 -0.246967 -0.570696
vn 0.783143 -0.246969 0.570696
vn -0.168167 -0.854284 0.491852
vn -0.168167 -0.854284 -0.491851
vn 0.880754 0.371591 0.293584
vn 0.526900 0.666898 0.526900
vn 0.526900 0.666898 -0.526900
vn 0.778381 0.492599 -0.389190
vn 0.638878 0.592361 -0.490859
vn 0.778381 0.492599 -0.389190
vn 0.526900 0.666898 -0.526900
vn 0.523006 0.787419 -0.326247
vn 0.523006 0.787419 -0.326247
vn 0.526900 0.666898 -0.526900
vn 0.526900 0.666898 0.526900
vn 0.452277 0.859686 0.237459
vn 0.452277 0.859686 0.237459
vn 0.526900 0.666898 0.526900
vn 0.880754 0.371591 0.293584
vn 0.638878 0.592361 0.490859
vn 0.778381 0.492599 0.389190
vn 0.526900 0.666898 0.526900
vn 0.526900 0.666898 -0.526900
vn 0.880754 0.371591 -0.293584
vn 0.638878 0.592361 -0.490859
vn 0.880754 0.371591 -0.293584
vn 0.526900 0.666898 -0.526900
vn 0.452277 0.859686 -0.237459
vn 0.452277 0.859686 -0.237459
vn 0.526900 0.666898 -0.526900
vn 0.526900 0.666898 0.526900
vn 0.523006 0.787419 0.326247
vn 0.523006 0.787419 0.326247
vn 0.526900 0.666898 0.526900
vn 0.778381 0.492599 0.389190
vn 0.638878 0.592361 0.490860
vn 0.351224 0.826706 -0.439544
vn 0.239694 0.897713 -0.369674
vn 0.296927 0.940839 -0.163266
vn 0.356371 0.852524 -0.382365
vn 0.351224 0.826706 0.439544
vn 0.356371 0.852524 0.382365
vn 0.296927 0.940839 0.163266
vn 0.220545 0.942848 0.249794
vn -0.521670 0.832189 0.187942
vn 0.351224 0.826706 0.439544
vn 0.220545 0.942848 0.249794
vn -0.506127 0.829150 0.237372
vn -0.521670 0.832189 -0.187943
vn -0.521670 0.832189 0.187942
vn -0.506127 0.829150 0.237372
vn -0.559103 0.717294 -0.415805
vn 0.351224 0.826706 -0.439544
vn -0.521670 0.832189 -0.187943
vn -0.559103 0.717294 -0.415805
vn 0.239694 0.897713 -0.369674
vn 0.356371 0.852524 0.382365
vn 0.356371 0.852524 -0.382365
vn 0.296927 0.940839 -0.163266
vn 0.296927 0.940839 0.163266
vn -0.521670 0.832189 -0.187943
vn 0.351224 0.826706 -0.439544
vn 0.567364 0.684667 -0.457525
vn -0.567364 0.684667 -0.457525
vn -0.491318 -0.812577 -0.313569
vn -0.521670 0.832189 -0.187943
vn -0.567364 0.684667 -0.457525
vn -0.445876 -0.463188 -0.765932
vn 0.140512 -0.912330 -0.384591
vn -0.491318 -0.812577 -0.313569
vn -0.445876 -0.463188 -0.765932
vn 0.445876 -0.463188 -0.765932
vn 0.351224 0.826706 -0.439544
vn 0.140512 -0.912330 -0.384591
vn 0.445876 -0.463188 -0.765932
vn 0.567364 0.684667 -0.457525
vn -0.491318 -0.812577 0.313569
vn 0.140512 -0.912330 0.384591
vn 0.445876 -0.463188 0.765932
vn -0.445876 -0.463188 0.765932
vn -0.521670 0.832189 0.187942
vn -0.491318 -0.812577 0.313569
vn -0.445876 -0.463188 0.765932
vn -0.567364 0.684667 0.457525
vn 0.351224 0.826706 0.439544
vn -0.521670 0.832189 0.187942
vn -0.567364 0.684667 0.457525
vn 0.567364 0.684667 0.457525
vn 0.140512 -0.912330 0.384591
vn 0.351224 0.826706 0.439544
vn 0.567364 0.684667 0.457525
vn 0.445876 -0.463188 0.765932
vn -0.521670 0.832189 -0.187943
vn -0.491318 -0.812577 -0.313569
vn -0.843024 -0.473500 -0.255164
vn -0.759008 0.580090 -0.295638
vn -0.521670 0.832189 0.187942
vn -0.521670 0.832189 -0.187943
vn -0.759008 0.580090 -0.295638
vn -0.759008 0.580090 0.295638
vn -0.491318 -0.812577 0.313569
vn -0.521670 0.832189 0.187942
vn -0.759008 0.580090 0.295638
vn -0.843024 -0.473500 0.255164
vn -0.491318 -0.812577 -0.313569
vn -0.491318 -0.812577 0.313569
vn -0.843024 -0.473500 0.255164
vn -0.843024 -0.473500 -0.255164
vn 0.567364 0.684667 -0.457525
vn 0.445876 -0.463188 -0.765932
vn -0.445876 -0.463188 -0.765932
vn -0.567364 0.684667 -0.457525
vn 0.482484 0.726196 0.489743
vn 0.482484 0.726196 -0.489743
vn -0.482484 0.726196 -0.489743
vn -0.482484 0.726196 0.489743
vn 0.445876 -0.463188 0.765932
vn 0.567364 0.684667 0.457525
vn -0.567364 0.684667 0.457525
vn -0.445876 -0.463188 0.765932
vn 0.140512 -0.912330 -0.384591
vn 0.140512 -0.912330 0.384591
vn -0.491318 -0.812577 0.313569
vn -0.491318 -0.812577 -0.313569
vn 0.356371 0.852524 0.382365
vn 0.289749 -0.812019 0.506627
vn 0.898906 -0.347339 0.267065
vn 0.703657 0.553272 0.445821
vn 0.523006 0.787419 -0.326247
vn 0.356371 0.852524 0.382365
vn 0.703657 0.553272 0.445821
vn 0.638878 0.592361 -0.490859
vn 0.289749 -0.812019 -0.506627
vn 0.356371 0.852524 -0.382365
vn 0.703657 0.553272 -0.445821
vn 0.898906 -0.347339 -0.267065
vn 0.289749 -0.812019 0.506627
vn 0.289749 -0.812019 -0.506627
vn 0.898906 -0.347339 -0.267065
vn 0.898906 -0.347339 0.267065
vn -0.843024 -0.473500 -0.255164
vn -0.843024 -0.473500 0.255164
vn -0.759008 0.580090 0.295638
vn -0.759008 0.580090 -0.295638
vn 0.880754 0.371591 -0.293584
vn 0.638878 0.592361 -0.490859
vn 0.638878 0.592361 0.490859
vn 0.880754 0.371591 0.293584
vn -0.167835 -0.983493 -0.067631
vn 0.189432 -0.979580 -0.067362
vn 0.189432 -0.979580 0.067362
vn -0.167835 -0.983493 0.067631
vn 0.351224 0.826706 -0.439544
vn 0.356371 0.852524 -0.382365
vn 0.289749 -0.812019 -0.506627
vn 0.140512 -0.912330 -0.384591
vn 0.220545 0.942848 0.249794
vn 0.296927 0.940839 0.163266
vn 0.296927 0.940839 -0.163266
vn 0.239694 0.897713 -0.369674
vn 0.140512 -0.912330 0.384591
vn 0.289749 -0.812019 0.506627
vn 0.356371 0.852524 0.382365
vn 0.351224 0.826706 0.439544
vn 0.140512 -0.912330 -0.384591
vn 0.289749 -0.812019 -0.506627
vn 0.189432 -0.979580 -0.067362
vn -0.167835 -0.983493 -0.067631
vn 0.289749 -0.812019 -0.506627
vn 0.289749 -0.812019 0.506627
vn 0.189432 -0.979580 0.067362
vn 0.189432 -0.979580 -0.067362
vn 0.289749 -0.812019 0.506627
vn 0.140512 -0.912330 0.384591
vn -0.167835 -0.983493 0.067631
vn 0.189432 -0.979580 0.067362
vn 0.140512 -0.912330 0.384591
vn 0.140512 -0.912330 -0.384591
vn -0.167835 -0.983493 -0.067631
vn -0.167835 -0.983493 0.067631
vn 0.220545 0.942848 0.249794
vn 0.239694 0.897713 -0.369674
vn 0.296511 0.900141 -0.319105
vn 0.262754 0.950632 0.165103
vn 0.239694 0.897713 -0.369674
vn -0.559103 0.717294 -0.415805
vn -0.339236 0.877518 -0.338941
vn 0.296511 0.900141 -0.319105
vn -0.559103 0.717294 -0.415805
vn -0.506127 0.829150 0.237372
vn -0.299880 0.937800 0.174938
vn -0.339236 0.877518 -0.338941
vn -0.506127 0.829150 0.237372
vn 0.220545 0.942848 0.249794
vn 0.262754 0.950632 0.165103
vn -0.299880 0.937800 0.174938
vn 0.452277 0.859686 -0.237459
vn 0.452277 0.859686 0.237459
vn 0.638878 0.592361 0.490859
vn 0.638878 0.592361 -0.490859
vn 0.356371 0.852524 -0.382365
vn 0.452277 0.859686 -0.237459
vn 0.523006 0.787419 0.326247
vn 0.523006 0.787419 -0.326247
vn 0.452277 0.859686 0.237459
vn 0.356371 0.852524 0.382365
vn 0.898906 -0.347339 0.267065
vn 0.778381 0.492599 -0.389190
vn 0.638878 0.592361 -0.490859
vn 0.703657 0.553272 0.445821
vn 0.778381 0.492599 0.389190
vn 0.898906 -0.347339 -0.267065
vn 0.703657 0.553272 -0.445821
vn 0.638878 0.592361 0.490860
vn 0.356371 0.852524 0.382365
vn 0.452277 0.859686 0.237459
vn 0.452277 0.859686 -0.237459
vn 0.356371 0.852524 -0.382365
vn 0.356371 0.852524 -0.382365
vn 0.523006 0.787419 0.326247
vn 0.638878 0.592361 0.490860
vn 0.703657 0.553272 -0.445821
vn 0.898906 -0.347339 0.267065
vn 0.880754 0.371591 0.293584
vn 0.778381 0.492599 -0.389190
vn 0.880754 0.371591 -0.293584
vn 0.898906 -0.347339 -0.267065
vn 0.778381 0.492599 0.389190
vn 0.880754 0.371591 -0.293584
vn 0.880754 0.371591 0.293584
vn 0.898906 -0.347339 0.267065
vn 0.898906 -0.347339 -0.267065
vn 0.262754 0.950632 0.165103
vn 0.296511 0.900141 -0.319105
vn 0.385395 0.821110 -0.421009
vn 0.385395 0.821110 0.421009
vn 0.296511 0.900141 -0.319105
vn -0.339236 0.877518 -0.338941
vn -0.385395 0.821111 -0.421008
vn 0.385395 0.821110 -0.421009
vn -0.339236 0.877518 -0.338941
vn -0.299880 0.937800 0.174938
vn -0.385395 0.821110 0.421009
vn -0.385395 0.821111 -0.421008
vn -0.299880 0.937800 0.174938
vn 0.262754 0.950632 0.165103
vn 0.385395 0.821110 0.421009
vn -0.385395 0.821110 0.421009
vn 0.385395 0.821110 0.421009
vn 0.385395 0.821110 -0.421009
vn 0.482484 0.726196 -0.489743
vn 0.482484 0.726196 0.489743
vn 0.385395 0.821110 -0.421009
vn -0.385395 0.821111 -0.421008
vn -0.482484 0.726196 -0.489743
vn 0.482484 0.726196 -0.489743
vn -0.385395 0.821111 -0.421008
vn -0.385395 0.821110 0.421009
vn -0.482484 0.726196 0.489743
vn -0.482484 0.726196 -0.489743
vn -0.385395 0.821110 0.421009
vn 0.385395 0.821110 0.421009
vn 0.482484 0.726196 0.489743
vn -0.482484 0.726196 0.489743
s off
g group1 polySurface8 polySurface1 group3
usemtl lambert2SG
f 1/1/1 2/2/2 13/3/3
f 2/2/4 3/4/5 13/3/6
f 3/4/7 4/6/8 13/3/9
f 4/6/10 5/8/11 13/3/12
f 5/8/13 6/10/14 13/3/15
f 6/10/16 7/12/17 13/3/18
f 7/12/19 8/13/20 13/3/21
f 8/13/22 9/11/23 13/3/24
f 9/11/25 10/9/26 13/3/27
f 10/9/28 11/7/29 13/3/30
f 11/7/31 12/5/32 13/3/33
f 12/5/34 1/1/35 13/3/36
f 14/14/37 15/15/38 17/16/39 16/17/40
f 16/196/41 17/197/42 19/198/43 18/199/44
f 18/18/45 19/19/46 21/20/47 20/21/48
f 20/202/49 21/203/50 15/204/51 14/205/52
f 15/200/53 21/201/54 19/198/55 17/197/56
f 20/202/57 14/205/58 16/206/59 18/207/60
f 22/22/61 23/23/62 24/24/63 25/25/64
f 26/26/65 25/27/66 24/28/67 27/29/68
f 27/30/69 24/31/70 23/32/71 28/33/72
f 28/34/73 23/35/74 22/36/75 29/37/76
f 30/38/77 31/39/78 32/40/79 33/41/80
f 34/42/81 33/43/82 32/44/83 35/45/84
f 35/46/85 32/47/86 31/48/87 36/49/88
f 36/50/89 31/51/90 30/52/91 37/53/92
f 38/71/93 39/66/94 41/65/95 40/64/96
f 42/55/97 43/60/98 45/61/99 44/56/100
f 46/54/101 42/55/102 44/56/103 47/57/104
f 48/88/105 46/89/106 47/90/107 49/91/108
f 38/71/109 48/80/110 49/81/111 39/66/112
f 43/60/113 40/64/114 41/65/115 45/61/116
f 48/80/117 38/71/118 50/86/119 51/87/120
f 52/94/121 48/95/122 51/96/123 53/97/124
f 54/122/125 52/118/126 53/128/127 55/129/128
f 38/106/129 54/107/130 55/108/131 50/109/132
f 56/119/133 57/123/134 58/126/135 59/127/136
f 46/103/137 56/102/138 59/104/139 60/105/140
f 42/55/141 46/54/142 60/58/143 61/59/144
f 57/110/145 42/111/146 61/112/147 58/113/148
f 48/95/149 52/94/150 62/98/151 63/99/152
f 46/114/153 48/115/154 63/116/155 64/117/156
f 56/102/157 46/103/158 64/101/159 65/100/160
f 52/118/161 56/119/162 65/120/163 62/121/164
f 50/136/165 55/137/166 53/138/167 51/139/168
f 84/140/169 85/141/170 86/142/171 87/143/172
f 58/144/173 61/145/174 60/146/175 59/147/176
f 54/122/177 57/123/178 56/119/179 52/118/180
f 43/148/181 66/149/182 67/150/183 68/151/184
f 27/76/185 43/60/186 68/82/187 26/83/188
f 70/154/189 40/155/190 69/156/191 71/157/192
f 66/133/193 70/130/194 71/134/195 67/135/196
f 62/98/197 65/100/198 64/101/199 63/99/200
f 33/160/201 34/161/202 29/162/203 22/163/204
f 72/124/205 73/131/206 74/132/207 75/125/208
f 38/158/209 40/155/210 70/154/211 54/159/212
f 44/56/213 45/61/214 41/65/215 39/66/216
f 57/152/217 66/149/218 43/148/219 42/153/220
f 54/122/221 70/130/222 73/131/223 72/124/224
f 70/130/225 66/133/226 74/132/227 73/131/228
f 66/133/229 57/123/230 75/125/231 74/132/232
f 57/123/233 54/122/234 72/124/235 75/125/236
f 44/172/237 39/173/238 77/174/239 76/175/240
f 39/176/241 49/177/242 78/178/243 77/179/244
f 49/91/245 47/90/246 79/92/247 78/93/248
f 47/57/249 44/56/250 76/62/251 79/63/252
f 35/70/253 28/69/254 29/77/255 34/78/256
f 40/64/257 35/70/258 36/79/259
f 27/76/260 28/69/261 43/60/262
f 67/164/263 25/166/264 26/168/265 68/169/266
f 30/167/267 71/165/268 69/170/269 37/171/270
f 43/60/271 28/69/272 35/70/273 40/64/274
f 40/64/275 36/79/276 37/84/277 69/85/278
f 67/164/279 22/163/280 25/166/281
f 33/160/282 71/165/283 30/167/284
f 33/160/285 22/163/286 67/164/287 71/165/288
f 76/62/289 77/72/290 81/73/291 80/67/292
f 77/72/293 78/74/294 82/75/295 81/73/296
f 78/74/297 79/63/298 83/68/299 82/75/300
f 79/63/301 76/62/302 80/67/303 83/68/304
f 80/180/305 81/181/306 85/182/307 84/183/308
f 81/184/309 82/185/310 86/186/311 85/187/312
f 82/188/313 83/189/314 87/190/315 86/191/316
f 83/192/317 80/193/318 84/194/319 87/195/320
