  0
SECTION
  2
HEADER
  9
$ACADVER
  1
AC1018
  9
$ACADMAINTVER
 70
     6
  9
$DWGCODEPAGE
  3
UNDEFINED
  9
$INSBASE
 10
0.0
 20
0.0
 30
0.0
  9
$EXTMIN
 10
1.000000000000000E+20
 20
1.000000000000000E+20
 30
1.000000000000000E+20
  9
$EXTMAX
 10
-1.000000000000000E+20
 20
-1.000000000000000E+20
 30
-1.000000000000000E+20
  9
$LIMMIN
 10
0.0
 20
0.0
  9
$LIMMAX
 10
12.0
 20
9.0
  9
$ORTHOMODE
 70
     0
  9
$REGENMODE
 70
     1
  9
$FILLMODE
 70
     1
  9
$QTEXTMODE
 70
     0
  9
$MIRRTEXT
 70
     1
  9
$LTSCALE
 40
1.0
  9
$ATTMODE
 70
     1
  9
$TEXTSIZE
 40
0.2
  9
$TRACEWID
 40
0.05
  9
$TEXTSTYLE
  7
Standard
  9
$CLAYER
  8
0
  9
$CELTYPE
  6
ByLayer
  9
$CECOLOR
 62
   256
  9
$CELTSCALE
 40
1.0
  9
$DISPSILH
 70
     0
  9
$DIMSCALE
 40
1.0
  9
$DIMASZ
 40
0.18
  9
$DIMEXO
 40
0.0625
  9
$DIMDLI
 40
0.38
  9
$DIMRND
 40
0.0
  9
$DIMDLE
 40
0.0
  9
$DIMEXE
 40
0.18
  9
$DIMTP
 40
0.0
  9
$DIMTM
 40
0.0
  9
$DIMTXT
 40
0.18
  9
$DIMCEN
 40
0.09
  9
$DIMTSZ
 40
0.0
  9
$DIMTOL
 70
     0
  9
$DIMLIM
 70
     0
  9
$DIMTIH
 70
     1
  9
$DIMTOH
 70
     1
  9
$DIMSE1
 70
     0
  9
$DIMSE2
 70
     0
  9
$DIMTAD
 70
     0
  9
$DIMZIN
 70
     0
  9
$DIMBLK
  1

  9
$DIMASO
 70
     1
  9
$DIMSHO
 70
     1
  9
$DIMPOST
  1

  9
$DIMAPOST
  1

  9
$DIMALT
 70
     0
  9
$DIMALTD
 70
     2
  9
$DIMALTF
 40
25.4
  9
$DIMLFAC
 40
1.0
  9
$DIMTOFL
 70
     0
  9
$DIMTVP
 40
0.0
  9
$DIMTIX
 70
     0
  9
$DIMSOXD
 70
     0
  9
$DIMSAH
 70
     0
  9
$DIMBLK1
  1

  9
$DIMBLK2
  1

  9
$DIMSTYLE
  2
Standard
  9
$DIMCLRD
 70
     0
  9
$DIMCLRE
 70
     0
  9
$DIMCLRT
 70
     0
  9
$DIMTFAC
 40
1.0
  9
$DIMGAP
 40
0.09
  9
$DIMJUST
 70
     0
  9
$DIMSD1
 70
     0
  9
$DIMSD2
 70
     0
  9
$DIMTOLJ
 70
     1
  9
$DIMTZIN
 70
     0
  9
$DIMALTZ
 70
     0
  9
$DIMALTTZ
 70
     0
  9
$DIMUPT
 70
     0
  9
$DIMDEC
 70
     4
  9
$DIMTDEC
 70
     4
  9
$DIMALTU
 70
     2
  9
$DIMALTTD
 70
     2
  9
$DIMTXSTY
  7
Standard
  9
$DIMAUNIT
 70
     0
  9
$DIMADEC
 70
     0
  9
$DIMALTRND
 40
0.0
  9
$DIMAZIN
 70
     0
  9
$DIMDSEP
 70
    46
  9
$DIMATFIT
 70
     3
  9
$DIMFRAC
 70
     0
  9
$DIMLDRBLK
  1

  9
$DIMLUNIT
 70
     2
  9
$DIMLWD
 70
    -2
  9
$DIMLWE
 70
    -2
  9
$DIMTMOVE
 70
     0
  9
$LUNITS
 70
     2
  9
$LUPREC
 70
     4
  9
$SKETCHINC
 40
0.1
  9
$FILLETRAD
 40
0.5
  9
$AUNITS
 70
     0
  9
$AUPREC
 70
     0
  9
$MENU
  1
.
  9
$ELEVATION
 40
0.0
  9
$PELEVATION
 40
0.0
  9
$THICKNESS
 40
0.0
  9
$LIMCHECK
 70
     0
  9
$CHAMFERA
 40
0.5
  9
$CHAMFERB
 40
0.5
  9
$CHAMFERC
 40
1.0
  9
$CHAMFERD
 40
0.0
  9
$SKPOLY
 70
     0
  9
$TDCREATE
 40
2454559.285173611
  9
$TDUCREATE
 40
2454559.243506944
  9
$TDUPDATE
 40
2454559.285173623
  9
$TDUUPDATE
 40
2454559.243506956
  9
$TDINDWG
 40
0.0000000116
  9
$TDUSRTIMER
 40
0.0000000116
  9
$USRTIMER
 70
     1
  9
$ANGBASE
 50
0.0
  9
$ANGDIR
 70
     0
  9
$PDMODE
 70
     0
  9
$PDSIZE
 40
0.0
  9
$PLINEWID
 40
0.0
  9
$SPLFRAME
 70
     0
  9
$SPLINETYPE
 70
     6
  9
$SPLINESEGS
 70
     8
  9
$HANDSEED
  5
150
  9
$SURFTAB1
 70
     6
  9
$SURFTAB2
 70
     6
  9
$SURFTYPE
 70
     6
  9
$SURFU
 70
     6
  9
$SURFV
 70
     6
  9
$UCSBASE
  2

  9
$UCSNAME
  2

  9
$UCSORG
 10
0.0
 20
0.0
 30
0.0
  9
$UCSXDIR
 10
1.0
 20
0.0
 30
0.0
  9
$UCSYDIR
 10
0.0
 20
1.0
 30
0.0
  9
$UCSORTHOREF
  2

  9
$UCSORTHOVIEW
 70
     0
  9
$UCSORGTOP
 10
0.0
 20
0.0
 30
0.0
  9
$UCSORGBOTTOM
 10
0.0
 20
0.0
 30
0.0
  9
$UCSORGLEFT
 10
0.0
 20
0.0
 30
0.0
  9
$UCSORGRIGHT
 10
0.0
 20
0.0
 30
0.0
  9
$UCSORGFRONT
 10
0.0
 20
0.0
 30
0.0
  9
$UCSORGBACK
 10
0.0
 20
0.0
 30
0.0
  9
$PUCSBASE
  2

  9
$PUCSNAME
  2

  9
$PUCSORG
 10
0.0
 20
0.0
 30
0.0
  9
$PUCSXDIR
 10
1.0
 20
0.0
 30
0.0
  9
$PUCSYDIR
 10
0.0
 20
1.0
 30
0.0
  9
$PUCSORTHOREF
  2

  9
$PUCSORTHOVIEW
 70
     0
  9
$PUCSORGTOP
 10
0.0
 20
0.0
 30
0.0
  9
$PUCSORGBOTTOM
 10
0.0
 20
0.0
 30
0.0
  9
$PUCSORGLEFT
 10
0.0
 20
0.0
 30
0.0
  9
$PUCSORGRIGHT
 10
0.0
 20
0.0
 30
0.0
  9
$PUCSORGFRONT
 10
0.0
 20
0.0
 30
0.0
  9
$PUCSORGBACK
 10
0.0
 20
0.0
 30
0.0
  9
$USERI1
 70
     0
  9
$USERI2
 70
     0
  9
$USERI3
 70
     0
  9
$USERI4
 70
     0
  9
$USERI5
 70
     0
  9
$USERR1
 40
0.0
  9
$USERR2
 40
0.0
  9
$USERR3
 40
0.0
  9
$USERR4
 40
0.0
  9
$USERR5
 40
0.0
  9
$WORLDVIEW
 70
     1
  9
$SHADEDGE
 70
     3
  9
$SHADEDIF
 70
    70
  9
$TILEMODE
 70
     1
  9
$MAXACTVP
 70
    64
  9
$PINSBASE
 10
0.0
 20
0.0
 30
0.0
  9
$PLIMCHECK
 70
     0
  9
$PEXTMIN
 10
1.000000000000000E+20
 20
1.000000000000000E+20
 30
1.000000000000000E+20
  9
$PEXTMAX
 10
-1.000000000000000E+20
 20
-1.000000000000000E+20
 30
-1.000000000000000E+20
  9
$PLIMMIN
 10
0.0
 20
0.0
  9
$PLIMMAX
 10
12.0
 20
9.0
  9
$UNITMODE
 70
     0
  9
$VISRETAIN
 70
     1
  9
$PLINEGEN
 70
     0
  9
$PSLTSCALE
 70
     1
  9
$TREEDEPTH
 70
  3020
  9
$CMLSTYLE
  2
Standard
  9
$CMLJUST
 70
     0
  9
$CMLSCALE
 40
1.0
  9
$PROXYGRAPHICS
 70
     1
  9
$MEASUREMENT
 70
     0
  9
$CELWEIGHT
370
    -1
  9
$ENDCAPS
280
     0
  9
$JOINSTYLE
280
     0
  9
$LWDISPLAY
290
     0
  9
$INSUNITS
 70
     5
  9
$HYPERLINKBASE
  1

  9
$STYLESHEET
  1

  9
$XEDIT
290
     1
  9
$CEPSNTYPE
380
     0
  9
$PSTYLEMODE
290
     0
  9
$FINGERPRINTGUID
  2
{FAEB1C30-E019-11D5-929B-00C0DF256EC4}
  9
$VERSIONGUID
  2
{FAEB1C32-E019-11D5-929B-00C0DF256EC4}
  9
$EXTNAMES
290
     1
  9
$PSVPSCALE
 40
0.0
  9
$OLESTARTUP
290
     0
  9
$SORTENTS
280
   127
  9
$INDEXCTL
280
     0
  9
$HIDETEXT
280
     1
  9
$XCLIPFRAME
290
     0
  9
$HALOGAP
280
     0
  9
$OBSCOLOR
 70
   257
  9
$OBSLTYPE
280
     0
  9
$INTERSECTIONDISPLAY
280
     0
  9
$INTERSECTIONCOLOR
 70
   257
  9
$DIMASSOC
280
     2
  9
$PROJECTNAME
  1

  0
ENDSEC
  0
SECTION
  2
CLASSES
  0
CLASS
  1
ACDBDICTIONARYWDFLT
  2
AcDbDictionaryWithDefault
  3
AutoCAD 2000
 90
        0
 91
        1
280
     0
281
     0
  0
ENDSEC
  0
SECTION
  2
TABLES
  0
TABLE
  2
VPORT
  5
8
330
0
100
AcDbSymbolTable
 70
     2
  0
VPORT
  5
29
330
8
100
AcDbSymbolTableRecord
100
AcDbViewportTableRecord
  2
*Active
 70
     0
 10
0.0
 20
0.0
 11
1.0
 21
1.0
 12
10.42990654205607
 22
4.5
 13
0.0
 23
0.0
 14
0.5
 24
0.5
 15
0.5
 25
0.5
 16
0.0
 26
0.0
 36
1.0
 17
0.0
 27
0.0
 37
0.0
 40
9.0
 41
1.972972972850329
 42
50.0
 43
0.0
 44
0.0
 50
0.0
 51
0.0
 71
     0
 72
   100
 73
     1
 74
     3
 75
     0
 76
     0
 77
     0
 78
     0
281
     0
 65
     1
110
0.0
120
0.0
130
0.0
111
1.0
121
0.0
131
0.0
112
0.0
122
1.0
132
0.0
 79
     0
146
0.0
  0
ENDTAB
  0
TABLE
  2
LTYPE
  5
5
330
0
100
AcDbSymbolTable
 70
     1
  0
LTYPE
  5
14
330
5
100
AcDbSymbolTableRecord
100
AcDbLinetypeTableRecord
  2
ByBlock
 70
     0
  3

 72
    65
 73
     0
 40
0.0
  0
LTYPE
  5
15
330
5
100
AcDbSymbolTableRecord
100
AcDbLinetypeTableRecord
  2
ByLayer
 70
     0
  3

 72
    65
 73
     0
 40
0.0
  0
LTYPE
  5
16
330
5
100
AcDbSymbolTableRecord
100
AcDbLinetypeTableRecord
  2
Continuous
 70
     0
  3
Solid line
 72
    65
 73
     0
 40
0.0
  0
ENDTAB
  0
TABLE
  2
LAYER
  5
2
330
0
100
AcDbSymbolTable
 70
     2
  0
LAYER
  5
10
330
2
100
AcDbSymbolTableRecord
100
AcDbLayerTableRecord
  2
0
 70
     0
 62
     7
  6
Continuous
370
    -3
390
F
  0
LAYER
  5
2B
330
2
100
AcDbSymbolTableRecord
100
AcDbLayerTableRecord
  2
defaultLayer
 70
     0
 62
     7
  6
Continuous
370
    -3
390
0
  0
ENDTAB
  0
TABLE
  2
STYLE
  5
3
330
0
100
AcDbSymbolTable
 70
     1
  0
STYLE
  5
11
330
3
100
AcDbSymbolTableRecord
100
AcDbTextStyleTableRecord
  2
Standard
 70
     0
 40
0.0
 41
1.0
 50
0.0
 71
     0
 42
0.2
  3
txt
  4

  0
ENDTAB
  0
TABLE
  2
VIEW
  5
6
330
0
100
AcDbSymbolTable
 70
     0
  0
ENDTAB
  0
TABLE
  2
UCS
  5
7
330
0
100
AcDbSymbolTable
 70
     0
  0
ENDTAB
  0
TABLE
  2
APPID
  5
9
330
0
100
AcDbSymbolTable
 70
     2
  0
APPID
  5
12
330
9
100
AcDbSymbolTableRecord
100
AcDbRegAppTableRecord
  2
ACAD
 70
     0
  0
APPID
  5
2A
330
9
100
AcDbSymbolTableRecord
100
AcDbRegAppTableRecord
  2
ODA
 70
     0
  0
ENDTAB
  0
TABLE
  2
DIMSTYLE
  5
A
330
0
100
AcDbSymbolTable
 70
     1
100
AcDbDimStyleTable
  0
DIMSTYLE
105
27
330
A
100
AcDbSymbolTableRecord
100
AcDbDimStyleTableRecord
  2
Standard
 70
     0
340
11
  0
ENDTAB
  0
TABLE
  2
BLOCK_RECORD
  5
1
330
0
100
AcDbSymbolTable
 70
     1
  0
BLOCK_RECORD
  5
1F
330
1
100
AcDbSymbolTableRecord
100
AcDbBlockTableRecord
  2
*Model_Space
340
22
  0
BLOCK_RECORD
  5
1B
330
1
100
AcDbSymbolTableRecord
100
AcDbBlockTableRecord
  2
*Paper_Space
340
1E
  0
BLOCK_RECORD
  5
23
330
1
100
AcDbSymbolTableRecord
100
AcDbBlockTableRecord
  2
*Paper_Space0
340
26
  0
ENDTAB
  0
ENDSEC
  0
SECTION
  2
BLOCKS
  0
BLOCK
  5
20
330
1F
100
AcDbEntity
  8
0
100
AcDbBlockBegin
  2
*Model_Space
 70
     0
 71
     0
 10
0.0
 20
0.0
 30
0.0
  3
*Model_Space
  1

  0
ENDBLK
  5
21
330
1F
100
AcDbEntity
  8
0
100
AcDbBlockEnd
  0
BLOCK
  5
1C
330
1B
100
AcDbEntity
 67
     1
  8
0
100
AcDbBlockBegin
  2
*Paper_Space
 70
     0
 71
     0
 10
0.0
 20
0.0
 30
0.0
  3
*Paper_Space
  1

  0
ENDBLK
  5
1D
330
1B
100
AcDbEntity
 67
     1
  8
0
100
AcDbBlockEnd
  0
BLOCK
  5
24
330
23
100
AcDbEntity
  8
0
100
AcDbBlockBegin
  2
*Paper_Space0
 70
     0
 71
     0
 10
0.0
 20
0.0
 30
0.0
  3
*Paper_Space0
  1

  0
ENDBLK
  5
25
330
23
100
AcDbEntity
  8
0
100
AcDbBlockEnd
  0
ENDSEC
  0
SECTION
  2
ENTITIES
  0
POLYLINE
  5
2C
330
1F
100
AcDbEntity
  8
defaultLayer
 62
     7
100
AcDbPolyFaceMesh
 66
     1
 10
0.0
 20
0.0
 30
0.0
 70
    64
 71
   121
 72
   100
1001
ODA
1000
pPlaneShape1
  0
VERTEX
  5
2E
330
2C
100
AcDbEntity
  8
defaultLayer
100
AcDbVertex
100
AcDbPolyFaceMeshVertex
 10
-11.7304105758667
 20
0.3744498193264008
 30
11.7304105758667
 70
   192
  0
VERTEX
  5
2F
330
2C
100
AcDbEntity
  8
defaultLayer
100
AcDbVertex
100
AcDbPolyFaceMeshVertex
 10
-9.38432788848877
 20
0.3744498193264008
 30
11.7304105758667
 70
   192
  0
VERTEX
  5
30
330
2C
100
AcDbEntity
  8
defaultLayer
100
AcDbVertex
100
AcDbPolyFaceMeshVertex
 10
-7.038246631622314
 20
0.3744498193264008
 30
11.7304105758667
 70
   192
  0
VERTEX
  5
31
330
2C
100
AcDbEntity
  8
defaultLayer
100
AcDbVertex
100
AcDbPolyFaceMeshVertex
 10
-4.692163944244385
 20
0.3744498193264008
 30
11.7304105758667
 70
   192
  0
VERTEX
  5
32
330
2C
100
AcDbEntity
  8
defaultLayer
100
AcDbVertex
100
AcDbPolyFaceMeshVertex
 10
-2.346081972122192
 20
0.3744498193264008
 30
11.7304105758667
 70
   192
  0
VERTEX
  5
33
330
2C
100
AcDbEntity
  8
defaultLayer
100
AcDbVertex
100
AcDbPolyFaceMeshVertex
 10
0.0000001747967389
 20
0.3744498193264008
 30
11.7304105758667
 70
   192
  0
VERTEX
  5
34
330
2C
100
AcDbEntity
  8
defaultLayer
100
AcDbVertex
100
AcDbPolyFaceMeshVertex
 10
2.346082210540771
 20
0.3744498193264008
 30
11.7304105758667
 70
   192
  0
VERTEX
  5
35
330
2C
100
AcDbEntity
  8
defaultLayer
100
AcDbVertex
100
AcDbPolyFaceMeshVertex
 10
4.692164421081543
 20
0.3744498193264008
 30
11.7304105758667
 70
   192
  0
VERTEX
  5
36
330
2C
100
AcDbEntity
  8
defaultLayer
100
AcDbVertex
100
AcDbPolyFaceMeshVertex
 10
7.038246631622314
 20
0.3744498193264008
 30
11.7304105758667
 70
   192
  0
VERTEX
  5
37
330
2C
100
AcDbEntity
  8
defaultLayer
100
AcDbVertex
100
AcDbPolyFaceMeshVertex
 10
9.38432788848877
 20
0.3744498193264008
 30
11.7304105758667
 70
   192
  0
VERTEX
  5
38
330
2C
100
AcDbEntity
  8
defaultLayer
100
AcDbVertex
100
AcDbPolyFaceMeshVertex
 10
11.7304105758667
 20
0.3744498193264008
 30
11.7304105758667
 70
   192
  0
VERTEX
  5
39
330
2C
100
AcDbEntity
  8
defaultLayer
100
AcDbVertex
100
AcDbPolyFaceMeshVertex
 10
-11.7304105758667
 20
0.3744498193264008
 30
9.38432788848877
 70
   192
  0
VERTEX
  5
3A
330
2C
100
AcDbEntity
  8
defaultLayer
100
AcDbVertex
100
AcDbPolyFaceMeshVertex
 10
-9.38432788848877
 20
0.3744498193264008
 30
9.38432788848877
 70
   192
  0
VERTEX
  5
3B
330
2C
100
AcDbEntity
  8
defaultLayer
100
AcDbVertex
100
AcDbPolyFaceMeshVertex
 10
-7.038246631622314
 20
0.3744498193264008
 30
9.38432788848877
 70
   192
  0
VERTEX
  5
3C
330
2C
100
AcDbEntity
  8
defaultLayer
100
AcDbVertex
100
AcDbPolyFaceMeshVertex
 10
-4.692163944244385
 20
0.3744498193264008
 30
9.38432788848877
 70
   192
  0
VERTEX
  5
3D
330
2C
100
AcDbEntity
  8
defaultLayer
100
AcDbVertex
100
AcDbPolyFaceMeshVertex
 10
-2.346081972122192
 20
0.3744498193264008
 30
9.38432788848877
 70
   192
  0
VERTEX
  5
3E
330
2C
100
AcDbEntity
  8
defaultLayer
100
AcDbVertex
100
AcDbPolyFaceMeshVertex
 10
0.0000001747967389
 20
0.3744498193264008
 30
9.38432788848877
 70
   192
  0
VERTEX
  5
3F
330
2C
100
AcDbEntity
  8
defaultLayer
100
AcDbVertex
100
AcDbPolyFaceMeshVertex
 10
2.346082210540771
 20
0.3744498193264008
 30
9.38432788848877
 70
   192
  0
VERTEX
  5
40
330
2C
100
AcDbEntity
  8
defaultLayer
100
AcDbVertex
100
AcDbPolyFaceMeshVertex
 10
4.692164421081543
 20
0.3744498193264008
 30
9.38432788848877
 70
   192
  0
VERTEX
  5
41
330
2C
100
AcDbEntity
  8
defaultLayer
100
AcDbVertex
100
AcDbPolyFaceMeshVertex
 10
7.038246631622314
 20
0.3744498193264008
 30
9.38432788848877
 70
   192
  0
VERTEX
  5
42
330
2C
100
AcDbEntity
  8
defaultLayer
100
AcDbVertex
100
AcDbPolyFaceMeshVertex
 10
9.38432788848877
 20
0.3744498193264008
 30
9.38432788848877
 70
   192
  0
VERTEX
  5
43
330
2C
100
AcDbEntity
  8
defaultLayer
100
AcDbVertex
100
AcDbPolyFaceMeshVertex
 10
11.7304105758667
 20
0.3744498193264008
 30
9.38432788848877
 70
   192
  0
VERTEX
  5
44
330
2C
100
AcDbEntity
  8
defaultLayer
100
AcDbVertex
100
AcDbPolyFaceMeshVertex
 10
-11.7304105758667
 20
0.3744498193264008
 30
7.038246631622314
 70
   192
  0
VERTEX
  5
45
330
2C
100
AcDbEntity
  8
defaultLayer
100
AcDbVertex
100
AcDbPolyFaceMeshVertex
 10
-9.38432788848877
 20
0.3744498193264008
 30
7.038246631622314
 70
   192
  0
VERTEX
  5
46
330
2C
100
AcDbEntity
  8
defaultLayer
100
AcDbVertex
100
AcDbPolyFaceMeshVertex
 10
-7.038246631622314
 20
0.3744498193264008
 30
7.038246631622314
 70
   192
  0
VERTEX
  5
47
330
2C
100
AcDbEntity
  8
defaultLayer
100
AcDbVertex
100
AcDbPolyFaceMeshVertex
 10
-4.692163944244385
 20
0.3744498193264008
 30
7.038246631622314
 70
   192
  0
VERTEX
  5
48
330
2C
100
AcDbEntity
  8
defaultLayer
100
AcDbVertex
100
AcDbPolyFaceMeshVertex
 10
-2.346081972122192
 20
0.3744498193264008
 30
7.038246631622314
 70
   192
  0
VERTEX
  5
49
330
2C
100
AcDbEntity
  8
defaultLayer
100
AcDbVertex
100
AcDbPolyFaceMeshVertex
 10
0.0000001747967389
 20
0.3744498193264008
 30
7.038246631622314
 70
   192
  0
VERTEX
  5
4A
330
2C
100
AcDbEntity
  8
defaultLayer
100
AcDbVertex
100
AcDbPolyFaceMeshVertex
 10
2.346082210540771
 20
0.3744498193264008
 30
7.038246631622314
 70
   192
  0
VERTEX
  5
4B
330
2C
100
AcDbEntity
  8
defaultLayer
100
AcDbVertex
100
AcDbPolyFaceMeshVertex
 10
4.692164421081543
 20
0.3744498193264008
 30
7.038246631622314
 70
   192
  0
VERTEX
  5
4C
330
2C
100
AcDbEntity
  8
defaultLayer
100
AcDbVertex
100
AcDbPolyFaceMeshVertex
 10
7.038246631622314
 20
0.3744498193264008
 30
7.038246631622314
 70
   192
  0
VERTEX
  5
4D
330
2C
100
AcDbEntity
  8
defaultLayer
100
AcDbVertex
100
AcDbPolyFaceMeshVertex
 10
9.38432788848877
 20
0.3744498193264008
 30
7.038246631622314
 70
   192
  0
VERTEX
  5
4E
330
2C
100
AcDbEntity
  8
defaultLayer
100
AcDbVertex
100
AcDbPolyFaceMeshVertex
 10
11.7304105758667
 20
0.3744498193264008
 30
7.038246631622314
 70
   192
  0
VERTEX
  5
4F
330
2C
100
AcDbEntity
  8
defaultLayer
100
AcDbVertex
100
AcDbPolyFaceMeshVertex
 10
-11.7304105758667
 20
0.3744498193264008
 30
4.692163944244385
 70
   192
  0
VERTEX
  5
50
330
2C
100
AcDbEntity
  8
defaultLayer
100
AcDbVertex
100
AcDbPolyFaceMeshVertex
 10
-9.38432788848877
 20
0.3744498193264008
 30
4.692163944244385
 70
   192
  0
VERTEX
  5
51
330
2C
100
AcDbEntity
  8
defaultLayer
100
AcDbVertex
100
AcDbPolyFaceMeshVertex
 10
-7.038246631622314
 20
0.3744498193264008
 30
4.692163944244385
 70
   192
  0
VERTEX
  5
52
330
2C
100
AcDbEntity
  8
defaultLayer
100
AcDbVertex
100
AcDbPolyFaceMeshVertex
 10
-4.692163944244385
 20
0.3744498193264008
 30
4.692163944244385
 70
   192
  0
VERTEX
  5
53
330
2C
100
AcDbEntity
  8
defaultLayer
100
AcDbVertex
100
AcDbPolyFaceMeshVertex
 10
-2.346081972122192
 20
0.3744498193264008
 30
4.692163944244385
 70
   192
  0
VERTEX
  5
54
330
2C
100
AcDbEntity
  8
defaultLayer
100
AcDbVertex
100
AcDbPolyFaceMeshVertex
 10
0.0000001747967389
 20
0.3744498193264008
 30
4.692163944244385
 70
   192
  0
VERTEX
  5
55
330
2C
100
AcDbEntity
  8
defaultLayer
100
AcDbVertex
100
AcDbPolyFaceMeshVertex
 10
2.346082210540771
 20
0.3744498193264008
 30
4.692163944244385
 70
   192
  0
VERTEX
  5
56
330
2C
100
AcDbEntity
  8
defaultLayer
100
AcDbVertex
100
AcDbPolyFaceMeshVertex
 10
4.692164421081543
 20
0.3744498193264008
 30
4.692163944244385
 70
   192
  0
VERTEX
  5
57
330
2C
100
AcDbEntity
  8
defaultLayer
100
AcDbVertex
100
AcDbPolyFaceMeshVertex
 10
7.038246631622314
 20
0.3744498193264008
 30
4.692163944244385
 70
   192
  0
VERTEX
  5
58
330
2C
100
AcDbEntity
  8
defaultLayer
100
AcDbVertex
100
AcDbPolyFaceMeshVertex
 10
9.38432788848877
 20
0.3744498193264008
 30
4.692163944244385
 70
   192
  0
VERTEX
  5
59
330
2C
100
AcDbEntity
  8
defaultLayer
100
AcDbVertex
100
AcDbPolyFaceMeshVertex
 10
11.7304105758667
 20
0.3744498193264008
 30
4.692163944244385
 70
   192
  0
VERTEX
  5
5A
330
2C
100
AcDbEntity
  8
defaultLayer
100
AcDbVertex
100
AcDbPolyFaceMeshVertex
 10
-11.7304105758667
 20
0.3744498193264008
 30
2.346081972122192
 70
   192
  0
VERTEX
  5
5B
330
2C
100
AcDbEntity
  8
defaultLayer
100
AcDbVertex
100
AcDbPolyFaceMeshVertex
 10
-9.38432788848877
 20
0.3744498193264008
 30
2.346081972122192
 70
   192
  0
VERTEX
  5
5C
330
2C
100
AcDbEntity
  8
defaultLayer
100
AcDbVertex
100
AcDbPolyFaceMeshVertex
 10
-7.038246631622314
 20
0.3744498193264008
 30
2.346081972122192
 70
   192
  0
VERTEX
  5
5D
330
2C
100
AcDbEntity
  8
defaultLayer
100
AcDbVertex
100
AcDbPolyFaceMeshVertex
 10
-4.692163944244385
 20
0.3744498193264008
 30
2.346081972122192
 70
   192
  0
VERTEX
  5
5E
330
2C
100
AcDbEntity
  8
defaultLayer
100
AcDbVertex
100
AcDbPolyFaceMeshVertex
 10
-2.346081972122192
 20
0.3744498193264008
 30
2.346081972122192
 70
   192
  0
VERTEX
  5
5F
330
2C
100
AcDbEntity
  8
defaultLayer
100
AcDbVertex
100
AcDbPolyFaceMeshVertex
 10
0.0000001747967389
 20
0.3744498193264008
 30
2.346081972122192
 70
   192
  0
VERTEX
  5
60
330
2C
100
AcDbEntity
  8
defaultLayer
100
AcDbVertex
100
AcDbPolyFaceMeshVertex
 10
2.346082210540771
 20
0.3744498193264008
 30
2.346081972122192
 70
   192
  0
VERTEX
  5
61
330
2C
100
AcDbEntity
  8
defaultLayer
100
AcDbVertex
100
AcDbPolyFaceMeshVertex
 10
4.692164421081543
 20
0.3744498193264008
 30
2.346081972122192
 70
   192
  0
VERTEX
  5
62
330
2C
100
AcDbEntity
  8
defaultLayer
100
AcDbVertex
100
AcDbPolyFaceMeshVertex
 10
7.038246631622314
 20
0.3744498193264008
 30
2.346081972122192
 70
   192
  0
VERTEX
  5
63
330
2C
100
AcDbEntity
  8
defaultLayer
100
AcDbVertex
100
AcDbPolyFaceMeshVertex
 10
9.38432788848877
 20
0.3744498193264008
 30
2.346081972122192
 70
   192
  0
VERTEX
  5
64
330
2C
100
AcDbEntity
  8
defaultLayer
100
AcDbVertex
100
AcDbPolyFaceMeshVertex
 10
11.7304105758667
 20
0.3744498193264008
 30
2.346081972122192
 70
   192
  0
VERTEX
  5
65
330
2C
100
AcDbEntity
  8
defaultLayer
100
AcDbVertex
100
AcDbPolyFaceMeshVertex
 10
-11.7304105758667
 20
0.3744498193264008
 30
-0.0000001747967389
 70
   192
  0
VERTEX
  5
66
330
2C
100
AcDbEntity
  8
defaultLayer
100
AcDbVertex
100
AcDbPolyFaceMeshVertex
 10
-9.38432788848877
 20
0.3744498193264008
 30
-0.0000001747967389
 70
   192
  0
VERTEX
  5
67
330
2C
100
AcDbEntity
  8
defaultLayer
100
AcDbVertex
100
AcDbPolyFaceMeshVertex
 10
-7.038246631622314
 20
0.3744498193264008
 30
-0.0000001747967389
 70
   192
  0
VERTEX
  5
68
330
2C
100
AcDbEntity
  8
defaultLayer
100
AcDbVertex
100
AcDbPolyFaceMeshVertex
 10
-4.692163944244385
 20
0.3744498193264008
 30
-0.0000001747967389
 70
   192
  0
VERTEX
  5
69
330
2C
100
AcDbEntity
  8
defaultLayer
100
AcDbVertex
100
AcDbPolyFaceMeshVertex
 10
-2.346081972122192
 20
0.3744498193264008
 30
-0.0000001747967389
 70
   192
  0
VERTEX
  5
6A
330
2C
100
AcDbEntity
  8
defaultLayer
100
AcDbVertex
100
AcDbPolyFaceMeshVertex
 10
0.0000001747967389
 20
0.3744498193264008
 30
-0.0000001747967389
 70
   192
  0
VERTEX
  5
6B
330
2C
100
AcDbEntity
  8
defaultLayer
100
AcDbVertex
100
AcDbPolyFaceMeshVertex
 10
2.346082210540771
 20
0.3744498193264008
 30
-0.0000001747967389
 70
   192
  0
VERTEX
  5
6C
330
2C
100
AcDbEntity
  8
defaultLayer
100
AcDbVertex
100
AcDbPolyFaceMeshVertex
 10
4.692164421081543
 20
0.3744498193264008
 30
-0.0000001747967389
 70
   192
  0
VERTEX
  5
6D
330
2C
100
AcDbEntity
  8
defaultLayer
100
AcDbVertex
100
AcDbPolyFaceMeshVertex
 10
7.038246631622314
 20
0.3744498193264008
 30
-0.0000001747967389
 70
   192
  0
VERTEX
  5
6E
330
2C
100
AcDbEntity
  8
defaultLayer
100
AcDbVertex
100
AcDbPolyFaceMeshVertex
 10
9.38432788848877
 20
0.3744498193264008
 30
-0.0000001747967389
 70
   192
  0
VERTEX
  5
6F
330
2C
100
AcDbEntity
  8
defaultLayer
100
AcDbVertex
100
AcDbPolyFaceMeshVertex
 10
11.7304105758667
 20
0.3744498193264008
 30
-0.0000001747967389
 70
   192
  0
VERTEX
  5
70
330
2C
100
AcDbEntity
  8
defaultLayer
100
AcDbVertex
100
AcDbPolyFaceMeshVertex
 10
-11.7304105758667
 20
0.3744498193264008
 30
-2.346082210540771
 70
   192
  0
VERTEX
  5
71
330
2C
100
AcDbEntity
  8
defaultLayer
100
AcDbVertex
100
AcDbPolyFaceMeshVertex
 10
-9.38432788848877
 20
0.3744498193264008
 30
-2.346082210540771
 70
   192
  0
VERTEX
  5
72
330
2C
100
AcDbEntity
  8
defaultLayer
100
AcDbVertex
100
AcDbPolyFaceMeshVertex
 10
-7.038246631622314
 20
0.3744498193264008
 30
-2.346082210540771
 70
   192
  0
VERTEX
  5
73
330
2C
100
AcDbEntity
  8
defaultLayer
100
AcDbVertex
100
AcDbPolyFaceMeshVertex
 10
-4.692163944244385
 20
0.3744498193264008
 30
-2.346082210540771
 70
   192
  0
VERTEX
  5
74
330
2C
100
AcDbEntity
  8
defaultLayer
100
AcDbVertex
100
AcDbPolyFaceMeshVertex
 10
-2.346081972122192
 20
0.3744498193264008
 30
-2.346082210540771
 70
   192
  0
VERTEX
  5
75
330
2C
100
AcDbEntity
  8
defaultLayer
100
AcDbVertex
100
AcDbPolyFaceMeshVertex
 10
0.0000001747967389
 20
0.3744498193264008
 30
-2.346082210540771
 70
   192
  0
VERTEX
  5
76
330
2C
100
AcDbEntity
  8
defaultLayer
100
AcDbVertex
100
AcDbPolyFaceMeshVertex
 10
2.346082210540771
 20
0.3744498193264008
 30
-2.346082210540771
 70
   192
  0
VERTEX
  5
77
330
2C
100
AcDbEntity
  8
defaultLayer
100
AcDbVertex
100
AcDbPolyFaceMeshVertex
 10
4.692164421081543
 20
0.3744498193264008
 30
-2.346082210540771
 70
   192
  0
VERTEX
  5
78
330
2C
100
AcDbEntity
  8
defaultLayer
100
AcDbVertex
100
AcDbPolyFaceMeshVertex
 10
7.038246631622314
 20
0.3744498193264008
 30
-2.346082210540771
 70
   192
  0
VERTEX
  5
79
330
2C
100
AcDbEntity
  8
defaultLayer
100
AcDbVertex
100
AcDbPolyFaceMeshVertex
 10
9.38432788848877
 20
0.3744498193264008
 30
-2.346082210540771
 70
   192
  0
VERTEX
  5
7A
330
2C
100
AcDbEntity
  8
defaultLayer
100
AcDbVertex
100
AcDbPolyFaceMeshVertex
 10
11.7304105758667
 20
0.3744498193264008
 30
-2.346082210540771
 70
   192
  0
VERTEX
  5
7B
330
2C
100
AcDbEntity
  8
defaultLayer
100
AcDbVertex
100
AcDbPolyFaceMeshVertex
 10
-11.7304105758667
 20
0.3744498193264008
 30
-4.692164421081543
 70
   192
  0
VERTEX
  5
7C
330
2C
100
AcDbEntity
  8
defaultLayer
100
AcDbVertex
100
AcDbPolyFaceMeshVertex
 10
-9.38432788848877
 20
0.3744498193264008
 30
-4.692164421081543
 70
   192
  0
VERTEX
  5
7D
330
2C
100
AcDbEntity
  8
defaultLayer
100
AcDbVertex
100
AcDbPolyFaceMeshVertex
 10
-7.038246631622314
 20
0.3744498193264008
 30
-4.692164421081543
 70
   192
  0
VERTEX
  5
7E
330
2C
100
AcDbEntity
  8
defaultLayer
100
AcDbVertex
100
AcDbPolyFaceMeshVertex
 10
-4.692163944244385
 20
0.3744498193264008
 30
-4.692164421081543
 70
   192
  0
VERTEX
  5
7F
330
2C
100
AcDbEntity
  8
defaultLayer
100
AcDbVertex
100
AcDbPolyFaceMeshVertex
 10
-2.346081972122192
 20
0.3744498193264008
 30
-4.692164421081543
 70
   192
  0
VERTEX
  5
80
330
2C
100
AcDbEntity
  8
defaultLayer
100
AcDbVertex
100
AcDbPolyFaceMeshVertex
 10
0.0000001747967389
 20
0.3744498193264008
 30
-4.692164421081543
 70
   192
  0
VERTEX
  5
81
330
2C
100
AcDbEntity
  8
defaultLayer
100
AcDbVertex
100
AcDbPolyFaceMeshVertex
 10
2.346082210540771
 20
0.3744498193264008
 30
-4.692164421081543
 70
   192
  0
VERTEX
  5
82
330
2C
100
AcDbEntity
  8
defaultLayer
100
AcDbVertex
100
AcDbPolyFaceMeshVertex
 10
4.692164421081543
 20
0.3744498193264008
 30
-4.692164421081543
 70
   192
  0
VERTEX
  5
83
330
2C
100
AcDbEntity
  8
defaultLayer
100
AcDbVertex
100
AcDbPolyFaceMeshVertex
 10
7.038246631622314
 20
0.3744498193264008
 30
-4.692164421081543
 70
   192
  0
VERTEX
  5
84
330
2C
100
AcDbEntity
  8
defaultLayer
100
AcDbVertex
100
AcDbPolyFaceMeshVertex
 10
9.38432788848877
 20
0.3744498193264008
 30
-4.692164421081543
 70
   192
  0
VERTEX
  5
85
330
2C
100
AcDbEntity
  8
defaultLayer
100
AcDbVertex
100
AcDbPolyFaceMeshVertex
 10
11.7304105758667
 20
0.3744498193264008
 30
-4.692164421081543
 70
   192
  0
VERTEX
  5
86
330
2C
100
AcDbEntity
  8
defaultLayer
100
AcDbVertex
100
AcDbPolyFaceMeshVertex
 10
-11.7304105758667
 20
0.3744498193264008
 30
-7.038246631622314
 70
   192
  0
VERTEX
  5
87
330
2C
100
AcDbEntity
  8
defaultLayer
100
AcDbVertex
100
AcDbPolyFaceMeshVertex
 10
-9.38432788848877
 20
0.3744498193264008
 30
-7.038246631622314
 70
   192
  0
VERTEX
  5
88
330
2C
100
AcDbEntity
  8
defaultLayer
100
AcDbVertex
100
AcDbPolyFaceMeshVertex
 10
-7.038246631622314
 20
0.3744498193264008
 30
-7.038246631622314
 70
   192
  0
VERTEX
  5
89
330
2C
100
AcDbEntity
  8
defaultLayer
100
AcDbVertex
100
AcDbPolyFaceMeshVertex
 10
-4.692163944244385
 20
0.3744498193264008
 30
-7.038246631622314
 70
   192
  0
VERTEX
  5
8A
330
2C
100
AcDbEntity
  8
defaultLayer
100
AcDbVertex
100
AcDbPolyFaceMeshVertex
 10
-2.346081972122192
 20
0.3744498193264008
 30
-7.038246631622314
 70
   192
  0
VERTEX
  5
8B
330
2C
100
AcDbEntity
  8
defaultLayer
100
AcDbVertex
100
AcDbPolyFaceMeshVertex
 10
0.0000001747967389
 20
0.3744498193264008
 30
-7.038246631622314
 70
   192
  0
VERTEX
  5
8C
330
2C
100
AcDbEntity
  8
defaultLayer
100
AcDbVertex
100
AcDbPolyFaceMeshVertex
 10
2.346082210540771
 20
0.3744498193264008
 30
-7.038246631622314
 70
   192
  0
VERTEX
  5
8D
330
2C
100
AcDbEntity
  8
defaultLayer
100
AcDbVertex
100
AcDbPolyFaceMeshVertex
 10
4.692164421081543
 20
0.3744498193264008
 30
-7.038246631622314
 70
   192
  0
VERTEX
  5
8E
330
2C
100
AcDbEntity
  8
defaultLayer
100
AcDbVertex
100
AcDbPolyFaceMeshVertex
 10
7.038246631622314
 20
0.3744498193264008
 30
-7.038246631622314
 70
   192
  0
VERTEX
  5
8F
330
2C
100
AcDbEntity
  8
defaultLayer
100
AcDbVertex
100
AcDbPolyFaceMeshVertex
 10
9.38432788848877
 20
0.3744498193264008
 30
-7.038246631622314
 70
   192
  0
VERTEX
  5
90
330
2C
100
AcDbEntity
  8
defaultLayer
100
AcDbVertex
100
AcDbPolyFaceMeshVertex
 10
11.7304105758667
 20
0.3744498193264008
 30
-7.038246631622314
 70
   192
  0
VERTEX
  5
91
330
2C
100
AcDbEntity
  8
defaultLayer
100
AcDbVertex
100
AcDbPolyFaceMeshVertex
 10
-11.7304105758667
 20
0.3744498193264008
 30
-9.38432788848877
 70
   192
  0
VERTEX
  5
92
330
2C
100
AcDbEntity
  8
defaultLayer
100
AcDbVertex
100
AcDbPolyFaceMeshVertex
 10
-9.38432788848877
 20
0.3744498193264008
 30
-9.38432788848877
 70
   192
  0
VERTEX
  5
93
330
2C
100
AcDbEntity
  8
defaultLayer
100
AcDbVertex
100
AcDbPolyFaceMeshVertex
 10
-7.038246631622314
 20
0.3744498193264008
 30
-9.38432788848877
 70
   192
  0
VERTEX
  5
94
330
2C
100
AcDbEntity
  8
defaultLayer
100
AcDbVertex
100
AcDbPolyFaceMeshVertex
 10
-4.692163944244385
 20
0.3744498193264008
 30
-9.38432788848877
 70
   192
  0
VERTEX
  5
95
330
2C
100
AcDbEntity
  8
defaultLayer
100
AcDbVertex
100
AcDbPolyFaceMeshVertex
 10
-2.346081972122192
 20
0.3744498193264008
 30
-9.38432788848877
 70
   192
  0
VERTEX
  5
96
330
2C
100
AcDbEntity
  8
defaultLayer
100
AcDbVertex
100
AcDbPolyFaceMeshVertex
 10
0.0000001747967389
 20
0.3744498193264008
 30
-9.38432788848877
 70
   192
  0
VERTEX
  5
97
330
2C
100
AcDbEntity
  8
defaultLayer
100
AcDbVertex
100
AcDbPolyFaceMeshVertex
 10
2.346082210540771
 20
0.3744498193264008
 30
-9.38432788848877
 70
   192
  0
VERTEX
  5
98
330
2C
100
AcDbEntity
  8
defaultLayer
100
AcDbVertex
100
AcDbPolyFaceMeshVertex
 10
4.692164421081543
 20
0.3744498193264008
 30
-9.38432788848877
 70
   192
  0
VERTEX
  5
99
330
2C
100
AcDbEntity
  8
defaultLayer
100
AcDbVertex
100
AcDbPolyFaceMeshVertex
 10
7.038246631622314
 20
0.3744498193264008
 30
-9.38432788848877
 70
   192
  0
VERTEX
  5
9A
330
2C
100
AcDbEntity
  8
defaultLayer
100
AcDbVertex
100
AcDbPolyFaceMeshVertex
 10
9.38432788848877
 20
0.3744498193264008
 30
-9.38432788848877
 70
   192
  0
VERTEX
  5
9B
330
2C
100
AcDbEntity
  8
defaultLayer
100
AcDbVertex
100
AcDbPolyFaceMeshVertex
 10
11.7304105758667
 20
0.3744498193264008
 30
-9.38432788848877
 70
   192
  0
VERTEX
  5
9C
330
2C
100
AcDbEntity
  8
defaultLayer
100
AcDbVertex
100
AcDbPolyFaceMeshVertex
 10
-11.7304105758667
 20
0.3744498193264008
 30
-11.7304105758667
 70
   192
  0
VERTEX
  5
9D
330
2C
100
AcDbEntity
  8
defaultLayer
100
AcDbVertex
100
AcDbPolyFaceMeshVertex
 10
-9.38432788848877
 20
0.3744498193264008
 30
-11.7304105758667
 70
   192
  0
VERTEX
  5
9E
330
2C
100
AcDbEntity
  8
defaultLayer
100
AcDbVertex
100
AcDbPolyFaceMeshVertex
 10
-7.038246631622314
 20
0.3744498193264008
 30
-11.7304105758667
 70
   192
  0
VERTEX
  5
9F
330
2C
100
AcDbEntity
  8
defaultLayer
100
AcDbVertex
100
AcDbPolyFaceMeshVertex
 10
-4.692163944244385
 20
0.3744498193264008
 30
-11.7304105758667
 70
   192
  0
VERTEX
  5
A0
330
2C
100
AcDbEntity
  8
defaultLayer
100
AcDbVertex
100
AcDbPolyFaceMeshVertex
 10
-2.346081972122192
 20
0.3744498193264008
 30
-11.7304105758667
 70
   192
  0
VERTEX
  5
A1
330
2C
100
AcDbEntity
  8
defaultLayer
100
AcDbVertex
100
AcDbPolyFaceMeshVertex
 10
0.0000001747967389
 20
0.3744498193264008
 30
-11.7304105758667
 70
   192
  0
VERTEX
  5
A2
330
2C
100
AcDbEntity
  8
defaultLayer
100
AcDbVertex
100
AcDbPolyFaceMeshVertex
 10
2.346082210540771
 20
0.3744498193264008
 30
-11.7304105758667
 70
   192
  0
VERTEX
  5
A3
330
2C
100
AcDbEntity
  8
defaultLayer
100
AcDbVertex
100
AcDbPolyFaceMeshVertex
 10
4.692164421081543
 20
0.3744498193264008
 30
-11.7304105758667
 70
   192
  0
VERTEX
  5
A4
330
2C
100
AcDbEntity
  8
defaultLayer
100
AcDbVertex
100
AcDbPolyFaceMeshVertex
 10
7.038246631622314
 20
0.3744498193264008
 30
-11.7304105758667
 70
   192
  0
VERTEX
  5
A5
330
2C
100
AcDbEntity
  8
defaultLayer
100
AcDbVertex
100
AcDbPolyFaceMeshVertex
 10
9.38432788848877
 20
0.3744498193264008
 30
-11.7304105758667
 70
   192
  0
VERTEX
  5
A6
330
2C
100
AcDbEntity
  8
defaultLayer
100
AcDbVertex
100
AcDbPolyFaceMeshVertex
 10
11.7304105758667
 20
0.3744498193264008
 30
-11.7304105758667
 70
   192
  0
VERTEX
  5
A7
330
2C
100
AcDbEntity
  8
defaultLayer
100
AcDbFaceRecord
 10
0.0
 20
0.0
 30
0.0
 70
   128
 71
     1
 72
     2
 73
    13
 74
    12
  0
VERTEX
  5
A8
330
2C
100
AcDbEntity
  8
defaultLayer
100
AcDbFaceRecord
 10
0.0
 20
0.0
 30
0.0
 70
   128
 71
     2
 72
     3
 73
    14
 74
    13
  0
VERTEX
  5
A9
330
2C
100
AcDbEntity
  8
defaultLayer
100
AcDbFaceRecord
 10
0.0
 20
0.0
 30
0.0
 70
   128
 71
     3
 72
     4
 73
    15
 74
    14
  0
VERTEX
  5
AA
330
2C
100
AcDbEntity
  8
defaultLayer
100
AcDbFaceRecord
 10
0.0
 20
0.0
 30
0.0
 70
   128
 71
     4
 72
     5
 73
    16
 74
    15
  0
VERTEX
  5
AB
330
2C
100
AcDbEntity
  8
defaultLayer
100
AcDbFaceRecord
 10
0.0
 20
0.0
 30
0.0
 70
   128
 71
     5
 72
     6
 73
    17
 74
    16
  0
VERTEX
  5
AC
330
2C
100
AcDbEntity
  8
defaultLayer
100
AcDbFaceRecord
 10
0.0
 20
0.0
 30
0.0
 70
   128
 71
     6
 72
     7
 73
    18
 74
    17
  0
VERTEX
  5
AD
330
2C
100
AcDbEntity
  8
defaultLayer
100
AcDbFaceRecord
 10
0.0
 20
0.0
 30
0.0
 70
   128
 71
     7
 72
     8
 73
    19
 74
    18
  0
VERTEX
  5
AE
330
2C
100
AcDbEntity
  8
defaultLayer
100
AcDbFaceRecord
 10
0.0
 20
0.0
 30
0.0
 70
   128
 71
     8
 72
     9
 73
    20
 74
    19
  0
VERTEX
  5
AF
330
2C
100
AcDbEntity
  8
defaultLayer
100
AcDbFaceRecord
 10
0.0
 20
0.0
 30
0.0
 70
   128
 71
     9
 72
    10
 73
    21
 74
    20
  0
VERTEX
  5
B0
330
2C
100
AcDbEntity
  8
defaultLayer
100
AcDbFaceRecord
 10
0.0
 20
0.0
 30
0.0
 70
   128
 71
    10
 72
    11
 73
    22
 74
    21
  0
VERTEX
  5
B1
330
2C
100
AcDbEntity
  8
defaultLayer
100
AcDbFaceRecord
 10
0.0
 20
0.0
 30
0.0
 70
   128
 71
    12
 72
    13
 73
    24
 74
    23
  0
VERTEX
  5
B2
330
2C
100
AcDbEntity
  8
defaultLayer
100
AcDbFaceRecord
 10
0.0
 20
0.0
 30
0.0
 70
   128
 71
    13
 72
    14
 73
    25
 74
    24
  0
VERTEX
  5
B3
330
2C
100
AcDbEntity
  8
defaultLayer
100
AcDbFaceRecord
 10
0.0
 20
0.0
 30
0.0
 70
   128
 71
    14
 72
    15
 73
    26
 74
    25
  0
VERTEX
  5
B4
330
2C
100
AcDbEntity
  8
defaultLayer
100
AcDbFaceRecord
 10
0.0
 20
0.0
 30
0.0
 70
   128
 71
    15
 72
    16
 73
    27
 74
    26
  0
VERTEX
  5
B5
330
2C
100
AcDbEntity
  8
defaultLayer
100
AcDbFaceRecord
 10
0.0
 20
0.0
 30
0.0
 70
   128
 71
    16
 72
    17
 73
    28
 74
    27
  0
VERTEX
  5
B6
330
2C
100
AcDbEntity
  8
defaultLayer
100
AcDbFaceRecord
 10
0.0
 20
0.0
 30
0.0
 70
   128
 71
    17
 72
    18
 73
    29
 74
    28
  0
VERTEX
  5
B7
330
2C
100
AcDbEntity
  8
defaultLayer
100
AcDbFaceRecord
 10
0.0
 20
0.0
 30
0.0
 70
   128
 71
    18
 72
    19
 73
    30
 74
    29
  0
VERTEX
  5
B8
330
2C
100
AcDbEntity
  8
defaultLayer
100
AcDbFaceRecord
 10
0.0
 20
0.0
 30
0.0
 70
   128
 71
    19
 72
    20
 73
    31
 74
    30
  0
VERTEX
  5
B9
330
2C
100
AcDbEntity
  8
defaultLayer
100
AcDbFaceRecord
 10
0.0
 20
0.0
 30
0.0
 70
   128
 71
    20
 72
    21
 73
    32
 74
    31
  0
VERTEX
  5
BA
330
2C
100
AcDbEntity
  8
defaultLayer
100
AcDbFaceRecord
 10
0.0
 20
0.0
 30
0.0
 70
   128
 71
    21
 72
    22
 73
    33
 74
    32
  0
VERTEX
  5
BB
330
2C
100
AcDbEntity
  8
defaultLayer
100
AcDbFaceRecord
 10
0.0
 20
0.0
 30
0.0
 70
   128
 71
    23
 72
    24
 73
    35
 74
    34
  0
VERTEX
  5
BC
330
2C
100
AcDbEntity
  8
defaultLayer
100
AcDbFaceRecord
 10
0.0
 20
0.0
 30
0.0
 70
   128
 71
    24
 72
    25
 73
    36
 74
    35
  0
VERTEX
  5
BD
330
2C
100
AcDbEntity
  8
defaultLayer
100
AcDbFaceRecord
 10
0.0
 20
0.0
 30
0.0
 70
   128
 71
    25
 72
    26
 73
    37
 74
    36
  0
VERTEX
  5
BE
330
2C
100
AcDbEntity
  8
defaultLayer
100
AcDbFaceRecord
 10
0.0
 20
0.0
 30
0.0
 70
   128
 71
    26
 72
    27
 73
    38
 74
    37
  0
VERTEX
  5
BF
330
2C
100
AcDbEntity
  8
defaultLayer
100
AcDbFaceRecord
 10
0.0
 20
0.0
 30
0.0
 70
   128
 71
    27
 72
    28
 73
    39
 74
    38
  0
VERTEX
  5
C0
330
2C
100
AcDbEntity
  8
defaultLayer
100
AcDbFaceRecord
 10
0.0
 20
0.0
 30
0.0
 70
   128
 71
    28
 72
    29
 73
    40
 74
    39
  0
VERTEX
  5
C1
330
2C
100
AcDbEntity
  8
defaultLayer
100
AcDbFaceRecord
 10
0.0
 20
0.0
 30
0.0
 70
   128
 71
    29
 72
    30
 73
    41
 74
    40
  0
VERTEX
  5
C2
330
2C
100
AcDbEntity
  8
defaultLayer
100
AcDbFaceRecord
 10
0.0
 20
0.0
 30
0.0
 70
   128
 71
    30
 72
    31
 73
    42
 74
    41
  0
VERTEX
  5
C3
330
2C
100
AcDbEntity
  8
defaultLayer
100
AcDbFaceRecord
 10
0.0
 20
0.0
 30
0.0
 70
   128
 71
    31
 72
    32
 73
    43
 74
    42
  0
VERTEX
  5
C4
330
2C
100
AcDbEntity
  8
defaultLayer
100
AcDbFaceRecord
 10
0.0
 20
0.0
 30
0.0
 70
   128
 71
    32
 72
    33
 73
    44
 74
    43
  0
VERTEX
  5
C5
330
2C
100
AcDbEntity
  8
defaultLayer
100
AcDbFaceRecord
 10
0.0
 20
0.0
 30
0.0
 70
   128
 71
    34
 72
    35
 73
    46
 74
    45
  0
VERTEX
  5
C6
330
2C
100
AcDbEntity
  8
defaultLayer
100
AcDbFaceRecord
 10
0.0
 20
0.0
 30
0.0
 70
   128
 71
    35
 72
    36
 73
    47
 74
    46
  0
VERTEX
  5
C7
330
2C
100
AcDbEntity
  8
defaultLayer
100
AcDbFaceRecord
 10
0.0
 20
0.0
 30
0.0
 70
   128
 71
    36
 72
    37
 73
    48
 74
    47
  0
VERTEX
  5
C8
330
2C
100
AcDbEntity
  8
defaultLayer
100
AcDbFaceRecord
 10
0.0
 20
0.0
 30
0.0
 70
   128
 71
    37
 72
    38
 73
    49
 74
    48
  0
VERTEX
  5
C9
330
2C
100
AcDbEntity
  8
defaultLayer
100
AcDbFaceRecord
 10
0.0
 20
0.0
 30
0.0
 70
   128
 71
    38
 72
    39
 73
    50
 74
    49
  0
VERTEX
  5
CA
330
2C
100
AcDbEntity
  8
defaultLayer
100
AcDbFaceRecord
 10
0.0
 20
0.0
 30
0.0
 70
   128
 71
    39
 72
    40
 73
    51
 74
    50
  0
VERTEX
  5
CB
330
2C
100
AcDbEntity
  8
defaultLayer
100
AcDbFaceRecord
 10
0.0
 20
0.0
 30
0.0
 70
   128
 71
    40
 72
    41
 73
    52
 74
    51
  0
VERTEX
  5
CC
330
2C
100
AcDbEntity
  8
defaultLayer
100
AcDbFaceRecord
 10
0.0
 20
0.0
 30
0.0
 70
   128
 71
    41
 72
    42
 73
    53
 74
    52
  0
VERTEX
  5
CD
330
2C
100
AcDbEntity
  8
defaultLayer
100
AcDbFaceRecord
 10
0.0
 20
0.0
 30
0.0
 70
   128
 71
    42
 72
    43
 73
    54
 74
    53
  0
VERTEX
  5
CE
330
2C
100
AcDbEntity
  8
defaultLayer
100
AcDbFaceRecord
 10
0.0
 20
0.0
 30
0.0
 70
   128
 71
    43
 72
    44
 73
    55
 74
    54
  0
VERTEX
  5
CF
330
2C
100
AcDbEntity
  8
defaultLayer
100
AcDbFaceRecord
 10
0.0
 20
0.0
 30
0.0
 70
   128
 71
    45
 72
    46
 73
    57
 74
    56
  0
VERTEX
  5
D0
330
2C
100
AcDbEntity
  8
defaultLayer
100
AcDbFaceRecord
 10
0.0
 20
0.0
 30
0.0
 70
   128
 71
    46
 72
    47
 73
    58
 74
    57
  0
VERTEX
  5
D1
330
2C
100
AcDbEntity
  8
defaultLayer
100
AcDbFaceRecord
 10
0.0
 20
0.0
 30
0.0
 70
   128
 71
    47
 72
    48
 73
    59
 74
    58
  0
VERTEX
  5
D2
330
2C
100
AcDbEntity
  8
defaultLayer
100
AcDbFaceRecord
 10
0.0
 20
0.0
 30
0.0
 70
   128
 71
    48
 72
    49
 73
    60
 74
    59
  0
VERTEX
  5
D3
330
2C
100
AcDbEntity
  8
defaultLayer
100
AcDbFaceRecord
 10
0.0
 20
0.0
 30
0.0
 70
   128
 71
    49
 72
    50
 73
    61
 74
    60
  0
VERTEX
  5
D4
330
2C
100
AcDbEntity
  8
defaultLayer
100
AcDbFaceRecord
 10
0.0
 20
0.0
 30
0.0
 70
   128
 71
    50
 72
    51
 73
    62
 74
    61
  0
VERTEX
  5
D5
330
2C
100
AcDbEntity
  8
defaultLayer
100
AcDbFaceRecord
 10
0.0
 20
0.0
 30
0.0
 70
   128
 71
    51
 72
    52
 73
    63
 74
    62
  0
VERTEX
  5
D6
330
2C
100
AcDbEntity
  8
defaultLayer
100
AcDbFaceRecord
 10
0.0
 20
0.0
 30
0.0
 70
   128
 71
    52
 72
    53
 73
    64
 74
    63
  0
VERTEX
  5
D7
330
2C
100
AcDbEntity
  8
defaultLayer
100
AcDbFaceRecord
 10
0.0
 20
0.0
 30
0.0
 70
   128
 71
    53
 72
    54
 73
    65
 74
    64
  0
VERTEX
  5
D8
330
2C
100
AcDbEntity
  8
defaultLayer
100
AcDbFaceRecord
 10
0.0
 20
0.0
 30
0.0
 70
   128
 71
    54
 72
    55
 73
    66
 74
    65
  0
VERTEX
  5
D9
330
2C
100
AcDbEntity
  8
defaultLayer
100
AcDbFaceRecord
 10
0.0
 20
0.0
 30
0.0
 70
   128
 71
    56
 72
    57
 73
    68
 74
    67
  0
VERTEX
  5
DA
330
2C
100
AcDbEntity
  8
defaultLayer
100
AcDbFaceRecord
 10
0.0
 20
0.0
 30
0.0
 70
   128
 71
    57
 72
    58
 73
    69
 74
    68
  0
VERTEX
  5
DB
330
2C
100
AcDbEntity
  8
defaultLayer
100
AcDbFaceRecord
 10
0.0
 20
0.0
 30
0.0
 70
   128
 71
    58
 72
    59
 73
    70
 74
    69
  0
VERTEX
  5
DC
330
2C
100
AcDbEntity
  8
defaultLayer
100
AcDbFaceRecord
 10
0.0
 20
0.0
 30
0.0
 70
   128
 71
    59
 72
    60
 73
    71
 74
    70
  0
VERTEX
  5
DD
330
2C
100
AcDbEntity
  8
defaultLayer
100
AcDbFaceRecord
 10
0.0
 20
0.0
 30
0.0
 70
   128
 71
    60
 72
    61
 73
    72
 74
    71
  0
VERTEX
  5
DE
330
2C
100
AcDbEntity
  8
defaultLayer
100
AcDbFaceRecord
 10
0.0
 20
0.0
 30
0.0
 70
   128
 71
    61
 72
    62
 73
    73
 74
    72
  0
VERTEX
  5
DF
330
2C
100
AcDbEntity
  8
defaultLayer
100
AcDbFaceRecord
 10
0.0
 20
0.0
 30
0.0
 70
   128
 71
    62
 72
    63
 73
    74
 74
    73
  0
VERTEX
  5
E0
330
2C
100
AcDbEntity
  8
defaultLayer
100
AcDbFaceRecord
 10
0.0
 20
0.0
 30
0.0
 70
   128
 71
    63
 72
    64
 73
    75
 74
    74
  0
VERTEX
  5
E1
330
2C
100
AcDbEntity
  8
defaultLayer
100
AcDbFaceRecord
 10
0.0
 20
0.0
 30
0.0
 70
   128
 71
    64
 72
    65
 73
    76
 74
    75
  0
VERTEX
  5
E2
330
2C
100
AcDbEntity
  8
defaultLayer
100
AcDbFaceRecord
 10
0.0
 20
0.0
 30
0.0
 70
   128
 71
    65
 72
    66
 73
    77
 74
    76
  0
VERTEX
  5
E3
330
2C
100
AcDbEntity
  8
defaultLayer
100
AcDbFaceRecord
 10
0.0
 20
0.0
 30
0.0
 70
   128
 71
    67
 72
    68
 73
    79
 74
    78
  0
VERTEX
  5
E4
330
2C
100
AcDbEntity
  8
defaultLayer
100
AcDbFaceRecord
 10
0.0
 20
0.0
 30
0.0
 70
   128
 71
    68
 72
    69
 73
    80
 74
    79
  0
VERTEX
  5
E5
330
2C
100
AcDbEntity
  8
defaultLayer
100
AcDbFaceRecord
 10
0.0
 20
0.0
 30
0.0
 70
   128
 71
    69
 72
    70
 73
    81
 74
    80
  0
VERTEX
  5
E6
330
2C
100
AcDbEntity
  8
defaultLayer
100
AcDbFaceRecord
 10
0.0
 20
0.0
 30
0.0
 70
   128
 71
    70
 72
    71
 73
    82
 74
    81
  0
VERTEX
  5
E7
330
2C
100
AcDbEntity
  8
defaultLayer
100
AcDbFaceRecord
 10
0.0
 20
0.0
 30
0.0
 70
   128
 71
    71
 72
    72
 73
    83
 74
    82
  0
VERTEX
  5
E8
330
2C
100
AcDbEntity
  8
defaultLayer
100
AcDbFaceRecord
 10
0.0
 20
0.0
 30
0.0
 70
   128
 71
    72
 72
    73
 73
    84
 74
    83
  0
VERTEX
  5
E9
330
2C
100
AcDbEntity
  8
defaultLayer
100
AcDbFaceRecord
 10
0.0
 20
0.0
 30
0.0
 70
   128
 71
    73
 72
    74
 73
    85
 74
    84
  0
VERTEX
  5
EA
330
2C
100
AcDbEntity
  8
defaultLayer
100
AcDbFaceRecord
 10
0.0
 20
0.0
 30
0.0
 70
   128
 71
    74
 72
    75
 73
    86
 74
    85
  0
VERTEX
  5
EB
330
2C
100
AcDbEntity
  8
defaultLayer
100
AcDbFaceRecord
 10
0.0
 20
0.0
 30
0.0
 70
   128
 71
    75
 72
    76
 73
    87
 74
    86
  0
VERTEX
  5
EC
330
2C
100
AcDbEntity
  8
defaultLayer
100
AcDbFaceRecord
 10
0.0
 20
0.0
 30
0.0
 70
   128
 71
    76
 72
    77
 73
    88
 74
    87
  0
VERTEX
  5
ED
330
2C
100
AcDbEntity
  8
defaultLayer
100
AcDbFaceRecord
 10
0.0
 20
0.0
 30
0.0
 70
   128
 71
    78
 72
    79
 73
    90
 74
    89
  0
VERTEX
  5
EE
330
2C
100
AcDbEntity
  8
defaultLayer
100
AcDbFaceRecord
 10
0.0
 20
0.0
 30
0.0
 70
   128
 71
    79
 72
    80
 73
    91
 74
    90
  0
VERTEX
  5
EF
330
2C
100
AcDbEntity
  8
defaultLayer
100
AcDbFaceRecord
 10
0.0
 20
0.0
 30
0.0
 70
   128
 71
    80
 72
    81
 73
    92
 74
    91
  0
VERTEX
  5
F0
330
2C
100
AcDbEntity
  8
defaultLayer
100
AcDbFaceRecord
 10
0.0
 20
0.0
 30
0.0
 70
   128
 71
    81
 72
    82
 73
    93
 74
    92
  0
VERTEX
  5
F1
330
2C
100
AcDbEntity
  8
defaultLayer
100
AcDbFaceRecord
 10
0.0
 20
0.0
 30
0.0
 70
   128
 71
    82
 72
    83
 73
    94
 74
    93
  0
VERTEX
  5
F2
330
2C
100
AcDbEntity
  8
defaultLayer
100
AcDbFaceRecord
 10
0.0
 20
0.0
 30
0.0
 70
   128
 71
    83
 72
    84
 73
    95
 74
    94
  0
VERTEX
  5
F3
330
2C
100
AcDbEntity
  8
defaultLayer
100
AcDbFaceRecord
 10
0.0
 20
0.0
 30
0.0
 70
   128
 71
    84
 72
    85
 73
    96
 74
    95
  0
VERTEX
  5
F4
330
2C
100
AcDbEntity
  8
defaultLayer
100
AcDbFaceRecord
 10
0.0
 20
0.0
 30
0.0
 70
   128
 71
    85
 72
    86
 73
    97
 74
    96
  0
VERTEX
  5
F5
330
2C
100
AcDbEntity
  8
defaultLayer
100
AcDbFaceRecord
 10
0.0
 20
0.0
 30
0.0
 70
   128
 71
    86
 72
    87
 73
    98
 74
    97
  0
VERTEX
  5
F6
330
2C
100
AcDbEntity
  8
defaultLayer
100
AcDbFaceRecord
 10
0.0
 20
0.0
 30
0.0
 70
   128
 71
    87
 72
    88
 73
    99
 74
    98
  0
VERTEX
  5
F7
330
2C
100
AcDbEntity
  8
defaultLayer
100
AcDbFaceRecord
 10
0.0
 20
0.0
 30
0.0
 70
   128
 71
    89
 72
    90
 73
   101
 74
   100
  0
VERTEX
  5
F8
330
2C
100
AcDbEntity
  8
defaultLayer
100
AcDbFaceRecord
 10
0.0
 20
0.0
 30
0.0
 70
   128
 71
    90
 72
    91
 73
   102
 74
   101
  0
VERTEX
  5
F9
330
2C
100
AcDbEntity
  8
defaultLayer
100
AcDbFaceRecord
 10
0.0
 20
0.0
 30
0.0
 70
   128
 71
    91
 72
    92
 73
   103
 74
   102
  0
VERTEX
  5
FA
330
2C
100
AcDbEntity
  8
defaultLayer
100
AcDbFaceRecord
 10
0.0
 20
0.0
 30
0.0
 70
   128
 71
    92
 72
    93
 73
   104
 74
   103
  0
VERTEX
  5
FB
330
2C
100
AcDbEntity
  8
defaultLayer
100
AcDbFaceRecord
 10
0.0
 20
0.0
 30
0.0
 70
   128
 71
    93
 72
    94
 73
   105
 74
   104
  0
VERTEX
  5
FC
330
2C
100
AcDbEntity
  8
defaultLayer
100
AcDbFaceRecord
 10
0.0
 20
0.0
 30
0.0
 70
   128
 71
    94
 72
    95
 73
   106
 74
   105
  0
VERTEX
  5
FD
330
2C
100
AcDbEntity
  8
defaultLayer
100
AcDbFaceRecord
 10
0.0
 20
0.0
 30
0.0
 70
   128
 71
    95
 72
    96
 73
   107
 74
   106
  0
VERTEX
  5
FE
330
2C
100
AcDbEntity
  8
defaultLayer
100
AcDbFaceRecord
 10
0.0
 20
0.0
 30
0.0
 70
   128
 71
    96
 72
    97
 73
   108
 74
   107
  0
VERTEX
  5
FF
330
2C
100
AcDbEntity
  8
defaultLayer
100
AcDbFaceRecord
 10
0.0
 20
0.0
 30
0.0
 70
   128
 71
    97
 72
    98
 73
   109
 74
   108
  0
VERTEX
  5
100
330
2C
100
AcDbEntity
  8
defaultLayer
100
AcDbFaceRecord
 10
0.0
 20
0.0
 30
0.0
 70
   128
 71
    98
 72
    99
 73
   110
 74
   109
  0
VERTEX
  5
101
330
2C
100
AcDbEntity
  8
defaultLayer
100
AcDbFaceRecord
 10
0.0
 20
0.0
 30
0.0
 70
   128
 71
   100
 72
   101
 73
   112
 74
   111
  0
VERTEX
  5
102
330
2C
100
AcDbEntity
  8
defaultLayer
100
AcDbFaceRecord
 10
0.0
 20
0.0
 30
0.0
 70
   128
 71
   101
 72
   102
 73
   113
 74
   112
  0
VERTEX
  5
103
330
2C
100
AcDbEntity
  8
defaultLayer
100
AcDbFaceRecord
 10
0.0
 20
0.0
 30
0.0
 70
   128
 71
   102
 72
   103
 73
   114
 74
   113
  0
VERTEX
  5
104
330
2C
100
AcDbEntity
  8
defaultLayer
100
AcDbFaceRecord
 10
0.0
 20
0.0
 30
0.0
 70
   128
 71
   103
 72
   104
 73
   115
 74
   114
  0
VERTEX
  5
105
330
2C
100
AcDbEntity
  8
defaultLayer
100
AcDbFaceRecord
 10
0.0
 20
0.0
 30
0.0
 70
   128
 71
   104
 72
   105
 73
   116
 74
   115
  0
VERTEX
  5
106
330
2C
100
AcDbEntity
  8
defaultLayer
100
AcDbFaceRecord
 10
0.0
 20
0.0
 30
0.0
 70
   128
 71
   105
 72
   106
 73
   117
 74
   116
  0
VERTEX
  5
107
330
2C
100
AcDbEntity
  8
defaultLayer
100
AcDbFaceRecord
 10
0.0
 20
0.0
 30
0.0
 70
   128
 71
   106
 72
   107
 73
   118
 74
   117
  0
VERTEX
  5
108
330
2C
100
AcDbEntity
  8
defaultLayer
100
AcDbFaceRecord
 10
0.0
 20
0.0
 30
0.0
 70
   128
 71
   107
 72
   108
 73
   119
 74
   118
  0
VERTEX
  5
109
330
2C
100
AcDbEntity
  8
defaultLayer
100
AcDbFaceRecord
 10
0.0
 20
0.0
 30
0.0
 70
   128
 71
   108
 72
   109
 73
   120
 74
   119
  0
VERTEX
  5
10A
330
2C
100
AcDbEntity
  8
defaultLayer
100
AcDbFaceRecord
 10
0.0
 20
0.0
 30
0.0
 70
   128
 71
   109
 72
   110
 73
   121
 74
   120
  0
SEQEND
  5
10B
330
2C
100
AcDbEntity
  8
defaultLayer
 62
     7
  0
POLYLINE
  5
10C
330
1F
100
AcDbEntity
  8
defaultLayer
 62
     7
100
AcDbPolyFaceMesh
 66
     1
 10
0.0
 20
0.0
 30
0.0
 70
    64
 71
     8
 72
     6
1001
ODA
1000
pCubeShape1
  0
VERTEX
  5
10D
330
10C
100
AcDbEntity
  8
defaultLayer
100
AcDbVertex
100
AcDbPolyFaceMeshVertex
 10
0.1836588978767395
 20
0.3744498491287231
 30
6.865930557250977
 70
   192
  0
VERTEX
  5
10E
330
10C
100
AcDbEntity
  8
defaultLayer
100
AcDbVertex
100
AcDbPolyFaceMeshVertex
 10
2.208206653594971
 20
0.3744498491287231
 30
6.865930557250977
 70
   192
  0
VERTEX
  5
10F
330
10C
100
AcDbEntity
  8
defaultLayer
100
AcDbVertex
100
AcDbPolyFaceMeshVertex
 10
0.1836588978767395
 20
2.39899730682373
 30
6.865930557250977
 70
   192
  0
VERTEX
  5
110
330
10C
100
AcDbEntity
  8
defaultLayer
100
AcDbVertex
100
AcDbPolyFaceMeshVertex
 10
2.208206653594971
 20
2.39899730682373
 30
6.865930557250977
 70
   192
  0
VERTEX
  5
111
330
10C
100
AcDbEntity
  8
defaultLayer
100
AcDbVertex
100
AcDbPolyFaceMeshVertex
 10
0.1836588978767395
 20
2.39899730682373
 30
4.84138298034668
 70
   192
  0
VERTEX
  5
112
330
10C
100
AcDbEntity
  8
defaultLayer
100
AcDbVertex
100
AcDbPolyFaceMeshVertex
 10
2.208206653594971
 20
2.39899730682373
 30
4.84138298034668
 70
   192
  0
VERTEX
  5
113
330
10C
100
AcDbEntity
  8
defaultLayer
100
AcDbVertex
100
AcDbPolyFaceMeshVertex
 10
0.1836588978767395
 20
0.3744498491287231
 30
4.84138298034668
 70
   192
  0
VERTEX
  5
114
330
10C
100
AcDbEntity
  8
defaultLayer
100
AcDbVertex
100
AcDbPolyFaceMeshVertex
 10
2.208206653594971
 20
0.3744498491287231
 30
4.84138298034668
 70
   192
  0
VERTEX
  5
115
330
10C
100
AcDbEntity
  8
defaultLayer
100
AcDbFaceRecord
 10
0.0
 20
0.0
 30
0.0
 70
   128
 71
     1
 72
     2
 73
     4
 74
     3
  0
VERTEX
  5
116
330
10C
100
AcDbEntity
  8
defaultLayer
100
AcDbFaceRecord
 10
0.0
 20
0.0
 30
0.0
 70
   128
 71
     3
 72
     4
 73
     6
 74
     5
  0
VERTEX
  5
117
330
10C
100
AcDbEntity
  8
defaultLayer
100
AcDbFaceRecord
 10
0.0
 20
0.0
 30
0.0
 70
   128
 71
     5
 72
     6
 73
     8
 74
     7
  0
VERTEX
  5
118
330
10C
100
AcDbEntity
  8
defaultLayer
100
AcDbFaceRecord
 10
0.0
 20
0.0
 30
0.0
 70
   128
 71
     7
 72
     8
 73
     2
 74
     1
  0
VERTEX
  5
119
330
10C
100
AcDbEntity
  8
defaultLayer
100
AcDbFaceRecord
 10
0.0
 20
0.0
 30
0.0
 70
   128
 71
     2
 72
     8
 73
     6
 74
     4
  0
VERTEX
  5
11A
330
10C
100
AcDbEntity
  8
defaultLayer
100
AcDbFaceRecord
 10
0.0
 20
0.0
 30
0.0
 70
   128
 71
     7
 72
     1
 73
     3
 74
     5
  0
SEQEND
  5
11B
330
10C
100
AcDbEntity
  8
defaultLayer
 62
     7
  0
POLYLINE
  5
11C
330
1F
100
AcDbEntity
  8
defaultLayer
 62
     7
100
AcDbPolyFaceMesh
 66
     1
 10
0.0
 20
0.0
 30
0.0
 70
    64
 71
    24
 72
    26
1001
ODA
1000
pCubeShape2
  0
VERTEX
  5
11D
330
11C
100
AcDbEntity
  8
defaultLayer
100
AcDbVertex
100
AcDbPolyFaceMeshVertex
 10
0.1836588978767395
 20
2.398996591567993
 30
0.1640441119670868
 70
   192
  0
VERTEX
  5
11E
330
11C
100
AcDbEntity
  8
defaultLayer
100
AcDbVertex
100
AcDbPolyFaceMeshVertex
 10
2.208205699920654
 20
2.398996591567993
 30
0.1640441119670868
 70
   192
  0
VERTEX
  5
11F
330
11C
100
AcDbEntity
  8
defaultLayer
100
AcDbVertex
100
AcDbPolyFaceMeshVertex
 10
0.1836588978767395
 20
0.3744498491287231
 30
0.1640441119670868
 70
   192
  0
VERTEX
  5
120
330
11C
100
AcDbEntity
  8
defaultLayer
100
AcDbVertex
100
AcDbPolyFaceMeshVertex
 10
2.208205699920654
 20
0.3744498491287231
 30
0.1640441119670868
 70
   192
  0
VERTEX
  5
121
330
11C
100
AcDbEntity
  8
defaultLayer
100
AcDbVertex
100
AcDbPolyFaceMeshVertex
 10
0.1836588978767395
 20
2.398996591567993
 30
-0.2130768895149231
 70
   192
  0
VERTEX
  5
122
330
11C
100
AcDbEntity
  8
defaultLayer
100
AcDbVertex
100
AcDbPolyFaceMeshVertex
 10
2.208205699920654
 20
2.398996591567993
 30
-0.2130768895149231
 70
   192
  0
VERTEX
  5
123
330
11C
100
AcDbEntity
  8
defaultLayer
100
AcDbVertex
100
AcDbPolyFaceMeshVertex
 10
2.208205699920654
 20
0.3744498491287231
 30
-0.2130768895149231
 70
   192
  0
VERTEX
  5
124
330
11C
100
AcDbEntity
  8
defaultLayer
100
AcDbVertex
100
AcDbPolyFaceMeshVertex
 10
0.1836588978767395
 20
0.3744498491287231
 30
-0.2130768895149231
 70
   192
  0
VERTEX
  5
125
330
11C
100
AcDbEntity
  8
defaultLayer
100
AcDbVertex
100
AcDbPolyFaceMeshVertex
 10
0.1836588978767395
 20
0.3744498491287231
 30
1.944419026374817
 70
   192
  0
VERTEX
  5
126
330
11C
100
AcDbEntity
  8
defaultLayer
100
AcDbVertex
100
AcDbPolyFaceMeshVertex
 10
0.3860933184623718
 20
0.3744498491287231
 30
2.14685320854187
 70
   192
  0
VERTEX
  5
127
330
11C
100
AcDbEntity
  8
defaultLayer
100
AcDbVertex
100
AcDbPolyFaceMeshVertex
 10
0.1836588978767395
 20
2.398996591567993
 30
1.944419026374817
 70
   192
  0
VERTEX
  5
128
330
11C
100
AcDbEntity
  8
defaultLayer
100
AcDbVertex
100
AcDbPolyFaceMeshVertex
 10
0.3860933184623718
 20
2.398996591567993
 30
2.14685320854187
 70
   192
  0
VERTEX
  5
129
330
11C
100
AcDbEntity
  8
defaultLayer
100
AcDbVertex
100
AcDbPolyFaceMeshVertex
 10
2.208205699920654
 20
0.3744498491287231
 30
1.944419026374817
 70
   192
  0
VERTEX
  5
12A
330
11C
100
AcDbEntity
  8
defaultLayer
100
AcDbVertex
100
AcDbPolyFaceMeshVertex
 10
2.005771160125732
 20
0.3744498491287231
 30
2.14685320854187
 70
   192
  0
VERTEX
  5
12B
330
11C
100
AcDbEntity
  8
defaultLayer
100
AcDbVertex
100
AcDbPolyFaceMeshVertex
 10
2.208205699920654
 20
2.398996591567993
 30
1.944419026374817
 70
   192
  0
VERTEX
  5
12C
330
11C
100
AcDbEntity
  8
defaultLayer
100
AcDbVertex
100
AcDbPolyFaceMeshVertex
 10
2.005771160125732
 20
2.398996591567993
 30
2.14685320854187
 70
   192
  0
VERTEX
  5
12D
330
11C
100
AcDbEntity
  8
defaultLayer
100
AcDbVertex
100
AcDbPolyFaceMeshVertex
 10
2.005771160125732
 20
2.398996591567993
 30
-2.17978572845459
 70
   192
  0
VERTEX
  5
12E
330
11C
100
AcDbEntity
  8
defaultLayer
100
AcDbVertex
100
AcDbPolyFaceMeshVertex
 10
2.208205699920654
 20
2.398996591567993
 30
-1.977351307868958
 70
   192
  0
VERTEX
  5
12F
330
11C
100
AcDbEntity
  8
defaultLayer
100
AcDbVertex
100
AcDbPolyFaceMeshVertex
 10
2.005771160125732
 20
0.3744498491287231
 30
-2.17978572845459
 70
   192
  0
VERTEX
  5
130
330
11C
100
AcDbEntity
  8
defaultLayer
100
AcDbVertex
100
AcDbPolyFaceMeshVertex
 10
2.208205699920654
 20
0.3744498491287231
 30
-1.977351307868958
 70
   192
  0
VERTEX
  5
131
330
11C
100
AcDbEntity
  8
defaultLayer
100
AcDbVertex
100
AcDbPolyFaceMeshVertex
 10
0.1836588978767395
 20
2.398996591567993
 30
-1.977351307868958
 70
   192
  0
VERTEX
  5
132
330
11C
100
AcDbEntity
  8
defaultLayer
100
AcDbVertex
100
AcDbPolyFaceMeshVertex
 10
0.3860933184623718
 20
2.398996591567993
 30
-2.17978572845459
 70
   192
  0
VERTEX
  5
133
330
11C
100
AcDbEntity
  8
defaultLayer
100
AcDbVertex
100
AcDbPolyFaceMeshVertex
 10
0.3860933184623718
 20
0.3744498491287231
 30
-2.17978572845459
 70
   192
  0
VERTEX
  5
134
330
11C
100
AcDbEntity
  8
defaultLayer
100
AcDbVertex
100
AcDbPolyFaceMeshVertex
 10
0.1836588978767395
 20
0.3744498491287231
 30
-1.977351307868958
 70
   192
  0
VERTEX
  5
135
330
11C
100
AcDbEntity
  8
defaultLayer
100
AcDbFaceRecord
 10
0.0
 20
0.0
 30
0.0
 70
   128
 71
    12
 72
    10
 73
    14
 74
    16
  0
VERTEX
  5
136
330
11C
100
AcDbEntity
  8
defaultLayer
100
AcDbFaceRecord
 10
0.0
 20
0.0
 30
0.0
 70
   128
 71
    23
 72
    22
 73
    17
 74
    19
  0
VERTEX
  5
137
330
11C
100
AcDbEntity
  8
defaultLayer
100
AcDbFaceRecord
 10
0.0
 20
0.0
 30
0.0
 70
   128
 71
     3
 72
     4
 73
    13
 74
   -14
  0
VERTEX
  5
138
330
11C
100
AcDbEntity
  8
defaultLayer
100
AcDbFaceRecord
 10
0.0
 20
0.0
 30
0.0
 70
   128
 71
    -3
 72
    14
 73
   -10
 74
    -3
  0
VERTEX
  5
139
330
11C
100
AcDbEntity
  8
defaultLayer
100
AcDbFaceRecord
 10
0.0
 20
0.0
 30
0.0
 70
   128
 71
    -3
 72
    10
 73
     9
 74
    -3
  0
VERTEX
  5
13A
330
11C
100
AcDbEntity
  8
defaultLayer
100
AcDbFaceRecord
 10
0.0
 20
0.0
 30
0.0
 70
   128
 71
    15
 72
    13
 73
     4
 74
     2
  0
VERTEX
  5
13B
330
11C
100
AcDbEntity
  8
defaultLayer
100
AcDbFaceRecord
 10
0.0
 20
0.0
 30
0.0
 70
   128
 71
     3
 72
     9
 73
    11
 74
     1
  0
VERTEX
  5
13C
330
11C
100
AcDbEntity
  8
defaultLayer
100
AcDbFaceRecord
 10
0.0
 20
0.0
 30
0.0
 70
   128
 71
     1
 72
     2
 73
     6
 74
     5
  0
VERTEX
  5
13D
330
11C
100
AcDbEntity
  8
defaultLayer
100
AcDbFaceRecord
 10
0.0
 20
0.0
 30
0.0
 70
   128
 71
     2
 72
     4
 73
     7
 74
     6
  0
VERTEX
  5
13E
330
11C
100
AcDbEntity
  8
defaultLayer
100
AcDbFaceRecord
 10
0.0
 20
0.0
 30
0.0
 70
   128
 71
     4
 72
     3
 73
     8
 74
     7
  0
VERTEX
  5
13F
330
11C
100
AcDbEntity
  8
defaultLayer
100
AcDbFaceRecord
 10
0.0
 20
0.0
 30
0.0
 70
   128
 71
     3
 72
     1
 73
     5
 74
     8
  0
VERTEX
  5
140
330
11C
100
AcDbEntity
  8
defaultLayer
100
AcDbFaceRecord
 10
0.0
 20
0.0
 30
0.0
 70
   128
 71
     5
 72
     6
 73
    18
 74
   -17
  0
VERTEX
  5
141
330
11C
100
AcDbEntity
  8
defaultLayer
100
AcDbFaceRecord
 10
0.0
 20
0.0
 30
0.0
 70
   128
 71
    -5
 72
    17
 73
   -22
 74
    -5
  0
VERTEX
  5
142
330
11C
100
AcDbEntity
  8
defaultLayer
100
AcDbFaceRecord
 10
0.0
 20
0.0
 30
0.0
 70
   128
 71
    -5
 72
    22
 73
    21
 74
    -5
  0
VERTEX
  5
143
330
11C
100
AcDbEntity
  8
defaultLayer
100
AcDbFaceRecord
 10
0.0
 20
0.0
 30
0.0
 70
   128
 71
     6
 72
     7
 73
    20
 74
    18
  0
VERTEX
  5
144
330
11C
100
AcDbEntity
  8
defaultLayer
100
AcDbFaceRecord
 10
0.0
 20
0.0
 30
0.0
 70
   128
 71
     7
 72
     8
 73
    24
 74
   -23
  0
VERTEX
  5
145
330
11C
100
AcDbEntity
  8
defaultLayer
100
AcDbFaceRecord
 10
0.0
 20
0.0
 30
0.0
 70
   128
 71
    -7
 72
    23
 73
   -19
 74
    -7
  0
VERTEX
  5
146
330
11C
100
AcDbEntity
  8
defaultLayer
100
AcDbFaceRecord
 10
0.0
 20
0.0
 30
0.0
 70
   128
 71
    -7
 72
    19
 73
    20
 74
    -7
  0
VERTEX
  5
147
330
11C
100
AcDbEntity
  8
defaultLayer
100
AcDbFaceRecord
 10
0.0
 20
0.0
 30
0.0
 70
   128
 71
     8
 72
     5
 73
    21
 74
    24
  0
VERTEX
  5
148
330
11C
100
AcDbEntity
  8
defaultLayer
100
AcDbFaceRecord
 10
0.0
 20
0.0
 30
0.0
 70
   128
 71
    11
 72
    12
 73
    16
 74
   -15
  0
VERTEX
  5
149
330
11C
100
AcDbEntity
  8
defaultLayer
100
AcDbFaceRecord
 10
0.0
 20
0.0
 30
0.0
 70
   128
 71
   -11
 72
    15
 73
    -2
 74
   -11
  0
VERTEX
  5
14A
330
11C
100
AcDbEntity
  8
defaultLayer
100
AcDbFaceRecord
 10
0.0
 20
0.0
 30
0.0
 70
   128
 71
   -11
 72
     2
 73
     1
 74
   -11
  0
VERTEX
  5
14B
330
11C
100
AcDbEntity
  8
defaultLayer
100
AcDbFaceRecord
 10
0.0
 20
0.0
 30
0.0
 70
   128
 71
     9
 72
    10
 73
    12
 74
    11
  0
VERTEX
  5
14C
330
11C
100
AcDbEntity
  8
defaultLayer
100
AcDbFaceRecord
 10
0.0
 20
0.0
 30
0.0
 70
   128
 71
    14
 72
    13
 73
    15
 74
    16
  0
VERTEX
  5
14D
330
11C
100
AcDbEntity
  8
defaultLayer
100
AcDbFaceRecord
 10
0.0
 20
0.0
 30
0.0
 70
   128
 71
    17
 72
    18
 73
    20
 74
    19
  0
VERTEX
  5
14E
330
11C
100
AcDbEntity
  8
defaultLayer
100
AcDbFaceRecord
 10
0.0
 20
0.0
 30
0.0
 70
   128
 71
    21
 72
    22
 73
    23
 74
    24
  0
SEQEND
  5
14F
330
11C
100
AcDbEntity
  8
defaultLayer
 62
     7
  0
ENDSEC
  0
SECTION
  2
OBJECTS
  0
DICTIONARY
  5
C
330
0
100
AcDbDictionary
281
     1
  3
ACAD_GROUP
350
D
  3
ACAD_LAYOUT
350
1A
  3
ACAD_MLINESTYLE
350
17
  3
ACAD_PLOTSETTINGS
350
19
  3
ACAD_PLOTSTYLENAME
350
E
  0
DICTIONARY
  5
D
102
{ACAD_REACTORS
330
C
102
}
330
C
100
AcDbDictionary
281
     1
  3
lambert2SG
350
2D
  0
DICTIONARY
  5
1A
102
{ACAD_REACTORS
330
C
102
}
330
C
100
AcDbDictionary
281
     1
  3
Layout1
350
1E
  3
Layout2
350
26
  3
Model
350
22
  0
DICTIONARY
  5
17
102
{ACAD_REACTORS
330
C
102
}
330
C
100
AcDbDictionary
281
     1
  3
Standard
350
18
  0
DICTIONARY
  5
19
102
{ACAD_REACTORS
330
C
102
}
330
C
100
AcDbDictionary
281
     1
  0
ACDBDICTIONARYWDFLT
  5
E
102
{ACAD_REACTORS
330
C
102
}
330
C
100
AcDbDictionary
281
     1
  3
Normal
350
F
100
AcDbDictionaryWithDefault
340
F
  0
GROUP
  5
2D
102
{ACAD_REACTORS
330
D
102
}
330
D
100
AcDbGroup
300

 70
     0
 71
     1
  0
LAYOUT
  5
1E
102
{ACAD_REACTORS
330
1A
102
}
330
1A
100
AcDbPlotSettings
  1

  2

  4

  6

 40
0.0
 41
0.0
 42
0.0
 43
0.0
 44
0.0
 45
0.0
 46
0.0
 47
0.0
 48
0.0
 49
0.0
140
0.0
141
0.0
142
1.0
143
1.0
 70
   688
 72
     0
 73
     0
 74
     5
  7

 75
    16
 76
     0
 77
     2
 78
   300
147
1.0
148
0.0
149
0.0
100
AcDbLayout
  1
Layout1
 70
     1
 71
     1
 10
0.0
 20
0.0
 11
12.0
 21
9.0
 12
0.0
 22
0.0
 32
0.0
 14
1.000000000000000E+20
 24
1.000000000000000E+20
 34
1.000000000000000E+20
 15
-1.000000000000000E+20
 25
-1.000000000000000E+20
 35
-1.000000000000000E+20
146
0.0
 13
0.0
 23
0.0
 33
0.0
 16
1.0
 26
0.0
 36
0.0
 17
0.0
 27
1.0
 37
0.0
 76
     0
330
1B
  0
LAYOUT
  5
26
102
{ACAD_REACTORS
330
1A
102
}
330
1A
100
AcDbPlotSettings
  1

  2

  4

  6

 40
0.0
 41
0.0
 42
0.0
 43
0.0
 44
0.0
 45
0.0
 46
0.0
 47
0.0
 48
0.0
 49
0.0
140
0.0
141
0.0
142
1.0
143
1.0
 70
   688
 72
     0
 73
     0
 74
     5
  7

 75
    16
 76
     0
 77
     2
 78
   300
147
1.0
148
0.0
149
0.0
100
AcDbLayout
  1
Layout2
 70
     1
 71
     2
 10
0.0
 20
0.0
 11
0.0
 21
0.0
 12
0.0
 22
0.0
 32
0.0
 14
0.0
 24
0.0
 34
0.0
 15
0.0
 25
0.0
 35
0.0
146
0.0
 13
0.0
 23
0.0
 33
0.0
 16
1.0
 26
0.0
 36
0.0
 17
0.0
 27
1.0
 37
0.0
 76
     0
330
23
  0
LAYOUT
  5
22
102
{ACAD_REACTORS
330
1A
102
}
330
1A
100
AcDbPlotSettings
  1

  2

  4

  6

 40
0.0
 41
0.0
 42
0.0
 43
0.0
 44
0.0
 45
0.0
 46
0.0
 47
0.0
 48
0.0
 49
0.0
140
0.0
141
0.0
142
1.0
143
1.0
 70
  1712
 72
     0
 73
     0
 74
     0
  7

 75
     0
 76
     0
 77
     2
 78
   300
147
1.0
148
0.0
149
0.0
100
AcDbLayout
  1
Model
 70
     1
 71
     0
 10
0.0
 20
0.0
 11
0.0
 21
0.0
 12
0.0
 22
0.0
 32
0.0
 14
0.0
 24
0.0
 34
0.0
 15
0.0
 25
0.0
 35
0.0
146
0.0
 13
0.0
 23
0.0
 33
0.0
 16
1.0
 26
0.0
 36
0.0
 17
0.0
 27
1.0
 37
0.0
 76
     0
330
1F
  0
MLINESTYLE
  5
18
102
{ACAD_REACTORS
330
17
102
}
330
17
100
AcDbMlineStyle
  2
Standard
 70
     0
  3

 62
   256
 51
90.0
 52
90.0
 71
     2
 49
0.5
 62
   256
  6
BYLAYER
 49
-0.5
 62
   256
  6
BYLAYER
  0
ACDBPLACEHOLDER
  5
F
102
{ACAD_REACTORS
330
E
102
}
330
E
  0
ENDSEC
  0
EOF
