# 3ds Max Wavefront OBJ Exporter v0.97b - (c)2007 guruware
# File Created: 03.03.2013 01:32:46

mtllib TileCorner.mtl

#
# object BaseBlock003
#

v  -96.0495 213.5390 -511.5895
v  -505.9902 213.5390 -511.5895
v  -505.9902 213.5390 511.1565
v  -96.0495 213.5390 511.1565
v  -96.0495 213.5390 407.5180
v  -96.0495 213.5390 387.5180
v  -96.0495 213.5390 293.8796
v  -96.0495 213.5390 273.8796
v  -96.0495 213.5390 180.2411
v  -96.0495 213.5390 160.2411
v  -96.0495 213.5390 97.8034
v  -96.0495 213.5390 -92.8911
v  -505.9902 0.0000 511.1565
v  -96.0495 0.0000 511.1565
v  -96.0495 0.0000 -511.5895
v  -505.9902 0.0000 -511.5895
v  92.9448 213.5390 407.5181
v  92.9448 213.5390 511.1565
v  507.2919 213.5390 511.1565
v  92.9448 213.5390 387.5181
v  92.9448 213.5390 293.8796
v  507.2919 213.5390 97.0388
v  92.9448 213.5390 97.0388
v  92.9448 213.5390 160.2412
v  92.9448 213.5390 180.2412
v  92.9448 213.5390 273.8796
v  92.9448 0.0000 511.1565
v  507.2919 0.0000 511.1565
v  507.2919 0.0000 97.0388
v  92.9448 0.0000 97.0388
v  92.9448 0.0000 407.5181
v  83.1150 0.0000 407.5181
v  -86.2817 0.0000 407.5180
v  -96.0495 0.0000 407.5180
v  83.1313 0.0000 387.5181
v  92.9448 0.0000 387.5181
v  92.9448 0.0000 293.8796
v  -86.3183 0.0000 387.5180
v  -96.0495 0.0000 387.5180
v  83.1835 0.0000 293.8796
v  -86.3179 0.0000 293.8796
v  -96.0495 0.0000 293.8796
v  83.1233 0.0000 273.8796
v  92.9448 0.0000 273.8796
v  92.9448 0.0000 180.2412
v  -86.3545 0.0000 273.8796
v  -96.0495 0.0000 273.8796
v  83.1805 0.0000 180.2412
v  -86.2735 0.0000 180.2411
v  -96.0495 0.0000 180.2411
v  83.2238 0.0000 160.2412
v  92.9448 0.0000 160.2412
v  -86.2735 0.0000 160.2411
v  -96.0495 0.0000 160.2411
v  -96.0495 0.0000 97.1391
v  83.1912 212.5386 407.5346
v  83.1912 212.5386 387.4827
v  83.1912 212.5386 293.9051
v  83.1912 212.5386 273.8531
v  83.1836 86.4750 180.2360
v  83.2142 86.4750 160.2360
v  -86.3086 212.5386 387.5178
v  -86.3086 212.5386 407.5386
v  -86.3086 212.5386 273.7884
v  -86.3086 212.5386 293.8580
v  83.1912 212.5386 160.2235
v  70.4792 117.2128 160.2342
v  83.1912 212.5386 180.2236
v  -86.2838 86.4750 160.2364
v  -86.3086 212.5386 160.2250
v  -73.5544 117.2143 160.2347
v  -86.3086 212.5386 180.2770
v  -86.2838 86.4750 180.2516
v  -73.5544 117.2142 180.2534
v  21.9296 147.7529 160.2326
v  -25.0132 147.7529 160.2328
v  21.9080 147.7529 180.2420
v  -25.0132 147.7528 180.2494
v  52.6688 135.0213 160.2332
v  70.4522 117.2137 180.2362
v  52.6462 135.0203 180.2379
v  -55.7509 135.0198 180.2527
v  -55.7509 135.0198 160.2336
v  -96.0495 0.0000 -93.1788
v  92.9448 0.0000 -93.2791
v  507.5926 213.5390 -511.5895
v  507.5926 0.0000 -511.5895
v  507.5926 213.5390 -92.8911
v  507.5123 0.0000 -93.1788
# 89 vertices

vn 0.0000 1.0000 -0.0000
vn 0.0000 0.0000 -0.0000
vn 0.0000 0.0000 1.0000
vn 0.0000 0.0000 -1.0000
vn -1.0000 0.0000 -0.0000
vn 1.0000 0.0000 -0.0000
vn -1.0000 0.0003 -0.0000
vn -1.0000 0.0004 -0.0008
vn -1.0000 0.0003 0.0002
vn -1.0000 0.0001 0.0028
vn -1.0000 0.0000 0.0030
vn -1.0000 -0.0001 -0.0021
vn -1.0000 0.0000 -0.0015
vn -1.0000 0.0000 -0.0016
vn -1.0000 -0.0001 -0.0022
vn 1.0000 -0.0000 -0.0017
vn 1.0000 -0.0000 -0.0018
vn 1.0000 0.0001 -0.0001
vn 1.0000 0.0001 -0.0000
vn 1.0000 -0.0002 -0.0017
vn 1.0000 -0.0002 -0.0018
vn 1.0000 -0.0001 -0.0001
vn 1.0000 -0.0000 -0.0000
vn 0.0036 -0.0002 -1.0000
vn 0.0000 -0.0001 1.0000
vn 0.0017 0.0000 1.0000
vn -0.1020 0.9948 -0.0000
vn 0.0027 -0.0001 -1.0000
vn 0.0026 0.0000 1.0000
vn -0.0001 -0.0001 -1.0000
vn 0.0000 -0.0000 -1.0000
vn -0.0000 0.0000 -1.0000
vn 0.1022 0.9948 -0.0000
vn -0.0021 -0.0001 1.0000
vn 0.0000 -0.0004 -1.0000
vn -0.0094 0.0000 -1.0000
vn 0.0022 0.0001 1.0000
vn -0.0000 0.0000 1.0000
vn 0.0001 -0.0001 -1.0000
vn 0.0003 -0.0002 1.0000
vn 1.0000 0.0001 0.0000
vn -0.0000 -0.0001 -1.0000
vn 0.0000 -1.0000 0.0000
vn -0.0000 -1.0000 -0.0000
vn 0.0003 -0.0001 1.0000
vn 0.0002 0.0001 1.0000
vn -0.7071 -0.7071 -0.0009
vn -0.7071 -0.7071 -0.0008
vn 0.7071 -0.7071 -0.0000
vn -0.3827 -0.9239 -0.0005
vn -0.3827 -0.9239 -0.0004
vn 0.3827 -0.9239 -0.0000
vn -0.9238 -0.3828 -0.0014
vn -0.9239 -0.3827 -0.0012
vn 0.9239 -0.3826 -0.0000
vn 0.0002 -0.0002 1.0000
vn -0.0037 0.0000 1.0000
vn -0.0000 -0.0001 1.0000
vn 0.0007 -0.0002 1.0000
vn -0.0000 0.0001 1.0000
vn 0.0003 0.0001 1.0000
vn -0.0018 0.0000 1.0000
vn 0.0000 -0.0001 -1.0000
vn -0.0017 0.0000 -1.0000
vn 0.4164 0.0000 -0.9092
vn 0.0013 -0.0001 -1.0000
vn 0.0018 -0.0001 -1.0000
vn 0.0000 -0.0013 1.0000
vn 1.0000 -0.0004 -0.0000
vn 1.0000 0.0000 0.0002
# 70 vertex normals

vt 9.7726 4.2439 0.0000
vt 9.7726 7.0807 0.0000
vt 0.0807 7.0807 0.0000
vt 0.0807 4.2439 0.0000
vt 1.0628 4.2439 0.0000
vt 1.2524 4.2439 0.0000
vt 2.1397 4.2439 0.0000
vt 2.3292 4.2439 0.0000
vt 3.2166 4.2439 0.0000
vt 3.4061 4.2439 0.0000
vt 3.9978 4.2439 0.0000
vt 5.8049 4.2439 0.0000
vt 0.3525 5.1361 0.0000
vt 4.0029 5.1361 0.0000
vt 4.0029 7.0089 0.0000
vt 0.3525 7.0089 0.0000
vt 9.6105 7.0257 0.0000
vt 5.8186 7.0257 0.0000
vt 5.8186 5.1193 0.0000
vt 9.6105 5.1193 0.0000
vt 1.0628 2.9361 0.0000
vt 0.0807 2.9361 0.0000
vt 0.0807 0.0689 0.0000
vt 1.2524 2.9361 0.0000
vt 2.1397 2.9361 0.0000
vt 4.0050 0.0689 0.0000
vt 4.0050 2.9361 0.0000
vt 3.4061 2.9361 0.0000
vt 3.2166 2.9361 0.0000
vt 2.3292 2.9361 0.0000
vt 9.3755 7.0089 0.0000
vt 5.6858 7.0089 0.0000
vt 5.6858 5.1361 0.0000
vt 9.3755 5.1361 0.0000
vt 9.6057 5.1787 0.0000
vt 5.7057 5.1787 0.0000
vt 5.7057 7.1288 0.0000
vt 9.6057 7.1288 0.0000
vt 9.8104 -0.0000 0.0000
vt 9.8104 1.7993 0.0000
vt 0.0682 1.7993 0.0000
vt 0.0682 -0.0000 0.0000
vt 3.9972 5.1512 0.0000
vt 3.9972 7.0458 0.0000
vt 0.2350 7.0458 0.0000
vt 0.2350 5.1512 0.0000
vt 1.0628 3.0041 0.0000
vt 1.0628 4.1763 0.0000
vt 1.2524 3.0040 0.0000
vt 1.2524 4.1766 0.0000
vt 2.1397 3.0037 0.0000
vt 2.1397 4.1766 0.0000
vt 2.3292 3.0041 0.0000
vt 2.3292 4.1768 0.0000
vt 3.2166 3.0037 0.0000
vt 3.2166 4.1763 0.0000
vt 3.4061 3.0034 0.0000
vt 3.4061 4.1763 0.0000
vt 4.0041 4.2439 0.0000
vt 1.0648 1.8107 0.0000
vt 1.0648 0.0744 0.0000
vt 0.0868 0.0744 0.0000
vt 0.0868 1.8107 0.0000
vt 2.1373 1.8107 0.0000
vt 2.1373 0.0744 0.0000
vt 1.2536 0.0744 0.0000
vt 1.2536 1.8107 0.0000
vt 3.2097 1.8107 0.0000
vt 3.2097 0.0744 0.0000
vt 2.3260 0.0744 0.0000
vt 2.3260 1.8107 0.0000
vt 4.2821 1.8107 0.0000
vt 4.2821 0.0744 0.0000
vt 3.3984 0.0744 0.0000
vt 3.3984 1.8107 0.0000
vt 8.7542 1.8345 0.0000
vt 8.7542 3.5717 0.0000
vt 9.7322 3.5717 0.0000
vt 9.7322 1.8345 0.0000
vt 7.6818 1.8345 0.0000
vt 7.6818 3.5717 0.0000
vt 8.5655 3.5717 0.0000
vt 8.5655 1.8345 0.0000
vt 6.6094 1.8345 0.0000
vt 6.6094 3.5717 0.0000
vt 7.4931 3.5717 0.0000
vt 7.4931 1.8345 0.0000
vt 7.3838 1.8438 0.0000
vt 7.3772 3.5759 0.0000
vt 6.7511 3.5759 0.0000
vt 6.7511 1.8438 0.0000
vt 3.2097 0.5825 0.0000
vt 3.3984 0.5825 0.0000
vt 0.2850 1.8867 0.0000
vt 0.2858 3.5187 0.0000
vt 0.4290 3.5264 0.0000
vt 0.4290 1.8867 0.0000
vt 0.2847 1.8867 0.0000
vt 1.2527 3.0036 0.0000
vt 1.0627 3.0036 0.0000
vt 0.2848 1.8867 0.0000
vt 0.2857 1.8867 0.0000
vt 2.3295 3.0036 0.0000
vt 2.1395 3.0036 0.0000
vt 2.5845 1.8063 0.0000
vt 2.5848 0.7349 0.0000
vt 2.4012 0.9962 0.0000
vt 3.4063 3.0036 0.0000
vt 3.2167 3.0036 0.0000
vt 0.2431 3.5326 0.0000
vt 0.2429 1.8904 0.0000
vt 0.1099 1.8904 0.0000
vt 0.1099 3.5404 0.0000
vt 1.0626 4.1765 0.0000
vt 1.2524 4.1765 0.0000
vt 0.2434 1.8904 0.0000
vt 0.2424 1.8904 0.0000
vt 2.1399 4.1765 0.0000
vt 2.3301 4.1765 0.0000
vt 0.1408 0.7349 0.0000
vt 0.1405 1.8063 0.0000
vt 0.3244 0.9962 0.0000
vt 3.2162 4.1765 0.0000
vt 3.4063 4.1765 0.0000
vt 6.4207 1.8345 0.0000
vt 6.4207 2.3429 0.0000
vt 6.6094 2.3429 0.0000
vt 1.7011 1.2557 0.0000
vt 1.0243 1.2557 0.0000
vt 3.3984 0.9426 0.0000
vt 3.2097 0.9426 0.0000
vt 1.7008 1.2557 0.0000
vt 3.3984 0.8677 0.0000
vt 3.3984 0.7631 0.0000
vt 3.2097 0.7631 0.0000
vt 3.2097 0.8677 0.0000
vt 6.6094 2.1900 0.0000
vt 6.7507 2.5491 0.0000
vt 6.2794 2.5491 0.0000
vt 6.4207 2.1901 0.0000
vt 0.5811 1.1475 0.0000
vt 6.6094 1.9605 0.0000
vt 6.4207 1.9605 0.0000
vt 0.0000 1.8148 0.0000
vt 0.0000 0.0000 0.0000
vt 0.1410 0.0000 0.0000
vt 2.5844 0.7349 0.0000
vt 2.5843 0.0000 0.0000
vt 2.7251 0.0000 0.0000
vt 2.7251 1.8148 0.0000
vt 2.1440 1.1475 0.0000
vt 2.4008 0.9962 0.0000
vt 2.1444 1.1475 0.0000
vt 2.5849 0.0000 0.0000
vt 9.2922 1.8438 0.0000
vt 9.2893 3.5759 0.0000
vt 5.8086 2.9361 0.0000
vt 5.8076 4.2439 0.0000
vt 0.2350 7.0257 0.0000
vt 0.2350 5.1193 0.0000
vt 5.8049 0.0668 0.0000
vt 9.7726 0.0668 0.0000
vt 3.4447 3.5590 0.0000
vt 3.4447 1.7972 0.0000
vt 9.7762 1.7972 0.0000
vt 9.7770 3.5590 0.0000
vt 5.8076 0.0673 0.0000
vt 9.5266 7.0458 0.0000
vt 5.7227 7.0458 0.0000
vt 5.7253 5.1512 0.0000
vt 9.5266 5.1512 0.0000
# 171 texture coords

g BaseBlock003
usemtl 02___Default
s off
f 1/1/1 2/2/1 3/3/1 
f 4/4/2 5/5/2 6/6/2 
f 3/3/1 4/4/1 6/6/1 
f 6/6/2 7/7/2 8/8/2 
f 3/3/1 6/6/1 8/8/1 
f 8/8/2 9/9/2 10/10/2 
f 3/3/1 8/8/1 10/10/1 
f 1/1/1 3/3/1 10/10/1 
f 10/10/2 11/11/2 12/12/2 
f 1/1/2 10/10/2 12/12/2 
f 13/13/3 14/14/3 4/15/3 
f 4/15/3 3/16/3 13/13/3 
f 2/17/4 1/18/4 15/19/4 
f 15/19/4 16/20/4 2/17/4 
f 17/21/1 18/22/1 19/23/1 
f 20/24/1 17/21/1 19/23/1 
f 21/25/1 20/24/1 19/23/1 
f 19/23/1 22/26/1 23/27/1 
f 19/23/1 23/27/1 24/28/1 
f 19/23/1 24/28/1 25/29/1 
f 19/23/1 25/29/1 26/30/1 
f 21/25/1 19/23/1 26/30/1 
f 19/31/3 18/32/3 27/33/3 
f 27/33/3 28/34/3 19/31/3 
f 29/35/4 30/36/4 23/37/4 
f 23/37/4 22/38/4 29/35/4 
f 13/39/5 3/40/5 2/41/5 
f 2/41/5 16/42/5 13/39/5 
f 29/43/6 22/44/6 19/45/6 
f 19/45/6 28/46/6 29/43/6 
s 2
f 14/4/1 27/22/1 31/21/1 
f 14/4/1 31/21/1 32/47/1 
f 14/4/1 32/47/1 33/48/1 
f 14/4/1 33/48/1 34/5/1 
f 35/49/1 36/24/1 37/25/1 
f 38/50/1 35/49/1 37/25/1 
f 39/6/1 38/50/1 37/25/1 
f 39/6/1 37/25/1 40/51/1 
f 39/6/1 40/51/1 41/52/1 
f 39/6/1 41/52/1 42/7/1 
f 43/53/1 44/30/1 45/29/1 
f 46/54/1 43/53/1 45/29/1 
f 47/8/1 46/54/1 45/29/1 
f 47/8/1 45/29/1 48/55/1 
f 47/8/1 48/55/1 49/56/1 
f 47/8/1 49/56/1 50/9/1 
f 51/57/1 52/28/1 30/27/1 
f 53/58/1 51/57/1 30/27/1 
f 54/10/1 53/58/1 30/27/1 
f 54/10/1 30/27/1 55/59/1 
s 16
f 17/60/5 31/61/5 27/62/5 
f 27/62/5 18/63/5 17/60/5 
f 21/64/5 37/65/5 36/66/5 
f 36/66/5 20/67/5 21/64/5 
f 25/68/5 45/69/5 44/70/5 
f 44/70/5 26/71/5 25/68/5 
f 23/72/5 30/73/5 52/74/5 
f 52/74/5 24/75/5 23/72/5 
s 64
f 34/76/6 5/77/6 4/78/6 
f 4/78/6 14/79/6 34/76/6 
f 42/80/6 7/81/6 6/82/6 
f 6/82/6 39/83/6 42/80/6 
f 50/84/6 9/85/6 8/86/6 
f 8/86/6 47/87/6 50/84/6 
f 55/88/6 11/89/6 10/90/6 
f 10/90/6 54/91/6 55/88/6 
s 16
f 56/60/7 57/67/7 35/66/8 
f 35/66/8 32/61/8 56/60/7 
f 58/64/9 59/71/7 43/70/10 
f 43/70/10 40/65/11 58/64/9 
f 48/69/12 60/92/13 61/93/14 
f 61/93/14 51/74/15 48/69/12 
s 64
f 33/76/16 38/83/17 62/82/18 
f 62/82/18 63/77/19 33/76/16 
f 41/80/20 46/87/21 64/86/22 
f 64/86/22 65/81/23 41/80/20 
s off
f 35/94/24 57/95/24 20/96/24 
f 20/96/4 36/97/4 35/94/4 
f 56/95/25 32/98/25 31/97/25 
f 31/97/26 17/96/26 56/95/26 
f 57/99/27 56/100/27 17/21/27 
f 17/21/27 20/24/27 57/99/27 
f 43/101/28 59/95/28 26/96/28 
f 26/96/4 44/97/4 43/101/4 
f 58/95/25 40/102/25 37/97/25 
f 37/97/29 21/96/29 58/95/29 
f 59/103/27 58/104/27 21/25/27 
f 21/25/27 26/30/27 59/103/27 
f 66/105/30 61/106/30 67/107/30 
f 66/108/27 68/109/27 25/29/27 
f 25/29/27 24/28/27 66/108/27 
f 62/110/31 38/111/31 39/112/31 
f 39/112/32 6/113/32 62/110/32 
f 63/114/33 62/115/33 6/6/33 
f 6/6/33 5/5/33 63/114/33 
f 33/116/34 63/110/34 5/113/34 
f 5/113/3 34/112/3 33/116/3 
f 64/110/35 46/117/35 47/112/35 
f 47/112/36 8/113/36 64/110/36 
f 65/118/33 64/119/33 8/8/33 
f 8/8/33 7/7/33 65/118/33 
f 41/111/37 65/110/37 7/113/37 
f 7/113/38 42/112/38 41/111/38 
f 69/120/39 70/121/39 71/122/39 
f 72/123/33 70/124/33 10/10/33 
f 10/10/33 9/9/33 72/123/33 
f 72/121/40 73/120/40 74/122/40 
s 2
f 32/47/1 35/49/1 38/50/1 
f 38/50/1 33/48/1 32/47/1 
f 40/51/1 43/53/1 46/54/1 
f 46/54/1 41/52/1 40/51/1 
f 48/55/1 51/57/1 53/58/1 
f 53/58/1 49/56/1 48/55/1 
s 64
f 49/84/41 53/125/19 69/126/41 
f 69/126/41 73/127/41 49/84/41 
s off
f 68/109/1 66/108/1 70/124/1 
f 70/124/1 72/123/1 68/109/1 
f 75/128/42 76/129/42 70/121/42 
f 70/121/42 66/105/42 75/128/42 
f 75/130/43 77/131/43 78/131/43 
f 78/131/44 76/130/44 75/130/44 
f 68/105/45 72/121/45 78/129/45 
f 78/129/46 77/132/46 68/105/46 
f 79/133/47 67/134/47 80/135/47 
f 80/135/48 81/136/48 79/133/48 
f 82/137/49 74/138/49 71/139/49 
f 71/139/49 83/140/49 82/137/49 
f 82/141/40 72/121/40 74/122/40 
f 75/130/50 79/133/50 81/136/50 
f 81/136/51 77/131/51 75/130/51 
f 78/142/52 82/137/52 83/140/52 
f 83/140/52 76/143/52 78/142/52 
f 67/134/53 61/93/53 60/92/53 
f 60/92/54 80/135/54 67/134/54 
f 74/138/55 73/127/55 69/126/55 
f 69/126/55 71/139/55 74/138/55 
f 82/141/56 78/129/56 72/121/56 
f 72/121/57 9/144/57 50/145/57 
f 50/145/58 49/146/58 73/120/58 
f 72/121/59 50/145/59 73/120/59 
f 60/147/60 48/148/60 45/149/60 
f 68/105/61 60/147/61 45/149/61 
f 68/105/62 45/149/62 25/150/62 
f 68/105/46 77/132/46 81/151/46 
f 68/105/46 81/151/46 80/152/46 
f 68/105/61 80/152/61 60/147/61 
f 70/121/63 76/129/63 83/141/63 
f 70/121/63 83/141/63 71/122/63 
f 54/145/64 10/144/64 70/121/64 
f 53/146/63 54/145/63 70/121/63 
f 69/120/65 53/146/65 70/121/65 
f 79/153/42 75/128/42 66/105/42 
f 67/107/30 79/153/30 66/105/30 
f 24/150/4 52/149/4 51/154/4 
f 24/150/66 51/154/66 61/106/66 
f 66/105/67 24/150/67 61/106/67 
f 11/89/6 55/88/6 84/155/6 
f 84/155/6 12/156/6 11/89/6 
f 55/59/1 30/27/1 85/157/1 
f 85/157/1 84/158/1 55/59/1 
f 15/19/4 1/18/4 86/159/4 
f 86/159/4 87/160/4 15/19/4 
f 1/1/1 12/12/1 88/161/1 
f 88/161/1 86/162/1 1/1/1 
f 12/163/68 84/164/68 89/165/68 
f 89/165/68 88/166/68 12/163/68 
f 85/157/1 30/27/1 29/26/1 
f 29/26/1 89/167/1 85/157/1 
f 86/168/69 88/169/69 89/170/69 
f 89/170/70 87/171/70 86/168/70 
# 170 faces

