# Blender OBJ File: e:/downloads/t/snarf/box.blend
# www.blender.org
mtllib box.mtl
o Cube_Cube
v 1.000000 1.000000 -1.000000
v 1.000000 -1.000000 -1.000000
v -1.000000 -1.000000 -1.000000
v -1.000000 1.000000 -1.000000
v 1.000000 0.999999 1.000000
v 0.999999 -1.000001 1.000000
v -1.000000 -1.000000 1.000000
v -1.000000 1.000000 1.000000
vt 0.000000 1.000000 0.0
vt 0.000000 0.000000 0.0
vt 1.000000 0.000000 0.0
vt 1.000000 1.000000 0.0
vt 0.628906 0.585938 0.0
vt 0.623047 0.861328 0.0
vt 0.347656 0.855469 0.0
vt 0.353516 0.580078 0.0
vt 1.000000 0.423828 0.0
vt 0.683594 0.425781 0.0
vt 0.681641 0.109375 0.0
vt 0.998047 0.107422 0.0
vt 0.996094 0.904297 0.0
vt 0.644531 0.906250 0.0
vt 0.642578 0.554688 0.0
vt 0.994141 0.552734 0.0
vt 0.662109 0.468750 0.0
vt 0.326172 0.466797 0.0
vt 0.328125 0.130859 0.0
vt 0.664063 0.132813 0.0
vt 0.312500 0.380859 0.0
vt 0.037109 0.380859 0.0
vt 0.037109 0.105469 0.0
vt 0.312500 0.105469 0.0
vn -0.577349 -0.577349 0.577349
vn 0.577349 -0.577349 0.577349
vn 0.577349 0.577349 0.577349
vn -0.577349 0.577349 0.577349
vn -0.577349 -0.577349 -0.577349
vn -0.577349 0.577349 -0.577349
vn 0.577349 0.577349 -0.577349
vn 0.577349 -0.577349 -0.577349
vn -0.577349 -0.577349 0.577349
vn -0.577349 0.577349 0.577349
vn -0.577349 0.577349 -0.577349
vn -0.577349 -0.577349 -0.577349
vn -0.577349 0.577349 0.577349
vn 0.577349 0.577349 0.577349
vn 0.577349 0.577349 -0.577349
vn -0.577349 0.577349 -0.577349
vn 0.577349 0.577349 0.577349
vn 0.577349 -0.577349 0.577349
vn 0.577349 -0.577349 -0.577349
vn 0.577349 0.577349 -0.577349
vn 0.577349 -0.577349 0.577349
vn -0.577349 -0.577349 0.577349
vn -0.577349 -0.577349 -0.577349
vn 0.577349 -0.577349 -0.577349
usemtl Material
usemap player.jpg
f 1/1/1 4/2/2 3/3/3 2/4/4 
f 5/5/5 6/6/6 7/7/7 8/8/8 
f 1/9/9 2/10/10 6/11/11 5/12/12 
f 2/13/13 3/14/14 7/15/15 6/16/16 
f 3/17/17 4/18/18 8/19/19 7/20/20 
f 4/21/21 1/22/22 5/23/23 8/24/24 
