# 3ds Max Wavefront OBJ Exporter v0.97b - (c)2007 guruware
# File Created: 17.12.2012 20:13:03

mtllib irb_floor1.mtl

#
# object FloorBox
#

v  -507.0981 5.0000 507.8304
v  516.9019 5.0000 507.8304
v  516.9019 5.0000 -516.1697
v  -507.0981 5.0000 -516.1697
v  -507.0981 -295.0000 507.8304
v  516.9019 -295.0000 507.8304
v  516.9019 -295.0000 -516.1697
v  -507.0981 -295.0000 -516.1697
# 8 vertices

vn 0.0000 1.0000 -0.0000
vn 0.0000 0.0000 1.0000
vn 1.0000 0.0000 -0.0000
vn 0.0000 0.0000 -1.0000
vn -1.0000 0.0000 -0.0000
# 5 vertex normals

vt -8.0333 -8.0333 3.0253
vt 9.0333 -8.0333 3.0253
vt 9.0333 9.0333 3.0253
vt -8.0333 9.0333 3.0253
vt -8.0333 -2.0253 -8.0333
vt 9.0333 -2.0253 -8.0333
vt 9.0333 3.0253 -8.0333
vt -8.0333 3.0253 -8.0333
vt -8.0333 -2.0253 9.0333
vt 9.0333 -2.0253 9.0333
vt 9.0333 3.0253 9.0333
vt -8.0333 3.0253 9.0333
# 12 texture coords

g FloorBox
usemtl 07___Default
s 4
f 1/1/1 2/2/1 3/3/1 
f 3/3/1 4/4/1 1/1/1 
s 8
f 5/5/2 6/6/2 2/7/2 
f 2/7/2 1/8/2 5/5/2 
s 16
f 6/9/3 7/10/3 3/11/3 
f 3/11/3 2/12/3 6/9/3 
s 32
f 7/9/4 8/10/4 4/11/4 
f 4/11/4 3/12/4 7/9/4 
s 64
f 8/5/5 5/6/5 1/7/5 
f 1/7/5 4/8/5 8/5/5 
# 10 faces

