# file generated by UVMapper
# NumVerts/NumTVerts/NumVNormals/NumFacets   26/24/6/12
# NumGroups/NumMaterials/NumRegions   1/1/0
# x/y/color/ppu   512/512/0/50.00000000

v -0.50000000  0.50000000 -0.50000000
v -0.50000000 -0.50000000 -0.50000000
v -0.50000000  0.50000000  0.50000000
v -0.50000000 -0.50000000  0.50000000
v  0.50000000  0.50000000 -0.50000000
v  0.50000000 -0.50000000 -0.50000000
v  0.50000000  0.50000000  0.50000000
v  0.50000000 -0.50000000  0.50000000
v -0.50000000  0.50000000 -0.50000000
v -0.50000000  0.50000000  0.50000000
v -0.50000000 -0.50000000  0.50000000
v -0.50000000 -0.50000000 -0.50000000
v  0.50000000  0.50000000 -0.50000000
v  0.50000000 -0.50000000 -0.50000000
v  0.50000000 -0.50000000  0.50000000
v  0.50000000  0.50000000  0.50000000
v -0.50000000  0.50000000  0.50000000
v  0.50000000  0.50000000  0.50000000
v  0.50000000 -0.50000000  0.50000000
v -0.50000000 -0.50000000  0.50000000
v -0.50000000  0.50000000 -0.50000000
v -0.50000000 -0.50000000 -0.50000000
v  0.50000000 -0.50000000 -0.50000000
v  0.50000000  0.50000000 -0.50000000
v -0.50000000  0.50000000 -0.50000000
v  0.50000000  0.50000000  0.50000000

vt  0.48999998  0.97500002
vt  0.26499999  0.97500002
vt  0.26499999  0.67500001
vt  0.48999998  0.67500001
vt  0.48999998  0.32500002
vt  0.26499999  0.32500002
vt  0.48999998  0.02500000
vt  0.26499999  0.02500000
vt  0.24499999  0.35000002
vt  0.24499999  0.65000004
vt  0.02000000  0.35000002
vt  0.02000000  0.65000004
vt  0.50999999  0.35000002
vt  0.73500001  0.35000002
vt  0.73500001  0.65000004
vt  0.50999999  0.65000004
vt  0.48999998  0.35000002
vt  0.48999998  0.65000004
vt  0.26499999  0.65000004
vt  0.26499999  0.35000002
vt  0.75500000  0.35000002
vt  0.98000002  0.35000002
vt  0.75500000  0.65000004
vt  0.98000002  0.65000004

vn  0.00000000  1.00000000  0.00000000
vn  0.00000000 -1.00000000  0.00000000
vn -1.00000000  0.00000000  0.00000000
vn  1.00000000  0.00000000  0.00000000
vn  0.00000000  0.00000000  1.00000000
vn  0.00000000  0.00000000 -1.00000000

g mesh01
usemtl -- default --
s 1
f 7/4/1 5/1/1 1/2/1
f 3/3/1 26/4/1 25/2/1
f 8/5/2 4/6/2 2/8/2
f 6/7/2 8/5/2 2/8/2
f 11/9/3 10/10/3 9/12/3
f 12/11/3 11/9/3 9/12/3
f 15/13/4 14/14/4 13/15/4
f 16/16/4 15/13/4 13/15/4
f 19/17/5 18/18/5 17/19/5
f 20/20/5 19/17/5 17/19/5
f 23/21/6 22/22/6 21/24/6
f 24/23/6 23/21/6 21/24/6
