# 3ds Max Wavefront OBJ Exporter v0.97b - (c)2007 guruware
# File Created: 01.12.2012 15:08:46

mtllib irb_doorway_normal.mtl

#
# object Box001
#

v  -6.0000 0.0000 36.5599
v  6.0000 0.0000 36.5599
v  6.0000 0.0000 64.0000
v  -6.0000 0.0000 64.0000
v  6.0000 192.0000 64.0000
v  6.0000 192.0000 36.5599
v  -6.0000 192.0000 36.5599
v  -6.0000 192.0000 64.0000
v  6.0000 148.4975 64.0000
v  -6.0000 148.4975 64.0000
v  6.0000 119.3765 36.5599
v  6.0000 0.0000 -64.0000
v  6.0000 147.6485 -64.0000
v  6.0000 119.3765 -33.2277
v  6.0000 0.0000 -33.2277
v  6.0000 192.0000 -33.2277
v  -6.0000 192.0000 -33.2277
v  -6.0000 0.0000 -64.0000
v  -6.0000 0.0000 -33.2277
v  6.0000 192.0000 -64.0000
v  -6.0000 192.0000 -64.0000
v  9.6373 141.2885 7.0425
v  -9.6373 141.2885 7.0425
v  -9.6373 141.2885 -3.7103
v  9.6373 141.2885 -3.7103
v  9.6373 0.0455 29.3400
v  -9.6373 0.0455 29.3400
v  -9.6373 118.9801 29.3509
v  9.6373 118.9801 29.3509
v  -9.6373 118.9801 -26.0187
v  -9.6373 0.0455 -26.0077
v  9.6373 0.0455 -26.0077
v  9.6373 118.9801 -26.0187
v  -9.6373 140.3499 16.0873
v  9.6373 140.3499 16.0873
v  9.6373 140.3499 -12.7550
v  -9.6373 140.3499 -12.7550
v  6.0000 129.8601 35.3951
v  -6.0000 148.4975 -4.1067
v  -6.0000 147.3326 -14.5903
v  -9.6373 137.8580 22.0310
v  9.6373 137.8580 22.0310
v  -9.6373 133.9686 25.9204
v  9.6373 133.9686 25.9204
v  -9.6373 128.0248 28.4123
v  9.6373 128.0248 28.4123
v  9.6373 137.8580 -18.6988
v  -9.6373 137.8580 -18.6988
v  9.6373 133.9686 -22.5882
v  -9.6373 133.9686 -22.5882
v  9.6373 128.0248 -25.0801
v  -9.6373 128.0248 -25.0801
v  -6.0000 148.4975 7.4390
v  -9.6373 147.4857 -4.0507
v  -9.6373 147.4857 7.3829
v  -9.6373 146.3527 -14.3319
v  -6.0000 143.8381 -22.7441
v  -9.6373 142.9990 -22.1760
v  -6.0000 138.0139 -28.5683
v  -9.6373 137.4458 -27.7292
v  -6.0000 129.8601 -32.0628
v  -9.6373 129.6017 -31.0829
v  -6.0000 119.3765 -33.2277
v  -9.6373 119.3205 -32.2159
v  -9.6373 0.0454 -32.2142
v  9.6373 0.0454 -32.2142
v  9.6373 119.3205 -32.2159
v  6.0000 129.8601 -32.0628
v  9.6373 129.6017 -31.0829
v  6.0000 138.0139 -28.5683
v  9.6373 137.4458 -27.7292
v  6.0000 143.8381 -22.7441
v  9.6373 142.9990 -22.1760
v  6.0000 147.3326 -14.5903
v  9.6373 146.3527 -14.3319
v  6.0000 148.4975 -4.1067
v  9.6373 147.4857 -4.0507
v  6.0000 148.4975 7.4390
v  9.6373 147.4857 7.3829
v  6.0000 147.3326 17.9225
v  9.6373 146.3527 17.6642
v  6.0000 143.8381 26.0764
v  9.6373 142.9990 25.5083
v  6.0000 138.0139 31.9005
v  9.6373 137.4458 31.0614
v  9.6373 129.6017 34.4152
v  9.6373 119.3205 35.5481
v  9.6373 0.0454 35.5465
v  -9.6373 0.0454 35.5465
v  -6.0000 119.3765 36.5599
v  -9.6373 119.3205 35.5481
v  -6.0000 129.8601 35.3951
v  -9.6373 129.6017 34.4152
v  -6.0000 138.0139 31.9005
v  -9.6373 137.4458 31.0614
v  -6.0000 143.8381 26.0764
v  -9.6373 142.9990 25.5083
v  -6.0000 147.3326 17.9225
v  -9.6373 146.3527 17.6642
v  -6.0000 148.4975 -64.0000
# 100 vertices

vn 0.0000 -1.0000 -0.0000
vn 0.0000 1.0000 -0.0000
vn 0.0000 0.0000 1.0000
vn 1.0000 0.0000 -0.0000
vn 0.7071 0.0000 -0.7071
vn 0.0000 0.0001 -1.0000
vn 0.0000 0.0001 1.0000
vn 0.0000 -0.9947 -0.1032
vn 0.0000 -0.9947 0.1032
vn -1.0000 0.0000 -0.0000
vn 0.0000 -0.9222 -0.3866
vn 0.0000 -0.7071 -0.7071
vn 0.0000 -0.3866 -0.9222
vn 0.0000 -0.1032 -0.9947
vn 0.0000 -0.9222 0.3866
vn 0.0000 -0.7071 0.7071
vn 0.0000 -0.3866 0.9222
vn 0.0000 -0.1032 0.9947
vn -0.2680 0.9634 -0.0000
vn -0.2657 0.9582 -0.1065
vn -0.2680 0.9576 -0.1055
vn -0.2639 0.8866 -0.3800
vn -0.2657 0.8864 -0.3790
vn -0.2639 0.6820 -0.6820
vn -0.2657 0.3798 -0.8861
vn -0.2638 0.3792 -0.8869
vn -0.2680 0.1064 -0.9575
vn -0.2657 0.1056 -0.9583
vn -0.2684 0.0000 -0.9633
vn -0.2680 -0.0000 -0.9634
vn 0.0000 -0.9990 0.0448
vn 0.2680 0.0000 -0.9634
vn 0.2684 -0.0000 -0.9633
vn 0.2657 0.1065 -0.9582
vn 0.2680 0.1055 -0.9576
vn 0.2639 0.3800 -0.8866
vn 0.2657 0.3790 -0.8864
vn 0.2639 0.6820 -0.6820
vn 0.2657 0.8861 -0.3798
vn 0.2638 0.8869 -0.3792
vn 0.2680 0.9575 -0.1064
vn 0.2657 0.9583 -0.1056
vn 0.2680 0.9634 -0.0000
vn 0.2657 0.9582 0.1065
vn 0.2680 0.9576 0.1055
vn 0.2639 0.8866 0.3800
vn 0.2657 0.8864 0.3790
vn 0.2639 0.6820 0.6820
vn 0.2657 0.3798 0.8861
vn 0.2638 0.3792 0.8869
vn 0.2680 0.1064 0.9575
vn 0.2657 0.1056 0.9583
vn 0.2684 0.0000 0.9633
vn 0.2680 -0.0000 0.9634
vn 0.0000 -0.9990 -0.0448
vn -0.2680 0.0000 0.9634
vn -0.2684 -0.0000 0.9633
vn -0.2657 0.1065 0.9582
vn -0.2680 0.1055 0.9576
vn -0.2639 0.3800 0.8866
vn -0.2657 0.3790 0.8864
vn -0.2639 0.6820 0.6820
vn -0.2657 0.8861 0.3798
vn -0.2638 0.8869 0.3792
vn -0.2680 0.9575 0.1064
vn -0.2657 0.9583 0.1056
vn 0.0000 -1.0000 0.0000
vn 0.0000 0.0000 -1.0000
# 68 vertex normals

vt 0.5833 -0.0078 -0.8333
vt 0.4167 -0.0078 -0.8333
vt 0.4167 -0.3889 -0.8333
vt 0.5833 -0.3889 -0.8333
vt 0.5833 -0.3889 1.8333
vt 0.5833 -0.0078 1.8333
vt 0.4167 -0.0078 1.8333
vt 0.4167 -0.3889 1.8333
vt 0.5833 -0.8333 -0.3889
vt 0.5833 1.2291 -0.3889
vt 0.4167 1.2291 -0.3889
vt 0.4167 -0.8333 -0.3889
vt -0.3889 -0.8333 0.5833
vt -0.0078 -0.8333 0.5833
vt -0.0078 0.8247 0.5833
vt -0.3889 1.2291 0.5833
vt 1.3889 -0.8333 0.5833
vt 1.3889 1.2173 0.5833
vt 0.9615 0.8247 0.5833
vt 0.9615 -0.8333 0.5833
vt 0.5833 1.8333 -0.3889
vt 0.4167 1.8333 -0.3889
vt 0.5833 0.9615 1.8333
vt 0.4167 0.9615 1.8333
vt 0.5833 1.3889 -0.8333
vt 0.4167 1.3889 -0.8333
vt 0.4167 0.9615 -0.8333
vt 0.5833 0.9615 -0.8333
vt 0.5833 1.3889 1.8333
vt 0.4167 1.3889 1.8333
vt 0.3661 0.4022 1.1290
vt 0.6339 0.4022 1.1290
vt 0.6339 0.5515 1.1290
vt 0.3661 0.5515 1.1290
vt 0.3661 -0.8327 0.0925
vt 0.6339 -0.8327 0.0925
vt 0.6339 0.8192 0.0923
vt 0.3661 0.8192 0.0923
vt 0.3661 0.8192 0.8614
vt 0.3661 -0.8327 0.8612
vt 0.6339 -0.8327 0.8612
vt 0.6339 0.8192 0.8614
vt 0.6339 0.2766 1.1160
vt 0.3661 0.2766 1.1160
vt 0.3661 0.6772 1.1160
vt 0.6339 0.6772 1.1160
vt 0.0084 0.9703 0.5833
vt 0.4430 1.2291 0.4167
vt -0.3889 1.8333 0.4167
vt 0.2974 1.2130 0.4167
vt 0.6339 0.1940 1.0814
vt 0.3661 0.1940 1.0814
vt 0.6339 0.1400 1.0273
vt 0.3661 0.1400 1.0273
vt 0.6339 0.9448 0.1054
vt 0.6339 1.0273 0.1400
vt 0.3661 1.0273 0.1400
vt 0.3661 0.9448 0.1054
vt 0.3661 0.7597 1.0814
vt 0.6339 0.7597 1.0814
vt 0.3661 0.8137 1.0273
vt 0.6339 0.8137 1.0273
vt 0.6339 0.9448 0.8483
vt 0.6339 1.0273 0.8137
vt 0.3661 1.0273 0.8137
vt 0.3661 0.9448 0.8483
vt 0.4167 0.3967 1.2291
vt 0.4167 0.5570 1.2291
vt 0.3661 0.5563 1.2151
vt 0.3661 0.3975 1.2151
vt 0.4167 0.7026 1.2130
vt 0.3661 0.6991 1.1993
vt 0.4167 0.8159 1.1644
vt 0.3661 0.8080 1.1528
vt 0.5833 1.1644 0.8159
vt 0.5833 1.0835 0.8968
vt 0.6339 1.0756 0.8851
vt 0.6339 1.1528 0.8080
vt 0.5833 0.9703 0.9453
vt 0.6339 0.9667 0.9317
vt 0.5833 0.8247 0.9615
vt 0.6339 0.8239 0.9474
vt 0.5833 -0.8333 0.9615
vt 0.6339 -0.8327 0.9474
vt 0.3661 0.9474 -0.8327
vt 0.6339 0.9474 -0.8327
vt 0.4167 -0.8333 0.9615
vt 0.4167 0.8247 0.9615
vt 0.3661 0.8239 0.9474
vt 0.3661 -0.8327 0.9474
vt 0.4167 0.9703 0.9453
vt 0.3661 0.9667 0.9317
vt 0.4167 1.0835 0.8968
vt 0.3661 1.0756 0.8851
vt 0.4167 1.1644 0.8159
vt 0.3661 1.1528 0.8080
vt 0.5833 0.8159 1.1644
vt 0.5833 0.7026 1.2130
vt 0.6339 0.6991 1.1993
vt 0.6339 0.8080 1.1528
vt 0.5833 0.5570 1.2291
vt 0.6339 0.5563 1.2151
vt 0.5833 0.3967 1.2291
vt 0.6339 0.3975 1.2151
vt 0.5833 0.2511 1.2130
vt 0.6339 0.2547 1.1993
vt 0.5833 0.1378 1.1644
vt 0.6339 0.1457 1.1528
vt 0.5833 1.1644 0.1378
vt 0.5833 1.0835 0.0569
vt 0.6339 1.0756 0.0686
vt 0.6339 1.1528 0.1457
vt 0.5833 0.9703 0.0084
vt 0.6339 0.9667 0.0220
vt 0.5833 0.8247 -0.0078
vt 0.6339 0.8239 0.0063
vt 0.5833 -0.8333 -0.0078
vt 0.6339 -0.8327 0.0063
vt 0.6339 0.0063 -0.8327
vt 0.3661 0.0063 -0.8327
vt 0.4167 -0.8333 -0.0078
vt 0.4167 0.8247 -0.0078
vt 0.3661 0.8239 0.0063
vt 0.3661 -0.8327 0.0063
vt 0.4167 0.9703 0.0084
vt 0.3661 0.9667 0.0220
vt 0.4167 1.0835 0.0569
vt 0.3661 1.0756 0.0686
vt 0.4167 1.1644 0.1378
vt 0.3661 1.1528 0.1457
vt 0.4167 0.1378 1.1644
vt 0.4167 0.2511 1.2130
vt 0.3661 0.2547 1.1993
vt 0.3661 0.1457 1.1528
vt 0.6025 1.2151 0.3661
vt 0.4437 1.2151 0.3661
vt 0.4485 1.1290 0.3661
vt 0.5978 1.1290 0.3661
vt 0.3009 1.1993 0.3661
vt 0.3228 1.1160 0.3661
vt 0.1920 1.1528 0.3661
vt 0.2403 1.0814 0.3661
vt 0.1149 1.0756 0.3661
vt 0.1863 1.0273 0.3661
vt 0.0683 0.9667 0.3661
vt 0.1517 0.9448 0.3661
vt 0.0526 0.8239 0.3661
vt 0.1386 0.8192 0.3661
vt 0.0526 -0.8327 0.3661
vt 0.1388 -0.8327 0.3661
vt 0.3661 0.8612 -0.8327
vt 0.6339 0.8612 -0.8327
vt 0.9474 -0.8327 0.6339
vt 0.9474 0.8239 0.6339
vt 0.8614 0.8192 0.6339
vt 0.8612 -0.8327 0.6339
vt 0.9317 0.9667 0.6339
vt 0.8483 0.9448 0.6339
vt 0.8851 1.0756 0.6339
vt 0.8137 1.0273 0.6339
vt 0.8080 1.1528 0.6339
vt 0.7597 1.0814 0.6339
vt 0.6991 1.1993 0.6339
vt 0.6772 1.1160 0.6339
vt 0.5563 1.2151 0.6339
vt 0.5515 1.1290 0.6339
vt 0.3975 1.2151 0.6339
vt 0.4022 1.1290 0.6339
vt 0.2547 1.1993 0.6339
vt 0.2766 1.1160 0.6339
vt 0.1457 1.1528 0.6339
vt 0.1940 1.0814 0.6339
vt 0.0686 1.0756 0.6339
vt 0.1400 1.0273 0.6339
vt 0.0220 0.9667 0.6339
vt 0.1054 0.9448 0.6339
vt 0.0063 0.8239 0.6339
vt 0.0923 0.8192 0.6339
vt 0.0063 -0.8327 0.6339
vt 0.0925 -0.8327 0.6339
vt 0.6339 0.0925 -0.8327
vt 0.3661 0.0925 -0.8327
vt 0.9937 -0.8327 0.3661
vt 0.9937 0.8239 0.3661
vt 0.9077 0.8192 0.3661
vt 0.9075 -0.8327 0.3661
vt 0.9780 0.9667 0.3661
vt 0.8946 0.9448 0.3661
vt 0.9314 1.0756 0.3661
vt 0.8600 1.0273 0.3661
vt 0.8543 1.1528 0.3661
vt 0.8060 1.0814 0.3661
vt 0.7453 1.1993 0.3661
vt 0.7234 1.1160 0.3661
vt 0.0569 1.0835 0.5833
vt -0.3889 1.8333 0.5833
vt 0.1378 1.1644 0.5833
vt 0.2511 1.2130 0.5833
vt 0.3967 1.2291 0.5833
vt -0.0078 1.8333 0.5833
vt 0.5570 1.2291 0.5833
vt 0.9615 1.8333 0.5833
vt 1.3889 1.8333 0.5833
vt 0.7026 1.2130 0.5833
vt 0.8159 1.1644 0.5833
vt 0.8968 1.0835 0.5833
vt 0.6033 1.2291 0.4167
vt 1.3889 1.8333 0.4167
vt 1.0078 1.8333 0.4167
vt 0.0385 1.8333 0.4167
vt 0.7489 1.2130 0.4167
vt 0.8622 1.1644 0.4167
vt 0.9431 1.0835 0.4167
vt 1.3889 1.2291 0.4167
vt 0.1841 1.1644 0.4167
vt 0.1032 1.0835 0.4167
vt -0.3889 1.2291 0.4167
vt 0.9916 0.9703 0.4167
vt 1.0078 0.8247 0.4167
vt 1.0078 -0.8333 0.4167
vt 1.3889 -0.8333 0.4167
vt 0.0547 0.9703 0.4167
vt 0.0385 0.8247 0.4167
vt -0.3889 -0.8333 0.4167
vt 0.0385 -0.8333 0.4167
vt 0.4167 -0.8333 1.3889
vt 0.5833 -0.8333 1.3889
vt 0.5833 1.2291 1.3889
vt 0.4167 1.2173 1.3889
vt 0.5833 1.8333 1.3889
vt 0.4167 1.8333 1.3889
vt 0.9453 0.9703 0.5833
# 232 texture coords

g Box001
usemtl 01___Default
s 2
f 1/1/1 2/2/1 3/3/1 
f 3/3/1 4/4/1 1/1/1 
s 4
f 5/5/2 6/6/2 7/7/2 
f 7/7/2 8/8/2 5/5/2 
s 8
f 3/9/3 9/10/3 10/11/3 
f 10/11/3 4/12/3 3/9/3 
s 16
f 3/13/4 2/14/4 11/15/4 
f 11/15/4 9/16/4 9/16/4 
f 3/13/4 11/15/4 9/16/4 
s 48
f 12/17/5 13/18/5 14/19/4 
f 14/19/4 15/20/4 12/17/5 
s 8
f 5/21/3 8/22/3 10/11/3 
f 10/11/3 9/10/3 5/21/3 
s 4
f 16/23/2 17/24/2 7/7/2 
f 7/7/2 6/6/2 16/23/2 
s 2
f 18/25/1 12/26/1 15/27/1 
f 15/27/1 19/28/1 18/25/1 
s 4
f 20/29/2 21/30/2 17/24/2 
f 17/24/2 16/23/2 20/29/2 
s off
f 22/31/1 23/32/1 24/33/1 
f 24/33/1 25/34/1 22/31/1 
f 26/35/6 27/36/6 28/37/6 
f 28/37/6 29/38/6 26/35/6 
f 30/39/7 31/40/7 32/41/7 
f 32/41/7 33/42/7 30/39/7 
f 34/43/8 23/32/8 22/31/8 
f 22/31/8 35/44/8 34/43/8 
f 36/45/9 25/34/9 24/33/9 
f 24/33/9 37/46/9 36/45/9 
s 16
f 11/15/4 38/47/4 9/16/4 
s 64
f 39/48/10 21/49/10 40/50/10 
s off
f 41/51/11 34/43/11 35/44/11 
f 35/44/11 42/52/11 41/51/11 
f 43/53/12 41/51/12 42/52/12 
f 42/52/12 44/54/12 43/53/12 
f 45/55/13 43/56/13 44/57/13 
f 44/57/13 46/58/13 45/55/13 
f 28/37/14 45/55/14 46/58/14 
f 46/58/14 29/38/14 28/37/14 
f 47/59/15 36/45/15 37/46/15 
f 37/46/15 48/60/15 47/59/15 
f 49/61/16 47/59/16 48/60/16 
f 48/60/16 50/62/16 49/61/16 
f 51/63/17 49/64/17 50/65/17 
f 50/65/17 52/66/17 51/63/17 
f 33/42/18 51/63/18 52/66/18 
f 52/66/18 30/39/18 33/42/18 
f 53/67/19 39/68/19 54/69/19 
f 54/69/19 55/70/19 53/67/19 
f 39/68/20 40/71/20 56/72/20 
f 56/72/21 54/69/21 39/68/21 
f 40/71/22 57/73/22 58/74/22 
f 58/74/23 56/72/23 40/71/23 
f 57/75/24 59/76/24 60/77/24 
f 60/77/24 58/78/24 57/75/24 
f 59/76/25 61/79/25 62/80/25 
f 62/80/26 60/77/26 59/76/26 
f 61/79/27 63/81/27 64/82/27 
f 64/82/28 62/80/28 61/79/28 
f 63/81/29 19/83/29 65/84/29 
f 65/84/30 64/82/30 63/81/30 
f 19/28/31 15/27/31 66/85/31 
f 66/85/31 65/86/31 19/28/31 
f 15/87/32 14/88/32 67/89/32 
f 67/89/33 66/90/33 15/87/33 
f 14/88/34 68/91/34 69/92/34 
f 69/92/35 67/89/35 14/88/35 
f 68/91/36 70/93/36 71/94/36 
f 71/94/37 69/92/37 68/91/37 
f 70/93/38 72/95/38 73/96/38 
f 73/96/38 71/94/38 70/93/38 
f 72/97/39 74/98/39 75/99/39 
f 75/99/40 73/100/40 72/97/40 
f 74/98/41 76/101/41 77/102/41 
f 77/102/42 75/99/42 74/98/42 
f 76/101/43 78/103/43 79/104/43 
f 79/104/43 77/102/43 76/101/43 
f 78/103/44 80/105/44 81/106/44 
f 81/106/45 79/104/45 78/103/45 
f 80/105/46 82/107/46 83/108/46 
f 83/108/47 81/106/47 80/105/47 
f 82/109/48 84/110/48 85/111/48 
f 85/111/48 83/112/48 82/109/48 
f 84/110/49 38/113/49 86/114/49 
f 86/114/50 85/111/50 84/110/50 
f 38/113/51 11/115/51 87/116/51 
f 87/116/52 86/114/52 38/113/52 
f 11/115/53 2/117/53 88/118/53 
f 88/118/54 87/116/54 11/115/54 
f 2/2/55 1/1/55 89/119/55 
f 89/119/55 88/120/55 2/2/55 
f 1/121/56 90/122/56 91/123/56 
f 91/123/57 89/124/57 1/121/57 
f 90/122/58 92/125/58 93/126/58 
f 93/126/59 91/123/59 90/122/59 
f 92/125/60 94/127/60 95/128/60 
f 95/128/61 93/126/61 92/125/61 
f 94/127/62 96/129/62 97/130/62 
f 97/130/62 95/128/62 94/127/62 
f 96/131/63 98/132/63 99/133/63 
f 99/133/64 97/134/64 96/131/64 
f 98/132/65 53/67/65 55/70/65 
f 55/70/66 99/133/66 98/132/66 
f 55/135/10 54/136/10 24/137/10 
f 24/137/10 23/138/10 55/135/10 
f 54/136/10 56/139/10 37/140/10 
f 37/140/10 24/137/10 54/136/10 
f 56/139/10 58/141/10 48/142/10 
f 48/142/10 37/140/10 56/139/10 
f 58/141/10 60/143/10 50/144/10 
f 50/144/10 48/142/10 58/141/10 
f 60/143/10 62/145/10 52/146/10 
f 52/146/10 50/144/10 60/143/10 
f 62/145/10 64/147/10 30/148/10 
f 30/148/10 52/146/10 62/145/10 
f 64/147/10 65/149/10 31/150/10 
f 31/150/10 30/148/10 64/147/10 
f 65/86/67 66/85/67 32/151/67 
f 32/151/67 31/152/67 65/86/67 
f 66/153/4 67/154/4 33/155/4 
f 33/155/4 32/156/4 66/153/4 
f 67/154/4 69/157/4 51/158/4 
f 51/158/4 33/155/4 67/154/4 
f 69/157/4 71/159/4 49/160/4 
f 49/160/4 51/158/4 69/157/4 
f 71/159/4 73/161/4 47/162/4 
f 47/162/4 49/160/4 71/159/4 
f 73/161/4 75/163/4 36/164/4 
f 36/164/4 47/162/4 73/161/4 
f 75/163/4 77/165/4 25/166/4 
f 25/166/4 36/164/4 75/163/4 
f 77/165/4 79/167/4 22/168/4 
f 22/168/4 25/166/4 77/165/4 
f 79/167/4 81/169/4 35/170/4 
f 35/170/4 22/168/4 79/167/4 
f 81/169/4 83/171/4 42/172/4 
f 42/172/4 35/170/4 81/169/4 
f 83/171/4 85/173/4 44/174/4 
f 44/174/4 42/172/4 83/171/4 
f 85/173/4 86/175/4 46/176/4 
f 46/176/4 44/174/4 85/173/4 
f 86/175/4 87/177/4 29/178/4 
f 29/178/4 46/176/4 86/175/4 
f 87/177/4 88/179/4 26/180/4 
f 26/180/4 29/178/4 87/177/4 
f 88/120/1 89/119/1 27/181/1 
f 27/181/1 26/182/1 88/120/1 
f 89/183/10 91/184/10 28/185/10 
f 28/185/10 27/186/10 89/183/10 
f 91/184/10 93/187/10 45/188/10 
f 45/188/10 28/185/10 91/184/10 
f 93/187/10 95/189/10 43/190/10 
f 43/190/10 45/188/10 93/187/10 
f 95/189/10 97/191/10 41/192/10 
f 41/192/10 43/190/10 95/189/10 
f 97/191/10 99/193/10 34/194/10 
f 34/194/10 41/192/10 97/191/10 
f 99/193/10 55/135/10 23/138/10 
f 23/138/10 34/194/10 99/193/10 
s 16
f 9/16/4 38/47/4 84/195/4 
f 5/196/4 9/16/4 9/16/4 
f 9/16/4 84/195/4 5/196/4 
f 5/196/4 84/195/4 82/197/4 
f 5/196/4 82/197/4 80/198/4 
f 5/196/4 80/198/4 78/199/4 
f 6/200/4 5/196/4 78/199/4 
f 6/200/4 78/199/4 76/201/4 
f 76/201/4 16/202/4 6/200/4 
f 20/203/5 16/202/4 76/201/4 
f 20/203/5 76/201/4 74/204/4 
f 20/203/5 74/204/4 72/205/4 
f 20/203/5 72/205/4 70/206/4 
s 64
f 53/207/10 8/208/10 7/209/10 
f 53/207/10 7/209/10 17/210/10 
f 17/210/10 39/48/10 53/207/10 
f 53/207/10 98/211/10 8/208/10 
f 39/48/10 17/210/10 21/49/10 
f 98/211/10 96/212/10 8/208/10 
f 96/212/10 94/213/10 8/208/10 
f 94/213/10 10/214/10 8/208/10 
f 21/49/10 57/215/10 40/50/10 
f 21/49/10 59/216/10 57/215/10 
f 21/49/10 100/217/10 59/216/10 
f 94/213/10 92/218/10 10/214/10 
f 92/218/10 90/219/10 10/214/10 
f 90/219/10 1/220/10 4/221/10 
f 4/221/10 10/214/10 90/219/10 
f 100/217/10 61/222/10 59/216/10 
f 100/217/10 63/223/10 61/222/10 
f 100/217/10 18/224/10 19/225/10 
f 19/225/10 63/223/10 100/217/10 
s 48
f 12/226/5 18/227/68 100/228/68 
f 100/228/68 13/229/5 12/226/5 
f 13/18/5 20/203/5 70/206/4 
f 100/228/68 21/230/68 20/231/5 
f 20/231/5 13/229/5 100/228/68 
f 13/18/5 70/206/4 68/232/4 
f 13/18/5 68/232/4 14/19/4 
# 198 faces

